<svg width="18" height="18" viewBox="0 0 18 18" fill="none" xmlns="http://www.w3.org/2000/svg">
<path d="M6.41695 6.41702V3.88925C6.41695 2.87798 6.41695 2.37197 6.61376 1.98571C6.78687 1.64595 7.0629 1.36992 7.40265 1.19681C7.7889 1 8.29491 1 9.30617 1H14.362C15.3732 1 15.8786 1 16.2649 1.19681C16.6046 1.36992 16.8811 1.64595 17.0542 1.98571C17.251 2.37197 17.251 2.8776 17.251 3.88887V8.94478C17.251 9.95605 17.251 10.4617 17.0542 10.8479C16.8811 11.1877 16.6044 11.4643 16.2646 11.6374C15.8787 11.834 15.3739 11.834 14.3646 11.834H11.8339M6.41695 6.41702H3.88922C2.87796 6.41702 2.37195 6.41702 1.9857 6.61382C1.64595 6.78694 1.36992 7.06297 1.1968 7.40273C1 7.78898 1 8.295 1 9.30627V14.3621C1 15.3734 1 15.8788 1.1968 16.265C1.36992 16.6048 1.64595 16.8813 1.9857 17.0544C2.37157 17.251 2.87697 17.251 3.88625 17.251H8.94807C9.95735 17.251 10.462 17.251 10.8479 17.0544C11.1877 16.8813 11.4642 16.6045 11.6373 16.2648C11.8339 15.8789 11.8339 15.3741 11.8339 14.3648V11.834M6.41695 6.41702H8.94504C9.9563 6.41702 10.4617 6.41702 10.8479 6.61382C11.1877 6.78694 11.4642 7.06297 11.6373 7.40273C11.8339 7.78861 11.8339 8.29402 11.8339 9.30333L11.8339 11.834" stroke="#707070" stroke-linecap="round" stroke-linejoin="round"/>
</svg>
