<svg width="80" height="74" viewBox="0 0 80 74" fill="none" xmlns="http://www.w3.org/2000/svg">
<path d="M51.5615 0C55.0276 0.000138041 58.0683 2.24272 59.1309 5.5791L79.9229 70.9688C80.0796 71.4671 79.9965 71.9977 79.6895 72.4219C79.3856 72.8424 78.9146 73.0858 78.3965 73.0859H65.2061C61.7365 73.0859 58.6954 70.8426 57.6357 67.5059L47.4414 35.4375C46.3788 32.0947 43.332 29.8488 39.8594 29.8486H31.4922C26.5665 29.8488 22.2428 33.0364 20.7354 37.7773C19.6182 41.292 20.2135 45.0198 22.3643 48.0039C24.5149 50.9846 27.8402 52.6962 31.4922 52.6963H35.25C38.7163 52.6963 41.7566 54.9393 42.8193 58.2754L46.8564 70.9717C47.0133 71.4701 46.9299 71.998 46.626 72.4219C46.3188 72.8428 45.8477 73.085 45.3291 73.085H31.4922C21.3237 73.0848 12.0572 68.3216 6.06543 60.0107C0.0770885 51.7035 -1.57106 41.3242 1.54004 31.5342C5.7394 18.3304 17.7773 9.46013 31.4922 9.45996H39.1836L36.8477 2.11621C36.6909 1.61795 36.7739 1.0876 37.0811 0.666992C37.3853 0.24293 37.8555 0.00010731 38.374 0H51.5615Z" fill="#A3A3A3"/>
</svg>
