<svg width="93" height="18" viewBox="0 0 93 18" fill="none" xmlns="http://www.w3.org/2000/svg">
<path d="M12.6982 0C13.5519 0 14.3018 0.552261 14.5635 1.37402L19.6836 17.4785C19.7222 17.6013 19.7016 17.7324 19.626 17.8369C19.5511 17.9403 19.4351 18 19.3076 18H16.0596C15.2051 18 14.4553 17.4478 14.1943 16.626L11.6846 8.72754C11.4228 7.90426 10.6717 7.35156 9.81641 7.35156H7.75586C6.54286 7.35165 5.47777 8.13625 5.10645 9.30371C4.83131 10.1693 4.9781 11.0883 5.50781 11.8232C6.03748 12.5571 6.85659 12.9785 7.75586 12.9785H8.68164C9.53533 12.9786 10.2842 13.5309 10.5459 14.3525L11.54 17.4795C11.5786 17.6022 11.5582 17.7325 11.4834 17.8369C11.4078 17.9404 11.2916 17.9999 11.1641 18H7.75586C5.25173 17.9999 2.96982 16.8268 1.49414 14.7803C0.0193185 12.7344 -0.387246 10.1777 0.378906 7.7666C1.41313 4.51471 4.37808 2.33017 7.75586 2.33008H9.65039L9.0752 0.521484C9.03656 0.398747 9.05715 0.267673 9.13281 0.164062C9.20777 0.0597869 9.32357 0 9.45117 0H12.6982ZM21.1621 0C22.0166 0 22.7657 0.552446 23.0273 1.375L26.4932 12.2764C26.557 12.4779 26.6772 12.6442 26.834 12.7598C26.9908 12.8752 27.1841 12.9403 27.3936 12.9404C27.8121 12.9404 28.1664 12.6796 28.2949 12.2764L31.7607 1.375C32.0215 0.552592 32.7715 0.000195963 33.625 0H36.873C37.0007 0 37.1167 0.05969 37.1924 0.164062C37.2673 0.268465 37.2877 0.398747 37.249 0.521484L33.0068 13.8633C32.2201 16.3381 29.9641 18 27.3936 18C24.8231 17.9998 22.5669 16.3381 21.7803 13.8633L17.5391 0.521484C17.5004 0.398747 17.5208 0.268465 17.5957 0.164062C17.6706 0.0597587 17.7872 0 17.9141 0H21.1621ZM46.9785 0C48.3404 0 49.5826 0.21886 50.7041 0.65625C51.8415 1.09365 52.827 1.71737 53.6602 2.52734C54.493 3.321 55.1418 4.25234 55.6064 5.32129C56.0871 6.39049 56.3281 7.5659 56.3281 8.8457C56.3281 10.1252 56.087 11.3074 55.6064 12.3926C55.1418 13.4618 54.4933 14.3937 53.6602 15.1875C52.827 15.9813 51.8416 16.5968 50.7041 17.0342C49.5826 17.4715 48.3404 17.6904 46.9785 17.6904C45.6328 17.6904 44.3913 17.4714 43.2539 17.0342C42.1164 16.5968 41.1226 15.9813 40.2734 15.1875C39.4405 14.3776 38.7917 13.438 38.3271 12.3691C37.8626 11.3001 37.6299 10.1253 37.6299 8.8457C37.6299 7.5659 37.8625 6.39049 38.3271 5.32129C38.7917 4.25235 39.4405 3.321 40.2734 2.52734C41.1226 1.71735 42.1163 1.09365 43.2539 0.65625C44.3913 0.218908 45.6328 4.92077e-05 46.9785 0ZM67.6885 0C69.2424 2.74748e-05 70.6282 0.275476 71.8457 0.826172C72.8151 1.25899 73.656 1.84231 74.3682 2.5752C74.6975 2.91416 74.6502 3.45564 74.3018 3.77441L72.5752 5.35547C72.2026 5.69618 71.6299 5.65059 71.2559 5.31152C70.8897 4.97955 70.5016 4.70734 70.0918 4.49512C69.451 4.15494 68.7298 3.98537 67.9287 3.98535C67.2399 3.98535 66.607 4.09849 66.0303 4.3252C65.4536 4.55195 64.9566 4.88402 64.54 5.32129C64.1395 5.74243 63.8194 6.25325 63.5791 6.85254C63.3548 7.45194 63.2422 8.11671 63.2422 8.8457C63.2422 9.57449 63.3548 10.2386 63.5791 10.8379C63.8194 11.4371 64.1396 11.9553 64.54 12.3926C64.9566 12.8138 65.4535 13.1384 66.0303 13.3652C66.607 13.5919 67.2399 13.7051 67.9287 13.7051C68.7298 13.7051 69.451 13.5355 70.0918 13.1953C70.5016 12.9831 70.8897 12.7109 71.2559 12.3789C71.6299 12.0398 72.2026 11.9951 72.5752 12.3359L74.2979 13.9111C74.6481 14.2318 74.6927 14.7776 74.3594 15.1162C73.6491 15.8377 72.8111 16.4206 71.8457 16.8643C70.6281 17.415 69.2424 17.6904 67.6885 17.6904C66.3587 17.6904 65.1248 17.4798 63.9873 17.0586C62.8658 16.6212 61.8878 16.0057 61.0547 15.2119C60.2377 14.4182 59.5974 13.4861 59.1328 12.417C58.6683 11.3318 58.4356 10.1414 58.4355 8.8457C58.4355 7.5498 58.6682 6.36699 59.1328 5.29785C59.5974 4.21254 60.2377 3.27227 61.0547 2.47852C61.8878 1.68472 62.8658 1.07745 63.9873 0.65625C65.1248 0.218869 66.3587 0 67.6885 0ZM80.6709 0.339844C80.9625 0.339997 81.2352 0.485262 81.4014 0.727539L83.7715 4.18066C84.1274 4.6994 84.8869 4.69586 85.2383 4.17383L87.5527 0.734375C87.7184 0.488101 87.9935 0.33996 88.2881 0.339844H91.2217C91.9471 0.339844 92.3679 1.17131 91.9434 1.7666L87.4785 8.03223C87.255 8.34591 87.2547 8.76895 87.4775 9.08301L92.334 15.9258C92.7563 16.5212 92.3354 17.3502 91.6113 17.3506H88.3408C88.044 17.3506 87.7659 17.2006 87.6006 16.9512L85.1221 13.2119C84.7679 12.6779 83.9899 12.681 83.6396 13.2178L81.208 16.9463C81.0433 17.1986 80.7639 17.3506 80.4648 17.3506H77.25C76.5246 17.3504 76.1045 16.5201 76.5283 15.9248L81.2754 9.25781C81.4971 8.94614 81.4984 8.52648 81.2793 8.21289L76.7686 1.75977C76.352 1.16365 76.7742 0.339844 77.4961 0.339844H80.6709ZM46.9785 3.98535C46.3379 3.9854 45.7373 4.09854 45.1768 4.3252C44.6321 4.55197 44.1509 4.88397 43.7344 5.32129C43.3339 5.74245 43.0138 6.25322 42.7734 6.85254C42.5491 7.43573 42.4365 8.10051 42.4365 8.8457C42.4366 9.57449 42.5492 10.2386 42.7734 10.8379C43.0137 11.4371 43.334 11.9553 43.7344 12.3926C44.1509 12.8138 44.632 13.1384 45.1768 13.3652C45.7373 13.5919 46.3379 13.705 46.9785 13.7051C47.6194 13.7051 48.2131 13.592 48.7578 13.3652C49.3184 13.1384 49.7987 12.8137 50.1992 12.3926C50.6157 11.9552 50.9368 11.4372 51.1611 10.8379C51.4013 10.2386 51.5214 9.57447 51.5215 8.8457C51.5215 8.10053 51.4014 7.43573 51.1611 6.85254C50.9368 6.25314 50.6158 5.74249 50.1992 5.32129C49.7988 4.88411 49.3183 4.55194 48.7578 4.3252C48.2131 4.0984 47.6194 3.98535 46.9785 3.98535Z" fill="#E8E8E8"/>
</svg>
