<svg width="139" height="26" viewBox="0 0 139 26" fill="none" xmlns="http://www.w3.org/2000/svg">
<path d="M3.52998 8.775C2.72998 8.775 2.13831 8.7 1.75498 8.55C1.38831 8.38333 1.14665 8.19167 1.02998 7.975C0.929981 7.74167 0.879981 7.53333 0.879981 7.35C0.879981 7.11667 1.01331 6.85 1.27998 6.55C1.54665 6.23333 2.06331 6 2.82998 5.85C3.59665 5.68333 4.50498 5.53333 5.55498 5.4C6.60498 5.25 7.72165 5.125 8.90498 5.025C10.0883 4.90833 11.2883 4.80833 12.505 4.725C13.7216 4.64167 14.88 4.58333 15.98 4.55C17.08 4.5 18.055 4.475 18.905 4.475C19.7883 4.475 20.4716 4.525 20.955 4.625C21.4383 4.725 21.78 4.85 21.98 5C22.1966 5.15 22.3216 5.30833 22.355 5.475C22.405 5.64167 22.43 5.8 22.43 5.95C22.43 5.98333 22.43 6.00833 22.43 6.025C22.43 6.225 22.38 6.44167 22.28 6.675C22.1966 6.90833 22.005 7.10833 21.705 7.275C21.405 7.425 20.955 7.5 20.355 7.5C20.1383 7.5 19.655 7.53333 18.905 7.6C18.155 7.66667 17.2383 7.75 16.155 7.85C15.0716 7.95 13.9216 8.05 12.705 8.15C12.5216 8.9 12.3133 9.775 12.08 10.775C11.8633 11.775 11.6383 12.825 11.405 13.925C11.1883 15.025 10.98 16.1083 10.78 17.175C10.58 18.225 10.4133 19.2 10.28 20.1C10.1466 20.9833 10.055 21.7083 10.005 22.275C9.93831 23.0417 9.71331 23.5833 9.32998 23.9C8.96331 24.2 8.59665 24.35 8.22998 24.35C7.96331 24.35 7.69665 24.2917 7.42998 24.175C7.16331 24.075 6.94665 23.85 6.77998 23.5C6.61331 23.1333 6.52998 22.5917 6.52998 21.875C6.52998 21.1417 6.59665 20.2417 6.72998 19.175C6.86331 18.0917 7.03831 16.9333 7.25498 15.7C7.48831 14.4667 7.74665 13.225 8.02998 11.975C8.32998 10.725 8.63831 9.55833 8.95498 8.475C7.83831 8.55833 6.80498 8.63333 5.85498 8.7C4.90498 8.75 4.12998 8.775 3.52998 8.775ZM22.0327 25.95C21.266 25.95 20.716 25.7333 20.3827 25.3C20.0494 24.8667 19.8827 24.2333 19.8827 23.4C19.8827 22.6333 20.0244 21.6333 20.3077 20.4C20.6077 19.15 20.9994 17.7583 21.4827 16.225C21.9827 14.675 22.541 13.0833 23.1577 11.45C23.7744 9.8 24.416 8.18333 25.0827 6.6C25.7494 5 26.3994 3.53333 27.0327 2.2C27.3327 1.61667 27.6494 1.21667 27.9827 1C28.316 0.783333 28.6827 0.674999 29.0827 0.674999C29.466 0.674999 29.791 0.783333 30.0577 1C30.3244 1.2 30.4577 1.525 30.4577 1.975C30.4577 2.075 30.3244 2.45833 30.0577 3.125C29.791 3.775 29.441 4.625 29.0077 5.675C28.5744 6.70833 28.0994 7.875 27.5827 9.175C27.066 10.4583 26.5494 11.8 26.0327 13.2C25.516 14.5833 25.0494 15.95 24.6327 17.3C24.216 18.65 23.8827 19.9 23.6327 21.05C24.216 20.2667 24.841 19.4 25.5077 18.45C26.191 17.4833 26.8827 16.525 27.5827 15.575C28.2994 14.6083 28.9994 13.725 29.6827 12.925C30.3827 12.125 31.0327 11.4833 31.6327 11C32.2327 10.5167 32.7577 10.275 33.2077 10.275C34.041 10.275 34.7077 10.5083 35.2077 10.975C35.7244 11.425 35.9827 12.2083 35.9827 13.325C35.9827 13.8417 35.8827 14.4667 35.6827 15.2C35.4827 15.9167 35.241 16.675 34.9577 17.475C34.691 18.2583 34.4577 19.0167 34.2577 19.75C34.0577 20.4833 33.9577 21.125 33.9577 21.675C33.9577 21.975 34.0994 22.125 34.3827 22.125C35.1994 22.125 36.0244 21.95 36.8577 21.6C37.7077 21.25 38.516 20.8167 39.2827 20.3C40.066 19.7667 40.7744 19.2417 41.4077 18.725C42.0577 18.1917 42.5827 17.75 42.9827 17.4C43.266 17.1333 43.5244 16.9583 43.7577 16.875C43.991 16.775 44.2077 16.725 44.4077 16.725C45.0911 16.725 45.4327 17.0667 45.4327 17.75C45.4327 17.8833 45.4077 18.05 45.3577 18.25C45.3077 18.4333 45.1494 18.6667 44.8827 18.95C44.616 19.2333 44.216 19.6333 43.6827 20.15C43.1494 20.6667 42.5244 21.2167 41.8077 21.8C41.1077 22.3833 40.341 22.9417 39.5077 23.475C38.691 23.9917 37.8494 24.4167 36.9827 24.75C36.116 25.0833 35.2744 25.25 34.4577 25.25C33.2244 25.25 32.2744 24.9 31.6077 24.2C30.941 23.5167 30.6077 22.5833 30.6077 21.4C30.6077 20.5833 30.7744 19.5583 31.1077 18.325C31.441 17.075 31.816 15.8 32.2327 14.5C31.6494 15.0667 31.041 15.7417 30.4077 16.525C29.7744 17.2917 29.1327 18.1083 28.4827 18.975C27.8327 19.825 27.191 20.6667 26.5577 21.5C25.941 22.3167 25.3494 23.0667 24.7827 23.75C24.216 24.4167 23.6994 24.95 23.2327 25.35C22.766 25.75 22.366 25.95 22.0327 25.95ZM61.903 12.7C62.3364 13.6167 62.7697 14.5833 63.203 15.6C63.6364 16.6167 63.9947 17.6083 64.278 18.575C64.578 19.525 64.728 20.3833 64.728 21.15C64.728 22.05 64.4947 22.8 64.028 23.4C63.578 23.9833 62.9947 24.4417 62.278 24.775C61.5614 25.125 60.803 25.3667 60.003 25.5C59.203 25.6333 58.4614 25.7 57.778 25.7C57.278 25.7 56.8614 25.5917 56.528 25.375C56.2114 25.175 56.053 24.8417 56.053 24.375C56.053 23.975 56.1947 23.6917 56.478 23.525C56.7614 23.3417 57.1197 23.2167 57.553 23.15C57.8864 23.1 58.2864 23.0333 58.753 22.95C59.2364 22.8667 59.7114 22.7417 60.178 22.575C60.6447 22.4083 61.028 22.2 61.328 21.95C61.6447 21.6833 61.803 21.35 61.803 20.95C61.803 20.0833 61.6114 19.2 61.228 18.3C60.8447 17.3833 60.4364 16.45 60.003 15.5C59.1864 16.65 58.2364 17.7917 57.153 18.925C56.0864 20.0417 54.9614 21.0583 53.778 21.975C52.6114 22.875 51.453 23.5917 50.303 24.125C49.1697 24.675 48.1364 24.95 47.203 24.95C45.8697 24.95 44.7697 24.5083 43.903 23.625C43.053 22.7417 42.628 21.375 42.628 19.525C42.628 18.4583 42.753 17.4 43.003 16.35C43.253 15.2833 43.5614 14.3167 43.928 13.45C44.3114 12.5833 44.703 11.8917 45.103 11.375C45.503 10.8583 45.8614 10.6 46.178 10.6C46.5114 10.6 46.803 10.7 47.053 10.9C47.3197 11.1 47.453 11.4417 47.453 11.925C47.453 12.125 47.3697 12.5 47.203 13.05C47.053 13.6 46.8697 14.25 46.653 15C46.453 15.75 46.2697 16.5333 46.103 17.35C45.953 18.1667 45.878 18.925 45.878 19.625C45.878 20.3417 45.9947 20.9 46.228 21.3C46.478 21.7 46.853 21.9 47.353 21.9C48.0197 21.9 48.778 21.7 49.628 21.3C50.478 20.9 51.353 20.3667 52.253 19.7C53.1697 19.0333 54.053 18.2917 54.903 17.475C55.7697 16.6583 56.5447 15.8167 57.228 14.95C57.928 14.0833 58.478 13.2667 58.878 12.5C58.778 12.1333 58.6947 11.7667 58.628 11.4C58.578 11.0333 58.553 10.6583 58.553 10.275C58.553 9.35833 58.728 8.60833 59.078 8.025C59.428 7.425 60.0114 7.125 60.828 7.125C61.5614 7.125 62.1114 7.36667 62.478 7.85C62.8447 8.33333 63.028 8.96667 63.028 9.75C63.028 10.1833 62.9197 10.65 62.703 11.15C62.503 11.6333 62.2364 12.15 61.903 12.7ZM47.078 8.225C46.428 8.225 45.928 8.05833 45.578 7.725C45.2447 7.39167 45.078 6.94167 45.078 6.375C45.078 5.74167 45.303 5.23333 45.753 4.85C46.203 4.45 46.7197 4.25 47.303 4.25C47.953 4.25 48.4697 4.425 48.853 4.775C49.2364 5.125 49.428 5.625 49.428 6.275C49.428 6.55833 49.3197 6.85833 49.103 7.175C48.903 7.475 48.628 7.725 48.278 7.925C47.928 8.125 47.528 8.225 47.078 8.225ZM98.7194 12.7C99.1528 13.6167 99.5861 14.5833 100.019 15.6C100.453 16.6167 100.811 17.6083 101.094 18.575C101.394 19.525 101.544 20.3833 101.544 21.15C101.544 22.05 101.311 22.8 100.844 23.4C100.394 23.9833 99.8111 24.4417 99.0944 24.775C98.3778 25.125 97.6194 25.3667 96.8194 25.5C96.0194 25.6333 95.2778 25.7 94.5944 25.7C94.0944 25.7 93.6778 25.5917 93.3444 25.375C93.0278 25.175 92.8694 24.8417 92.8694 24.375C92.8694 23.975 93.0111 23.6917 93.2944 23.525C93.5778 23.3417 93.9361 23.2167 94.3694 23.15C94.7028 23.1 95.1028 23.0333 95.5694 22.95C96.0528 22.8667 96.5278 22.7417 96.9944 22.575C97.4611 22.4083 97.8444 22.2 98.1444 21.95C98.4611 21.6833 98.6194 21.35 98.6194 20.95C98.6194 20.0833 98.4278 19.2 98.0444 18.3C97.6611 17.3833 97.2528 16.45 96.8194 15.5C96.0028 16.65 95.0528 17.7917 93.9694 18.925C92.9028 20.0417 91.7778 21.0583 90.5944 21.975C89.4278 22.875 88.2694 23.5917 87.1194 24.125C85.9861 24.675 84.9528 24.95 84.0194 24.95C82.6861 24.95 81.5861 24.5083 80.7194 23.625C79.8694 22.7417 79.4444 21.375 79.4444 19.525C79.4444 18.4583 79.5694 17.4 79.8194 16.35C80.0694 15.2833 80.3778 14.3167 80.7444 13.45C81.1278 12.5833 81.5194 11.8917 81.9194 11.375C82.3194 10.8583 82.6778 10.6 82.9944 10.6C83.3278 10.6 83.6194 10.7 83.8694 10.9C84.1361 11.1 84.2694 11.4417 84.2694 11.925C84.2694 12.125 84.1861 12.5 84.0194 13.05C83.8694 13.6 83.6861 14.25 83.4694 15C83.2694 15.75 83.0861 16.5333 82.9194 17.35C82.7694 18.1667 82.6944 18.925 82.6944 19.625C82.6944 20.3417 82.8111 20.9 83.0444 21.3C83.2944 21.7 83.6694 21.9 84.1694 21.9C84.8361 21.9 85.5944 21.7 86.4444 21.3C87.2944 20.9 88.1694 20.3667 89.0694 19.7C89.9861 19.0333 90.8694 18.2917 91.7194 17.475C92.5861 16.6583 93.3611 15.8167 94.0444 14.95C94.7444 14.0833 95.2944 13.2667 95.6944 12.5C95.5944 12.1333 95.5111 11.7667 95.4444 11.4C95.3944 11.0333 95.3694 10.6583 95.3694 10.275C95.3694 9.35833 95.5444 8.60833 95.8944 8.025C96.2444 7.425 96.8278 7.125 97.6444 7.125C98.3778 7.125 98.9278 7.36667 99.2944 7.85C99.6611 8.33333 99.8444 8.96667 99.8444 9.75C99.8444 10.1833 99.7361 10.65 99.5194 11.15C99.3194 11.6333 99.0528 12.15 98.7194 12.7ZM83.8944 8.225C83.2444 8.225 82.7444 8.05833 82.3944 7.725C82.0611 7.39167 81.8944 6.94167 81.8944 6.375C81.8944 5.74167 82.1194 5.23333 82.5694 4.85C83.0194 4.45 83.5361 4.25 84.1194 4.25C84.7694 4.25 85.2861 4.425 85.6694 4.775C86.0528 5.125 86.2444 5.625 86.2444 6.275C86.2444 6.55833 86.1361 6.85833 85.9194 7.175C85.7194 7.475 85.4444 7.725 85.0944 7.925C84.7444 8.125 84.3444 8.225 83.8944 8.225ZM118.511 24.95C117.978 24.95 117.494 24.8 117.061 24.5C116.628 24.2167 116.286 23.8417 116.036 23.375C115.786 22.8917 115.661 22.375 115.661 21.825C115.661 20.7917 115.886 19.7833 116.336 18.8C116.803 17.8167 117.411 16.8833 118.161 16C118.911 15.1167 119.728 14.3083 120.611 13.575C121.511 12.825 122.403 12.1833 123.286 11.65C124.186 11.1167 125.003 10.7 125.736 10.4C126.486 10.1 127.069 9.95 127.486 9.95C127.969 9.95 128.361 10.0583 128.661 10.275C128.978 10.475 129.136 10.7917 129.136 11.225C129.136 11.3583 129.103 11.4667 129.036 11.55C129.253 11.6 129.428 11.725 129.561 11.925C129.694 12.125 129.761 12.425 129.761 12.825C129.761 12.9917 129.719 13.425 129.636 14.125C129.553 14.825 129.461 15.675 129.361 16.675C129.278 17.675 129.236 18.7167 129.236 19.8C129.236 19.9667 129.261 20.1167 129.311 20.25C129.361 20.3667 129.469 20.425 129.636 20.425C130.303 20.425 130.978 20.2917 131.661 20.025C132.361 19.7417 133.036 19.4 133.686 19C134.353 18.5833 134.953 18.175 135.486 17.775C136.036 17.3583 136.494 17.0167 136.861 16.75C137.244 16.4667 137.494 16.325 137.611 16.325C138.178 16.325 138.461 16.6083 138.461 17.175C138.461 17.325 138.278 17.6417 137.911 18.125C137.561 18.5917 137.078 19.1333 136.461 19.75C135.844 20.35 135.153 20.95 134.386 21.55C133.636 22.1333 132.853 22.6167 132.036 23C131.236 23.3833 130.461 23.575 129.711 23.575C128.794 23.575 128.094 23.3583 127.611 22.925C127.144 22.4917 126.811 21.9083 126.611 21.175C126.428 20.425 126.328 19.5833 126.311 18.65C125.461 19.8667 124.578 20.95 123.661 21.9C122.761 22.8333 121.869 23.575 120.986 24.125C120.103 24.675 119.278 24.95 118.511 24.95ZM127.361 12.425C125.728 13.2083 124.261 14.1083 122.961 15.125C121.661 16.125 120.628 17.175 119.861 18.275C119.111 19.375 118.736 20.4333 118.736 21.45C118.736 21.7333 118.869 21.875 119.136 21.875C119.453 21.875 119.869 21.6917 120.386 21.325C120.919 20.9583 121.494 20.475 122.111 19.875C122.728 19.2583 123.344 18.575 123.961 17.825C124.578 17.0583 125.153 16.275 125.686 15.475C126.219 14.675 126.644 13.9083 126.961 13.175C127.078 12.9083 127.211 12.6583 127.361 12.425Z" fill="white"/>
</svg>
