<svg width="20" height="18" viewBox="0 0 20 18" fill="none" xmlns="http://www.w3.org/2000/svg">
<path d="M6.10627 15.6441C3.29819 13.3819 0 10.7249 0 6.11901C0 1.03436 5.50016 -2.57159 10 2.31675L12 4.40652C12.2929 4.71271 12.7678 4.71262 13.0607 4.40632C13.3535 4.10001 13.3534 3.60349 13.0605 3.2973L11.1285 1.27793C15.3685 -1.96763 20 1.4531 20 6.11901C20 10.7249 16.7018 13.3819 13.8937 15.6441C13.6019 15.8792 13.3153 16.1101 13.0383 16.3384C12 17.1942 11 18 10 18C9 18 8 17.1942 6.96173 16.3384C6.68471 16.1101 6.39814 15.8792 6.10627 15.6441Z" fill="#FF9462"/>
</svg>
