<svg width="14" height="12" viewBox="0 0 14 12" fill="none" xmlns="http://www.w3.org/2000/svg">
<path d="M5.25 7.9043C8.09681 7.9043 10.5 8.32766 10.5 9.95996C10.4991 11.5915 8.08089 12 5.25 12C2.40347 12 0.000397615 11.5766 0 9.94531C9.08323e-05 8.31311 2.418 7.90431 5.25 7.9043ZM11.8994 3.15723C12.2468 3.15723 12.5283 3.41623 12.5283 3.7334V4.47656H13.3711C13.7176 4.47663 13.9998 4.73477 14 5.05176C14 5.36889 13.7177 5.62786 13.3711 5.62793H12.5283V6.37109C12.5283 6.68826 12.2468 6.94727 11.8994 6.94727C11.5528 6.94723 11.2705 6.68824 11.2705 6.37109V5.62793H10.4297C10.0823 5.62793 9.7998 5.36893 9.7998 5.05176C9.79998 4.73473 10.0824 4.47656 10.4297 4.47656H11.2705V3.7334C11.2705 3.41625 11.5528 3.15726 11.8994 3.15723ZM5.25 0C7.17818 0 8.72355 1.41258 8.72363 3.1748C8.7234 4.93691 7.17809 6.34961 5.25 6.34961C3.32196 6.34955 1.7766 4.93688 1.77637 3.1748C1.77645 1.41261 3.32187 5.46902e-05 5.25 0Z" fill="#E8E8E8"/>
</svg>
