<svg width="14" height="14" viewBox="0 0 14 14" fill="none" xmlns="http://www.w3.org/2000/svg">
<path d="M5.35478 5.61538C6.63237 5.61538 7.66806 4.58219 7.66806 3.30769C7.66806 2.03319 6.63237 1 5.35478 1C4.0772 1 3.0415 2.03319 3.0415 3.30769C3.0415 4.58219 4.0772 5.61538 5.35478 5.61538Z" stroke="#1A72FF" stroke-linecap="round" stroke-linejoin="round"/>
<path d="M6.74279 12.0769H1.19092V11.5765C1.19828 10.873 1.38429 10.1827 1.73155 9.57029C2.07882 8.95786 2.57602 8.44324 3.1767 8.07447C3.7774 7.70571 4.46198 7.49484 5.1665 7.46158C5.87104 7.4283 6.57252 7.57371 7.20545 7.88421" stroke="#1A72FF" stroke-linecap="round" stroke-linejoin="round"/>
<path d="M10.4438 7.46154V13" stroke="#1A72FF" stroke-linecap="round" stroke-linejoin="round"/>
<path d="M7.66797 10.2308H13.2198" stroke="#1A72FF" stroke-linecap="round" stroke-linejoin="round"/>
</svg>
