<svg width="21" height="20" viewBox="0 0 21 20" fill="none" xmlns="http://www.w3.org/2000/svg">
<path d="M14.4131 2.96289C15.3426 1.78405 16.9638 1.67557 18.2715 2.70312L19.7734 3.88281C20.3894 4.35871 20.7999 4.98578 20.9404 5.64551C21.1026 6.37134 20.9297 7.0846 20.4434 7.70117L11.4941 19.1348C11.0834 19.6538 10.4784 19.9462 9.83008 19.957L6.26367 20C6.06922 20 5.90661 19.8703 5.86328 19.6865L5.05273 16.2139C4.91225 15.5757 5.05317 14.9156 5.46387 14.4072L11.8076 6.29492C11.9157 6.16517 12.1105 6.14409 12.2402 6.24023L14.9102 8.33887C15.0831 8.47945 15.3208 8.55588 15.5693 8.52344C16.0989 8.45848 16.4554 7.982 16.4014 7.47363C16.3689 7.21418 16.2392 6.99815 16.0664 6.83594C16.0126 6.79289 13.4978 4.80018 13.4727 4.78027C13.3105 4.65047 13.2775 4.41215 13.4072 4.25098L14.4131 2.96289ZM4.52051 1.16797C4.8054 0.25219 6.15852 0.276592 6.38086 1.25098L6.41699 1.40918C6.77337 2.97096 8.03309 4.16586 9.61133 4.44043C10.6575 4.62285 10.6574 6.12516 9.61133 6.30762C8.03297 6.58221 6.77325 7.77788 6.41699 9.33984L6.38086 9.49707C6.1514 10.5028 4.71688 10.4969 4.49609 9.48926L4.46582 9.35352C4.1224 7.78534 2.86478 6.58086 1.2832 6.30566C0.239034 6.12398 0.238947 4.62506 1.2832 4.44336L1.57617 4.38086C3.01878 4.01593 4.14395 2.86472 4.46582 1.39453L4.49609 1.25977L4.52051 1.16797Z" fill="#E8E8E8"/>
</svg>
