<svg width="26" height="22" viewBox="0 0 26 22" fill="none" xmlns="http://www.w3.org/2000/svg">
<path d="M11.9688 13.6641C12.5129 11.8053 15.1465 11.8052 15.6904 13.6641C15.876 14.2988 16.3721 14.7958 17.0068 14.9814C18.8659 15.5254 18.866 18.1593 17.0068 18.7031C16.3721 18.8887 15.876 19.3848 15.6904 20.0195C15.1467 21.8788 12.5127 21.8787 11.9688 20.0195C11.7831 19.3848 11.2861 18.8887 10.6514 18.7031C8.79233 18.1592 8.79245 15.5255 10.6514 14.9814C11.2861 14.7958 11.7831 14.2988 11.9688 13.6641ZM3.49023 1.375C4.09343 -0.458253 6.68703 -0.45842 7.29004 1.375L7.49707 2.00684C7.69551 2.61021 8.16909 3.08379 8.77246 3.28223L9.4043 3.49023C11.2376 4.09338 11.2378 6.68704 9.4043 7.29004L8.77246 7.49707C8.16909 7.69551 7.69551 8.16909 7.49707 8.77246L7.29004 9.4043C6.68704 11.2378 4.09338 11.2376 3.49023 9.4043L3.28223 8.77246C3.08379 8.16909 2.61021 7.69551 2.00684 7.49707L1.375 7.29004C-0.458396 6.68702 -0.458219 4.09344 1.375 3.49023L2.00684 3.28223C2.61021 3.08379 3.08379 2.61021 3.28223 2.00684L3.49023 1.375ZM20.2461 2.39551C20.5266 1.43643 21.8855 1.43643 22.166 2.39551L22.5293 3.63867C22.625 3.96579 22.8809 4.22157 23.208 4.31738L24.4512 4.68066C25.4103 4.96114 25.4103 6.32011 24.4512 6.60059L23.208 6.96387C22.8808 7.05968 22.625 7.31628 22.5293 7.64355L22.166 8.88672C21.8854 9.84557 20.5267 9.84554 20.2461 8.88672L19.8828 7.64355C19.7871 7.31618 19.5305 7.05961 19.2031 6.96387L17.96 6.60059C17.0014 6.31987 17.0013 4.96129 17.96 4.68066L19.2031 4.31738C19.5304 4.22166 19.787 3.96595 19.8828 3.63867L20.2461 2.39551Z" fill="url(#paint0_linear_249_2176)"/>
<defs>
<linearGradient id="paint0_linear_249_2176" x1="12.5855" y1="0" x2="12.5855" y2="21.414" gradientUnits="userSpaceOnUse">
<stop stop-color="#57F4FF"/>
<stop offset="1" stop-color="#FF38D1"/>
</linearGradient>
</defs>
</svg>
