<svg width="26" height="22" viewBox="0 0 26 22" fill="none" xmlns="http://www.w3.org/2000/svg">
<path d="M11.9687 13.6641C12.5128 11.8053 15.1465 11.8052 15.6904 13.6641C15.876 14.2988 16.3721 14.7958 17.0068 14.9814C18.8658 15.5254 18.866 18.1593 17.0068 18.7031C16.3721 18.8887 15.876 19.3848 15.6904 20.0195C15.1466 21.8788 12.5127 21.8787 11.9687 20.0195C11.7831 19.3848 11.286 18.8887 10.6513 18.7031C8.79231 18.1592 8.79243 15.5255 10.6513 14.9814C11.286 14.7958 11.7831 14.2988 11.9687 13.6641ZM3.49022 1.375C4.09341 -0.45825 6.68701 -0.458418 7.29002 1.375L7.49705 2.00684C7.69549 2.61021 8.16907 3.08379 8.77244 3.28223L9.40428 3.49024C11.2376 4.09338 11.2378 6.68704 9.40428 7.29004L8.77244 7.49707C8.16907 7.69551 7.69549 8.16909 7.49705 8.77246L7.29002 9.4043C6.68702 11.2378 4.09337 11.2376 3.49022 9.4043L3.28221 8.77246C3.08377 8.16909 2.61019 7.69551 2.00682 7.49707L1.37498 7.29004C-0.458415 6.68703 -0.458238 4.09344 1.37498 3.49024L2.00682 3.28223C2.61019 3.08379 3.08377 2.61021 3.28221 2.00684L3.49022 1.375ZM20.2461 2.39551C20.5266 1.43643 21.8855 1.43643 22.166 2.39551L22.5293 3.63867C22.625 3.96579 22.8809 4.22157 23.208 4.31739L24.4512 4.68067C25.4102 4.96115 25.4102 6.32011 24.4512 6.60059L23.208 6.96387C22.8808 7.05968 22.625 7.31629 22.5293 7.64356L22.166 8.88672C21.8854 9.84557 20.5267 9.84554 20.2461 8.88672L19.8828 7.64356C19.7871 7.31618 19.5305 7.05961 19.2031 6.96387L17.9599 6.60059C17.0014 6.31987 17.0013 4.96129 17.9599 4.68067L19.2031 4.31739C19.5304 4.22166 19.787 3.96596 19.8828 3.63867L20.2461 2.39551Z" fill="url(#paint0_linear_249_2176)"/>
<defs>
<linearGradient id="paint0_linear_249_2176" x1="0" y1="10.707" x2="25.1705" y2="10.707" gradientUnits="userSpaceOnUse">
<stop stop-color="#FF8400"/>
<stop offset="0.557692" stop-color="#F563FF"/>
<stop offset="1" stop-color="#00AAFF"/>
</linearGradient>
</defs>
</svg>
