<svg width="20" height="20" viewBox="0 0 20 20" fill="none" xmlns="http://www.w3.org/2000/svg">
<path d="M5.45284 0.712664C5.8276 -0.237556 7.1724 -0.237554 7.54716 0.712666L8.70851 3.65732C8.82293 3.94743 9.05257 4.17707 9.34268 4.29148L12.2873 5.45284C13.2376 5.8276 13.2376 7.1724 12.2873 7.54716L9.34268 8.70851C9.05257 8.82293 8.82293 9.05257 8.70851 9.34268L7.54716 12.2873C7.1724 13.2376 5.8276 13.2376 5.45284 12.2873L4.29148 9.34268C4.17707 9.05257 3.94743 8.82293 3.65732 8.70851L0.712664 7.54716C-0.237556 7.1724 -0.237554 5.8276 0.712666 5.45284L3.65732 4.29148C3.94743 4.17707 4.17707 3.94743 4.29148 3.65732L5.45284 0.712664Z" fill="#59BFFF"/>
<path d="M14.9245 11.3916C15.1305 10.8695 15.8695 10.8695 16.0755 11.3916L16.9761 13.6753C17.039 13.8348 17.1652 13.961 17.3247 14.0239L19.6084 14.9245C20.1305 15.1305 20.1305 15.8695 19.6084 16.0755L17.3247 16.9761C17.1652 17.039 17.039 17.1652 16.9761 17.3247L16.0755 19.6084C15.8695 20.1305 15.1305 20.1305 14.9245 19.6084L14.0239 17.3247C13.961 17.1652 13.8348 17.039 13.6753 16.9761L11.3916 16.0755C10.8695 15.8695 10.8695 15.1305 11.3916 14.9245L13.6753 14.0239C13.8348 13.961 13.961 13.8348 14.0239 13.6753L14.9245 11.3916Z" fill="#59BFFF"/>
</svg>
