<svg width="10" height="10" viewBox="0 0 10 10" fill="none" xmlns="http://www.w3.org/2000/svg">
<path d="M0.776397 4.1662H7.3499L4.78261 1.43135C4.4824 1.09783 4.4824 0.57532 4.78261 0.241801C5.08282 -0.0806003 5.57971 -0.0806003 5.87992 0.241801L9.78261 4.41078C10.0725 4.72207 10.0725 5.27793 9.78261 5.58922L5.87992 9.7582C5.57971 10.0806 5.08282 10.0806 4.78261 9.7582C4.63768 9.59144 4.55487 9.3791 4.55487 9.16898C4.55487 8.95776 4.63768 8.73541 4.78261 8.57977L7.3499 5.8338H0.776397C0.341615 5.8338 0 5.46693 0 5C0 4.54419 0.341615 4.1662 0.776397 4.1662Z" fill="#E8E8E8"/>
</svg>
