<svg width="20" height="20" viewBox="0 0 20 20" fill="none" xmlns="http://www.w3.org/2000/svg">
<path d="M14.0801 0C17.62 3.35782e-05 20 2.27999 20 5.66992V14.3398C20 17.7288 17.62 20 14.0801 20H5.91016C2.38016 20 0 17.7288 0 14.3398V5.66992C3.66021e-05 2.27996 2.38018 0 5.91016 0H14.0801ZM10.8496 5.71973C10.5596 5.43011 10.0799 5.42999 9.79004 5.71973C9.50004 6.01973 9.50004 6.49004 9.79004 6.79004L12.2695 9.25H5.91992C5.49996 9.25004 5.16992 9.59003 5.16992 10C5.16992 10.42 5.49996 10.75 5.91992 10.75H12.2695L9.79004 13.2197C9.65004 13.3597 9.57031 13.56 9.57031 13.75C9.57031 13.939 9.65004 14.1303 9.79004 14.2803C10.0799 14.57 10.5596 14.5699 10.8496 14.2803L14.6201 10.5303C14.9001 10.2503 14.9001 9.74973 14.6201 9.46973L10.8496 5.71973Z" fill="#E8E8E8"/>
</svg>
