<svg width="19" height="12" viewBox="0 0 19 12" fill="none" xmlns="http://www.w3.org/2000/svg">
<path d="M9.10853 11.2703C9.34252 11.1441 9.4884 10.904 9.4884 10.643V10.5775C9.4884 8.36838 11.2793 6.57752 13.4884 6.57752H17.5157C17.921 6.57752 18.25 6.25618 18.25 5.86026C18.25 5.46433 17.921 5.14299 17.5157 5.14299H13.4884C11.2793 5.14299 9.4884 3.35213 9.4884 1.14299V1.07754C9.4884 0.815504 9.34252 0.57546 9.10853 0.450178C8.87453 0.322983 8.58865 0.33159 8.36248 0.470261L0.592671 5.25297C0.379236 5.38495 0.25 5.61352 0.25 5.86026C0.25 6.10699 0.379236 6.33556 0.592671 6.46754L8.36248 11.2502C8.48193 11.3229 8.61802 11.3602 8.75411 11.3602C8.87551 11.3602 8.99789 11.3296 9.10853 11.2703Z" fill="#E8E8E8"/>
</svg>
