<svg width="18" height="12" viewBox="0 0 18 12" fill="none" xmlns="http://www.w3.org/2000/svg">
<path d="M9.14147 0.240775C8.90748 0.367013 8.7616 0.607058 8.7616 0.868141L8.7616 0.933588C8.7616 3.14273 6.97074 4.93359 4.7616 4.93359L0.734295 4.93359C0.328965 4.93359 5.15441e-07 5.25492 4.80828e-07 5.65085C4.46214e-07 6.04678 0.328965 6.36811 0.734295 6.36811L4.7616 6.36812C6.97074 6.36812 8.7616 8.15898 8.7616 10.3681L8.7616 10.4336C8.7616 10.6956 8.90748 10.9356 9.14147 11.0609C9.37547 11.1881 9.66135 11.1795 9.88752 11.0408L17.6573 6.25814C17.8708 6.12616 18 5.89759 18 5.65085C18 5.40411 17.8708 5.17555 17.6573 5.04357L9.88752 0.260859C9.76807 0.188176 9.63198 0.150878 9.49589 0.150878C9.37449 0.150878 9.25211 0.181482 9.14147 0.240775Z" fill="#E8E8E8"/>
</svg>
