<svg width="28" height="25" viewBox="0 0 28 25" fill="none" xmlns="http://www.w3.org/2000/svg">
<path d="M8.50639 6.86366H6.7764C4.9375 6.86366 4.01882 6.86366 3.36478 7.23727C2.79083 7.56512 2.34964 8.08301 2.11926 8.70071C1.85689 9.40416 2.00791 10.3065 2.30984 12.1106L2.31048 12.114L3.63109 20.0049C3.85512 21.3435 3.96787 22.0131 4.30325 22.5154C4.59889 22.9581 5.01389 23.3081 5.50101 23.5257C6.05363 23.7726 6.73469 23.7728 8.09738 23.7728H20.2353C21.598 23.7728 22.2786 23.7726 22.8313 23.5257C23.3184 23.3081 23.7337 22.9581 24.0293 22.5154C24.3647 22.0131 24.4769 21.3435 24.7009 20.0049L26.0215 12.114L26.0228 12.1085C26.3245 10.3058 26.4754 9.40389 26.2132 8.70071C25.9828 8.08301 25.5426 7.56512 24.9687 7.23727C24.3147 6.86366 23.3945 6.86366 21.5556 6.86366H19.826M8.50639 6.86366H19.826M8.50639 6.86366C8.50639 3.75078 11.0404 1.22729 14.1662 1.22729C17.292 1.22729 19.826 3.75078 19.826 6.86366" stroke="#E8E8E8" stroke-width="2" stroke-linecap="round" stroke-linejoin="round"/>
</svg>
