<svg width="24" height="21" viewBox="0 0 24 21" fill="none" xmlns="http://www.w3.org/2000/svg">
<path fill-rule="evenodd" clip-rule="evenodd" d="M6.75 15.1596H8.75V8.90961H6.75V15.1596ZM11.75 3.40961C10.9201 3.40961 10.2501 4.07973 10.25 4.90961C10.25 5.73961 10.92 6.40961 11.75 6.40961C12.58 6.40961 13.25 5.73961 13.25 4.90961C13.2499 4.07973 12.5799 3.40961 11.75 3.40961ZM10.75 15.1596H12.75V8.90961H10.75V15.1596ZM14.75 15.1596H16.75V8.90961H14.75V15.1596ZM18.75 15.1596H20.75C21.7141 15.1596 22.4998 15.9456 22.5 16.9096V19.1596H22.75C23.1599 19.1596 23.4998 19.4998 23.5 19.9096C23.5 20.3196 23.16 20.6596 22.75 20.6596H0.75C0.34 20.6596 0 20.3196 0 19.9096C0.000226618 19.4998 0.340137 19.1596 0.75 19.1596H1V16.9096C1.00022 15.9456 1.78592 15.1596 2.75 15.1596H4.75V8.90961H2.75C2.2 8.90961 1.75 8.45961 1.75 7.90961V4.59027C1.75 4.21028 2.02989 3.79961 2.37988 3.65961L11.3799 0.06C11.5799 -0.02 11.9201 -0.02 12.1201 0.06L21.1201 3.65961C21.4701 3.79961 21.75 4.21028 21.75 4.59027V7.90961C21.75 8.45961 21.3 8.90961 20.75 8.90961H18.75V15.1596Z" fill="#E8E8E8"/>
</svg>
