<svg width="21" height="20" viewBox="0 0 21 20" fill="none" xmlns="http://www.w3.org/2000/svg">
<path d="M16.0777 2.44324L14.0777 1.38863C12.3221 0.462877 11.4443 0 10.5 0C9.55573 0 8.67792 0.462877 6.92229 1.38863C6.78273 1.46222 6.77915 1.66082 6.91598 1.73938L14.5909 6.1462C15.0474 6.40831 15.2756 6.53936 15.5274 6.54637C15.7791 6.55338 16.0143 6.43522 16.4846 6.1989L17.2267 5.8261C18.2093 5.33244 18.7006 5.08561 18.7121 4.48212C18.7236 3.87862 18.2958 3.64284 17.4403 3.17127C17.0418 2.9516 16.5903 2.71352 16.0777 2.44324Z" fill="#272727"/>
<path d="M20.4924 8.40698C20.4764 7.42264 20.4684 6.93047 19.9955 6.64411C19.5226 6.35776 19.04 6.60022 18.0748 7.08515L17.3521 7.44821C16.8158 7.71765 16.5477 7.85237 16.3988 8.09372C16.25 8.33507 16.25 8.63516 16.25 9.23534V11.053C16.25 11.4693 15.9142 11.8067 15.5 11.8067C15.0858 11.8067 14.75 11.4693 14.75 11.053C14.75 10.4587 14.75 10.1616 14.6613 9.96525C14.4933 9.59357 14.1164 9.36115 13.7089 9.37792C13.4936 9.38677 13.2281 9.52017 12.697 9.78698L12.2144 10.0295C11.8136 10.2308 11.6132 10.3315 11.4792 10.4936C11.4205 10.5647 11.3718 10.6436 11.3347 10.728C11.25 10.9204 11.25 11.1447 11.25 11.5932V17.4378C11.25 18.5472 11.25 19.1019 11.7325 19.3937C12.215 19.6855 12.6726 19.4456 13.5878 18.9657C13.7433 18.8841 13.9063 18.7982 14.0777 18.7078L16.0777 17.6532C18.2294 16.5186 19.3052 15.9513 19.9026 14.9319C20.5 13.9125 20.5 12.644 20.5 10.107V9.98945C20.5 9.39715 20.5 8.87398 20.4924 8.40698Z" fill="#272727"/>
<path d="M7.41216 18.9657C8.3274 19.4456 8.78502 19.6855 9.26751 19.3937C9.75 19.1019 9.75 18.5472 9.75 17.4378V11.7474C9.75 11.1472 9.75 10.8471 9.60116 10.6058C9.45231 10.3644 9.18417 10.2297 8.64787 9.96026L2.92524 7.08515C1.96004 6.60022 1.47744 6.35776 1.00454 6.64411C0.531638 6.93047 0.523626 7.42264 0.507602 8.40698C0.5 8.87398 0.5 9.39715 0.5 9.98945V10.107C0.5 12.644 0.5 13.9125 1.0974 14.9319C1.69479 15.9513 2.77062 16.5186 4.92228 17.6532L6.92229 18.7078C7.09365 18.7982 7.25665 18.8841 7.41216 18.9657Z" fill="#272727"/>
<path d="M3.55969 3.17127C2.70417 3.64284 2.2764 3.87862 2.28793 4.48212C2.29945 5.08561 2.79074 5.33244 3.77332 5.8261L9.77442 8.84111C10.0449 8.977 10.1801 9.04495 10.3223 9.07062C10.4398 9.09185 10.5602 9.09185 10.6777 9.07062C10.8199 9.04495 10.9551 8.977 11.2256 8.84111C12.1135 8.39499 12.5575 8.17193 12.7048 7.86024C12.8242 7.60738 12.8323 7.31606 12.7271 7.05694C12.5975 6.73755 12.1666 6.49014 11.3048 5.99532L5.12483 2.44689C5.0624 2.41104 4.98597 2.40967 4.92229 2.44324C4.40974 2.71352 3.95823 2.9516 3.55969 3.17127Z" fill="#272727"/>
</svg>
