<svg width="15" height="20" viewBox="0 0 15 20" fill="none" xmlns="http://www.w3.org/2000/svg">
<path fill-rule="evenodd" clip-rule="evenodd" d="M2.53796 5.48093L2.88102 8.5685L2.1868 8.62392C1.2187 8.7012 0.428201 9.42894 0.271268 10.3873C-0.0904227 12.5962 -0.0904228 14.8493 0.271268 17.0582C0.428201 18.0166 1.2187 18.7443 2.1868 18.8216L3.68293 18.941C6.04507 19.1296 8.41849 19.1296 10.7806 18.941L12.2768 18.8216C13.2449 18.7443 14.0354 18.0166 14.1923 17.0582C14.554 14.8493 14.554 12.5962 14.1923 10.3873C14.0354 9.42894 13.2449 8.7012 12.2768 8.62392L11.5824 8.56849L11.9255 5.48093C11.9659 5.11696 11.9659 4.74962 11.9255 4.38564L11.9027 4.18074C11.6612 2.00735 9.95264 0.287695 7.78085 0.0321904C7.41603 -0.0107301 7.04743 -0.0107301 6.6826 0.0321904C4.51082 0.287695 2.80221 2.00735 2.56073 4.18074L2.53796 4.38564C2.49752 4.74962 2.49752 5.11696 2.53796 5.48093ZM7.60559 1.52192C7.3572 1.49269 7.10625 1.49269 6.85786 1.52192C5.37924 1.69587 4.21597 2.86667 4.05155 4.34639L4.02879 4.55129C4.00058 4.80517 4.00058 5.0614 4.02879 5.31529L4.37759 8.45448C6.27839 8.33257 8.18506 8.33257 10.0859 8.45447L10.4347 5.31529C10.4629 5.0614 10.4629 4.80517 10.4347 4.55129L10.4119 4.34639C10.2475 2.86667 9.08422 1.69587 7.60559 1.52192ZM7.23175 12.2228C6.40332 12.2228 5.73175 12.8943 5.73175 13.7228C5.73175 14.5512 6.40332 15.2228 7.23175 15.2228C8.06018 15.2228 8.73175 14.5512 8.73175 13.7228C8.73175 12.8943 8.06018 12.2228 7.23175 12.2228Z" fill="#FF8077"/>
</svg>
