<svg width="20" height="20" viewBox="0 0 20 20" fill="none" xmlns="http://www.w3.org/2000/svg">
<path d="M14.3398 0C17.7288 0 20 2.37997 20 5.91992V14.0898C20 17.6198 17.7288 20 14.3398 20H5.66992C2.27996 20 0 17.6198 0 14.0898V5.91992C3.35782e-05 2.37999 2.27999 3.66011e-05 5.66992 0H14.3398ZM10.5303 5.37988C10.2503 5.09988 9.74973 5.09988 9.46973 5.37988L5.71973 9.15039C5.43011 9.44037 5.42999 9.92006 5.71973 10.21C6.01973 10.5 6.49004 10.5 6.79004 10.21L9.25 7.73047V14.0801C9.25004 14.5 9.59003 14.8301 10 14.8301C10.42 14.8301 10.75 14.5 10.75 14.0801V7.73047L13.2197 10.21C13.3597 10.35 13.56 10.4297 13.75 10.4297C13.939 10.4297 14.1303 10.35 14.2803 10.21C14.57 9.92006 14.5699 9.44037 14.2803 9.15039L10.5303 5.37988Z" fill="#1A72FF"/>
</svg>
