<svg width="16" height="15" viewBox="0 0 16 15" fill="none" xmlns="http://www.w3.org/2000/svg">
<path d="M5.00661 4.52294H4.02751C2.98677 4.52294 2.46684 4.52294 2.09668 4.73421C1.77185 4.9196 1.52215 5.21246 1.39177 5.56175C1.24328 5.95954 1.32875 6.46981 1.49963 7.49L1.49999 7.49192L2.2474 11.9541C2.37419 12.711 2.438 13.0896 2.62782 13.3737C2.79513 13.624 3.03 13.8219 3.3057 13.945C3.61846 14.0846 4.00391 14.0847 4.77513 14.0847H11.6447C12.4159 14.0847 12.8011 14.0846 13.1139 13.945C13.3896 13.8219 13.6246 13.624 13.7919 13.3737C13.9818 13.0896 14.0452 12.711 14.172 11.9541L14.9194 7.49192L14.9202 7.48881C15.0909 6.46942 15.1763 5.95938 15.0279 5.56175C14.8975 5.21246 14.6484 4.9196 14.3236 4.73421C13.9534 4.52294 13.4326 4.52294 12.3919 4.52294H11.413M5.00661 4.52294H11.413M5.00661 4.52294C5.00661 2.76267 6.44074 1.33569 8.20981 1.33569C9.97889 1.33569 11.413 2.76267 11.413 4.52294" stroke="#1A72FF" stroke-linecap="round" stroke-linejoin="round"/>
</svg>
