<svg width="20" height="20" viewBox="0 0 20 20" fill="none" xmlns="http://www.w3.org/2000/svg">
<path fill-rule="evenodd" clip-rule="evenodd" d="M5.32997 0H14.6599C18.0599 0 19.9999 1.91999 19.9999 5.32997V14.6699C19.9999 18.0599 18.0699 19.9999 14.6699 19.9999H5.32997C1.91999 19.9999 0 18.0599 0 14.6699V5.32997C0 1.91999 1.91999 0 5.32997 0ZM10.82 10.8302H13.6599C14.1199 10.8202 14.4899 10.4502 14.4899 9.99019C14.4899 9.5302 14.1199 9.1602 13.6599 9.1602H10.82V6.34021C10.82 5.88022 10.45 5.51022 9.98997 5.51022C9.52997 5.51022 9.15998 5.88022 9.15998 6.34021V9.1602H6.32999C6.10999 9.1602 5.89999 9.2502 5.74 9.4002C5.59 9.56019 5.5 9.76919 5.5 9.99019C5.5 10.4502 5.87 10.8202 6.32999 10.8302H9.15998V13.6602C9.15998 14.1202 9.52997 14.4902 9.98997 14.4902C10.45 14.4902 10.82 14.1202 10.82 13.6602V10.8302Z" fill="#468FF5"/>
</svg>
