<svg width="19" height="17" viewBox="0 0 19 17" fill="none" xmlns="http://www.w3.org/2000/svg">
<path fill-rule="evenodd" clip-rule="evenodd" d="M9.03843 1.33276C6.50446 -0.17095 3.40541 -0.416546 0.661679 0.668914C0.262048 0.827014 0 1.20982 0 1.63552V12.0684C0 12.7672 0.713641 13.2451 1.36969 12.9855C3.61652 12.0967 6.15433 12.2978 8.22938 13.5292L9.25654 14.1387C9.33487 14.1852 9.41866 14.2055 9.5 14.2041C9.58134 14.2055 9.66513 14.1852 9.74346 14.1387L10.7706 13.5292C12.8457 12.2978 15.3835 12.0967 17.6303 12.9855C18.2864 13.2451 19 12.7672 19 12.0684V1.63552C19 1.20982 18.738 0.827014 18.3383 0.668914C15.5946 -0.416546 12.4955 -0.17095 9.96157 1.33276L9.5 1.60667L9.03843 1.33276ZM10.1786 3.47071C10.1786 3.10005 9.87476 2.79958 9.5 2.79958C9.12524 2.79958 8.82143 3.10005 8.82143 3.47071V11.9717C8.82143 12.3424 9.12524 12.6428 9.5 12.6428C9.87477 12.6428 10.1786 12.3424 10.1786 11.9717V3.47071Z" fill="#E8E8E8"/>
<path d="M1.10819 14.694C2.9393 13.6376 5.20356 13.6376 7.03467 14.694L8.01838 15.2616C8.93393 15.7898 10.0661 15.7898 10.9816 15.2616L11.9653 14.694C13.7964 13.6376 16.0607 13.6376 17.8918 14.694L17.9848 14.7477C18.3085 14.9344 18.4178 15.3454 18.229 15.6655C18.0402 15.9857 17.6247 16.0938 17.3009 15.9071L17.208 15.8535C15.7994 15.0408 14.0577 15.0408 12.6492 15.8535L11.6654 16.421C10.3273 17.193 8.67267 17.193 7.33455 16.421L6.35084 15.8535C4.9423 15.0408 3.20056 15.0408 1.79201 15.8535L1.69906 15.9071C1.37534 16.0938 0.95984 15.9857 0.771007 15.6655C0.582174 15.3454 0.691517 14.9344 1.01523 14.7477L1.10819 14.694Z" fill="#E8E8E8"/>
</svg>
