<svg width="28" height="26" viewBox="0 0 28 26" fill="none" xmlns="http://www.w3.org/2000/svg">
<path d="M8.24955 7.27259H6.51956C4.68067 7.27259 3.76198 7.27259 3.10794 7.6462C2.53399 7.97406 2.0928 8.49195 1.86242 9.10964C1.60005 9.81309 1.75107 10.7155 2.05301 12.5196L2.05364 12.523L3.37426 20.4139C3.59828 21.7525 3.71103 22.422 4.04642 22.9243C4.34205 23.367 4.75705 23.7171 5.24418 23.9347C5.79679 24.1816 6.47786 24.1817 7.84055 24.1817H19.9785C21.3412 24.1817 22.0218 24.1816 22.5744 23.9347C23.0615 23.7171 23.4769 23.367 23.7725 22.9243C24.1079 22.422 24.22 21.7525 24.4441 20.4139L25.7647 12.523L25.766 12.5175C26.0677 10.7148 26.2186 9.81282 25.9563 9.10964C25.726 8.49195 25.2858 7.97406 24.7119 7.6462C24.0578 7.27259 23.1376 7.27259 21.2987 7.27259H19.5691M8.24955 7.27259H19.5691M8.24955 7.27259C8.24955 4.15972 10.7835 1.63623 13.9093 1.63623C17.0351 1.63623 19.5691 4.15972 19.5691 7.27259" stroke="#E8E8E8" stroke-width="2" stroke-linecap="round" stroke-linejoin="round"/>
</svg>
