<svg width="26" height="27" viewBox="0 0 26 27" fill="none" xmlns="http://www.w3.org/2000/svg">
<path d="M23.1533 15.2695C23.7056 15.2695 24.1533 15.7172 24.1533 16.2695V24.5771C24.1532 25.087 23.9507 25.5761 23.5908 25.9365L23.5898 25.9375C23.2294 26.2974 22.7404 26.5 22.2305 26.5H3.76855C3.3224 26.4999 2.89176 26.3455 2.5498 26.0654L2.40918 25.9375C2.04872 25.5769 1.8458 25.087 1.8457 24.5771V16.2695C1.8457 15.7173 2.29353 15.2697 2.8457 15.2695C3.39799 15.2695 3.8457 15.7172 3.8457 16.2695V18.0381H13.8457V16.2695C13.8457 15.7173 14.2935 15.2697 14.8457 15.2695C15.398 15.2695 15.8457 15.7172 15.8457 16.2695V24.5H22.1533V16.2695C22.1533 15.7174 22.6012 15.2697 23.1533 15.2695ZM3.8457 24.5H13.8457V20.0381H3.8457V24.5ZM22.2305 0.5C22.6305 0.5 22.9928 0.738761 23.1504 1.10645L25.9189 7.56738C25.9492 7.63772 25.97 7.71248 25.9834 7.79004C25.9855 7.80209 25.9876 7.81408 25.9893 7.82617C25.9927 7.8513 25.9946 7.87666 25.9961 7.90234C25.9968 7.91377 25.9987 7.92509 25.999 7.93652C25.9992 7.94488 26 7.9535 26 7.96191V9.80762C25.9999 11.052 25.506 12.246 24.626 13.126C23.7461 14.0058 22.5528 14.4998 21.3086 14.5H20.8467C19.6024 14.5 18.4083 14.0058 17.5283 13.126C17.3938 12.9915 17.2694 12.8484 17.1533 12.7002C17.0374 12.8482 16.9136 12.9916 16.7793 13.126C15.8993 14.0058 14.7053 14.5 13.4609 14.5H12.5381C11.2937 14.4999 10.0996 14.0059 9.21973 13.126C9.0961 13.0023 8.98114 12.8716 8.87305 12.7363C8.76509 12.8714 8.65079 13.0025 8.52734 13.126C7.64737 14.0059 6.45339 14.5 5.20898 14.5H4.69238C3.44797 14.5 2.25399 14.0059 1.37402 13.126C0.494212 12.2461 6.46291e-05 11.0519 0 9.80762V7.96191C0 7.9535 0.000770027 7.94489 0.000976562 7.93652C0.00116372 7.92903 0.0015974 7.92156 0.00195312 7.91406C0.0035185 7.88069 0.00696033 7.84787 0.0117188 7.81543C0.0127276 7.8086 0.0134968 7.80174 0.0146484 7.79492C0.0285127 7.71239 0.0512188 7.63295 0.0839844 7.55859L2.84961 1.10645C3.00719 0.738761 3.3695 0.5 3.76953 0.5H22.2305ZM2 9.80762C2.00006 10.5215 2.28335 11.2071 2.78809 11.7119H2.78906C3.29392 12.2166 3.97853 12.5 4.69238 12.5H5.20898C5.92297 12.5 6.6084 12.2167 7.11328 11.7119C7.51814 11.307 7.7772 10.7853 7.86523 10.2266C7.8528 10.0878 7.84571 9.94805 7.8457 9.80762V8.96191H2V9.80762ZM9.90137 9.80762C9.90136 9.94773 9.89422 10.0871 9.88184 10.2256C9.96973 10.7847 10.2287 11.3068 10.6338 11.7119H10.6348C11.1396 12.2166 11.8243 12.4999 12.5381 12.5H13.4609C14.1749 12.5 14.8604 12.2167 15.3652 11.7119C15.87 11.2071 16.1533 10.5215 16.1533 9.80762V8.96191H9.90137V9.80762ZM18.1543 8.96191V9.80762C18.1544 10.5215 18.4376 11.2071 18.9424 11.7119C19.4474 12.2167 20.1328 12.5 20.8467 12.5H21.3086C22.0223 12.4998 22.7071 12.2167 23.2119 11.7119C23.7168 11.2071 23.9999 10.5216 24 9.80762V8.96191H18.1543ZM2.5166 6.96191H23.4834L21.5713 2.5H4.42871L2.5166 6.96191Z" fill="#E8E8E8"/>
</svg>
