<svg width="24" height="25" viewBox="0 0 24 25" fill="none" xmlns="http://www.w3.org/2000/svg">
<path d="M9.98226 19.2701L13.6681 22.939C13.8942 23.1707 14.177 23.3394 14.4884 23.4284C14.7997 23.5174 15.1289 23.5235 15.4434 23.4462C15.7598 23.3726 16.052 23.2189 16.2918 22.9998C16.5317 22.7806 16.7111 22.5036 16.8129 22.1951L22.8657 4.05329C22.9921 3.71337 23.0182 3.34433 22.9409 2.99003C22.8635 2.63571 22.6862 2.31106 22.4298 2.05464C22.1734 1.79821 21.8487 1.62081 21.4945 1.54352C21.1401 1.46622 20.771 1.49228 20.4312 1.61861L2.28935 7.67149C1.97022 7.78049 1.68599 7.97275 1.46603 8.22838C1.24608 8.484 1.09837 8.79373 1.03819 9.12554C0.976073 9.42733 0.989901 9.73981 1.07844 10.0349C1.16697 10.33 1.32744 10.5985 1.54542 10.8163L6.17807 15.4489L6.0259 21.3159L9.98226 19.2701Z" stroke="#E8E8E8" stroke-width="2" stroke-linecap="round" stroke-linejoin="round"/>
<path d="M22.3245 1.99097L6.17773 15.4493" stroke="#E8E8E8" stroke-width="2" stroke-linecap="round" stroke-linejoin="round"/>
</svg>
