<svg width="26" height="26" viewBox="0 0 26 26" fill="none" xmlns="http://www.w3.org/2000/svg">
<path d="M25.3643 8.77575L25.3281 8.63072C25.3281 8.63072 25.2918 8.59446 25.2918 8.55821L22.6451 1.12552C22.5363 0.762952 22.21 0.54541 21.8112 0.54541H4.62534C4.26277 0.54541 3.93646 0.762952 3.79143 1.12552L1.10842 8.52195C1.10842 8.55821 1.07216 8.59446 1.07216 8.66698L0.963388 8.92078C0.927131 8.99329 0.927131 9.06581 0.927131 9.13832C0.854617 9.46463 0.818359 9.75469 0.818359 10.0085C0.818359 11.6038 1.83356 12.9816 3.28384 13.5254V24.4025C3.28384 24.8739 3.68266 25.2727 4.154 25.2727H22.5726C23.0439 25.2727 23.4427 24.8739 23.4427 24.4025V13.3804C24.6755 12.764 25.5456 11.495 25.5456 10.0085C25.5456 9.75469 25.5094 9.46463 25.4369 9.17458C25.4731 9.02955 25.4369 8.92078 25.3643 8.77575ZM21.7386 23.5324H5.06043V13.743C5.09669 13.743 5.1692 13.7067 5.20546 13.7067C6.11188 13.5617 6.90954 13.0903 7.48965 12.4014C8.17853 13.2354 9.19373 13.743 10.354 13.743C11.5142 13.743 12.5294 13.2354 13.2183 12.4014C13.9071 13.2354 14.9223 13.743 16.0826 13.743C17.2428 13.743 18.258 13.2354 18.9469 12.4014C19.4545 12.9816 20.1071 13.4166 20.8685 13.6342H20.9047C20.9773 13.6704 21.086 13.6704 21.1585 13.6704C21.1948 13.6704 21.2673 13.7067 21.3036 13.7067C21.3761 13.7067 21.4486 13.7067 21.5211 13.743H21.6661V23.5324H21.7386ZM22.3913 11.9301C22.2825 11.9664 22.21 11.9664 22.1375 12.0026C22.0287 12.0026 21.9562 12.0389 21.8474 12.0389C21.7024 12.0389 21.5936 12.0389 21.4486 12.0026C21.3398 11.9664 21.2311 11.9664 21.1585 11.8939H21.1223C20.4334 11.6038 19.9258 10.9512 19.8895 10.1898V10.0447C19.8895 9.5734 19.4907 9.17458 19.0194 9.17458C18.548 9.17458 18.1129 9.53715 18.1129 10.0085V10.1898C18.0404 10.9512 17.5328 11.6038 16.8802 11.8939H16.844L16.5176 12.0026H16.0826C15.9375 12.0026 15.8288 12.0026 15.6837 11.9664C15.575 11.9301 15.4662 11.9301 15.3937 11.8576H15.3574C14.6685 11.5675 14.1609 10.9149 14.1247 10.1535V10.0085C14.1247 9.53715 13.7259 9.13832 13.2545 9.13832C12.7832 9.13832 12.3843 9.53715 12.3843 10.0085V10.1898C12.3118 10.9512 11.8042 11.6038 11.1516 11.8939H11.1153L10.789 12.0026H10.354C10.2452 12.0026 10.1002 12.0026 9.95512 11.9664C9.84635 11.9301 9.73758 11.9301 9.62881 11.8576H9.59255C8.90367 11.5675 8.39607 10.9149 8.35982 10.1535V10.0085C8.35982 9.53715 7.96099 9.13832 7.48965 9.13832C7.01831 9.13832 6.61948 9.53715 6.61948 10.0085V10.1898C6.54697 10.9512 6.03937 11.6038 5.38674 11.8939H5.35048C5.24171 11.9301 5.13294 11.9664 5.06043 12.0026H4.58909C4.51657 12.0026 4.44406 12.0026 4.37155 11.9664H4.26277C3.32009 11.7851 2.59495 10.9874 2.59495 10.0085C2.59495 9.86346 2.63121 9.68217 2.70372 9.46463C2.70372 9.42838 2.70372 9.39212 2.73998 9.39212L5.27797 2.322H21.2311L23.6965 9.21083C23.6965 9.21083 23.6965 9.24709 23.7328 9.28335L23.769 9.42838C23.769 9.46463 23.769 9.50089 23.8053 9.50089C23.8778 9.71843 23.9141 9.89972 23.9141 10.0447C23.8416 10.9149 23.2252 11.6763 22.3913 11.9301Z" fill="#E8E8E8"/>
</svg>
