<svg width="18" height="17" viewBox="0 0 18 17" fill="none" xmlns="http://www.w3.org/2000/svg">
<path d="M13.7411 2.07676L12.0411 1.18034C10.5488 0.393446 9.80263 0 9 0C8.19737 0 7.45123 0.393445 5.95895 1.18034C5.84032 1.24289 5.83728 1.41169 5.95359 1.47847L12.3374 5.14394C12.7939 5.40605 13.0221 5.5371 13.2738 5.54411C13.5256 5.55111 13.7607 5.43296 14.2311 5.19664L14.3706 5.12654C15.3284 4.64536 15.8072 4.40477 15.8156 3.79759C15.824 3.19042 15.402 2.96365 14.5581 2.51011C14.3082 2.37581 14.0366 2.23258 13.7411 2.07676Z" fill="#E8E8E8"/>
<path d="M17.4977 7.5108C17.4904 6.53663 17.4867 6.04954 17.0127 5.75962C16.5386 5.46971 16.0632 5.70853 15.1125 6.18618L14.9896 6.24792C14.4533 6.51736 14.1852 6.65208 14.0363 6.89343C13.8875 7.13478 13.8875 7.43487 13.8875 8.03505V9.39509C13.8875 9.74887 13.6021 10.0357 13.25 10.0357C12.8979 10.0357 12.6125 9.74887 12.6125 9.39509C12.6125 9.10458 12.6125 8.95933 12.5909 8.85718C12.4728 8.29781 11.9107 7.95111 11.3578 8.09671C11.2569 8.1233 11.1271 8.18851 10.8675 8.31893L10.4572 8.52506C10.1974 8.6556 10.0675 8.72087 9.96693 8.81174C9.82592 8.9392 9.72416 9.10421 9.67357 9.28744C9.6375 9.41807 9.6375 9.56346 9.6375 9.85423V14.4378C9.6375 15.5298 9.6375 16.0758 10.121 16.3674C10.6044 16.6591 11.0579 16.42 11.9648 15.9419C11.99 15.9286 12.0154 15.9152 12.041 15.9017L13.7411 15.0052C15.57 14.0408 16.4844 13.5586 16.9922 12.6921C17.5 11.8256 17.5 10.7474 17.5 8.59095V8.49103C17.5 8.13642 17.5 7.81096 17.4977 7.5108Z" fill="#E8E8E8"/>
<path d="M6.03523 15.9419C6.94213 16.42 7.39558 16.6591 7.87904 16.3674C8.3625 16.0758 8.3625 15.5298 8.3625 14.4378V10.1703C8.3625 9.57012 8.3625 9.27003 8.21366 9.02868C8.06481 8.78733 7.79667 8.65261 7.26037 8.38317L2.88749 6.18618C1.93678 5.70853 1.46142 5.46971 0.987336 5.75962C0.513251 6.04954 0.509587 6.53662 0.502258 7.5108C0.5 7.81096 0.5 8.13642 0.5 8.49103V8.59095C0.5 10.7474 0.5 11.8256 1.00779 12.6921C1.51557 13.5586 2.43003 14.0408 4.25893 15.0052L5.95895 15.9016C5.9846 15.9152 6.01002 15.9286 6.03523 15.9419Z" fill="#E8E8E8"/>
<path d="M3.44192 2.51011C2.59799 2.96365 2.17603 3.19042 2.18439 3.79759C2.19276 4.40477 2.67163 4.64536 3.62937 5.12654L8.38326 7.51495C8.54709 7.59726 8.62901 7.63842 8.71256 7.66349C8.90006 7.71976 9.09994 7.71976 9.28744 7.66349C9.37099 7.63842 9.45291 7.59726 9.61674 7.51495C10.1524 7.24582 10.4202 7.11126 10.5521 6.95547C10.8543 6.59854 10.8687 6.07984 10.5869 5.70666C10.4639 5.54377 10.2039 5.39452 9.68406 5.09602L4.4311 2.07985C4.37804 2.04939 4.31307 2.04822 4.25895 2.07676C3.96345 2.23258 3.69182 2.37581 3.44192 2.51011Z" fill="#E8E8E8"/>
</svg>
