<svg width="17" height="20" viewBox="0 0 17 20" fill="none" xmlns="http://www.w3.org/2000/svg">
<path d="M8.79381 0.480447C8.46054 0.378018 8.1042 0.378018 7.77094 0.480447L4.7852 1.39812C3.25085 1.8697 1.79367 2.56304 0.459883 3.45614C-0.387957 4.02385 0.0139223 5.34634 1.03428 5.34634H15.5305C16.5508 5.34634 16.9527 4.02385 16.1049 3.45614C14.7711 2.56304 13.3139 1.8697 11.7795 1.39812L8.79381 0.480447Z" fill="#E8E8E8"/>
<path d="M0.532349 18.8463C0.532349 18.4321 0.868135 18.0963 1.28235 18.0963H15.2823C15.6966 18.0963 16.0323 18.4321 16.0323 18.8463C16.0323 19.2606 15.6966 19.5963 15.2823 19.5963H1.28235C0.868135 19.5963 0.532349 19.2606 0.532349 18.8463Z" fill="#E8E8E8"/>
<path d="M2.53235 14.8463C2.53235 15.2606 2.86813 15.5963 3.28235 15.5963C3.69656 15.5963 4.03235 15.2606 4.03235 14.8463L4.03235 8.84634C4.03235 8.43213 3.69656 8.09634 3.28235 8.09634C2.86813 8.09634 2.53235 8.43213 2.53235 8.84634L2.53235 14.8463Z" fill="#E8E8E8"/>
<path d="M8.28235 15.5963C7.86813 15.5963 7.53235 15.2606 7.53235 14.8463L7.53235 8.84634C7.53235 8.43213 7.86813 8.09634 8.28235 8.09634C8.69656 8.09634 9.03235 8.43213 9.03235 8.84634V14.8463C9.03235 15.2606 8.69656 15.5963 8.28235 15.5963Z" fill="#E8E8E8"/>
<path d="M12.5323 14.8463C12.5323 15.2606 12.8681 15.5963 13.2823 15.5963C13.6966 15.5963 14.0323 15.2606 14.0323 14.8463V8.84634C14.0323 8.43213 13.6966 8.09634 13.2823 8.09634C12.8681 8.09634 12.5323 8.43213 12.5323 8.84634V14.8463Z" fill="#E8E8E8"/>
</svg>
