<svg width="17" height="20" viewBox="0 0 17 20" fill="none" xmlns="http://www.w3.org/2000/svg">
<path d="M8.79381 0.0768217C8.46054 -0.0256074 8.1042 -0.0256071 7.77094 0.0768218L4.7852 0.994491C3.25085 1.46607 1.79367 2.15941 0.459883 3.05252C-0.387957 3.62023 0.0139223 4.94271 1.03428 4.94271H15.5305C16.5508 4.94271 16.9527 3.62023 16.1049 3.05252C14.7711 2.15941 13.3139 1.46607 11.7795 0.994491L8.79381 0.0768217Z" fill="#E8E8E8"/>
<path d="M0.532349 18.4427C0.532349 18.0285 0.868135 17.6927 1.28235 17.6927H15.2823C15.6966 17.6927 16.0323 18.0285 16.0323 18.4427C16.0323 18.8569 15.6966 19.1927 15.2823 19.1927H1.28235C0.868135 19.1927 0.532349 18.8569 0.532349 18.4427Z" fill="#E8E8E8"/>
<path d="M2.53235 14.4427C2.53235 14.8569 2.86813 15.1927 3.28235 15.1927C3.69656 15.1927 4.03235 14.8569 4.03235 14.4427L4.03235 8.44272C4.03235 8.0285 3.69656 7.69272 3.28235 7.69272C2.86813 7.69272 2.53235 8.02851 2.53235 8.44272L2.53235 14.4427Z" fill="#E8E8E8"/>
<path d="M8.28235 15.1927C7.86813 15.1927 7.53235 14.8569 7.53235 14.4427L7.53235 8.44272C7.53235 8.02851 7.86813 7.69272 8.28235 7.69272C8.69656 7.69272 9.03235 8.0285 9.03235 8.44272V14.4427C9.03235 14.8569 8.69656 15.1927 8.28235 15.1927Z" fill="#E8E8E8"/>
<path d="M12.5323 14.4427C12.5323 14.8569 12.8681 15.1927 13.2823 15.1927C13.6966 15.1927 14.0323 14.8569 14.0323 14.4427V8.44272C14.0323 8.0285 13.6966 7.69272 13.2823 7.69272C12.8681 7.69272 12.5323 8.02851 12.5323 8.44272V14.4427Z" fill="#E8E8E8"/>
</svg>
