<svg width="20" height="18" viewBox="0 0 20 18" fill="none" xmlns="http://www.w3.org/2000/svg">
<path d="M6.59277 11.8634L17.2526 15.4081C17.4614 15.4767 17.6834 15.495 17.9007 15.4612C18.1178 15.4276 18.3239 15.3428 18.5018 15.2142C18.6811 15.0868 18.8276 14.9187 18.929 14.7236C19.0304 14.5287 19.0838 14.3124 19.0848 14.0926V2.69702C19.0838 2.47735 19.0304 2.26106 18.929 2.06605C18.8276 1.87104 18.6811 1.70287 18.5018 1.57546C18.3226 1.44909 18.1161 1.3669 17.8989 1.33561C17.6818 1.30433 17.4603 1.32483 17.2526 1.39545L6.59277 4.94015V11.8634Z" stroke="white" stroke-linecap="round" stroke-linejoin="round"/>
<path d="M1.04102 8.40182C1.04102 8.8564 1.13077 9.30654 1.30515 9.72653C1.47954 10.1465 1.73514 10.5281 2.05735 10.8496C2.7081 11.4987 3.59072 11.8634 4.51102 11.8634H6.59302V4.9402H4.51102C4.05534 4.9402 3.60411 5.02974 3.1831 5.2037C2.76211 5.37767 2.37958 5.63265 2.05735 5.95409C1.4066 6.60326 1.04102 7.48375 1.04102 8.40182Z" stroke="white" stroke-linecap="round" stroke-linejoin="round"/>
<path d="M4.51123 11.8634V13.2481C4.51123 13.7027 4.60098 14.1529 4.77537 14.5728C4.94976 14.9928 5.20536 15.3744 5.52757 15.6958C5.84979 16.0173 6.23232 16.2722 6.65332 16.4463C7.07433 16.6202 7.52555 16.7098 7.98123 16.7098" stroke="white" stroke-linecap="round" stroke-linejoin="round"/>
</svg>
