<svg width="16" height="17" viewBox="0 0 16 17" fill="none" xmlns="http://www.w3.org/2000/svg">
<path d="M15.6775 14.1908C16.1075 9.98282 16.1075 5.74071 15.6775 1.53269C15.543 0.216475 14.0524 -0.450251 13.0093 0.339208L9.02742 3.35276C7.77224 4.3027 6.24987 4.81568 4.68589 4.81568H0.970324C0.434429 4.81568 0 5.25799 0 5.8036V9.91992C0 10.4655 0.434428 10.9078 0.970324 10.9078H4.68589C6.24987 10.9078 7.77224 11.4208 9.02742 12.3708L13.0093 15.3843C14.0524 16.1738 15.543 15.5071 15.6775 14.1908Z" fill="#E8E8E8"/>
<path d="M5.25278 13.0997C5.30851 12.8779 5.26047 12.6424 5.12261 12.4616C4.98476 12.2808 4.77257 12.175 4.54776 12.175L2.60711 12.175C2.33146 12.175 2.07947 12.3336 1.95619 12.5846L0.985867 14.5604C0.820161 14.8979 0.929918 15.3082 1.24079 15.5134L3.31144 16.8807C3.50803 17.0105 3.75399 17.036 3.97225 16.9492C4.19051 16.8624 4.35435 16.6739 4.41245 16.4428L5.25278 13.0997Z" fill="#E8E8E8"/>
</svg>
