<svg width="14" height="14" viewBox="0 0 14 14" fill="none" xmlns="http://www.w3.org/2000/svg">
<path d="M13.7178 11.6866C14.0941 8.22114 14.0941 4.72764 13.7178 1.26221C13.6001 0.178274 12.2959 -0.370795 11.3831 0.279347L7.899 2.76109C6.80071 3.5434 5.46864 3.96586 4.10015 3.96586H0.849034C0.380126 3.96586 0 4.33011 0 4.77944V8.16934C0 8.61867 0.380125 8.98292 0.849034 8.98292L4.10015 8.98292C5.46863 8.98292 6.80071 9.40538 7.899 10.1877L11.3831 12.6694C12.2959 13.3196 13.6001 12.7705 13.7178 11.6866Z" fill="#E8E8E8"/>
<path d="M4.59618 10.788C4.64495 10.6054 4.60291 10.4114 4.48229 10.2625C4.36166 10.1136 4.176 10.0265 3.97929 10.0265L2.28122 10.0265C2.04003 10.0265 1.81953 10.1571 1.71167 10.3638L0.862634 11.9909C0.717641 12.2688 0.813678 12.6067 1.08569 12.7758L2.89751 13.9018C3.06953 14.0087 3.28475 14.0297 3.47572 13.9582C3.66669 13.8867 3.81006 13.7314 3.86089 13.5411L4.59618 10.788Z" fill="#E8E8E8"/>
</svg>
