<svg width="20" height="18" viewBox="0 0 20 18" fill="none" xmlns="http://www.w3.org/2000/svg">
<path d="M6.4707 11.7922L16.9755 15.3716C17.1812 15.4409 17.4001 15.4594 17.6141 15.4253C17.8281 15.3913 18.0312 15.3057 18.2065 15.1758C18.3833 15.0472 18.5276 14.8775 18.6276 14.6804C18.7274 14.4836 18.7801 14.2652 18.781 14.0433V2.53604C18.7801 2.31422 18.7274 2.09582 18.6276 1.89889C18.5276 1.70197 18.3833 1.53216 18.2065 1.4035C18.03 1.27589 17.8264 1.1929 17.6124 1.1613C17.3984 1.12971 17.1801 1.15042 16.9755 1.22173L6.4707 4.80114V11.7922Z" stroke="#E8E8E8" stroke-width="2" stroke-linecap="round" stroke-linejoin="round"/>
<path d="M1 8.29673C1 8.75576 1.08845 9.21031 1.2603 9.63441C1.43214 10.0585 1.68403 10.4438 2.00155 10.7684C2.64284 11.424 3.51262 11.7923 4.41953 11.7923H6.47125V4.80121H4.41953C3.97048 4.80121 3.52582 4.89162 3.11093 5.06729C2.69606 5.24296 2.31909 5.50044 2.00155 5.82502C1.36027 6.48056 1 7.36966 1 8.29673Z" stroke="#E8E8E8" stroke-width="2" stroke-linecap="round" stroke-linejoin="round"/>
<path d="M4.41943 11.7922V13.1905C4.41943 13.6495 4.50788 14.1041 4.67973 14.5282C4.85158 14.9522 5.10346 15.3376 5.42099 15.6621C5.73853 15.9868 6.1155 16.2442 6.53037 16.4199C6.94525 16.5956 7.38991 16.686 7.83897 16.686" stroke="#E8E8E8" stroke-width="2" stroke-linecap="round" stroke-linejoin="round"/>
</svg>
