<svg width="15" height="17" viewBox="0 0 15 17" fill="none" xmlns="http://www.w3.org/2000/svg">
<path d="M4.27112 2.6401H3.61706C2.70106 2.6401 2.24272 2.6401 1.89285 2.81887C1.5851 2.97612 1.33507 3.22686 1.17827 3.53549C1 3.88635 1 4.346 1 5.26461V5.92054M4.27112 2.6401H10.8134M4.27112 2.6401V0.999878M10.8134 2.6401H11.4677C12.3837 2.6401 12.8411 2.6401 13.191 2.81887C13.4987 2.97612 13.7496 3.22686 13.9064 3.53549C14.0845 3.88601 14.0845 4.3451 14.0845 5.26192V5.92054M10.8134 2.6401V0.999878M1 5.92054V13.1377C1 14.0563 1 14.5153 1.17827 14.8662C1.33507 15.1748 1.5851 15.426 1.89285 15.5833C2.24237 15.7619 2.70016 15.7619 3.61437 15.7619H11.4701C12.3843 15.7619 12.8414 15.7619 13.191 15.5833C13.4987 15.426 13.7496 15.1748 13.9064 14.8662C14.0845 14.5157 14.0845 14.0573 14.0845 13.1404V5.92054M1 5.92054H14.0845M10.8134 12.4814H10.815L10.815 12.4831L10.8134 12.483V12.4814ZM7.54224 12.4814H7.54388L7.54384 12.4831L7.54224 12.483V12.4814ZM4.27112 12.4814H4.27276L4.27272 12.4831L4.27112 12.483V12.4814ZM10.815 9.20098V9.20262L10.8134 9.20258V9.20098H10.815ZM7.54224 9.20098H7.54388L7.54384 9.20262L7.54224 9.20258V9.20098ZM4.27112 9.20098H4.27276L4.27272 9.20262L4.27112 9.20258V9.20098Z" stroke="#E8E8E8" stroke-linecap="round" stroke-linejoin="round"/>
</svg>
