<svg width="16" height="13" viewBox="0 0 16 13" fill="none" xmlns="http://www.w3.org/2000/svg">
<path d="M1.48486 11.5894H2.80491M2.80491 11.5894H10.0652M2.80491 11.5894V7.89605C2.80491 7.55151 2.80491 7.37917 2.84649 7.21848C2.88334 7.07607 2.944 6.941 3.02599 6.81859C3.11846 6.68055 3.24788 6.56496 3.50554 6.33496L5.02464 4.97895C5.52278 4.53429 5.77204 4.3118 6.05387 4.22739C6.30234 4.15297 6.56751 4.15297 6.81597 4.22739C7.09804 4.31187 7.34764 4.53448 7.84662 4.97988L9.36467 6.33496C9.62263 6.56521 9.75134 6.68047 9.84386 6.81859C9.92585 6.941 9.98643 7.07607 10.0233 7.21848C10.0649 7.37917 10.0652 7.55151 10.0652 7.89605V11.5894M10.0652 11.5894H13.3653M13.3653 11.5894H14.6853M13.3653 11.5894V3.19319C13.3653 2.46007 13.3653 2.09296 13.2216 1.81267C13.095 1.56588 12.8925 1.36538 12.6442 1.23963C12.3618 1.09668 11.9926 1.09668 11.2533 1.09668H6.89719C6.15789 1.09668 5.78797 1.09668 5.5056 1.23963C5.25721 1.36538 5.05542 1.56588 4.92886 1.81267C4.78498 2.09324 4.78498 2.46079 4.78498 3.19535V5.03157" stroke="#1A72FF" stroke-linecap="round" stroke-linejoin="round"/>
</svg>
