<svg width="15" height="12" viewBox="0 0 15 12" fill="none" xmlns="http://www.w3.org/2000/svg">
<path d="M14.1006 4.7793C14.5955 4.77945 15 5.15586 15 5.61621V9.10449C14.9999 10.702 13.6052 12 11.8877 12H3.10449C1.38716 11.9998 0 10.7088 0 9.11133V5.61621C0 5.15577 0.405377 4.7793 0.900391 4.7793H14.1006ZM3 8.61621C2.69249 8.61621 2.4375 8.85361 2.4375 9.13965C2.43774 9.4255 2.69263 9.66211 3 9.66211H4.5C4.80737 9.66211 5.06226 9.4255 5.0625 9.13965C5.0625 8.85361 4.80751 8.61621 4.5 8.61621H3ZM6.375 8.61621C6.06752 8.61624 5.8125 8.85363 5.8125 9.13965C5.81274 9.42549 6.06766 9.66208 6.375 9.66211H9.375C9.68237 9.66211 9.93726 9.4255 9.9375 9.13965C9.9375 8.85361 9.68251 8.61621 9.375 8.61621H6.375ZM11.8877 0C13.6052 0 15 1.2979 15 2.89551C14.9998 3.35573 14.5954 3.73226 14.1006 3.73242H0.900391C0.405479 3.73242 0.000166917 3.35582 0 2.89551V2.88867C0 1.29121 1.38716 0.000237175 3.10449 0H11.8877Z" fill="#1A72FF"/>
</svg>
