<svg width="18" height="14" viewBox="0 0 18 14" fill="none" xmlns="http://www.w3.org/2000/svg">
<path d="M1.35742 6.08719L1.35742 10.2016C1.35742 11.1617 1.35742 11.6415 1.55119 12.0082C1.72163 12.3308 1.9934 12.5933 2.32791 12.7577C2.70782 12.9443 3.20542 12.9443 4.19912 12.9443L14.5157 12.9443C15.5094 12.9443 16.0063 12.9443 16.3862 12.7577C16.7207 12.5933 16.9934 12.3308 17.1638 12.0082C17.3574 11.6419 17.3574 11.1628 17.3574 10.2045L17.3574 6.08719M1.35742 6.08719L1.35742 4.37291M1.35742 6.08719L17.3574 6.08719M1.35742 4.37291L1.35742 3.68736C1.35742 2.72727 1.35742 2.24687 1.55119 1.88016C1.72163 1.5576 1.9934 1.29554 2.32791 1.13118C2.7082 0.944336 3.20639 0.944336 4.20204 0.944336L14.5132 0.944336C15.5088 0.944336 16.0059 0.944336 16.3862 1.13118C16.7207 1.29554 16.9934 1.5576 17.1638 1.88016C17.3574 2.24651 17.3574 2.72633 17.3574 3.68454L17.3574 4.37291M1.35742 4.37291L17.3574 4.37291M4.91298 9.51576L8.46853 9.51576M17.3574 6.08719V4.37291" stroke="#E8E8E8" stroke-linecap="round" stroke-linejoin="round"/>
</svg>
