<svg width="20" height="18" viewBox="0 0 20 18" fill="none" xmlns="http://www.w3.org/2000/svg">
<path d="M18.7998 6.85059C19.4597 6.85059 19.9998 7.38994 20 8.0498V13.0498C20 15.3398 18.1396 17.2002 15.8496 17.2002H4.13965C1.84996 17.2 0.000242399 15.3502 0 13.0605V8.0498C0.000159669 7.38994 0.540293 6.85059 1.2002 6.85059H18.7998ZM4 12.3506C3.59 12.3506 3.25 12.6906 3.25 13.1006C3.25027 13.5104 3.59016 13.8506 4 13.8506H6C6.40984 13.8506 6.74973 13.5104 6.75 13.1006C6.75 12.6906 6.41 12.3506 6 12.3506H4ZM8.5 12.3506C8.09 12.3506 7.75 12.6906 7.75 13.1006C7.75027 13.5104 8.09016 13.8506 8.5 13.8506H12.5C12.9098 13.8506 13.2497 13.5104 13.25 13.1006C13.25 12.6906 12.91 12.3506 12.5 12.3506H8.5ZM15.8496 0C18.1396 0 20 1.86039 20 4.15039C19.9998 4.81021 19.4597 5.34961 18.7998 5.34961H1.2002C0.540325 5.34961 0.000212965 4.81021 0 4.15039V4.13965C0.000189249 1.84993 1.84993 0.00018925 4.13965 0H15.8496Z" fill="#E8E8E8"/>
</svg>
