<svg width="16" height="15" viewBox="0 0 16 15" fill="none" xmlns="http://www.w3.org/2000/svg">
<path d="M14.5727 2H3.32622L2.36529 0.307677C2.25743 0.117723 2.05339 0 1.832 0H0.610667C0.273405 0 0 0.268629 0 0.6C0 0.931371 0.273405 1.2 0.610667 1.2H1.47342L2.42174 2.87012L4.6088 7.6247L4.61104 7.62956L4.80368 8.04833L2.60785 10.3496C2.44996 10.5151 2.40054 10.7539 2.48011 10.9668C2.55969 11.1797 2.75466 11.3304 2.98401 11.3561L4.98548 11.5809C7.48895 11.862 10.0169 11.862 12.5203 11.5809L14.5218 11.3561C14.8569 11.3185 15.0975 11.0211 15.0592 10.6919C15.0209 10.3626 14.7182 10.1263 14.3831 10.1639L12.3817 10.3886C9.97034 10.6594 7.53548 10.6594 5.12416 10.3886L4.32987 10.2994L5.94152 8.61037C5.95711 8.59403 5.97159 8.57706 5.98496 8.55955L6.59792 8.63791C7.45687 8.74772 8.32512 8.76925 9.18861 8.70215C11.2026 8.54565 13.0691 7.60407 14.3722 6.08726L14.8429 5.5394C14.8587 5.521 14.8734 5.50169 14.8868 5.48155L15.7641 4.16807C16.3858 3.23706 15.7061 2 14.5727 2Z" fill="#E8E8E8"/>
<path d="M4.27467 12.6C3.60015 12.6 3.05334 13.1373 3.05334 13.8C3.05334 14.4627 3.60015 15 4.27467 15C4.9492 15 5.49601 14.4627 5.49601 13.8C5.49601 13.1373 4.9492 12.6 4.27467 12.6Z" fill="#E8E8E8"/>
<path d="M12.0098 13.8C12.0098 13.1373 12.5566 12.6 13.2311 12.6C13.9056 12.6 14.4525 13.1373 14.4525 13.8C14.4525 14.4627 13.9056 15 13.2311 15C12.5566 15 12.0098 14.4627 12.0098 13.8Z" fill="#E8E8E8"/>
</svg>
