<svg width="14" height="14" viewBox="0 0 14 14" fill="none" xmlns="http://www.w3.org/2000/svg">
<path d="M4.14355 8.0293C5.13048 8.0293 5.92176 8.82739 5.92188 9.82129V12.208C5.92177 13.1949 5.13049 14 4.14355 14H1.77832C0.798386 14 0.000107489 13.1949 0 12.208V9.82129C0.00011751 8.82739 0.798393 8.0293 1.77832 8.0293H4.14355ZM12.2217 8.0293C13.2016 8.0293 13.9999 8.82739 14 9.82129V12.208C13.9999 13.1949 13.2016 14 12.2217 14H9.85645C8.86951 14 8.07823 13.1949 8.07812 12.208V9.82129C8.07824 8.82739 8.86952 8.0293 9.85645 8.0293H12.2217ZM4.14355 0C5.13055 0 5.92188 0.805269 5.92188 1.79297V4.17871C5.92188 5.17271 5.13055 5.9707 4.14355 5.9707H1.77832C0.79832 5.9707 0 5.17271 0 4.17871V1.79297C0 0.805269 0.79832 0 1.77832 0H4.14355ZM12.2217 0C13.2017 0 14 0.805269 14 1.79297V4.17871C14 5.17271 13.2017 5.9707 12.2217 5.9707H9.85645C8.86945 5.9707 8.07812 5.17271 8.07812 4.17871V1.79297C8.07812 0.805269 8.86945 0 9.85645 0H12.2217Z" fill="#A3A3A3"/>
</svg>
