<svg width="20" height="20" viewBox="0 0 20 20" fill="none" xmlns="http://www.w3.org/2000/svg">
<path d="M5.04702 9.95002C5.28476 10.2533 5.7233 10.3063 6.02653 10.0686C6.32976 9.83086 6.38285 9.39232 6.14511 9.08909C5.77249 8.61383 5.45128 8.08602 5.20608 7.52902C5.05083 7.17636 4.63909 7.01633 4.28644 7.17158C3.93378 7.32683 3.77375 7.73856 3.929 8.09122C4.22358 8.76039 4.60631 9.38791 5.04702 9.95002Z" fill="#E8E8E8"/>
<path d="M3.33903 5.97367C3.38463 6.35628 3.73176 6.62948 4.11437 6.58388C4.49697 6.53828 4.77017 6.19115 4.72457 5.80855C4.65531 5.22736 4.68283 4.6442 4.8258 4.07647C4.91989 3.70282 4.69326 3.32364 4.31961 3.22955C3.94596 3.13545 3.56678 3.36208 3.47269 3.73573C3.28429 4.48392 3.25154 5.23962 3.33903 5.97367Z" fill="#E8E8E8"/>
<path d="M4.42558 1.70171C4.20068 2.01458 4.27199 2.45053 4.58486 2.67543C4.89773 2.90033 5.33368 2.82902 5.55858 2.51615C5.72321 2.28711 5.91479 2.06101 6.13611 1.83969C6.40857 1.56723 6.40857 1.12549 6.13611 0.853028C5.86365 0.58057 5.42191 0.580569 5.14945 0.853028C4.87664 1.12584 4.63578 1.40929 4.42558 1.70171Z" fill="#E8E8E8"/>
<path d="M15.2428 10.05C15.005 9.74675 14.5665 9.69366 14.2633 9.9314C13.96 10.1691 13.9069 10.6077 14.1447 10.9109C14.5173 11.3862 14.8385 11.914 15.0837 12.471C15.239 12.8236 15.6507 12.9837 16.0034 12.8284C16.356 12.6732 16.516 12.2614 16.3608 11.9088C16.0662 11.2396 15.6835 10.6121 15.2428 10.05Z" fill="#E8E8E8"/>
<path d="M16.9508 14.0263C16.9052 13.6437 16.558 13.3705 16.1754 13.4161C15.7928 13.4617 15.5196 13.8088 15.5652 14.1915C15.6345 14.7726 15.607 15.3558 15.464 15.9235C15.3699 16.2972 15.5965 16.6764 15.9702 16.7705C16.3438 16.8645 16.723 16.6379 16.8171 16.2643C17.0055 15.5161 17.0382 14.7604 16.9508 14.0263Z" fill="#E8E8E8"/>
<path d="M15.8642 18.2983C16.0891 17.9854 16.0178 17.5495 15.7049 17.3246C15.3921 17.0997 14.9561 17.171 14.7312 17.4839C14.5666 17.7129 14.375 17.939 14.1537 18.1603C13.8812 18.4328 13.8812 18.8745 14.1537 19.147C14.4261 19.4194 14.8679 19.4194 15.1403 19.147C15.4131 18.8742 15.654 18.5907 15.8642 18.2983Z" fill="#E8E8E8"/>
<path d="M10.0758 5.88163C9.8381 5.5784 9.89119 5.13986 10.1944 4.90212C10.7565 4.46141 11.3841 4.07869 12.0532 3.7841C12.4059 3.62886 12.8176 3.78889 12.9729 4.14154C13.1281 4.4942 12.9681 4.90593 12.6154 5.06118C12.0584 5.30639 11.5306 5.62759 11.0553 6.00021C10.7521 6.23795 10.3136 6.18486 10.0758 5.88163Z" fill="#E8E8E8"/>
<path d="M13.5606 3.96947C13.515 3.58686 13.7882 3.23973 14.1708 3.19413C14.9048 3.10665 15.6605 3.13939 16.4087 3.3278C16.7824 3.42189 17.009 3.80107 16.9149 4.17472C16.8208 4.54837 16.4416 4.77499 16.068 4.6809C15.5002 4.53794 14.9171 4.51041 14.3359 4.57968C13.9533 4.62528 13.6062 4.35208 13.5606 3.96947Z" fill="#E8E8E8"/>
<path d="M17.469 4.43996C17.6939 4.12709 18.1299 4.05578 18.4427 4.28068C18.7351 4.49088 19.0186 4.73175 19.2914 5.00455C19.5639 5.27701 19.5639 5.71876 19.2914 5.99121C19.019 6.26367 18.5772 6.26367 18.3048 5.99121C18.0834 5.76989 17.8573 5.57832 17.6283 5.41368C17.3154 5.18878 17.2441 4.75283 17.469 4.43996Z" fill="#E8E8E8"/>
<path d="M10.0954 15.0979C10.3986 14.8601 10.4517 14.4216 10.214 14.1184C9.97621 13.8151 9.53767 13.762 9.23444 13.9998C8.75918 14.3724 8.23137 14.6936 7.67437 14.9388C7.32171 15.0941 7.16168 15.5058 7.31693 15.8585C7.47218 16.2111 7.88391 16.3711 8.23657 16.2159C8.90574 15.9213 9.53326 15.5386 10.0954 15.0979Z" fill="#E8E8E8"/>
<path d="M6.11903 16.8059C6.50163 16.7603 6.77483 16.4131 6.72923 16.0305C6.68363 15.6479 6.3365 15.3747 5.9539 15.4203C5.37271 15.4896 4.78955 15.4621 4.22182 15.3191C3.84817 15.225 3.46899 15.4516 3.3749 15.8253C3.28081 16.1989 3.50743 16.5781 3.88108 16.6722C4.62927 16.8606 5.38497 16.8933 6.11903 16.8059Z" fill="#E8E8E8"/>
<path d="M1.84706 15.7193C2.15993 15.9442 2.59588 15.8729 2.82078 15.56C3.04568 15.2472 2.97437 14.8112 2.6615 14.5863C2.43246 14.4217 2.20636 14.2301 1.98504 14.0088C1.71258 13.7363 1.27084 13.7363 0.998379 14.0088C0.72592 14.2812 0.72592 14.723 0.998379 14.9954C1.27119 15.2683 1.55464 15.5091 1.84706 15.7193Z" fill="#E8E8E8"/>
<path d="M11.6244 13.5508C11.3924 13.8584 10.9549 13.9197 10.6473 13.6877C10.4774 13.5596 10.3827 13.3689 10.3709 13.172C9.17975 13.7352 7.66014 13.9003 6.18121 13.6908C3.19614 13.2679 0 11.224 0 7.2093C0 6.82399 0.31236 6.51163 0.697674 6.51163C1.08299 6.51163 1.39535 6.82399 1.39535 7.2093C1.39535 10.2643 3.78061 11.9414 6.37693 12.3092C6.97678 12.3942 7.5676 12.4042 8.11801 12.3469C7.58908 12.1395 7.07464 11.8414 6.59411 11.479C6.28648 11.247 6.22517 10.8095 6.45718 10.5019C6.6023 10.3095 6.8278 10.2134 7.05164 10.2253C6.54191 9.0573 6.39794 7.60052 6.59901 6.18121C7.0219 3.19614 9.06575 0 13.0805 0C13.4658 0 13.7782 0.31236 13.7782 0.697675C13.7782 1.08299 13.4658 1.39535 13.0805 1.39535C10.0255 1.39535 8.34838 3.78061 7.98057 6.37693C7.91669 6.8278 7.89518 7.27356 7.91277 7.7009C8.10964 7.26779 8.3655 6.84689 8.66541 6.44922C8.89742 6.14158 9.33489 6.08028 9.64253 6.31229C9.86039 6.47659 9.95471 6.74394 9.90881 6.99524C11.0531 6.53149 12.4533 6.40557 13.8188 6.59901C16.8039 7.0219 20 9.06575 20 13.0805C20 13.4658 19.6876 13.7782 19.3023 13.7782C18.917 13.7782 18.6047 13.4658 18.6047 13.0805C18.6047 10.0255 16.2194 8.34838 13.6231 7.98057C13.3222 7.93794 13.0235 7.91418 12.7311 7.90832C13.0632 8.08122 13.3865 8.28778 13.6957 8.52097C14.0033 8.75298 14.0646 9.19045 13.8326 9.49809C13.6875 9.69051 13.462 9.78656 13.2381 9.77474C13.7479 10.9427 13.8918 12.3995 13.6908 13.8188C13.2679 16.8039 11.224 20 7.2093 20C6.82399 20 6.51163 19.6876 6.51163 19.3023C6.51163 18.917 6.82399 18.6047 7.2093 18.6047C10.2643 18.6047 11.9414 16.2194 12.3092 13.6231C12.3731 13.1722 12.3946 12.7264 12.377 12.2991C12.1802 12.7322 11.9243 13.1531 11.6244 13.5508Z" fill="#E8E8E8"/>
</svg>
