<svg width="18" height="20" viewBox="0 0 18 20" fill="none" xmlns="http://www.w3.org/2000/svg">
<path d="M2.77667 8.29552V16.265C2.77667 17.5881 2.77667 18.2497 3.22555 18.8116C3.67443 19.3736 4.21092 19.4723 5.28392 19.6696C6.27582 19.8521 7.53247 20 9 20C10.4675 20 11.7242 19.8521 12.7161 19.6696C13.7891 19.4723 14.3256 19.3736 14.7745 18.8116C15.2233 18.2497 15.2233 17.5881 15.2233 16.265V8.29552C15.2233 7.61172 15.2233 7.26982 15.3547 6.96928C15.4861 6.66875 15.7329 6.44624 16.2264 6.00123L16.4116 5.83416C17.4679 4.8817 17.996 4.40548 18 3.71612C18.004 3.02677 17.5355 2.59391 16.5987 1.72818C16.4569 1.59713 16.3164 1.47455 16.1808 1.36582C15.7094 0.987975 15.0431 0.574422 14.5332 0.275654C14.056 -0.00391186 13.4954 -0.0683282 12.9656 0.0710314L12.4755 0.199929C12.0874 0.302004 11.7493 0.552599 11.5274 0.902782C10.3251 2.80015 7.67491 2.80015 6.47256 0.902782C6.25065 0.552599 5.91264 0.302004 5.52454 0.199929L5.03445 0.0710313C4.50458 -0.0683284 3.944 -0.00391207 3.46683 0.275654C2.95689 0.574422 2.29062 0.987975 1.81923 1.36582C1.68359 1.47455 1.5431 1.59713 1.40129 1.72818C0.464464 2.59391 -0.00394866 3.02677 2.50707e-05 3.71612C0.00399886 4.40548 0.532117 4.8817 1.58835 5.83416L1.77364 6.00123C2.26714 6.44624 2.51389 6.66875 2.64528 6.96928C2.77667 7.26982 2.77667 7.61172 2.77667 8.29552Z" fill="#E8E8E8"/>
</svg>
