<svg width="20" height="22" viewBox="0 0 20 22" fill="none" xmlns="http://www.w3.org/2000/svg">
<path d="M12 0.75H8C4.22876 0.75 2.34315 0.75 1.17157 1.92157C0 3.09315 0 4.97876 0 8.75V9.75C0 10.3016 0 10.7994 0.00651789 11.25H10.6017C10.7054 10.5707 10.9376 9.86266 11.5251 9.27513C12.1432 8.65708 12.8946 8.43219 13.6056 8.3366C14.2512 8.2498 15.0449 8.24989 15.9105 8.24999H16.0895C16.9551 8.24989 17.7488 8.2498 18.3944 8.3366C18.9315 8.40881 19.4917 8.55481 20 8.88834V8.75C20 4.97876 20 3.09315 18.8284 1.92157C17.6569 0.75 15.7712 0.75 12 0.75Z" fill="#E8E8E8"/>
<path d="M0.87868 14.8713C1.75736 15.75 3.17157 15.75 6 15.75H9.25V19.75H6C5.58579 19.75 5.25 20.0858 5.25 20.5C5.25 20.9142 5.58579 21.25 6 21.25H11.5505L11.5251 21.2249C10.9071 20.6068 10.6822 19.8554 10.5866 19.1444C10.4998 18.4988 10.4999 17.7051 10.5 16.8395V13.6605C10.4999 13.1616 10.4999 12.6865 10.5165 12.25H0.0383531C0.108929 13.5079 0.309377 14.302 0.87868 14.8713Z" fill="#E8E8E8"/>
<path fill-rule="evenodd" clip-rule="evenodd" d="M20 13.75V16.75C20 18.6356 20 19.5784 19.4142 20.1642C18.8284 20.75 17.8856 20.75 16 20.75C14.1144 20.75 13.1716 20.75 12.5858 20.1642C12 19.5784 12 18.6356 12 16.75V13.75C12 11.8644 12 10.9216 12.5858 10.3358C13.1716 9.75 14.1144 9.75 16 9.75C17.8856 9.75 18.8284 9.75 19.4142 10.3358C20 10.9216 20 11.8644 20 13.75ZM14.25 18.75C14.25 18.3358 14.5858 18 15 18H17C17.4142 18 17.75 18.3358 17.75 18.75C17.75 19.1642 17.4142 19.5 17 19.5H15C14.5858 19.5 14.25 19.1642 14.25 18.75Z" fill="#E8E8E8"/>
</svg>
