<svg width="20" height="20" viewBox="0 0 20 20" fill="none" xmlns="http://www.w3.org/2000/svg">
<path d="M5.57065 13.8763C7.15635 10.648 7.9492 9.0339 9.09042 8.64929C9.68104 8.45024 10.319 8.45024 10.9096 8.64929C12.0508 9.0339 12.8437 10.648 14.4294 13.8763L15.3081 15.6653C15.7177 16.4992 15.9225 16.9162 15.971 17.2003C16.1722 18.379 15.3002 19.4654 14.1254 19.4996C13.8422 19.5079 13.4 19.3867 12.5156 19.1443C12.0101 19.0058 11.7574 18.9365 11.5047 18.8854C10.5113 18.6843 9.48873 18.6843 8.49534 18.8854C8.24258 18.9365 7.98987 19.0058 7.48445 19.1443C6.6 19.3867 6.15777 19.5079 5.87458 19.4996C4.6998 19.4654 3.82776 18.379 4.02896 17.2003C4.07746 16.9162 4.28227 16.4992 4.69189 15.6653L5.57065 13.8763Z" fill="#E8E8E8"/>
<path d="M4.14477 4.02746C4.55659 5.65822 5.72105 6.74406 6.74566 6.45275C7.77027 6.16144 8.26704 4.6033 7.85523 2.97254C7.44341 1.34178 6.27895 0.255943 5.25434 0.54725C4.22973 0.838557 3.73296 2.3967 4.14477 4.02746Z" fill="#E8E8E8"/>
<path d="M15.8552 4.02746C15.4434 5.65822 14.279 6.74406 13.2543 6.45275C12.2297 6.16144 11.733 4.6033 12.1448 2.97254C12.5566 1.34178 13.721 0.255943 14.7457 0.54725C15.7703 0.838557 16.267 2.3967 15.8552 4.02746Z" fill="#E8E8E8"/>
<path d="M0.201658 10.7971C0.65166 12.0021 1.70968 12.7341 2.5648 12.4319C3.41993 12.1298 3.74834 10.9079 3.29834 9.70289C2.84834 8.49785 1.79032 7.76592 0.935199 8.06808C0.0800738 8.37024 -0.248344 9.59206 0.201658 10.7971Z" fill="#E8E8E8"/>
<path d="M19.7983 10.7971C19.3483 12.0021 18.2903 12.7341 17.4352 12.4319C16.5801 12.1298 16.2517 10.9079 16.7017 9.70289C17.1517 8.49785 18.2097 7.76592 19.0648 8.06808C19.9199 8.37024 20.2483 9.59206 19.7983 10.7971Z" fill="#E8E8E8"/>
</svg>
