<svg width="20" height="20" viewBox="0 0 20 20" fill="none" xmlns="http://www.w3.org/2000/svg">
<path fill-rule="evenodd" clip-rule="evenodd" d="M1.46447 18.5355C2.92893 20 5.28595 20 10 20C14.714 20 17.0711 20 18.5355 18.5355C20 17.0711 20 14.714 20 10C20 5.28595 20 2.92893 18.5355 1.46447C17.0711 0 14.714 0 10 0C5.28595 0 2.92893 0 1.46447 1.46447C0 2.92893 0 5.28595 0 10C0 14.714 0 17.0711 1.46447 18.5355ZM12.75 14C12.75 14.4142 12.4142 14.75 12 14.75H8C7.58579 14.75 7.25 14.4142 7.25 14C7.25 13.5858 7.58579 13.25 8 13.25H12C12.4142 13.25 12.75 13.5858 12.75 14ZM14 10.75C14.4142 10.75 14.75 10.4142 14.75 10C14.75 9.58579 14.4142 9.25 14 9.25H6C5.58579 9.25 5.25 9.58579 5.25 10C5.25 10.4142 5.58579 10.75 6 10.75H14ZM16.75 6C16.75 6.41421 16.4142 6.75 16 6.75H4C3.58579 6.75 3.25 6.41421 3.25 6C3.25 5.58579 3.58579 5.25 4 5.25H16C16.4142 5.25 16.75 5.58579 16.75 6Z" fill="#E8E8E8"/>
</svg>
