<svg width="20" height="20" viewBox="0 0 20 20" fill="none" xmlns="http://www.w3.org/2000/svg">
<path d="M15.718 18.9999L10.7951 14.077L9.29176 15.5803C7.75272 17.1194 6.9832 17.8889 6.15612 17.7072C5.32903 17.5256 4.95281 16.5044 4.20037 14.4621L1.69088 7.65058C0.18984 3.57632 -0.560681 1.5392 0.489258 0.489258C1.5392 -0.560681 3.57633 0.18984 7.65059 1.69088L14.4621 4.20037C16.5044 4.95281 17.5256 5.32903 17.7072 6.15612C17.8889 6.9832 17.1194 7.75272 15.5803 9.29176L14.077 10.7951L18.9999 15.718C19.5096 16.2277 19.7645 16.4825 19.8822 16.7669C20.0393 17.1459 20.0393 17.5719 19.8822 17.951C19.7645 18.2353 19.5096 18.4901 18.9999 18.9999C18.4901 19.5096 18.2353 19.7645 17.951 19.8822C17.5719 20.0393 17.1459 20.0393 16.7669 19.8822C16.4825 19.7645 16.2277 19.5096 15.718 18.9999Z" fill="#E8E8E8"/>
</svg>
