<svg width="16" height="18" viewBox="0 0 16 18" fill="none" xmlns="http://www.w3.org/2000/svg">
<path d="M6.84277 0L9.06494 3.77531L11.4599 5.13004H15.9042L6.84277 0Z" fill="#E8E8E8"/>
<path d="M11.4599 12.8699L9.06494 14.2246L6.84277 17.9999L15.9042 12.8699H11.4599Z" fill="#E8E8E8"/>
<path d="M4.61709 8.99829L2.22217 10.353L0 14.1283L9.06481 8.99829H4.61709Z" fill="#E8E8E8"/>
<path d="M11.4599 5.13013L9.06494 6.48486L6.84277 10.2602L15.9042 5.13013H11.4599Z" fill="#E8E8E8"/>
<path d="M0 3.86816V14.1283L2.22217 10.353V7.6435L0 3.86816Z" fill="#E8E8E8"/>
<path d="M9.06494 3.77531L6.84277 0V7.7399V10.2601V18L9.06494 14.2247V3.77531Z" fill="#E8E8E8"/>
<path d="M6.84277 7.73999V18.0001L9.06494 14.2248V11.512L6.84277 7.73999Z" fill="#E8E8E8"/>
<path d="M6.84265 7.73978V7.7431L0 3.86816L2.22217 7.6435L11.4598 12.8698H15.9041L6.84265 7.73978Z" fill="#E8E8E8"/>
</svg>
