<svg width="12" height="12" viewBox="0 0 12 12" fill="none" xmlns="http://www.w3.org/2000/svg">
<path d="M9.50488 0.00354947C10.5423 -0.0609899 11.4199 0.762842 11.4199 1.80238V8.27015C11.4198 8.8778 10.9464 9.38049 10.3398 9.41859L9.14062 9.49281V10.3405C9.14062 11.0814 8.45018 11.63 7.72852 11.4625L1.39453 9.9889C0.57808 9.79909 0 9.07117 0 8.23304V2.29066C1.42236e-06 1.33885 0.740469 0.551204 1.69043 0.491831L9.50488 0.00354947ZM1.98438 1.92542C1.4813 1.80843 1.00023 2.19025 1 2.70667V8.23304C1 8.60621 1.25769 8.93078 1.62109 9.01527L7.95508 10.4879C8.04966 10.5096 8.14062 10.4377 8.14062 10.3405V3.99476C8.14059 3.62178 7.88278 3.29721 7.51953 3.21253L1.98438 1.92542ZM9.56738 1.0016L3.9375 1.35316L7.74609 2.2389C8.56227 2.4289 9.14059 3.15674 9.14062 3.99476V8.49085L10.2783 8.42054C10.3574 8.41517 10.4198 8.34971 10.4199 8.27015V1.80238C10.4199 1.33974 10.0291 0.973108 9.56738 1.0016Z" fill="#1A72FF"/>
</svg>
