<svg width="20" height="18" viewBox="0 0 20 18" fill="none" xmlns="http://www.w3.org/2000/svg">
<path d="M14.2857 0C17.4413 7.99719e-05 19.9996 2.68668 20 6V12C20 15.3137 17.4416 17.9998 14.2857 18H5.71429C2.55837 18 0 15.3137 0 12V6C0.000376853 2.68664 2.5586 0 5.71429 0H14.2857ZM4.68471 5.63087V11.9312H9.33036V10.7607H6.06446V9.30322H8.85044V8.16944H6.06446V6.80127H9.21874V5.63087H4.68471ZM10.4353 5.63087V11.9312H11.8248V10.1763H13.0329C13.054 10.1763 13.0749 10.1736 13.0957 10.1733L14.2494 11.9312H15.7506L14.4084 9.90968C14.4126 9.90783 14.417 9.90714 14.421 9.90528C14.8096 9.72532 15.1094 9.4677 15.3209 9.13183C15.5321 8.79 15.6389 8.38519 15.639 7.91748C15.639 7.44348 15.5323 7.03486 15.3209 6.69286C15.1094 6.35098 14.8096 6.08915 14.421 5.90917C14.0326 5.72335 13.5698 5.63087 13.0329 5.63087H10.4353ZM12.9562 6.81885C13.3845 6.81892 13.7047 6.91549 13.916 7.10742C14.1271 7.29939 14.2327 7.56973 14.2327 7.91748C14.2326 8.25916 14.1273 8.52967 13.916 8.72754C13.7047 8.91937 13.3844 9.01458 12.9562 9.01466H11.8248V6.81885H12.9562Z" fill="#E8E8E8"/>
</svg>
