<svg width="20" height="20" viewBox="0 0 20 20" fill="none" xmlns="http://www.w3.org/2000/svg">
<path d="M1.1377 13.4805C2.14504 12.4948 3.5595 12.1632 4.83594 12.4805C5.5051 12.6358 6.13983 12.9742 6.65723 13.4805C7.52628 14.331 7.90539 15.4849 7.77441 16.5986C7.67782 17.4357 7.30575 18.2463 6.65723 18.8809C5.13248 20.3728 2.66253 20.3726 1.1377 18.8809C0.620243 18.3746 0.274912 17.7534 0.116211 17.0986C0.0127188 16.7138 -0.0217986 16.3155 0.0126953 15.9307C0.0609921 15.0328 0.440851 14.1623 1.1377 13.4805ZM12.0469 5.44141V1.81348C12.0466 1.55598 11.8123 1.43164 11.6562 1.43164C11.6077 1.4317 11.5593 1.44197 11.5107 1.46094L3.77246 4.31543C3.25532 4.50634 2.92291 4.98325 2.92285 5.52734V6.16699C3.53753 5.70876 4.29861 5.44146 5.12793 5.44141H12.0469ZM3.89746 14.0205C3.69049 14.0205 3.51097 14.1012 3.37988 14.2295C3.24887 14.3577 3.16611 14.533 3.16602 14.7354V15.4785H2.43457C2.23448 15.4853 2.05492 15.5661 1.92383 15.6943C1.79275 15.8226 1.71002 15.9986 1.70312 16.1943C1.71024 16.5924 2.03447 16.9093 2.44141 16.916L3.16602 16.9092L3.15918 17.5918C3.1663 17.9899 3.49053 18.3067 3.89746 18.3135C4.30427 18.3066 4.62863 17.9898 4.63574 17.5918L4.62891 16.9092L5.35254 16.916C5.75947 16.9093 6.0837 16.5924 6.09082 16.1943C6.09082 15.8029 5.76033 15.4788 5.36035 15.4785H4.62891V14.7354C4.62871 14.344 4.29739 14.0207 3.89746 14.0205ZM19.5117 11.4102C19.7947 11.4197 20 11.63 20 11.8877V12.8428C19.9998 13.1004 19.7946 13.3098 19.5215 13.3193H18.0977C17.5805 13.3193 17.1114 12.9475 17.0723 12.4512C17.043 12.1553 17.1604 11.8784 17.3555 11.6875C17.5311 11.5061 17.7756 11.4102 18.0391 11.4102H19.5117ZM7.80176 8.7832C7.40172 8.78321 7.07034 9.10761 7.07031 9.49902C7.07031 9.89047 7.4017 10.2148 7.80176 10.2148H12.6807C13.0807 10.2148 13.4121 9.89046 13.4121 9.49902C13.4121 9.10761 13.0807 8.78322 12.6807 8.7832H7.80176ZM16.3301 5.44141C18.3499 5.44144 19.999 7.05495 19.999 9.03125V9.45117C19.999 9.97618 19.56 10.4061 19.0234 10.4062H18.0283C17.4821 10.4062 16.9841 10.6159 16.623 10.9785C16.1352 11.4367 15.9007 12.1436 16.0957 12.8691C16.3396 13.7569 17.2372 14.3202 18.1738 14.3203H19.0234C19.56 14.3205 19.999 14.7504 19.999 15.2754V15.457C19.9988 17.4332 18.3498 19.0468 16.3301 19.0469H9.25586C8.87531 19.0469 8.63099 18.6357 8.78711 18.292C9.07975 17.6238 9.26557 16.8699 9.26562 16.1826C9.26562 13.2897 6.85502 10.9316 3.89844 10.9316C3.32293 10.9317 2.74743 11.0267 2.20117 11.208C1.84989 11.3226 1.45898 11.0933 1.45898 10.7305V5.52734C1.45905 4.39136 2.17176 3.37946 3.25488 2.97852L11.0029 0.114258C11.2174 0.0379699 11.4417 5.11819e-05 11.6562 0C12.632 0 13.5105 0.773087 13.5107 1.81348V5.44141H16.3301Z" fill="#E8E8E8"/>
</svg>
