<svg width="20" height="20" viewBox="0 0 20 20" fill="none" xmlns="http://www.w3.org/2000/svg">
<path d="M3.90234 12.3633C6.05844 12.3633 7.80469 14.0719 7.80469 16.1816C7.80465 16.8975 7.6002 17.5757 7.23926 18.1484C7.03451 18.4918 6.77092 18.7968 6.46875 19.0449C5.78582 19.6463 4.88771 20 3.90234 20C2.47805 20 1.2386 19.2557 0.56543 18.1484C0.204491 17.5757 4.21119e-05 16.8975 0 16.1816C0 14.9788 0.566306 13.9 1.46387 13.2031C2.13699 12.6782 2.98539 12.3633 3.90234 12.3633ZM12.0488 5.44141V1.81445C12.0488 1.5567 11.8143 1.43262 11.6582 1.43262C11.6095 1.43266 11.5604 1.44189 11.5117 1.46094L3.77539 4.31543C3.25856 4.50639 2.92688 4.98341 2.92676 5.52734V6.16699C3.54138 5.70878 4.30259 5.44141 5.13184 5.44141H12.0488ZM5.96094 14.7588C5.68775 14.4725 5.2194 14.4535 4.92676 14.7207L3.36621 16.1338L2.89746 15.6758C2.61453 15.3989 2.14621 15.3989 1.86328 15.6758C1.58059 15.9526 1.58044 16.4107 1.86328 16.6875L2.8291 17.6328C2.97543 17.776 3.16135 17.8428 3.34668 17.8428C3.52219 17.8427 3.70725 17.7754 3.84375 17.6514L5.92188 15.7705C6.2144 15.5032 6.23406 15.0451 5.96094 14.7588ZM19.5127 11.4082C19.7955 11.4179 20 11.6281 20 11.8857V12.8398C20 13.0975 19.7955 13.3077 19.5225 13.3174H18.0977C17.5808 13.3173 17.1125 12.9454 17.0732 12.4492C17.044 12.1533 17.1613 11.8755 17.3564 11.6846C17.532 11.5034 17.7759 11.4082 18.0391 11.4082H19.5127ZM7.80469 8.7832C7.40477 8.78331 7.07324 9.10768 7.07324 9.49902C7.07332 9.89031 7.40482 10.2147 7.80469 10.2148H12.6826C13.0826 10.2148 13.415 9.89037 13.415 9.49902C13.415 9.10762 13.0826 8.7832 12.6826 8.7832H7.80469ZM16.332 5.44141C18.3514 5.44158 20 7.05524 20 9.03125V9.45117C20 9.97621 19.561 10.4062 19.0244 10.4062H18.0293C17.483 10.4062 16.985 10.6158 16.624 10.9785C16.1363 11.4367 15.9026 12.1437 16.0977 12.8691C16.3417 13.7568 17.2393 14.3203 18.1758 14.3203H19.0244C19.561 14.3203 20 14.7494 20 15.2744V15.4561C19.9999 17.432 18.3513 19.0447 16.332 19.0449H9.25879C8.8783 19.0449 8.63394 18.6347 8.79004 18.291C9.08267 17.6229 9.26851 16.8689 9.26855 16.1816C9.26855 13.2891 6.85844 10.9307 3.90234 10.9307C3.3268 10.9307 2.75136 11.0267 2.20508 11.208C1.85389 11.3226 1.46393 11.0932 1.46387 10.7305V5.52734C1.46399 4.39144 2.17596 3.37943 3.25879 2.97852L11.0049 0.115234C11.2194 0.0389023 11.4437 3.94614e-05 11.6582 0C12.6338 0 13.5117 0.77389 13.5117 1.81445V5.44141H16.332Z" fill="#E8E8E8"/>
</svg>
