<svg width="20" height="16" viewBox="0 0 20 16" fill="none" xmlns="http://www.w3.org/2000/svg">
<path d="M10 0C12.0682 0 14.0291 0.717556 15.7363 2.0459C17.4436 3.36466 18.8975 5.29451 19.9414 7.70898C20.0195 7.89323 20.0195 8.1067 19.9414 8.28125C17.8536 13.1103 14.1366 16 10 16H9.99023C5.86341 16 2.1464 13.1103 0.0585938 8.28125C-0.0194555 8.1067 -0.0194555 7.89323 0.0585938 7.70898C2.14641 2.87998 5.86345 3.10322e-05 9.99023 0H10ZM10 4.12207C7.84394 4.12213 6.09766 5.85797 6.09766 8.00098C6.09782 10.1341 7.84404 11.8701 10 11.8701C12.1463 11.8701 13.8924 10.1342 13.8926 8.00098C13.8926 5.85793 12.1464 4.12207 10 4.12207ZM10.002 5.5752C11.3383 5.57542 12.4305 6.66108 12.4307 7.99902C12.4307 9.32738 11.3384 10.4138 10.002 10.4141C8.6556 10.4141 7.5625 9.32752 7.5625 7.99902C7.56252 7.83436 7.5821 7.6794 7.61133 7.52441H7.66016C8.74291 7.52436 9.62093 6.67095 9.66016 5.60449C9.76747 5.5851 9.88488 5.5752 10.002 5.5752Z" fill="#E8E8E8"/>
</svg>
