<svg width="15" height="20" viewBox="0 0 15 20" fill="none" xmlns="http://www.w3.org/2000/svg">
<path d="M11.5 13C13.1499 13 13.9747 13.0001 14.4873 13.5127C14.9999 14.0253 15 14.8501 15 16.5C15 18.1499 14.9999 18.9747 14.4873 19.4873C13.9747 19.9999 13.1499 20 11.5 20C9.85008 20 9.02526 19.9999 8.5127 19.4873C8.00013 18.9747 8 18.1499 8 16.5C8 14.8501 8.00013 14.0253 8.5127 13.5127C9.02526 13.0001 9.85008 13 11.5 13ZM7 11C8.23996 11 9.40493 11.1846 10.415 11.5078C10.0415 11.5166 9.69184 11.5352 9.37988 11.5771C8.737 11.6636 8.03358 11.8707 7.45215 12.4521C6.87073 13.0336 6.66358 13.737 6.57715 14.3799C6.49948 14.9576 6.49989 15.6635 6.5 16.4141V16.5859C6.49989 17.3365 6.49948 18.0424 6.57715 18.6201C6.5937 18.7432 6.61542 18.8688 6.64258 18.9951C2.94288 18.8887 0 17.1406 0 15C0 12.7909 3.13401 11 7 11ZM14 15.8594C13.9997 14.7297 12.6248 13.9286 11.5 15.0146C10.3752 13.9286 9.00033 14.7297 9 15.8594C9 16.8829 9.82436 17.4739 10.5264 17.9766C10.5993 18.0288 10.671 18.0801 10.7402 18.1309C10.9998 18.321 11.25 18.5 11.5 18.5C11.75 18.5 12.0002 18.321 12.2598 18.1309C12.329 18.0801 12.4007 18.0288 12.4736 17.9766C13.1756 17.4739 14 16.8829 14 15.8594ZM7 0C9.20914 0 11 1.79086 11 4C11 6.20914 9.20914 8 7 8C4.79086 8 3 6.20914 3 4C3 1.79086 4.79086 0 7 0Z" fill="#E8E8E8"/>
</svg>
