<svg width="20" height="16" viewBox="0 0 20 16" fill="none" xmlns="http://www.w3.org/2000/svg">
<path d="M9.9541 10.54C13.0729 10.5401 15.736 11.0835 15.7363 13.2598C15.7363 15.4354 13.0901 16 9.9541 16C6.83512 16 4.17114 15.4558 4.1709 13.2803C4.1709 11.1036 6.81788 10.54 9.9541 10.54ZM5.05957 9.22949C5.07737 9.23226 5.08627 9.2468 5.08789 9.25488C5.09017 9.26837 5.08502 9.28749 5.0625 9.30176C4.51063 9.60345 2.38064 10.9161 2.64844 13.6826C2.65979 13.8033 2.57308 13.9058 2.46484 13.8887C1.94031 13.8057 0.592081 13.4847 0.173828 12.4863C-0.0579666 11.9579 -0.0579245 11.3458 0.173828 10.8174C0.447321 10.1735 1.10673 9.72966 2.11035 9.51172C2.5849 9.38474 3.8663 9.20518 5.05957 9.22949ZM14.9404 9.22852C16.1328 9.20425 17.415 9.38483 17.8887 9.5127C18.8919 9.72975 19.5517 10.1727 19.8252 10.8164C20.0564 11.345 20.0564 11.9586 19.8252 12.4863C19.4067 13.4848 18.0583 13.8058 17.5342 13.8887C17.4259 13.9067 17.3392 13.8024 17.3506 13.6826C17.6182 10.9154 15.4876 9.60343 14.9365 9.30176C14.9131 9.28825 14.9087 9.26746 14.9111 9.25488C14.9128 9.24587 14.9226 9.23121 14.9404 9.22852ZM9.95312 0C12.0767 3.6625e-05 13.7792 1.88208 13.7793 4.23242C13.7793 6.58196 12.0767 8.46578 9.95312 8.46582C7.82948 8.46582 6.12695 6.58199 6.12695 4.23242C6.12706 1.88206 7.82955 0 9.95312 0ZM15.1484 0.706055C17.1994 0.706374 18.8103 2.84152 18.2617 5.21973C17.8913 6.82074 16.5502 7.88404 15.0566 7.84082C14.9069 7.83631 14.7596 7.82095 14.6172 7.79395C14.5139 7.77407 14.4619 7.64524 14.5205 7.5498C15.0902 6.62226 15.415 5.50627 15.415 4.30859C15.415 3.05893 15.0603 1.89382 14.4443 0.938477C14.4248 0.908758 14.4102 0.862346 14.4297 0.828125C14.446 0.800397 14.4755 0.785517 14.5039 0.77832C14.7115 0.731491 14.9254 0.706055 15.1484 0.706055ZM4.85059 0.705078C5.07353 0.705078 5.28682 0.731525 5.49512 0.77832C5.52271 0.785504 5.554 0.800278 5.57031 0.827148C5.58903 0.86137 5.5752 0.907781 5.55566 0.9375C4.93955 1.89297 4.58496 3.05868 4.58496 4.30859C4.58505 5.50609 4.90985 6.6214 5.47949 7.54883C5.5381 7.64429 5.48521 7.77316 5.38184 7.79297C5.23871 7.82083 5.09201 7.83535 4.94238 7.83984C3.44896 7.88287 2.10866 6.81971 1.73828 5.21875C1.18887 2.84045 2.79949 0.705226 4.85059 0.705078Z" fill="#E8E8E8"/>
</svg>
