<svg width="26" height="23" viewBox="0 0 26 23" fill="none" xmlns="http://www.w3.org/2000/svg">
<path d="M9.38956 16.6324C13.5443 16.4025 16.8421 12.973 16.8421 8.77582C16.8421 4.42985 13.3062 0.906738 8.94447 0.906738C4.58275 0.906738 1.04688 4.42985 1.04688 8.77582C1.04688 10.3243 1.49564 11.7683 2.27086 12.9857L1.71272 14.6541L1.71183 14.6565C1.49806 15.2955 1.39113 15.6152 1.46727 15.8279C1.53362 16.0133 1.6809 16.1595 1.86697 16.2256C2.07978 16.3012 2.39835 16.1954 3.03535 15.9838L3.04441 15.9811L4.71931 15.425C5.94115 16.1974 7.39043 16.6447 8.94455 16.6447C9.09389 16.6447 9.24226 16.6405 9.38956 16.6324ZM9.38956 16.6324C9.38967 16.6327 9.38945 16.6321 9.38956 16.6324ZM9.38956 16.6324C10.4701 19.6953 13.3988 21.8912 16.8423 21.8912C18.3964 21.8912 19.8453 21.4435 21.0671 20.671L22.7416 21.2271L22.7449 21.2278C23.3861 21.4408 23.7075 21.5475 23.921 21.4716C24.1071 21.4055 24.2525 21.2594 24.3188 21.074C24.3951 20.8609 24.2885 20.5409 24.0741 19.9002L23.516 18.2318L23.7029 17.9231C24.3629 16.7733 24.739 15.4413 24.739 14.0219C24.739 9.67591 21.2038 6.15279 16.8421 6.15279L16.5464 6.15822L16.3973 6.16548" stroke="#E8E8E8" stroke-linecap="round" stroke-linejoin="round"/>
</svg>
