<svg width="26" height="24" viewBox="0 0 26 24" fill="none" xmlns="http://www.w3.org/2000/svg">
<path d="M9.34268 17.5655C13.4974 17.3356 16.7952 13.9061 16.7952 9.70892C16.7952 5.36295 13.2593 1.83984 8.8976 1.83984C4.53588 1.83984 1 5.36295 1 9.70892C1 11.2574 1.44876 12.7014 2.22398 13.9188L1.66585 15.5872L1.66496 15.5896C1.45118 16.2286 1.34425 16.5483 1.42039 16.761C1.48675 16.9464 1.63403 17.0926 1.8201 17.1587C2.0329 17.2343 2.35147 17.1285 2.98847 16.9169L2.99754 16.9142L4.67243 16.3581C5.89428 17.1305 7.34355 17.5778 8.89768 17.5778C9.04702 17.5778 9.19539 17.5736 9.34268 17.5655ZM9.34268 17.5655C9.34279 17.5658 9.34257 17.5652 9.34268 17.5655ZM9.34268 17.5655C10.4232 20.6285 13.352 22.8243 16.7954 22.8243C18.3495 22.8243 19.7985 22.3766 21.0202 21.6041L22.6947 22.1602L22.698 22.1609C23.3392 22.3739 23.6606 22.4806 23.8741 22.4047C24.0602 22.3386 24.2056 22.1925 24.272 22.0071C24.3482 21.794 24.2416 21.474 24.0272 20.8333L23.4691 19.1649L23.656 18.8562C24.3161 17.7065 24.6921 16.3744 24.6921 14.955C24.6921 10.609 21.1569 7.0859 16.7952 7.0859L16.4996 7.09132L16.3504 7.09859" stroke="#E8E8E8" stroke-width="2" stroke-linecap="round" stroke-linejoin="round"/>
</svg>
