<svg width="14" height="14" viewBox="0 0 14 14" fill="none" xmlns="http://www.w3.org/2000/svg">
<path d="M2.73145 8.6543C4.24071 8.6543 5.46387 9.85031 5.46387 11.3271C5.46383 11.8281 5.3199 12.3023 5.06738 12.7031C4.92397 12.9437 4.73905 13.1583 4.52734 13.332C4.04935 13.7528 3.421 14 2.73145 14C1.73448 13.9999 0.867663 13.4782 0.396484 12.7031C0.143886 12.3023 3.56493e-05 11.8282 0 11.3271C0 10.4852 0.396161 9.73001 1.02441 9.24219C1.49557 8.8747 2.08959 8.65436 2.73145 8.6543ZM8.43457 3.80859V1.26953C8.43448 1.0893 8.27037 1.00205 8.16113 1.00195C8.12701 1.00195 8.09272 1.00911 8.05859 1.02246L2.64258 3.02051C2.2808 3.15422 2.04884 3.48835 2.04883 3.86914V4.31641C2.47893 3.99583 3.01157 3.80867 3.5918 3.80859H8.43457ZM4.17285 10.3311C3.98168 10.1307 3.6541 10.1177 3.44922 10.3047L2.35645 11.2939L2.02832 10.9727C1.83034 10.779 1.50274 10.7791 1.30469 10.9727C1.10667 11.1664 1.10672 11.4869 1.30469 11.6807L1.98047 12.3428C2.0829 12.443 2.21303 12.4893 2.34277 12.4893C2.46545 12.4892 2.59494 12.443 2.69043 12.3564L4.14551 11.04C4.35039 10.8529 4.36407 10.5315 4.17285 10.3311ZM13.6582 7.98535C13.8563 7.99203 14 8.13988 14 8.32031V8.98828C13.9999 9.16864 13.8562 9.31559 13.665 9.32227H12.668C12.3062 9.32206 11.9785 9.06122 11.9512 8.71387C11.9308 8.50684 12.0129 8.31328 12.1494 8.17969C12.2722 8.05282 12.4427 7.98546 12.627 7.98535H13.6582ZM5.46387 6.14746C5.18387 6.14746 4.95117 6.37543 4.95117 6.64941C4.95138 6.92324 5.18399 7.15039 5.46387 7.15039H8.87793C9.15781 7.15039 9.39042 6.92324 9.39062 6.64941C9.39062 6.37543 9.15793 6.14746 8.87793 6.14746H5.46387ZM11.4326 3.80859C12.846 3.80883 13.9998 4.9383 14 6.32129V6.61523C14 6.98266 13.6928 7.284 13.3174 7.28418H12.6201C12.2378 7.28427 11.8893 7.43071 11.6367 7.68457C11.2953 8.00531 11.132 8.49999 11.2686 9.00781C11.4393 9.62921 12.0671 10.0233 12.7227 10.0234H13.3174C13.6928 10.0236 14 10.325 14 10.6924V10.8193C13.9998 12.2023 12.8459 13.3318 11.4326 13.332H6.48047C6.2144 13.3317 6.04412 13.0441 6.15332 12.8037C6.35815 12.336 6.48724 11.8082 6.4873 11.3271C6.4873 9.30235 4.80071 7.65137 2.73145 7.65137C2.3286 7.65139 1.92533 7.71876 1.54297 7.8457C1.29725 7.9255 1.02441 7.7645 1.02441 7.51074V3.86914C1.02443 3.07394 1.52321 2.36562 2.28125 2.08496L7.70312 0.0800781C7.85337 0.026618 8.01089 0 8.16113 0C8.84394 9.66622e-05 9.4589 0.541276 9.45898 1.26953V3.80859H11.4326Z" fill="#E8E8E8"/>
</svg>
