<svg width="20" height="20" viewBox="0 0 20 20" fill="none" xmlns="http://www.w3.org/2000/svg">
<path d="M14 0C17.3137 1.28851e-07 20 2.68629 20 6V14C20 17.3137 17.3137 20 14 20H6C2.68629 20 1.28855e-07 17.3137 0 14V6C1.28855e-07 2.68629 2.68629 1.28851e-07 6 0H14ZM15.6182 6.21387C15.1842 5.87261 14.5553 5.94796 14.2139 6.38184L9.48926 12.3848C9.08886 12.8932 8.31832 12.8933 7.91797 12.3848L5.78613 9.67578C5.44456 9.24179 4.81583 9.16722 4.38184 9.50879C3.94804 9.85025 3.87272 10.4781 4.21387 10.9121L6.34668 13.6211C7.54781 15.1472 9.86039 15.1472 11.0615 13.6211L15.7861 7.61816C16.1274 7.18418 16.052 6.55535 15.6182 6.21387Z" fill="#52E063"/>
</svg>
