<svg width="20" height="21" viewBox="0 0 20 21" fill="none" xmlns="http://www.w3.org/2000/svg">
<path d="M19.0392 11.9619C19.2878 11.8238 19.6098 12.0235 19.5841 12.3066L19.2286 16.1914C19.0186 18.1914 18.1989 20.2314 13.799 20.2314H6.17883C1.7789 20.2314 0.95891 18.1912 0.758911 16.2012L0.413208 12.498C0.386497 12.2106 0.694179 12.0163 0.949341 12.1514C1.72926 12.5813 2.53935 12.9618 3.36926 13.2617C3.67899 13.3718 3.89937 13.6314 3.98938 13.9512C4.73938 16.5512 7.15915 18.4814 9.99915 18.4814C12.889 18.4813 15.3292 16.5114 16.0392 13.8115C16.1192 13.4916 16.3387 13.2314 16.6486 13.1113C17.4886 12.7813 18.2892 12.3919 19.0392 11.9619ZM10.757 0C14.5168 0 14.5177 2.07981 14.5177 3.75977V3.7998H14.757C16.8268 3.7998 18.237 4.27009 19.087 5.20996C20.027 6.24993 20.0469 7.62989 19.9669 8.62988C19.9569 8.69972 19.9573 8.74976 19.9474 8.80957L19.882 9.41699C19.8666 9.55862 19.7911 9.68708 19.6749 9.76953C19.3014 10.0344 18.8918 10.3158 18.4972 10.5303C18.4474 10.5602 18.4075 10.5902 18.3478 10.6201C17.2178 11.2801 16.0072 11.8104 14.7472 12.1904V12.2305C14.7469 14.8503 12.617 16.9805 9.99719 16.9805C7.39729 16.9804 5.27721 14.88 5.24719 12.29C4.00725 11.95 2.79706 11.4598 1.66711 10.8398C1.51725 10.7599 1.36754 10.6798 1.22766 10.5898C0.938717 10.4293 0.63635 10.2363 0.352661 10.0527C0.223159 9.96876 0.139281 9.82958 0.126099 9.67578L0.0577393 8.87012L0.0469971 8.7998C-0.0529846 7.78981 -0.082576 6.31988 0.907349 5.20996C1.74735 4.26996 3.16743 3.7998 5.23743 3.7998H5.47766V3.75977C5.47766 2.07981 5.4776 0 9.23743 0H10.757ZM9.99719 8.98047C8.20728 8.98057 6.74719 10.4405 6.74719 12.2305C6.74721 12.3702 6.75752 12.5099 6.77747 12.6396C6.97746 14.2396 8.34728 15.4804 9.99719 15.4805C11.6672 15.4805 13.0476 14.2101 13.2277 12.5801V12.5703C13.2376 12.4605 13.2472 12.3503 13.2472 12.2305C13.2472 10.4405 11.7872 8.98047 9.99719 8.98047ZM11.0568 11.001C11.3568 10.721 11.8373 10.741 12.1173 11.041C12.3971 11.341 12.3771 11.8206 12.0773 12.1006L9.94739 14.0713C9.78742 14.1912 9.60683 14.2607 9.42688 14.2607C9.23711 14.2607 9.04745 14.1907 8.89758 14.041L7.90735 13.0605C7.61743 12.7705 7.6174 12.291 7.90735 12.001C8.19732 11.711 8.67691 11.7111 8.96692 12.001L9.44739 12.4805L11.0568 11.001ZM9.23743 1.41992C6.90753 1.41992 6.90735 2.05994 6.90735 3.75977V3.7998H13.087V3.75977C13.087 2.05994 13.0869 1.41992 10.757 1.41992H9.23743Z" fill="#E8E8E8"/>
</svg>
