<svg width="20" height="20" viewBox="0 0 20 20" fill="none" xmlns="http://www.w3.org/2000/svg">
<path d="M4.47489 0.304839C8.11746 -0.101613 11.8825 -0.101613 15.5251 0.304839C16.8927 0.457438 18.0932 1.1958 18.8527 2.26811L9.41014 11.6953L6.49652 8.78643C6.15098 8.44145 5.59074 8.44145 5.2452 8.78643C4.89965 9.13141 4.89965 9.69074 5.2452 10.0357L8.78448 13.5693C9.13002 13.9143 9.69026 13.9143 10.0358 13.5693L19.6101 4.01052C19.6366 4.13957 19.6577 4.27062 19.6733 4.40343C20.1089 8.12181 20.1089 11.8782 19.6733 15.5966C19.4198 17.7602 17.6798 19.4547 15.5251 19.6952C11.8825 20.1016 8.11746 20.1016 4.47489 19.6952C2.3202 19.4547 0.580173 17.7602 0.326703 15.5966C-0.108901 11.8782 -0.108901 8.12181 0.326703 4.40343C0.580173 2.23977 2.3202 0.545267 4.47489 0.304839Z" fill="#E679FF"/>
</svg>
