<svg width="10" height="14" viewBox="0 0 10 14" fill="none" xmlns="http://www.w3.org/2000/svg">
<path d="M1.37109 8.51172C3.32687 7.20994 6.49373 7.2099 8.43555 8.51172C9.31248 9.09269 9.79279 9.89801 9.7998 10.752C9.7998 11.6199 9.31242 12.4177 8.43555 13.0127C7.46112 13.6707 6.18009 14 4.89941 14C3.61886 13.9999 2.33859 13.6706 1.36426 13.0127C0.48728 12.4247 0 11.6266 0 10.7656C0.000177418 9.9048 0.487311 9.09961 1.37109 8.51172ZM6.52148 9.57617C6.35446 9.40819 6.07623 9.40822 5.90918 9.57617L4.46094 11.0322L3.89062 10.458C3.72364 10.2901 3.44538 10.2902 3.27832 10.458C3.11128 10.626 3.11128 10.9062 3.27832 11.0742L4.15527 11.9561C4.2387 12.0329 4.34974 12.0819 4.46094 12.082C4.5723 12.082 4.68406 12.0401 4.76758 11.9561L6.52148 10.1924C6.69548 10.0244 6.69546 9.74417 6.52148 9.57617ZM4.89941 0C6.72298 0 8.20605 1.4912 8.20605 3.3252C8.19899 5.12411 6.79932 6.57958 5.01758 6.64258H4.96973C4.92804 6.63559 4.87199 6.63561 4.81641 6.64258C2.9929 6.57958 1.59385 5.12411 1.59375 3.3252C1.59375 1.49129 3.07597 0.000152115 4.89941 0Z" fill="#E8E8E8"/>
</svg>
