<svg width="14" height="16" viewBox="0 0 14 16" fill="none" xmlns="http://www.w3.org/2000/svg">
<path fill-rule="evenodd" clip-rule="evenodd" d="M3.30168 0H10.6983C11.5997 0 12.0503 0 12.4138 0.130085C13.1031 0.376764 13.6442 0.949751 13.8771 1.67957C14 2.06444 14 2.54164 14 3.49605V14.6994C14 15.3859 13.2339 15.7502 12.7493 15.2941C12.4645 15.0261 12.0355 15.0261 11.7507 15.2941L11.375 15.6477C10.876 16.1174 10.124 16.1174 9.625 15.6477C9.12599 15.1781 8.37401 15.1781 7.875 15.6477C7.37599 16.1174 6.62401 16.1174 6.125 15.6477C5.62599 15.1781 4.87401 15.1781 4.375 15.6477C3.87599 16.1174 3.12401 16.1174 2.625 15.6477L2.24926 15.2941C1.96453 15.0261 1.53547 15.0261 1.25074 15.2941C0.766109 15.7502 0 15.3859 0 14.6994V3.49605C0 2.54164 0 2.06444 0.122853 1.67957C0.355817 0.949751 0.896948 0.376764 1.58619 0.130085C1.94966 0 2.40033 0 3.30168 0ZM9.37957 5.19962C9.59414 4.95243 9.57327 4.57314 9.33295 4.35244C9.09264 4.13175 8.72388 4.15321 8.50931 4.4004L6.16667 7.09913L5.49069 6.3204C5.27612 6.07322 4.90736 6.05175 4.66705 6.27244C4.42673 6.49314 4.40586 6.87243 4.62043 7.11962L5.73154 8.39962C5.84221 8.52711 6.00049 8.60001 6.16667 8.60001C6.33284 8.60001 6.49112 8.52711 6.6018 8.39962L9.37957 5.19962ZM3.5 10.2C3.17783 10.2 2.91667 10.4686 2.91667 10.8C2.91667 11.1314 3.17783 11.4 3.5 11.4H10.5C10.8222 11.4 11.0833 11.1314 11.0833 10.8C11.0833 10.4686 10.8222 10.2 10.5 10.2H3.5Z" fill="#E8E8E8"/>
</svg>
