<svg width="14" height="16" viewBox="0 0 14 16" fill="none" xmlns="http://www.w3.org/2000/svg">
<path fill-rule="evenodd" clip-rule="evenodd" d="M2.59259 0H11.4074C11.6482 0 11.7685 0 11.87 0.00958188C12.9981 0.116085 13.8924 1.08124 13.9911 2.29857C14 2.40809 14 2.538 14 2.79781V14.6078C14 15.3059 13.1766 15.6021 12.7885 15.0436C12.5192 14.6562 11.9808 14.6562 11.7115 15.0436L11.375 15.5279C10.9375 16.1574 10.0625 16.1574 9.625 15.5279C9.1875 14.8984 8.3125 14.8984 7.875 15.5279C7.4375 16.1574 6.5625 16.1574 6.125 15.5279C5.6875 14.8984 4.8125 14.8984 4.375 15.5279C3.9375 16.1574 3.0625 16.1574 2.625 15.5279L2.28846 15.0436C2.01923 14.6562 1.48077 14.6562 1.21154 15.0436C0.823437 15.6021 0 15.3059 0 14.6078V2.79781C0 2.538 0 2.40809 0.00887905 2.29857C0.10757 1.08124 1.00193 0.116085 2.12997 0.00958188C2.23146 0 2.35184 0 2.59259 0ZM5.85694 4.37574C5.62913 4.14142 5.25978 4.14142 5.03198 4.37574C4.80417 4.61005 4.80417 4.98995 5.03198 5.22426L6.17506 6.40001L5.03199 7.57574C4.80419 7.81005 4.80419 8.18995 5.03199 8.42426C5.2598 8.65858 5.62914 8.65858 5.85695 8.42426L7.00002 7.24854L8.14308 8.42425C8.37088 8.65857 8.74023 8.65857 8.96803 8.42425C9.19584 8.18994 9.19584 7.81004 8.96803 7.57572L7.82498 6.40001L8.96805 5.22428C9.19585 4.98996 9.19585 4.61006 8.96805 4.37575C8.74024 4.14143 8.3709 4.14143 8.14309 4.37575L7.00002 5.55148L5.85694 4.37574ZM3.5 10.2C3.17783 10.2 2.91667 10.4686 2.91667 10.8C2.91667 11.1314 3.17783 11.4 3.5 11.4H10.5C10.8222 11.4 11.0833 11.1314 11.0833 10.8C11.0833 10.4686 10.8222 10.2 10.5 10.2H3.5Z" fill="#E8E8E8"/>
</svg>
