<svg width="30" height="30" viewBox="0 0 30 30" fill="none" xmlns="http://www.w3.org/2000/svg">
<path d="M-6.5567e-07 15C-1.01694e-06 6.735 6.72 -2.93741e-07 15 -6.55671e-07C23.265 -1.01695e-06 30 6.735 30 15C30 23.28 23.265 30 15 30C6.72 30 -2.9374e-07 23.28 -6.5567e-07 15ZM12.0303 9C11.5953 9.44996 11.595 10.1548 12.0449 10.5898L16.4697 15L12.0449 19.4102C11.595 19.8452 11.5953 20.565 12.0303 21C12.4803 21.4499 13.1852 21.45 13.6201 21L18.8555 15.7949C19.0653 15.5849 19.1846 15.2999 19.1846 15C19.1846 14.7001 19.0653 14.4151 18.8555 14.2051L13.6201 9C13.4101 8.775 13.1248 8.66992 12.8398 8.66992C12.54 8.66996 12.2552 8.77513 12.0303 9Z" fill="#E8E8E8"/>
</svg>
