<svg width="20" height="20" viewBox="0 0 20 20" fill="none" xmlns="http://www.w3.org/2000/svg">
<path d="M15.1924 5.9502C16.5723 5.97019 17.9622 6.12997 19.332 6.41992C19.762 7.52992 19.9922 8.74 19.9922 10C19.9921 15.4699 15.6023 19.91 10.1523 20C12.0023 17.74 13.4028 15.1798 14.3428 12.2998C14.7527 11.5598 14.9727 10.7296 14.9727 9.88965C14.9726 9.0199 14.7426 8.20009 14.3428 7.49023C13.9528 6.80025 14.4024 5.94024 15.1924 5.9502ZM1.08203 5.44043C2.15198 8.14017 3.71214 10.5799 5.71191 12.7197C6.66191 14.1997 8.27238 15.0198 9.94238 15.0098C10.7223 15.0098 11.2523 15.82 10.8623 16.5C10.1923 17.6699 9.4124 18.7899 8.52246 19.8398C5.66246 19.4098 3.02187 17.7501 1.42188 15.0801C-0.407967 12.0303 -0.417698 8.40031 1.08203 5.44043ZM9.98242 6.58008C11.8722 6.58024 13.412 8.11016 13.4121 10C13.4121 10.6098 13.2522 11.1798 12.9424 11.7197C12.3424 12.7696 11.2023 13.4296 9.98242 13.4297C8.76242 13.4297 7.63246 12.7697 7.02246 11.7197C6.71252 11.1798 6.5625 10.6099 6.5625 10C6.56257 8.11006 8.10246 6.57008 9.98242 6.58008ZM9.99219 0C13.5522 0 16.6724 1.86016 18.4424 4.66016C15.5724 4.19016 12.6725 4.28041 9.8125 4.90039C8.05254 4.96039 6.52189 5.91966 5.67188 7.34961C5.28192 8.01954 4.3127 8.04989 3.93262 7.37012C3.2627 6.19026 2.70267 4.95022 2.2627 3.65039C4.10267 1.42042 6.88224 3.8681e-05 9.99219 0Z" fill="#E8E8E8"/>
</svg>
