<svg width="18" height="21" viewBox="0 0 18 21" fill="none" xmlns="http://www.w3.org/2000/svg">
<path fill-rule="evenodd" clip-rule="evenodd" d="M9 20.75C13.9706 20.75 18 16.7206 18 11.75C18 6.77944 13.9706 2.75 9 2.75C4.02944 2.75 0 6.77944 0 11.75C0 16.7206 4.02944 20.75 9 20.75ZM9 7C9.41421 7 9.75 7.33579 9.75 7.75V11.75C9.75 12.1642 9.41421 12.5 9 12.5C8.58579 12.5 8.25 12.1642 8.25 11.75V7.75C8.25 7.33579 8.58579 7 9 7Z" fill="#E8E8E8"/>
<path fill-rule="evenodd" clip-rule="evenodd" d="M6.25 0.75C6.25 0.335786 6.58579 0 7 0H11C11.4142 0 11.75 0.335786 11.75 0.75C11.75 1.16421 11.4142 1.5 11 1.5H7C6.58579 1.5 6.25 1.16421 6.25 0.75Z" fill="#E8E8E8"/>
</svg>
