<svg width="15" height="18" viewBox="0 0 15 18" fill="none" xmlns="http://www.w3.org/2000/svg">
<path fill-rule="evenodd" clip-rule="evenodd" d="M11.9374 0.303841C8.99426 -0.10128 6.00574 -0.10128 3.06256 0.303841C1.60332 0.504701 0.479055 1.63915 0.345499 3.0455L0.219074 4.37676C-0.0730249 7.45257 -0.0730246 10.5474 0.219074 13.6232L0.345499 14.9545C0.479055 16.3609 1.60332 17.4953 3.06255 17.6962C6.00574 18.1013 8.99426 18.1013 11.9374 17.6962C13.3967 17.4953 14.5209 16.3609 14.6545 14.9545L14.7809 13.6232C15.073 10.5474 15.073 7.45257 14.7809 4.37675L14.6545 3.04549C14.5209 1.63915 13.3967 0.504701 11.9374 0.303841ZM5.50853 6.13859C5.50853 5.08504 6.40014 4.23097 7.49999 4.23097C8.59984 4.23097 9.49145 5.08504 9.49145 6.13859C9.49145 7.19213 8.59984 8.0462 7.49999 8.0462C6.40014 8.0462 5.50853 7.19213 5.50853 6.13859ZM3.51708 12.3383C3.51708 10.758 4.85449 9.47691 6.50426 9.47691H8.49572C10.1455 9.47691 11.4829 10.758 11.4829 12.3383C11.4829 12.8651 11.0371 13.2921 10.4872 13.2921H4.51281C3.96288 13.2921 3.51708 12.8651 3.51708 12.3383Z" fill="#DADADA"/>
</svg>
