<svg width="17" height="19" viewBox="0 0 17 19" fill="none" xmlns="http://www.w3.org/2000/svg">
<path fill-rule="evenodd" clip-rule="evenodd" d="M12.9564 0.318556C10.0006 -0.106185 6.99927 -0.106185 4.04347 0.318556C2.57798 0.529144 1.44888 1.71854 1.31475 3.19299L1.18779 4.58872C0.894435 7.8135 0.894436 11.0583 1.18779 14.283L1.31475 15.6788C1.44888 17.1532 2.57798 18.3426 4.04347 18.5532C6.99927 18.9779 10.0006 18.9779 12.9564 18.5532C14.4219 18.3426 15.551 17.1532 15.6851 15.6788L15.8121 14.283C16.1055 11.0583 16.1055 7.8135 15.8121 4.58872L15.6851 3.19299C15.551 1.71853 14.4219 0.529144 12.9564 0.318556ZM6.49994 6.43588C6.49994 5.33131 7.39537 4.43588 8.49994 4.43588C9.60451 4.43588 10.4999 5.33131 10.4999 6.43588C10.4999 7.54045 9.60451 8.43588 8.49994 8.43588C7.39537 8.43588 6.49994 7.54045 6.49994 6.43588ZM4.49994 12.9359C4.49994 11.279 5.84308 9.93588 7.49994 9.93588H9.49994C11.1568 9.93588 12.4999 11.279 12.4999 12.9359C12.4999 13.4882 12.0522 13.9359 11.4999 13.9359H5.49994C4.94765 13.9359 4.49994 13.4882 4.49994 12.9359Z" fill="#E8E8E8"/>
</svg>
