<svg width="18" height="18" viewBox="0 0 18 18" fill="none" xmlns="http://www.w3.org/2000/svg">
<path d="M6.42623 6.51736V3.98959C6.42623 2.97832 6.42623 2.47231 6.62303 2.08606C6.79615 1.7463 7.07218 1.47026 7.41193 1.29715C7.79818 1.10034 8.30419 1.10034 9.31545 1.10034H14.3713C15.3825 1.10034 15.8879 1.10034 16.2741 1.29715C16.6139 1.47026 16.8904 1.7463 17.0635 2.08606C17.2603 2.47231 17.2603 2.97795 17.2603 3.98922V9.04512C17.2603 10.0564 17.2603 10.562 17.0635 10.9483C16.8904 11.288 16.6136 11.5646 16.2739 11.7378C15.888 11.9344 15.3832 11.9344 14.3739 11.9344H11.8432M6.42623 6.51736H3.89849C2.88724 6.51736 2.38123 6.51736 1.99498 6.71416C1.65522 6.88728 1.3792 7.16331 1.20608 7.50307C1.00928 7.88933 1.00928 8.39534 1.00928 9.40661V14.4625C1.00928 15.4738 1.00928 15.9791 1.20608 16.3654C1.3792 16.7051 1.65522 16.9817 1.99498 17.1548C2.38085 17.3514 2.88624 17.3514 3.89553 17.3514H8.95735C9.96663 17.3514 10.4713 17.3514 10.8572 17.1548C11.1969 16.9817 11.4735 16.7049 11.6466 16.3651C11.8432 15.9792 11.8432 15.4744 11.8432 14.4651V11.9344M6.42623 6.51736H8.95432C9.96558 6.51736 10.4709 6.51736 10.8572 6.71416C11.1969 6.88728 11.4735 7.16331 11.6466 7.50307C11.8432 7.88895 11.8432 8.39436 11.8432 9.40367L11.8432 11.9344" stroke="#E8E8E8" stroke-linecap="round" stroke-linejoin="round"/>
</svg>
