<svg width="21" height="21" viewBox="0 0 21 21" fill="none" xmlns="http://www.w3.org/2000/svg">
<path d="M4.5 0.5C2.291 0.5 0.5 2.2909 0.5 4.5V12.5C0.5 14.709 2.291 16.5 4.5 16.5L4.52301 16.493C4.73801 18.706 6.64799 20.5 8.93799 20.5C9.25799 20.5 11.18 20.5 11.5 20.5C15.052 20.5 20.5 15.052 20.5 11.5V8.938C20.5 6.6477 18.762 4.7485 16.505 4.5254L16.5 4.5C16.5 2.2909 14.709 0.5 12.5 0.5H4.5ZM4.5 2.5H12.5C13.605 2.5 14.5 3.3954 14.5 4.5C12.614 4.5 9.63299 4.5 8.93799 4.5C6.49199 4.5 4.5 6.4917 4.5 8.938V14.5C3.395 14.5 2.5 13.605 2.5 12.5V4.5C2.5 3.3954 3.395 2.5 4.5 2.5ZM14.938 12.5L18.299 12.492C17.551 14.674 14.663 17.482 12.503 18.292L12.5 14.938C12.5 13.596 13.596 12.5 14.938 12.5Z" fill="#A3A3A3"/>
</svg>
