<svg width="18" height="18" viewBox="0 0 18 18" fill="none" xmlns="http://www.w3.org/2000/svg">
<path d="M3.6 0C1.6119 0 0 1.61181 0 3.6V10.8C0 12.7881 1.6119 14.4 3.6 14.4L3.62071 14.3937C3.81421 16.3854 5.53319 18 7.59419 18C7.88219 18 9.612 18 9.9 18C13.0968 18 18 13.0968 18 9.9V7.5942C18 5.53293 16.4358 3.82365 14.4045 3.62286L14.4 3.6C14.4 1.61181 12.7881 0 10.8 0H3.6ZM3.6 1.8H10.8C11.7945 1.8 12.6 2.60586 12.6 3.6C10.9026 3.6 8.21969 3.6 7.59419 3.6C5.39279 3.6 3.6 5.39253 3.6 7.5942V12.6C2.6055 12.6 1.8 11.7945 1.8 10.8V3.6C1.8 2.60586 2.6055 1.8 3.6 1.8ZM12.9942 10.8L16.0191 10.7928C15.3459 12.7566 12.7467 15.2838 10.8027 16.0128L10.8 12.9942C10.8 11.7864 11.7864 10.8 12.9942 10.8Z" fill="#59BFFF"/>
</svg>
