<svg width="10" height="10" viewBox="0 0 10 10" fill="none" xmlns="http://www.w3.org/2000/svg">
<path fill-rule="evenodd" clip-rule="evenodd" d="M9.9191 4.56316L9.8045 5.78078C9.61567 7.78708 9.52126 8.79023 8.92995 9.39512C8.33865 10 7.45242 10 5.67996 10H4.32004C2.54758 10 1.66136 10 1.07005 9.39512C0.478739 8.79023 0.384326 7.78708 0.195501 5.78078L0.0809039 4.56316C-0.00909995 3.60685 -0.0541019 3.12869 0.109493 2.93104C0.197989 2.82411 0.318329 2.7586 0.446993 2.7473C0.684843 2.72641 0.98354 3.06645 1.58094 3.74653C1.88988 4.09825 2.04436 4.2741 2.21669 4.30133C2.31217 4.31642 2.40946 4.30091 2.49763 4.25654C2.65676 4.17646 2.76285 3.95906 2.97504 3.52426L4.09347 1.23243C4.49442 0.41081 4.6949 0 5 0C5.3051 0 5.50558 0.410809 5.90653 1.23243L7.02496 3.52426C7.23715 3.95906 7.34325 4.17646 7.50237 4.25654C7.59054 4.30091 7.68783 4.31642 7.78331 4.30133C7.95564 4.2741 8.11012 4.09825 8.41907 3.74653C9.01646 3.06645 9.31516 2.72641 9.55301 2.7473C9.68167 2.7586 9.80201 2.82411 9.89051 2.93104C10.0541 3.12869 10.0091 3.60685 9.9191 4.56316ZM5.47618 5.34951L5.42703 5.26133C5.23703 4.9205 5.14203 4.75008 5 4.75008C4.85797 4.75008 4.76297 4.9205 4.57298 5.26133L4.52382 5.34951C4.46983 5.44637 4.44283 5.4948 4.40074 5.52675C4.35865 5.5587 4.30623 5.57056 4.20138 5.59429L4.10593 5.61588C3.73698 5.69936 3.5525 5.7411 3.50861 5.88224C3.46472 6.02338 3.59049 6.17044 3.84202 6.46457L3.90709 6.54066C3.97856 6.62424 4.0143 6.66604 4.03038 6.71774C4.04646 6.76944 4.04105 6.8252 4.03025 6.93671L4.02041 7.03824C3.98238 7.43067 3.96337 7.62688 4.07827 7.71411C4.19318 7.80134 4.3659 7.72181 4.71135 7.56275L4.80072 7.5216C4.89889 7.47641 4.94797 7.45381 5 7.45381C5.05203 7.45381 5.10111 7.47641 5.19928 7.5216L5.28865 7.56275C5.6341 7.72181 5.80682 7.80134 5.92173 7.71411C6.03663 7.62688 6.01762 7.43067 5.97959 7.03824L5.96975 6.93671C5.95895 6.8252 5.95354 6.76944 5.96962 6.71774C5.9857 6.66604 6.02144 6.62424 6.09291 6.54066L6.15799 6.46457C6.40951 6.17044 6.53528 6.02338 6.49139 5.88224C6.4475 5.7411 6.26302 5.69936 5.89407 5.61588L5.79862 5.59429C5.69377 5.57056 5.64135 5.5587 5.59926 5.52675C5.55717 5.4948 5.53017 5.44637 5.47618 5.34951Z" fill="#E8E8E8"/>
</svg>
