<svg width="13" height="12" viewBox="0 0 13 12" fill="none" xmlns="http://www.w3.org/2000/svg">
<path d="M11.3551 7.39539L11.4709 6.25895C11.5327 5.65259 11.5735 5.2522 11.5414 4.99993L11.5526 5C12.0758 5 12.5 4.55229 12.5 4C12.5 3.44772 12.0758 3 11.5526 3C11.0294 3 10.6053 3.44772 10.6053 4C10.6053 4.24977 10.692 4.47816 10.8355 4.65342C10.6295 4.78758 10.3603 5.07067 9.95505 5.49677L9.95505 5.49678C9.64285 5.82503 9.48675 5.98916 9.31261 6.01458C9.21612 6.02866 9.11781 6.01418 9.02871 5.97277C8.86791 5.89803 8.7607 5.69512 8.54628 5.28931L7.41607 3.15027C7.2838 2.89992 7.17309 2.69038 7.07326 2.52177C7.48275 2.30125 7.76316 1.85186 7.76316 1.33333C7.76316 0.596954 7.19762 0 6.5 0C5.80238 0 5.23684 0.596954 5.23684 1.33333C5.23684 1.85186 5.51725 2.30125 5.92674 2.52177C5.82691 2.69039 5.71621 2.89989 5.58392 3.15027L4.45372 5.28931C4.2393 5.69512 4.13209 5.89803 3.97129 5.97277C3.88219 6.01418 3.78388 6.02866 3.68739 6.01458C3.51325 5.98916 3.35715 5.82503 3.04494 5.49677C2.6397 5.07067 2.37046 4.78758 2.16455 4.65342C2.30798 4.47816 2.39474 4.24977 2.39474 4C2.39474 3.44772 1.97059 3 1.44737 3C0.924151 3 0.5 3.44772 0.5 4C0.5 4.55229 0.924151 5 1.44737 5L1.45856 4.99993C1.42654 5.2522 1.46734 5.65259 1.52912 6.25895L1.64493 7.39539C1.70921 8.02621 1.76266 8.62643 1.82813 9.16667H11.1719C11.2373 8.62643 11.2908 8.02621 11.3551 7.39539Z" fill="#E8E8E8"/>
<path d="M5.81288 12H7.18712C8.97823 12 9.87379 12 10.4713 11.4354C10.7321 11.189 10.8973 10.7448 11.0164 10.1667H1.98355C2.10273 10.7448 2.26787 11.189 2.52868 11.4354C3.12621 12 4.02177 12 5.81288 12Z" fill="#E8E8E8"/>
</svg>
