<svg width="20" height="20" viewBox="0 0 20 20" fill="none" xmlns="http://www.w3.org/2000/svg">
<path fill-rule="evenodd" clip-rule="evenodd" d="M14.1369 2.72848L15.9665 4.55812C18.6555 7.24711 20 8.5916 20 10.2623C20 11.933 18.6555 13.2775 15.9665 15.9665C13.2775 18.6555 11.933 20 10.2623 20C8.5916 20 7.24711 18.6555 4.55812 15.9665L2.72848 14.1369C1.18295 12.5914 0.410183 11.8186 0.122639 10.816C-0.164906 9.81337 0.0808338 8.7485 0.572313 6.61875L0.855739 5.39057C1.26922 3.59881 1.47597 2.70292 2.08944 2.08944C2.70292 1.47597 3.5988 1.26922 5.39057 0.85574L6.61875 0.572313C8.7485 0.0808339 9.81337 -0.164906 10.816 0.122639C11.8186 0.410183 12.5914 1.18295 14.1369 2.72848ZM9.14667 12.3284C8.47371 11.6555 8.47941 10.6899 8.88186 9.92465C8.68074 9.6325 8.71008 9.22949 8.9699 8.96968C9.22876 8.71081 9.62978 8.68074 9.92168 8.87946C10.2615 8.69884 10.635 8.60332 11.0071 8.60683C11.4213 8.61074 11.7539 8.94968 11.75 9.36387C11.7461 9.77807 11.4071 10.1107 10.9929 10.1068C10.816 10.1051 10.5835 10.1845 10.3841 10.3839C9.99657 10.7714 10.0985 11.1589 10.2073 11.2678C10.3162 11.3766 10.7037 11.4785 11.0912 11.091C11.8753 10.307 13.2289 10.0467 14.0964 10.9142C14.7694 11.5872 14.7637 12.5528 14.3612 13.318C14.5624 13.6102 14.533 14.0132 14.2732 14.273C14.0143 14.5319 13.6131 14.5619 13.3212 14.3631C12.8643 14.6059 12.3446 14.6969 11.849 14.595C11.4433 14.5117 11.182 14.1152 11.2654 13.7094C11.3487 13.3037 11.7452 13.0424 12.151 13.1257C12.3281 13.1622 12.6137 13.104 12.859 12.8588C13.2465 12.4712 13.1446 12.0837 13.0358 11.9749C12.9269 11.866 12.5394 11.7641 12.1519 12.1517C11.3678 12.9357 10.0142 13.1959 9.14667 12.3284ZM8.02096 8.29312C8.80201 7.51207 8.80201 6.24574 8.02096 5.46469C7.23991 4.68364 5.97358 4.68364 5.19253 5.46469C4.41148 6.24574 4.41148 7.51207 5.19253 8.29312C5.97358 9.07417 7.23991 9.07417 8.02096 8.29312Z" fill="#A3A3A3"/>
</svg>
