<svg width="21" height="19" viewBox="0 0 21 19" fill="none" xmlns="http://www.w3.org/2000/svg">
<path d="M15.999 0.142151C18.2826 0.142653 20.1416 1.9848 20.1416 4.24762L20.1426 6.92438C20.1426 7.1204 20.0636 7.31108 19.9238 7.44977C19.7829 7.58937 19.5924 7.66741 19.3926 7.66754C18.5716 7.66754 17.9033 8.32964 17.9033 9.14313C17.9033 9.90567 18.4905 10.5351 19.2402 10.6109L19.4688 10.6226C19.8468 10.6607 20.1426 10.9773 20.1426 11.3619V14.0377C20.1426 16.3005 18.2846 18.1417 16.001 18.1422H4.28516C2.00135 18.1419 0.141602 16.3006 0.141602 14.0377V11.3619C0.141602 10.9771 0.438153 10.6605 0.816406 10.6226L1.04492 10.6109C1.79532 10.5349 2.38281 9.90557 2.38281 9.14313C2.3828 8.3506 1.74133 7.75371 0.892578 7.75348C0.693694 7.75348 0.50328 7.67526 0.362305 7.53571C0.221588 7.39613 0.141732 7.20719 0.141602 7.01129L0.144531 4.24762C0.144531 1.98464 2.00234 0.14239 4.28613 0.142151H15.999ZM10.1426 5.29547C9.86069 5.29547 9.60654 5.45218 9.47949 5.70367L8.75098 7.16754L7.125 7.40192C6.84405 7.44154 6.61345 7.63251 6.52441 7.89996C6.4366 8.16739 6.50801 8.45679 6.71191 8.65289L7.89062 9.79059L7.6123 11.398C7.56432 11.6754 7.67737 11.9513 7.90723 12.1168C8.03715 12.2088 8.18892 12.2564 8.3418 12.2564C8.45853 12.2563 8.57682 12.2278 8.68457 12.1714L10.1426 11.4127L11.5977 12.1695C11.8495 12.3029 12.1491 12.2821 12.3779 12.1158C12.6086 11.9513 12.7218 11.6752 12.6738 11.398L12.3945 9.79059L13.5732 8.65289C13.7779 8.45683 13.8494 8.16724 13.7607 7.89996C13.6728 7.63272 13.4426 7.44182 13.165 7.40289L11.5352 7.16754L10.8066 5.70465C10.6817 5.4532 10.4273 5.29664 10.1445 5.29547H10.1426Z" fill="#E8E8E8"/>
</svg>
