<svg width="23" height="23" viewBox="0 0 23 23" fill="none" xmlns="http://www.w3.org/2000/svg">
<path d="M11.1421 0.14209C11.6608 0.142092 12.1708 0.180055 12.6704 0.249512C12.7826 0.248414 12.8935 0.265967 12.9985 0.30127C18.1034 1.1692 22.0063 5.5513 22.1343 10.8726C22.1412 10.931 22.1427 10.99 22.1392 11.0493C22.1394 11.0802 22.1421 11.1111 22.1421 11.1421C22.1421 17.2172 17.2172 22.1421 11.1421 22.1421C5.06701 22.1421 0.142116 17.2173 0.14209 11.1421C0.14209 5.06699 5.06699 0.14209 11.1421 0.14209ZM13.6812 4.60303C13.6812 5.58211 13.2913 6.52195 12.5991 7.21436C11.9068 7.90647 10.9677 8.29528 9.98877 8.29541C9.54015 8.29541 9.1098 8.47442 8.79248 8.7915C8.47521 9.10878 8.29649 9.5391 8.29639 9.98779V12.2954C8.29639 13.2745 7.90755 14.2143 7.21533 14.9067C6.5239 15.5982 5.58565 15.9857 4.60791 15.9868L4.60889 15.9878L3.56201 15.9917C5.16185 18.4871 7.95785 20.1421 11.1421 20.1421C13.1693 20.1421 15.0388 19.4703 16.5435 18.3394C16.3867 18.1602 16.2954 17.9273 16.2954 17.6802C16.2953 17.4355 16.1979 17.2008 16.0249 17.0278C15.8519 16.855 15.6172 16.7573 15.3726 16.7573C14.3934 16.7572 13.4536 16.3677 12.7612 15.6753C12.0692 14.9829 11.6802 14.0438 11.6802 13.0649C11.6802 12.0858 12.0689 11.146 12.7612 10.4536C13.4536 9.76125 14.3934 9.37266 15.3726 9.37256H18.6548L19.0386 9.38623C19.3605 9.40711 19.6796 9.45281 19.9937 9.521C19.3825 6.16235 16.9095 3.4551 13.6812 2.50732V4.60303Z" fill="#E8E8E8"/>
</svg>
