<svg width="14" height="16" viewBox="0 0 14 16" fill="none" xmlns="http://www.w3.org/2000/svg">
<path d="M13.5132 5.06751L5.68271 15.2308C5.32334 15.6923 4.79374 15.9519 4.22631 15.9615L1.10545 16C0.935224 16 0.793366 15.8846 0.755538 15.7212L0.0462524 12.6347C-0.0766904 12.0674 0.0462524 11.4809 0.405624 11.0289L5.95697 3.81753C6.05154 3.70215 6.22177 3.68388 6.33525 3.76946L8.67116 5.63481C8.82248 5.75981 9.03054 5.82711 9.24805 5.79827C9.71145 5.74057 10.0235 5.31751 9.97625 4.86559C9.94788 4.63483 9.83439 4.44252 9.68308 4.29829C9.63579 4.25983 7.41336 2.4714 7.41336 2.4714C7.27151 2.35602 7.24314 2.14449 7.35662 2.00122L8.23614 0.85605C9.04945 -0.192008 10.468 -0.28816 11.6123 0.625285L12.9269 1.67334C13.4659 2.09641 13.8253 2.65409 13.9482 3.24062C14.0901 3.8858 13.9388 4.51944 13.5132 5.06751Z" fill="#DADADA"/>
</svg>
