<svg width="17" height="19" viewBox="0 0 17 19" fill="none" xmlns="http://www.w3.org/2000/svg">
<path d="M15.9437 6.20095L6.99452 17.6346C6.58381 18.1539 5.97856 18.4459 5.33007 18.4567L1.76337 18.5C1.56883 18.5 1.4067 18.3702 1.36347 18.1863L0.55286 14.714C0.412354 14.0758 0.55286 13.416 0.96357 12.9076L7.30796 4.79472C7.41604 4.66492 7.61059 4.64437 7.74029 4.74064L10.4099 6.83916C10.5828 6.97978 10.8206 7.0555 11.0692 7.02305C11.5988 6.95815 11.9555 6.48219 11.9014 5.97379C11.869 5.71418 11.7393 5.49784 11.5664 5.33558C11.5123 5.29231 8.97242 3.28033 8.97242 3.28033C8.81029 3.15052 8.77787 2.91255 8.90757 2.75137L9.91273 1.46306C10.8422 0.283991 12.4635 0.17582 13.7712 1.20345L15.2736 2.38251C15.8896 2.85846 16.3004 3.48586 16.4409 4.1457C16.603 4.87153 16.43 5.58437 15.9437 6.20095Z" fill="#E8E8E8"/>
</svg>
