<svg width="14" height="14" viewBox="0 0 14 14" fill="none" xmlns="http://www.w3.org/2000/svg">
<path d="M8.99765 0.00012207C11.7589 0.000174835 13.9974 2.23895 13.9977 5.00012V9.0011C13.9977 11.7625 11.759 14.001 8.99765 14.0011H4.99765C2.23623 14.0011 -0.00234985 11.7625 -0.00234985 9.0011V5.00012C-0.0020885 2.23892 2.23639 0.00012224 4.99765 0.00012207H8.99765ZM2.65683 4.38V9.27942H6.45078V8.36926H3.78378V7.23547H6.05917V6.35364H3.78378V5.28918H6.35995V4.38H2.65683ZM7.35312 4.38V9.27942H8.48788V7.91418H9.47421C9.4915 7.91418 9.50887 7.91147 9.52597 7.91125L10.4684 9.27942H11.693L10.5982 7.70715C10.6013 7.70581 10.6049 7.70558 10.608 7.70422C10.9253 7.56424 11.1707 7.36395 11.3434 7.10266C11.516 6.83666 11.6021 6.52135 11.6021 6.15735C11.6021 5.78877 11.516 5.47115 11.3434 5.2052C11.1707 4.93934 10.9252 4.73675 10.608 4.5968C10.2907 4.45221 9.91276 4.38 9.47421 4.38H7.35312ZM9.41171 5.30383C9.76156 5.30388 10.0233 5.37817 10.1959 5.52747C10.3684 5.67675 10.4546 5.8869 10.4547 6.15735C10.4547 6.42313 10.3683 6.63327 10.1959 6.78723C10.0233 6.93652 9.76156 7.0118 9.41171 7.01184H8.48788V5.30383H9.41171Z" fill="#1A72FF"/>
</svg>
