<svg width="15" height="15" viewBox="0 0 15 15" fill="none" xmlns="http://www.w3.org/2000/svg">
<path d="M9.80518 0.0942383C12.4472 0.227993 14.5483 2.41216 14.5483 5.0874V9.51416L14.5415 9.771C14.412 12.3278 12.362 14.3779 9.80518 14.5073L9.54834 14.5142H5.12158L4.86475 14.5073C2.30784 14.3779 0.257927 12.3279 0.128418 9.771L0.121582 9.51416V5.0874C0.121582 2.32598 2.36016 0.0874026 5.12158 0.0874023H9.54834L9.80518 0.0942383ZM5.12158 1.0874C2.91244 1.0874 1.12158 2.87826 1.12158 5.0874V9.51416C1.12172 11.7232 2.91253 13.5142 5.12158 13.5142H9.54834C11.7573 13.5141 13.5482 11.7231 13.5483 9.51416V5.0874C13.5483 2.8783 11.7574 1.08747 9.54834 1.0874H5.12158ZM6.69775 5.4458H4.12158V6.50928H6.39697V7.39209H4.12158V8.52588H6.78857V9.43604H2.99463V4.53564H6.69775V5.4458ZM9.81201 4.53564C10.2506 4.53566 10.6285 4.60783 10.9458 4.75244C11.2631 4.89244 11.5085 5.09582 11.6812 5.36182C11.8537 5.62777 11.9399 5.94541 11.9399 6.31396C11.9399 6.67766 11.8536 6.99246 11.6812 7.2583C11.5085 7.51963 11.2631 7.72084 10.9458 7.86084C10.9423 7.86237 10.9385 7.86323 10.9351 7.86475L12.0308 9.43604H10.8062L9.86279 8.06787C9.84595 8.06808 9.82904 8.0708 9.81201 8.0708H8.82471V9.43604H7.69092V4.53564H9.81201ZM8.82471 7.16748H9.74854C10.0984 7.16748 10.36 7.09308 10.5327 6.94385C10.7053 6.7899 10.7914 6.57982 10.7915 6.31396C10.7915 6.04336 10.7053 5.83341 10.5327 5.68408C10.36 5.53475 10.0985 5.45947 9.74854 5.45947H8.82471V7.16748Z" fill="#1A72FF"/>
</svg>
