<svg width="20" height="17" viewBox="0 0 20 17" fill="none" xmlns="http://www.w3.org/2000/svg">
<path d="M14.2857 0C17.4413 7.5529e-05 19.9996 2.53742 20 5.66667V11.3333C20 14.4629 17.4416 16.9999 14.2857 17H5.71429C2.55837 17 0 14.4629 0 11.3333V5.66667C0.000376853 2.53738 2.5586 0 5.71429 0H14.2857ZM4.68471 5.31804V11.2683H9.33036V10.1629H6.06446V8.78638H8.85044V7.71558H6.06446V6.42342H9.21874V5.31804H4.68471ZM10.4353 5.31804V11.2683H11.8248V9.61092H13.0329C13.054 9.61092 13.0749 9.60841 13.0957 9.60816L14.2494 11.2683H15.7506L14.4084 9.35914C14.4126 9.3574 14.417 9.35674 14.421 9.35499C14.8096 9.18503 15.1094 8.94172 15.3209 8.62451C15.5321 8.30167 15.6389 7.91935 15.639 7.47762C15.639 7.02995 15.5323 6.64404 15.3209 6.32104C15.1094 5.99815 14.8096 5.75086 14.421 5.58089C14.0326 5.40539 13.5698 5.31804 13.0329 5.31804H10.4353ZM12.9562 6.44002C13.3845 6.4401 13.7047 6.5313 13.916 6.71256C14.1271 6.89387 14.2327 7.14919 14.2327 7.47762C14.2326 7.80032 14.1273 8.0558 13.916 8.24268C13.7047 8.42385 13.3844 8.51377 12.9562 8.51384H11.8248V6.44002H12.9562Z" fill="#A3A3A3"/>
</svg>
