<svg width="20" height="15" viewBox="0 0 20 15" fill="none" xmlns="http://www.w3.org/2000/svg">
<path fill-rule="evenodd" clip-rule="evenodd" d="M9.99991 0C12.0681 0 14.029 0.672663 15.7362 1.91797C17.4436 3.15434 18.8974 4.96389 19.9413 7.22754C20.0193 7.40024 20.0193 7.60007 19.9413 7.76367C17.8535 12.2909 14.1365 15 9.99991 15H9.99014C5.86332 15 2.14631 12.2909 0.0584995 7.76367C-0.0195248 7.60009 -0.0194749 7.40023 0.0584995 7.22754C2.14631 2.70026 5.86331 2.9093e-05 9.99014 0H9.99991ZM9.99991 3.86426C7.8438 3.86426 6.09756 5.49187 6.09756 7.50098C6.09783 9.50078 7.84396 11.1279 9.99991 11.1279C12.146 11.1279 13.8922 9.50074 13.8925 7.50098C13.8925 5.49191 12.1462 3.86432 9.99991 3.86426ZM10.0009 5.22656C11.3374 5.22656 12.4305 6.24454 12.4306 7.49902C12.4306 8.74448 11.3375 9.7627 10.0009 9.7627C8.65468 9.76254 7.56241 8.74439 7.56241 7.49902C7.56242 7.34454 7.58197 7.19912 7.61123 7.05371H7.66006C8.74277 7.05354 9.62094 6.25372 9.66006 5.25391C9.7672 5.23577 9.88402 5.22658 10.0009 5.22656Z" fill="#A3A3A3"/>
</svg>
