<svg width="15" height="12" viewBox="0 0 15 12" fill="none" xmlns="http://www.w3.org/2000/svg">
<path d="M7.49756 0C9.04877 0 10.5198 0.53783 11.8003 1.53418C13.0808 2.52328 14.1707 3.97131 14.9536 5.78223C15.012 5.92035 15.0121 6.08011 14.9536 6.21094C13.3877 9.83275 10.6 12 7.49756 12H7.49072C4.39559 12 1.60737 9.83277 0.0415039 6.21094C-0.0169902 6.08012 -0.0169047 5.92034 0.0415039 5.78223C1.60737 2.16039 4.39558 0 7.49072 0H7.49756ZM7.49756 3.09082C5.88048 3.09082 4.5708 4.39272 4.5708 6C4.57085 7.59997 5.88051 8.90137 7.49756 8.90137C9.1073 8.90137 10.4174 7.59997 10.4175 6C10.4175 4.39272 9.10732 3.09082 7.49756 3.09082ZM7.49854 4.18066C8.50098 4.18066 9.3208 4.99538 9.3208 5.99902C9.32058 6.99521 8.50085 7.80957 7.49854 7.80957C6.48895 7.80952 5.66965 6.99518 5.66943 5.99902C5.66943 5.87552 5.68365 5.75882 5.70557 5.64258H5.74268C6.55481 5.6425 7.21341 5.0021 7.24268 4.20215C7.32309 4.18763 7.41082 4.18067 7.49854 4.18066Z" fill="#1A72FF"/>
</svg>
