<svg width="16" height="22" viewBox="0 0 16 22" fill="none" xmlns="http://www.w3.org/2000/svg">
<path d="M12.8252 0.889454C9.63638 0.37067 6.36362 0.37067 3.17479 0.889454C2.0098 1.07898 1.08204 1.9469 0.848449 3.07224C-0.221662 8.22767 -0.28005 13.5327 0.676347 18.7092L1.06573 20.8167C1.1858 21.4665 2.00218 21.7262 2.49542 21.2715L7.19548 16.9385C7.64632 16.5229 8.35368 16.5229 8.80452 16.9386L13.5046 21.2715C13.9978 21.7262 14.8142 21.4665 14.9343 20.8167L15.3237 18.7092C16.2801 13.5327 16.2217 8.22767 15.1516 3.07224C14.918 1.9469 13.9902 1.07898 12.8252 0.889454Z" fill="#707070"/>
</svg>
