<svg width="18" height="23" viewBox="0 0 18 23" fill="none" xmlns="http://www.w3.org/2000/svg">
<path d="M13.8252 1.38909C10.6364 0.870304 7.36362 0.870304 4.17479 1.38909C3.0098 1.57862 2.08204 2.44653 1.84845 3.57187C0.778338 8.72731 0.71995 14.0324 1.67635 19.2088L2.06573 21.3163C2.1858 21.9661 3.00218 22.2259 3.49542 21.7712L8.19548 17.4382C8.64632 17.0226 9.35368 17.0226 9.80452 17.4382L14.5046 21.7712C14.9978 22.2259 15.8142 21.9661 15.9343 21.3163L16.3237 19.2088C17.2801 14.0324 17.2217 8.7273 16.1516 3.57187C15.918 2.44653 14.9902 1.57862 13.8252 1.38909Z" fill="#707070" stroke="#A3A3A3"/>
</svg>
