<svg width="18" height="20" viewBox="0 0 18 20" fill="none" xmlns="http://www.w3.org/2000/svg">
<path d="M10.2529 0C10.5101 0.000247213 10.708 0.210125 10.708 0.459961V3.67969C10.708 5.50962 12.2029 7.00942 14.0146 7.01953C14.7669 7.01953 15.361 7.03027 15.8164 7.03027C16.1233 7.03027 16.6289 7.01953 17.0547 7.01953C17.302 7.01966 17.4999 7.21993 17.5 7.46973V15.5098C17.5 17.9896 15.5101 19.9998 13.0449 20H5.17285C2.5988 19.9998 0.500021 17.8899 0.5 15.29V4.50977C0.500126 2.02987 2.50055 0 4.96582 0H10.2529ZM8.81641 7.76953C8.41073 7.76976 8.07435 8.10002 8.07422 8.50977V10.2402H6.37109C5.96524 10.2403 5.62891 10.5703 5.62891 10.9902C5.62903 11.4001 5.96532 11.7304 6.37109 11.7305H8.07422V13.46C8.07422 13.8698 8.41066 14.2 8.81641 14.2002C9.22235 14.2002 9.5498 13.87 9.5498 13.46V11.7305H11.2627C11.6684 11.7303 12.0048 11.4 12.0049 10.9902C12.0049 10.5703 11.6685 10.2404 11.2627 10.2402H9.5498V8.50977C9.54968 8.09987 9.22227 7.76953 8.81641 7.76953ZM12.1494 0.90625C12.1494 0.47525 12.6678 0.261266 12.9639 0.572266C14.0341 1.69617 15.9037 3.66079 16.9492 4.75879C17.2382 5.0617 17.027 5.56512 16.6104 5.56641C15.7965 5.56941 14.8366 5.56657 14.1465 5.55957C13.0515 5.55949 12.1494 4.64794 12.1494 3.54199V0.90625Z" fill="#272727"/>
</svg>
