<svg width="14" height="14" viewBox="0 0 14 14" fill="none" xmlns="http://www.w3.org/2000/svg">
<path d="M11.9 0H2.1C1.11005 0 0.615076 0 0.307538 0.320598C0 0.641196 0 1.15719 0 2.18918V2.7257C0 3.53292 0 3.93652 0.18172 4.2711C0.36344 4.60569 0.695431 4.81334 1.35941 5.22865L3.39853 6.50408C3.84402 6.78272 4.06677 6.92205 4.22626 7.07589C4.55839 7.39627 4.76286 7.77273 4.85551 8.23446C4.9 8.45619 4.9 8.71562 4.9 9.2345L4.9 11.3108C4.9 12.0182 4.9 12.3719 5.07635 12.6477C5.25269 12.9234 5.5659 13.0595 6.19231 13.3315C7.50735 13.9028 8.16487 14.1884 8.63243 13.8634C9.1 13.5385 9.1 12.7959 9.1 11.3108V9.23451C9.1 8.71563 9.1 8.45618 9.14449 8.23446C9.23715 7.77273 9.44161 7.39627 9.77374 7.07589C9.93323 6.92205 10.156 6.78272 10.6015 6.50407L12.6406 5.22865C13.3046 4.81334 13.6366 4.60569 13.8183 4.2711C14 3.93652 14 3.53292 14 2.7257V2.18918C14 1.15719 14 0.641196 13.6925 0.320598C13.3849 0 12.8899 0 11.9 0Z" fill="#A3A3A3"/>
</svg>
