<svg width="20" height="20" viewBox="0 0 20 20" fill="none" xmlns="http://www.w3.org/2000/svg">
<path d="M17 0H3C1.58579 0 0.87868 0 0.43934 0.457997C0 0.915995 0 1.65313 0 3.1274V3.89386C0 5.04702 0 5.6236 0.2596 6.10158C0.5192 6.57955 0.993473 6.8762 1.94202 7.4695L4.85504 9.29154C5.49146 9.6896 5.80967 9.88864 6.03751 10.1084C6.51199 10.5661 6.80408 11.1039 6.93644 11.7635C7 12.0803 7 12.4509 7 13.1921L7 16.1582C7 17.1689 7 17.6742 7.25192 18.0681C7.50385 18.462 7.95128 18.6564 8.84615 19.0451C10.7248 19.8611 11.6641 20.2691 12.3321 19.8049C13 19.3407 13 18.2799 13 16.1582V13.1922C13 12.4509 13 12.0803 13.0636 11.7635C13.1959 11.1039 13.488 10.5661 13.9625 10.1084C14.1903 9.88864 14.5085 9.6896 15.145 9.29153L18.058 7.4695C19.0065 6.8762 19.4808 6.57955 19.7404 6.10158C20 5.6236 20 5.04702 20 3.89386V3.1274C20 1.65313 20 0.915995 19.5607 0.457997C19.1213 0 18.4142 0 17 0Z" fill="#A3A3A3"/>
</svg>
