<svg width="15" height="16" viewBox="0 0 15 16" fill="none" xmlns="http://www.w3.org/2000/svg">
<path d="M14.417 2.42806C14.417 1.96915 14.4167 1.73953 14.3276 1.56425C14.2492 1.41007 14.1245 1.28481 13.9706 1.20625C13.7957 1.11694 13.5662 1.11694 13.1082 1.11694H2.64065C2.18265 1.11694 1.95388 1.11694 1.77894 1.20625C1.62507 1.28481 1.50006 1.41007 1.42165 1.56425C1.33252 1.73953 1.33252 1.96915 1.33252 2.42806V3.03216C1.33252 3.23258 1.33252 3.33286 1.35511 3.42716C1.37515 3.51077 1.40827 3.59064 1.45311 3.66395C1.50367 3.74661 1.57451 3.81759 1.71585 3.95922L5.85606 8.1076C5.99749 8.24931 6.06783 8.31978 6.1184 8.40247C6.16323 8.47578 6.19681 8.55592 6.21684 8.63953C6.2392 8.73287 6.2392 8.83197 6.2392 9.02833V12.9252C6.2392 13.6276 6.2392 13.9791 6.38685 14.1906C6.51577 14.3753 6.71466 14.4985 6.93719 14.5314C7.19203 14.5691 7.50571 14.4122 8.13271 14.0981L8.78694 13.7704C9.04949 13.6388 9.18046 13.5728 9.27637 13.4747C9.36119 13.3879 9.42607 13.2837 9.4656 13.1689C9.5103 13.0391 9.51032 12.8916 9.51032 12.5975V9.03443C9.51032 8.83401 9.51032 8.73383 9.53292 8.63953C9.55295 8.55592 9.58607 8.47578 9.63091 8.40247C9.68115 8.32033 9.75129 8.25005 9.89085 8.11022L9.89366 8.1076L14.0339 3.95922C14.1753 3.8175 14.2456 3.74664 14.2962 3.66395C14.341 3.59064 14.3746 3.51077 14.3946 3.42716C14.417 3.33382 14.417 3.23462 14.417 3.03826V2.42806Z" stroke="#F5F5F5" stroke-linecap="round" stroke-linejoin="round"/>
</svg>
