<svg width="13" height="13" viewBox="0 0 13 13" fill="none" xmlns="http://www.w3.org/2000/svg">
<path d="M12 2.07468C12 1.69853 11.9997 1.51032 11.9248 1.36665C11.8589 1.24027 11.7541 1.1376 11.6248 1.0732C11.4777 1 11.2848 1 10.8997 1H2.09973C1.7147 1 1.52237 1 1.37531 1.0732C1.24594 1.1376 1.14085 1.24027 1.07493 1.36665C1 1.51032 1 1.69853 1 2.07468V2.56985C1 2.73413 1 2.81633 1.019 2.89363C1.03584 2.96216 1.06368 3.02762 1.10138 3.08771C1.14388 3.15547 1.20344 3.21365 1.32227 3.32974L4.8029 6.73006C4.9218 6.84621 4.98093 6.90397 5.02344 6.97175C5.06114 7.03184 5.08936 7.09753 5.1062 7.16606C5.125 7.24257 5.125 7.3238 5.125 7.48475V10.6789C5.125 11.2547 5.125 11.5427 5.24912 11.7161C5.35751 11.8675 5.52472 11.9685 5.71179 11.9955C5.92603 12.0264 6.18974 11.8978 6.71686 11.6403L7.26686 11.3717C7.48759 11.2638 7.59768 11.2097 7.67832 11.1293C7.74962 11.0582 7.80417 10.9728 7.8374 10.8787C7.87498 10.7722 7.875 10.6514 7.875 10.4103V7.48975C7.875 7.32547 7.875 7.24336 7.894 7.16606C7.91084 7.09753 7.93868 7.03184 7.97638 6.97175C8.01861 6.90442 8.07758 6.84681 8.1949 6.7322L8.19727 6.73006L11.6779 3.32974C11.7968 3.21358 11.8559 3.15549 11.8984 3.08771C11.9361 3.02762 11.9644 2.96216 11.9812 2.89363C12 2.81712 12 2.7358 12 2.57485V2.07468Z" stroke="#A3A3A3" stroke-width="2" stroke-linecap="round" stroke-linejoin="round"/>
</svg>
