<svg width="21" height="19" viewBox="0 0 21 19" fill="none" xmlns="http://www.w3.org/2000/svg">
<path d="M17.3132 11.7024C19.213 11.7026 20.7517 13.2157 20.7517 15.0823C20.7516 16.9476 19.213 18.46 17.3132 18.4602C15.4144 18.4602 13.8739 16.9478 13.8738 15.0823C13.8738 13.2156 15.4144 11.7024 17.3132 11.7024ZM8.83472 13.6409C9.66693 13.6409 10.3425 14.3047 10.3425 15.1223C10.3424 15.9388 9.66687 16.6038 8.83472 16.6038H2.25952C1.42736 16.6038 0.751805 15.9388 0.751709 15.1223C0.751709 14.3047 1.4273 13.6409 2.25952 13.6409H8.83472ZM4.19019 0.682861C6.09018 0.682861 7.62964 2.19619 7.62964 4.06177C7.62945 5.92828 6.09006 7.44067 4.19019 7.44067C2.2916 7.44046 0.751899 5.92815 0.751709 4.06177C0.751709 2.19632 2.29149 0.68307 4.19019 0.682861ZM19.2449 2.5813C20.076 2.5813 20.7517 3.24524 20.7517 4.06177C20.7515 4.87923 20.0759 5.54321 19.2449 5.54321H12.6697C11.8376 5.54321 11.1621 4.87923 11.1619 4.06177C11.1619 3.24524 11.8375 2.5813 12.6697 2.5813H19.2449Z" fill="#E8E8E8"/>
</svg>
