<svg width="14" height="20" viewBox="0 0 14 20" fill="none" xmlns="http://www.w3.org/2000/svg">
<path d="M6.81254 0.526021C6.52291 0.399036 6.23765 0.487871 6.05414 0.674758C5.87588 0.856299 5.78673 1.13337 5.84923 1.41273C5.9479 1.85367 6 2.31242 6 2.78364C6 3.85948 5.72885 4.61299 5.2623 5.23763C4.78803 5.87262 4.10149 6.38957 3.23466 6.97286C3.22103 6.98203 3.20834 6.99252 3.19678 7.00417L3.09179 7.10997C1.23195 8.31152 0 10.4036 0 12.7836C0 16.5116 3.02208 19.5336 6.75 19.5336C10.4779 19.5336 13.5 16.5116 13.5 12.7836C13.5 11.6891 13.2393 10.6547 12.7764 9.73987C12.7387 9.66545 12.6664 9.61471 12.5836 9.6046C12.5008 9.59448 12.4184 9.62632 12.364 9.68949C12.2935 9.77124 12.2244 9.85192 12.1564 9.93142C11.2781 10.9576 10.5693 11.7857 9.11616 12.1557C9.05436 12.1714 9.01597 12.1597 8.98873 12.1427C8.95667 12.1227 8.9216 12.0827 8.89757 12.0188C8.84748 11.8857 8.86897 11.7159 8.97161 11.6046C9.74879 10.762 10.3009 9.61823 10.4982 7.99111C10.8677 4.94321 9.48249 1.69662 6.81254 0.526021Z" fill="#A3A3A3"/>
</svg>
