<svg width="14" height="16" viewBox="0 0 14 16" fill="none" xmlns="http://www.w3.org/2000/svg">
<path d="M12.854 8.264L11.7026 7.288C11.4289 7.088 11.2685 6.792 11.259 6.464C11.2402 6.104 11.41 5.744 11.7215 5.48L12.854 4.52C13.8355 3.688 14.2036 2.888 13.8921 2.256C13.5901 1.632 12.6558 1.288 11.2779 1.288H1.41564V0.6C1.41564 0.272 1.09476 0 0.707819 0C0.320878 0 0 0.272 0 0.6V15.4C0 15.728 0.320878 16 0.707819 16C1.09476 16 1.41564 15.728 1.41564 15.4V11.496H11.2779C12.6369 11.496 13.5524 11.144 13.8638 10.512C14.1753 9.88 13.8166 9.088 12.854 8.264Z" fill="#A3A3A3"/>
</svg>
