<svg width="24" height="24" viewBox="0 0 24 24" fill="none" xmlns="http://www.w3.org/2000/svg">
<path d="M6.75 15.5996C8.00784 15.5996 8.63667 15.6004 9.13281 15.8135C9.79432 16.0976 10.3207 16.6422 10.5947 17.3281C10.8002 17.8427 10.7998 18.4953 10.7998 19.7998C10.7998 21.1043 10.8002 21.7569 10.5947 22.2715C10.3207 22.9576 9.79439 23.5029 9.13281 23.7871C8.6367 24.0001 8.00766 24 6.75 24H4.0498C2.79214 24 2.1631 24.0001 1.66699 23.7871C1.00542 23.5029 0.479112 22.9576 0.205078 22.2715C-0.000375398 21.757 0 21.1043 0 19.7998C5.1343e-10 18.4953 -0.000436864 17.8427 0.205078 17.3281C0.479129 16.6421 1.00547 16.0976 1.66699 15.8135C2.16314 15.6004 2.79196 15.5996 4.0498 15.5996H6.75ZM18.5996 10.7998C21.1451 10.7998 22.4182 10.8001 23.209 11.5732C23.9998 12.3465 24 13.5911 24 16.0801V18.7197C24 21.2087 23.9998 22.4533 23.209 23.2266C22.4182 23.9998 21.1452 24 18.5996 24C16.0544 24 14.782 23.9997 13.9912 23.2266C13.2004 22.4533 13.2002 21.2087 13.2002 18.7197V16.0801C13.2002 13.5911 13.2004 12.3465 13.9912 11.5732C14.782 10.8002 16.0545 10.7998 18.5996 10.7998ZM5.40039 0C7.9456 2.02197e-09 9.21801 0.000341229 10.0088 0.773438C10.7996 1.54668 10.7998 2.79126 10.7998 5.28027V7.91992C10.7998 10.4089 10.7996 11.6535 10.0088 12.4268C9.218 13.1998 7.9455 13.2002 5.40039 13.2002C2.85492 13.2002 1.58183 13.1999 0.791016 12.4268C0.000203888 11.6535 0 10.4089 0 7.91992V5.28027C0 2.79126 0.000203888 1.54668 0.791016 0.773438C1.58183 0.000203862 2.85481 0 5.40039 0ZM19.9502 0C21.2079 5.7111e-10 21.8369 -0.000111074 22.333 0.212891C22.9946 0.497074 23.5209 1.04244 23.7949 1.72852C24.0004 2.24305 24 2.89571 24 4.2002C24 5.5047 24.0004 6.15734 23.7949 6.67188C23.5209 7.35788 22.9945 7.90236 22.333 8.18652C21.8369 8.39962 21.208 8.40039 19.9502 8.40039H17.25C15.9922 8.40039 15.3633 8.39956 14.8672 8.18652C14.2057 7.90237 13.6793 7.35785 13.4053 6.67188C13.1998 6.15734 13.2002 5.5047 13.2002 4.2002C13.2002 2.89565 13.1998 2.24306 13.4053 1.72852C13.6793 1.04244 14.2056 0.497074 14.8672 0.212891C15.3633 -5.12996e-05 15.9923 0 17.25 0H19.9502Z" fill="#707070"/>
</svg>
