<svg width="24" height="24" viewBox="0 0 24 24" fill="none" xmlns="http://www.w3.org/2000/svg">
<path fill-rule="evenodd" clip-rule="evenodd" d="M1.75736 1.75736C0 3.51472 0 6.34315 0 12C0 17.6569 0 20.4853 1.75736 22.2426C3.51472 24 6.34315 24 12 24C17.6569 24 20.4853 24 22.2426 22.2426C24 20.4853 24 17.6569 24 12C24 6.34315 24 3.51472 22.2426 1.75736C20.4853 0 17.6569 0 12 0C6.34315 0 3.51472 0 1.75736 1.75736ZM14.1 9.6C14.1 10.0971 14.5029 10.5 15 10.5H15.8272L13.4121 12.9151C13.295 13.0322 13.105 13.0322 12.9879 12.9151L11.0849 11.0121C10.2648 10.192 8.93518 10.192 8.11508 11.0121L5.3636 13.7636C5.01213 14.1151 5.01213 14.6849 5.3636 15.0364C5.71508 15.3879 6.28492 15.3879 6.6364 15.0364L9.38787 12.2849C9.50503 12.1678 9.69497 12.1678 9.81213 12.2849L11.7151 14.1879C12.5352 15.008 13.8648 15.008 14.6849 14.1879L17.1 11.7728V12.6C17.1 13.0971 17.5029 13.5 18 13.5C18.4971 13.5 18.9 13.0971 18.9 12.6V9.6C18.9 9.10294 18.4971 8.7 18 8.7H15C14.5029 8.7 14.1 9.10294 14.1 9.6Z" fill="#707070"/>
</svg>
