<svg width="24" height="24" viewBox="0 0 24 24" fill="none" xmlns="http://www.w3.org/2000/svg">
<path d="M21.8591 3.2H4.98933L3.54794 0.492284C3.38615 0.188357 3.08008 0 2.748 0H0.916001C0.410107 0 0 0.429807 0 0.96C0 1.49019 0.410107 1.92 0.916001 1.92H2.21013L3.63261 4.59219L6.9132 12.1995L6.91656 12.2073L7.20551 12.8773L3.91177 16.5594C3.67494 16.8242 3.6008 17.2063 3.72017 17.5469C3.83953 17.8876 4.13199 18.1286 4.47602 18.1698L7.47822 18.5294C11.2334 18.9792 15.0253 18.9792 18.7805 18.5294L21.7827 18.1698C22.2853 18.1096 22.6462 17.6338 22.5888 17.107C22.5313 16.5802 22.0773 16.202 21.5747 16.2622L18.5725 16.6218C14.9555 17.055 11.3032 17.055 7.68624 16.6218L6.4948 16.4791L8.91229 13.7766C8.93567 13.7504 8.95739 13.7233 8.97745 13.6953L9.89689 13.8207C11.1853 13.9964 12.4877 14.0308 13.7829 13.9234C16.8038 13.673 19.6037 12.1665 21.5583 9.73961L22.2644 8.86304C22.2881 8.8336 22.3101 8.8027 22.3302 8.77049L23.6461 6.66891C24.5788 5.1793 23.5591 3.2 21.8591 3.2Z" fill="#707070"/>
<path d="M6.41201 20.16C5.40022 20.16 4.58001 21.0196 4.58001 22.08C4.58001 23.1404 5.40022 24 6.41201 24C7.42379 24 8.24401 23.1404 8.24401 22.08C8.24401 21.0196 7.42379 20.16 6.41201 20.16Z" fill="#707070"/>
<path d="M18.0147 22.08C18.0147 21.0196 18.8349 20.16 19.8467 20.16C20.8585 20.16 21.6787 21.0196 21.6787 22.08C21.6787 23.1404 20.8585 24 19.8467 24C18.8349 24 18.0147 23.1404 18.0147 22.08Z" fill="#707070"/>
</svg>
