<svg width="18" height="18" viewBox="0 0 18 18" fill="none" xmlns="http://www.w3.org/2000/svg">
<path d="M2.93533 1.9188L6.60479 3.6312C8.21307 4.38173 10.0711 4.38173 11.6794 3.6312L15.3488 1.9188C15.9962 1.61671 16.6675 2.28807 16.3654 2.93538L14.653 6.60484C13.9025 8.21312 13.9025 10.0712 14.653 11.6794L16.3654 15.3489C16.6675 15.9962 15.9962 16.6676 15.3488 16.3654L11.6794 14.6531C10.0711 13.9025 8.21308 13.9025 6.6048 14.6531L2.93537 16.3654C2.28802 16.6676 1.61666 15.9962 1.91879 15.3489L3.63117 11.6794C4.38169 10.0712 4.38169 8.21312 3.63116 6.60484L1.91876 2.93538C1.61667 2.28807 2.28803 1.61671 2.93533 1.9188Z" fill="#E8E8E8" stroke="#E8E8E8" stroke-width="2" stroke-linecap="round" stroke-linejoin="round"/>
</svg>
