<svg width="24" height="24" viewBox="0 0 24 24" fill="none" xmlns="http://www.w3.org/2000/svg">
<path d="M0.122559 1.79431C-0.374125 0.729953 0.730061 -0.37428 1.79443 0.122437L7.771 2.91248C10.4515 4.16333 13.5485 4.16332 16.229 2.91248L22.2056 0.122437C23.2699 -0.374283 24.3741 0.729948 23.8774 1.79431L21.0884 7.77185C19.8376 10.4522 19.8376 13.5485 21.0884 16.2289L23.8774 22.2064C24.3738 23.2708 23.2699 24.3741 22.2056 23.8773L16.229 21.0883C13.5485 19.8374 10.4515 19.8374 7.771 21.0883L1.79443 23.8773C0.730102 24.3741 -0.373804 23.2707 0.122559 22.2064L2.91162 16.2289C4.16244 13.5485 4.16236 10.4522 2.91162 7.77185L0.122559 1.79431Z" fill="#707070"/>
</svg>
