<svg width="20" height="20" viewBox="0 0 20 20" fill="none" xmlns="http://www.w3.org/2000/svg">
<path d="M17.6222 17.5436V9.03564H2.25537V17.5436C2.25537 18.348 2.90742 19 3.71174 19H16.1658C16.9702 19 17.6222 18.348 17.6222 17.5436Z" stroke="#1A72FF" stroke-width="2" stroke-linecap="round" stroke-linejoin="round"/>
<path d="M9.93896 18.9999V9.03284" stroke="#1A72FF" stroke-width="2" stroke-linecap="round" stroke-linejoin="round"/>
<path d="M18.8781 6.70429V7.57929C18.8781 8.38362 18.2261 9.03566 17.4218 9.03566H2.45637C1.65204 9.03566 1 8.38362 1 7.57929V6.70429C1 5.89997 1.65204 5.24792 2.45637 5.24792H17.4218C18.2261 5.24792 18.8781 5.89997 18.8781 6.70429Z" stroke="#1A72FF" stroke-width="2" stroke-linecap="round" stroke-linejoin="round"/>
<path d="M9.94008 5.24775C9.94008 3.97342 8.45337 1 6.22331 1C2.59534 1 3.91692 5.24775 5.65336 5.24775" stroke="#1A72FF" stroke-width="2" stroke-linecap="round" stroke-linejoin="round"/>
<path d="M9.93896 5.24775C9.93896 3.97342 11.4257 1 13.6557 1C17.2837 1 15.9621 5.24775 14.2257 5.24775" stroke="#1A72FF" stroke-width="2" stroke-linecap="round" stroke-linejoin="round"/>
</svg>
