<svg width="14" height="14" viewBox="0 0 14 14" fill="none" xmlns="http://www.w3.org/2000/svg">
<path d="M7 2.76471V4.52941M7 2.76471C7 1.79009 7.74619 1 8.66667 1C9.58714 1 10.3333 1.79009 10.3333 2.76471C10.3333 3.73933 9.58714 4.52941 8.66667 4.52941M7 2.76471C7 1.79009 6.25381 1 5.33333 1C4.41286 1 3.66667 1.79009 3.66667 2.76471C3.66667 3.73933 4.41286 4.52941 5.33333 4.52941M7 4.52941H8.66667M7 4.52941H5.33333M7 4.52941V8.76471M8.66667 4.52941H10.8668C11.6135 4.52941 11.9864 4.52941 12.2716 4.68329C12.5225 4.81864 12.727 5.03445 12.8548 5.30009C13 5.60179 13 5.99694 13 6.78605V8.76471M5.33333 4.52941H3.13346C2.38673 4.52941 2.01308 4.52941 1.72786 4.68329C1.47698 4.81864 1.27316 5.03445 1.14532 5.30009C1 5.60209 1 5.99771 1 6.78837V8.76471M1 8.76471V10.7413C1 11.532 1 11.9271 1.14532 12.2291C1.27316 12.4947 1.47698 12.7109 1.72786 12.8463C2.0128 13 2.386 13 3.13127 13H7M1 8.76471H7M7 8.76471V13M7 8.76471H13M7 13H10.8687C11.614 13 11.9867 13 12.2716 12.8463C12.5225 12.7109 12.727 12.4947 12.8548 12.2291C13 11.9274 13 11.5328 13 10.7437V8.76471" stroke="#1A72FF" stroke-linecap="round" stroke-linejoin="round"/>
</svg>
