<svg width="23" height="23" viewBox="0 0 23 23" fill="none" xmlns="http://www.w3.org/2000/svg">
<path d="M20.1673 20.0701V10.2593H2.44727V20.0701C2.44727 20.9977 3.19916 21.7495 4.12665 21.7495H18.4879C19.4154 21.7495 20.1673 20.9977 20.1673 20.0701Z" stroke="#E8E8E8" stroke-width="2" stroke-linecap="round" stroke-linejoin="round"/>
<path d="M11.3071 21.7497V10.2563" stroke="#E8E8E8" stroke-width="2" stroke-linecap="round" stroke-linejoin="round"/>
<path d="M21.6159 7.57099V8.57998C21.6159 9.50748 20.864 10.2594 19.9365 10.2594H2.67939C1.75189 10.2594 1 9.50748 1 8.57998V7.57099C1 6.6435 1.75189 5.8916 2.67939 5.8916H19.9365C20.864 5.8916 21.6159 6.6435 21.6159 7.57099Z" stroke="#E8E8E8" stroke-width="2" stroke-linecap="round" stroke-linejoin="round"/>
<path d="M11.3082 5.89139C11.3082 4.42192 9.59385 0.993164 7.02229 0.993164C2.83875 0.993164 4.36271 5.89139 6.36506 5.89139" stroke="#E8E8E8" stroke-width="2" stroke-linecap="round" stroke-linejoin="round"/>
<path d="M11.3071 5.89139C11.3071 4.42192 13.0215 0.993164 15.5931 0.993164C19.7766 0.993164 18.2526 5.89139 16.2503 5.89139" stroke="#E8E8E8" stroke-width="2" stroke-linecap="round" stroke-linejoin="round"/>
</svg>
