<svg width="16" height="16" viewBox="0 0 16 16" fill="none" xmlns="http://www.w3.org/2000/svg">
<path d="M5.56543 2.36768C5.95731 2.29448 6.35037 2.48972 6.52148 2.84326C6.606 2.97069 6.62774 3.1272 6.6377 3.27979C6.742 4.87816 6.85235 6.45222 6.95605 8.02588C6.95363 8.19709 6.981 8.36733 7.03613 8.52979C7.16613 8.84978 7.48924 9.05302 7.83984 9.03467L13.1436 8.70752H13.2012C13.4298 8.71126 13.6477 8.8041 13.8066 8.96533C13.9656 9.12662 14.0527 9.34354 14.0488 9.56787C13.839 12.6254 11.5974 15.18 8.54688 15.8384C5.49612 16.4966 2.36805 15.0999 0.870117 12.4106C0.429813 11.6362 0.151618 10.7832 0.0517578 9.90186C0.0130325 9.64069 -0.00400797 9.37666 0.000976562 9.11279C0.0111739 5.86146 2.32642 3.05532 5.56543 2.36768ZM8.73047 0.000488281C12.3871 0.109951 15.4431 2.76425 15.9971 6.31201C16.0006 6.3332 16.0006 6.35528 15.9971 6.37646C16.0089 6.54426 15.9526 6.70975 15.8398 6.83643C15.7271 6.96307 15.5675 7.04026 15.3965 7.05127L9.25293 7.45654C9.0498 7.47455 8.84758 7.40821 8.69727 7.27295C8.54694 7.13765 8.46206 6.94575 8.46289 6.74561L8.0498 0.711426V0.611816C8.05732 0.442209 8.13315 0.282138 8.26074 0.16748C8.3884 0.0528947 8.55763 -0.00711216 8.73047 0.000488281Z" fill="#DADADA"/>
</svg>
