<svg width="20" height="20" viewBox="0 0 20 20" fill="none" xmlns="http://www.w3.org/2000/svg">
<path d="M6.95605 2.95984C7.44614 2.86811 7.93749 3.11233 8.15137 3.55457C8.25697 3.71379 8.28442 3.90883 8.29688 4.09949C8.42726 6.09743 8.56471 8.06504 8.69434 10.0321C8.69128 10.2463 8.72592 10.4598 8.79492 10.663C8.95756 11.0627 9.36169 11.3168 9.7998 11.2938L16.4297 10.8846H16.501C16.7868 10.8893 17.0591 11.0053 17.2578 11.2069C17.4565 11.4085 17.5654 11.6794 17.5605 11.9598C17.2982 15.7819 14.496 18.975 10.6826 19.7977C6.86924 20.6204 2.96027 18.8751 1.08789 15.5135C0.537433 14.5455 0.189337 13.4795 0.0644531 12.3778C0.016046 12.0514 -0.00523544 11.7213 0.000976562 11.3915C0.0135969 7.32729 2.90732 3.81944 6.95605 2.95984ZM10.9131 0.000854492C15.4839 0.137684 19.3047 3.45567 19.9971 7.8905C20.0015 7.91697 20.0015 7.94412 19.9971 7.97058C20.0119 8.18034 19.9408 8.38741 19.7998 8.54578C19.6588 8.70416 19.459 8.80064 19.2451 8.81433L11.5654 9.32117C11.3116 9.34363 11.0599 9.25975 10.8721 9.0907C10.6842 8.92157 10.5771 8.68267 10.5781 8.4325L10.0625 0.889526V0.764526C10.072 0.5526 10.1667 0.353097 10.3262 0.209839C10.4858 0.0665968 10.697 -0.00866069 10.9131 0.000854492Z" fill="#E8E8E8"/>
</svg>
