<svg width="15" height="17" viewBox="0 0 15 17" fill="none" xmlns="http://www.w3.org/2000/svg">
<path d="M9.39085 7.00412V13.0082M6.03451 7.00412V13.0082M2.67817 3.57319V13.6944C2.67817 14.6552 2.67817 15.1352 2.86108 15.5022C3.02197 15.825 3.27851 16.0879 3.59428 16.2524C3.95291 16.4392 4.42262 16.4392 5.36065 16.4392H10.0647C11.0027 16.4392 11.4718 16.4392 11.8304 16.2524C12.1462 16.0879 12.4036 15.825 12.5645 15.5022C12.7472 15.1356 12.7472 14.6559 12.7472 13.6971V3.57319M2.67817 3.57319H4.35634M2.67817 3.57319H1M4.35634 3.57319H11.069M4.35634 3.57319C4.35634 2.77389 4.35634 2.37443 4.48408 2.05918C4.65441 1.63884 4.98089 1.30469 5.39208 1.13058C5.70048 1 6.09166 1 6.87359 1H8.55176C9.33369 1 9.72466 1 10.0331 1.13058C10.4443 1.30469 10.7709 1.63884 10.9412 2.05918C11.0689 2.37443 11.069 2.77389 11.069 3.57319M11.069 3.57319H12.7472M12.7472 3.57319H14.4254" stroke="#858585" stroke-linecap="round" stroke-linejoin="round"/>
</svg>
