<svg width="27" height="27" viewBox="0 0 27 27" fill="none" xmlns="http://www.w3.org/2000/svg">
<path d="M13.8322 6.75202L1 19.584V26L7.41608 26L20.2482 13.168M13.8322 6.75202L18.4335 2.15071L18.4363 2.14798C19.0697 1.51459 19.3869 1.19733 19.7526 1.07851C20.0748 0.973832 20.4219 0.973832 20.744 1.07851C21.1095 1.19725 21.4264 1.51414 22.0589 2.14664L24.8495 4.93727C25.4848 5.57248 25.8025 5.89023 25.9215 6.25647C26.0262 6.57862 26.0262 6.92564 25.9215 7.24779C25.8026 7.61377 25.4853 7.93104 24.851 8.56534L24.8496 8.5667L20.2482 13.168M13.8322 6.75202L20.2482 13.168" stroke="#A3A3A3" stroke-width="2" stroke-linecap="round" stroke-linejoin="round"/>
</svg>
