<svg width="10" height="10" viewBox="0 0 10 10" fill="none" xmlns="http://www.w3.org/2000/svg">
<path d="M5.45703 0C5.95823 2.19083e-08 6.382 0.371358 6.44824 0.868164L6.66265 2.47657C6.72228 2.9239 7.07414 3.27586 7.52145 3.33562L9.13184 3.55078C9.62851 3.61707 9.99991 4.04092 10 4.54199V5.45801C9.99991 5.95908 9.62851 6.38293 9.13184 6.44922L7.52185 6.66366C7.07435 6.72327 6.72227 7.07532 6.66264 7.52282L6.44824 9.13184C6.382 9.62864 5.95823 10 5.45703 10H4.54199C4.04079 10 3.61702 9.62864 3.55078 9.13184L3.33566 7.52242C3.27587 7.07511 2.92389 6.72328 2.47656 6.66367L0.867188 6.44922C0.370512 6.38293 9.42718e-05 5.95908 0 5.45801V4.54199C9.4566e-05 4.04092 0.370513 3.61707 0.867188 3.55078L2.47696 3.33561C2.9241 3.27585 3.27586 2.9241 3.33565 2.47697L3.55078 0.868164C3.61702 0.371358 4.04079 -2.19083e-08 4.54199 0H5.45703Z" fill="#464646"/>
</svg>
