<svg width="20" height="20" viewBox="0 0 20 20" fill="none" xmlns="http://www.w3.org/2000/svg">
<path d="M3.8563 0.0706264C3.01343 -0.0235421 2.14281 -0.0235421 1.29995 0.0706264C0.665196 0.141543 0.150806 0.640961 0.0756464 1.28334C-0.0252155 2.14539 -0.0252155 3.01626 0.0756464 3.87832C0.150806 4.52069 0.665196 5.02011 1.29995 5.09103C2.14281 5.1852 3.01343 5.1852 3.8563 5.09103C4.49105 5.02011 5.00544 4.52069 5.0806 3.87832C5.18146 3.01626 5.18146 2.14539 5.0806 1.28334C5.00544 0.640961 4.49105 0.141543 3.8563 0.0706264Z" fill="#E8E8E8"/>
<path d="M11.2782 0.0706264C10.4353 -0.0235421 9.56469 -0.0235421 8.72182 0.0706264C8.08707 0.141543 7.57268 0.640961 7.49752 1.28334C7.39666 2.14539 7.39666 3.01626 7.49752 3.87832C7.57268 4.52069 8.08707 5.02011 8.72182 5.09103C9.56469 5.1852 10.4353 5.1852 11.2782 5.09103C11.9129 5.02011 12.4273 4.52069 12.5025 3.87832C12.6033 3.01626 12.6033 2.14539 12.5025 1.28334C12.4273 0.640961 11.9129 0.141543 11.2782 0.0706264Z" fill="#E8E8E8"/>
<path d="M18.7001 0.0706264C17.8572 -0.0235421 16.9866 -0.0235421 16.1437 0.0706264C15.509 0.141543 14.9946 0.640961 14.9194 1.28334C14.8185 2.14539 14.8185 3.01626 14.9194 3.87832C14.9946 4.52069 15.509 5.02011 16.1437 5.09103C16.9866 5.1852 17.8572 5.1852 18.7001 5.09103C19.3348 5.02011 19.8492 4.52069 19.9244 3.87832C20.0252 3.01626 20.0252 2.14539 19.9244 1.28334C19.8492 0.640961 19.3348 0.141543 18.7001 0.0706264Z" fill="#E8E8E8"/>
<path d="M3.8563 7.4898C3.01343 7.39563 2.14281 7.39563 1.29995 7.4898C0.665196 7.56072 0.150806 8.06013 0.0756464 8.70251C-0.0252155 9.56457 -0.0252155 10.4354 0.0756464 11.2975C0.150806 11.9399 0.665196 12.4393 1.29995 12.5102C2.14281 12.6044 3.01343 12.6044 3.8563 12.5102C4.49105 12.4393 5.00544 11.9399 5.0806 11.2975C5.18146 10.4354 5.18146 9.56457 5.0806 8.70251C5.00544 8.06013 4.49105 7.56072 3.8563 7.4898Z" fill="#E8E8E8"/>
<path d="M11.2782 7.4898C10.4353 7.39563 9.56469 7.39563 8.72182 7.4898C8.08707 7.56072 7.57268 8.06013 7.49752 8.70251C7.39666 9.56457 7.39666 10.4354 7.49752 11.2975C7.57268 11.9399 8.08707 12.4393 8.72182 12.5102C9.56469 12.6044 10.4353 12.6044 11.2782 12.5102C11.9129 12.4393 12.4273 11.9399 12.5025 11.2975C12.6033 10.4354 12.6033 9.56457 12.5025 8.70251C12.4273 8.06013 11.9129 7.56072 11.2782 7.4898Z" fill="#E8E8E8"/>
<path d="M18.7001 7.4898C17.8572 7.39563 16.9866 7.39563 16.1437 7.4898C15.509 7.56072 14.9946 8.06013 14.9194 8.70251C14.8185 9.56457 14.8185 10.4354 14.9194 11.2975C14.9946 11.9399 15.509 12.4393 16.1437 12.5102C16.9866 12.6044 17.8572 12.6044 18.7001 12.5102C19.3348 12.4393 19.8492 11.9399 19.9244 11.2975C20.0252 10.4354 20.0252 9.56457 19.9244 8.70251C19.8492 8.06013 19.3348 7.56072 18.7001 7.4898Z" fill="#E8E8E8"/>
<path d="M3.8563 14.909C3.01343 14.8148 2.14281 14.8148 1.29995 14.909C0.665196 14.9799 0.150806 15.4793 0.0756464 16.1217C-0.0252155 16.9837 -0.0252155 17.8546 0.0756464 18.7167C0.150806 19.359 0.665196 19.8585 1.29995 19.9294C2.14281 20.0235 3.01343 20.0235 3.8563 19.9294C4.49105 19.8585 5.00544 19.359 5.0806 18.7167C5.18146 17.8546 5.18146 16.9837 5.0806 16.1217C5.00544 15.4793 4.49105 14.9799 3.8563 14.909Z" fill="#E8E8E8"/>
<path d="M11.2782 14.909C10.4353 14.8148 9.56469 14.8148 8.72182 14.909C8.08707 14.9799 7.57268 15.4793 7.49752 16.1217C7.39666 16.9837 7.39666 17.8546 7.49752 18.7167C7.57268 19.359 8.08707 19.8585 8.72182 19.9294C9.56469 20.0235 10.4353 20.0235 11.2782 19.9294C11.9129 19.8585 12.4273 19.359 12.5025 18.7167C12.6033 17.8546 12.6033 16.9837 12.5025 16.1217C12.4273 15.4793 11.9129 14.9799 11.2782 14.909Z" fill="#E8E8E8"/>
<path d="M18.7001 14.909C17.8572 14.8148 16.9866 14.8148 16.1437 14.909C15.509 14.9799 14.9946 15.4793 14.9194 16.1217C14.8185 16.9837 14.8185 17.8546 14.9194 18.7167C14.9946 19.359 15.509 19.8585 16.1437 19.9294C16.9866 20.0235 17.8572 20.0235 18.7001 19.9294C19.3348 19.8585 19.8492 19.359 19.9244 18.7167C20.0252 17.8546 20.0252 16.9837 19.9244 16.1217C19.8492 15.4793 19.3348 14.9799 18.7001 14.909Z" fill="#E8E8E8"/>
</svg>
