<svg width="18" height="12" viewBox="0 0 18 12" fill="none" xmlns="http://www.w3.org/2000/svg">
<path d="M8.95801 7.90527C11.7654 7.90527 14.1631 8.31276 14.1631 9.94531C14.1631 11.5772 11.7808 12 8.95801 12C6.1508 12 3.75391 11.5918 3.75391 9.95996C3.75413 8.32765 6.13555 7.90531 8.95801 7.90527ZM4.55371 6.92188C4.56983 6.9239 4.57764 6.93533 4.5791 6.94141C4.58112 6.95151 4.57684 6.96588 4.55664 6.97656C4.05997 7.20282 2.1431 8.18704 2.38379 10.2617C2.39405 10.3522 2.31619 10.4298 2.21875 10.417C1.74687 10.3548 0.532785 10.1143 0.15625 9.36523C-0.0524163 8.96891 -0.0523044 8.50964 0.15625 8.11328C0.402408 7.63033 0.996101 7.29725 1.89941 7.13379C2.32656 7.03855 3.47974 6.90364 4.55371 6.92188ZM13.4473 6.92188C14.5204 6.90368 15.6743 7.03886 16.1006 7.13477C17.0036 7.29754 17.5975 7.62951 17.8438 8.1123C18.0518 8.50872 18.0517 8.96849 17.8438 9.36426C17.4672 10.1133 16.2531 10.3539 15.7812 10.416C15.6841 10.4292 15.6062 10.3523 15.6162 10.2627C15.8572 8.18759 13.941 7.20319 13.4443 6.97656C13.4232 6.96648 13.4188 6.95087 13.4209 6.94141C13.4224 6.93465 13.4311 6.9239 13.4473 6.92188ZM8.95801 0C10.8694 0 12.4023 1.41187 12.4023 3.1748C12.4022 4.93699 10.8693 6.34961 8.95801 6.34961C7.04683 6.34945 5.51474 4.93689 5.51465 3.1748C5.51465 1.41197 7.04677 0.000160345 8.95801 0ZM4.36523 0.529297C4.56597 0.529297 4.75874 0.548861 4.94629 0.583984C4.9711 0.589422 4.99909 0.600933 5.01367 0.621094C5.03024 0.646714 5.0175 0.680914 5 0.703125C4.44543 1.41976 4.126 2.29395 4.12598 3.23145C4.12598 4.12976 4.41885 4.96641 4.93164 5.66211C4.98439 5.73371 4.93679 5.83084 4.84375 5.8457C4.71493 5.8666 4.58291 5.87749 4.44824 5.88086C3.104 5.91317 1.89777 5.11494 1.56445 3.91406C1.07021 2.13045 2.51937 0.529572 4.36523 0.529297ZM13.6338 0.529297C15.4798 0.529297 16.9299 2.13037 16.4365 3.91406C16.1032 5.11502 14.8961 5.91328 13.5518 5.88086C13.417 5.87748 13.2844 5.86595 13.1562 5.8457C13.0632 5.83084 13.0166 5.73371 13.0693 5.66211C13.582 4.96648 13.874 4.12961 13.874 3.23145C13.874 2.29395 13.5546 1.41976 13 0.703125C12.9825 0.68083 12.9698 0.646697 12.9873 0.621094C13.002 0.600198 13.0291 0.589382 13.0547 0.583984C13.2414 0.5489 13.4332 0.529298 13.6338 0.529297Z" fill="#E8E8E8"/>
</svg>
