<svg width="17" height="14" viewBox="0 0 17 14" fill="none" xmlns="http://www.w3.org/2000/svg">
<path d="M13.0776 13.3647C13.0776 11.9565 11.1583 10.8149 8.79071 10.8149C6.4231 10.8149 4.50377 11.9565 4.50377 13.3647M16.5072 10.8152C16.5072 9.76965 15.4491 8.87106 13.935 8.4776M1.07422 10.8152C1.07422 9.76965 2.13232 8.87106 3.64638 8.4776M13.935 5.06606C14.4613 4.59917 14.7924 3.92068 14.7924 3.16552C14.7924 1.75731 13.6408 0.615723 12.2203 0.615723C11.5615 0.615723 10.9605 0.861229 10.5055 1.26498M3.64638 5.06606C3.12016 4.59917 2.78899 3.92068 2.78899 3.16552C2.78899 1.75731 3.94059 0.615723 5.36116 0.615723C6.01994 0.615723 6.62087 0.861229 7.07593 1.26498M8.79071 8.26511C7.37014 8.26511 6.21855 7.12353 6.21855 5.71532C6.21855 4.3071 7.37014 3.16552 8.79071 3.16552C10.2113 3.16552 11.3629 4.3071 11.3629 5.71532C11.3629 7.12353 10.2113 8.26511 8.79071 8.26511Z" stroke="#1A72FF" stroke-linecap="round" stroke-linejoin="round"/>
</svg>
