<svg width="17" height="12" viewBox="0 0 17 12" fill="none" xmlns="http://www.w3.org/2000/svg">
<path d="M4.81701 0.00155457C5.08052 0.0210507 5.29671 0.220572 5.34042 0.484597L6.71597 8.79357L8.42666 2.74331C8.4971 2.49417 8.72197 2.32249 8.97774 2.32259C9.23351 2.32268 9.45825 2.49452 9.52851 2.74372L10.6885 6.8576L11.3541 5.70649C11.4569 5.52864 11.6451 5.41936 11.8485 5.41936H13.2672C13.5106 4.63411 14.2346 4.06452 15.0899 4.06452C16.1448 4.06452 17 4.93107 17 6C17 7.06894 16.1448 7.93548 15.0899 7.93548C14.2346 7.93548 13.5106 7.36589 13.2672 6.58065H12.1769L11 8.61609C10.8841 8.81664 10.6613 8.9278 10.4337 8.89863C10.2061 8.86946 10.0177 8.70559 9.95463 8.48209L8.97677 5.01412L7.1205 11.5793C7.04676 11.8401 6.80463 12.0144 6.53732 11.9991C6.27001 11.9838 6.04878 11.783 6.00449 11.5154L4.59907 3.026L3.59576 6.17823C3.51942 6.41808 3.29911 6.58065 3.05039 6.58065H0.573034C0.256556 6.58065 0 6.32068 0 6C0 5.67932 0.256556 5.41936 0.573034 5.41936H2.6331L4.22991 0.402433C4.311 0.147641 4.55351 -0.0179415 4.81701 0.00155457Z" fill="#1A72FF"/>
</svg>
