<svg width="12" height="13" viewBox="0 0 12 13" fill="none" xmlns="http://www.w3.org/2000/svg">
<path d="M10.9779 9.82859V6.26659C10.9779 5.92352 10.9777 5.7519 10.9364 5.59226C10.8999 5.45079 10.8399 5.31691 10.7587 5.19593C10.6671 5.05942 10.5398 4.94621 10.2846 4.7203L7.23829 2.02374C6.76446 1.6043 6.52755 1.39469 6.26092 1.31492C6.02598 1.24464 5.77557 1.24464 5.54063 1.31492C5.2742 1.39463 5.03763 1.60404 4.56452 2.02284L1.51725 4.7203C1.26204 4.94622 1.13473 5.05942 1.04313 5.19594C0.96195 5.31691 0.901504 5.45079 0.864964 5.59226C0.82373 5.7519 0.82373 5.92352 0.82373 6.26659V9.82859C0.82373 10.4269 0.82373 10.7259 0.920348 10.9619C1.04917 11.2765 1.2961 11.5268 1.60711 11.6571C1.84037 11.7549 2.13607 11.7549 2.72748 11.7549C3.31889 11.7549 3.61492 11.7549 3.84818 11.6571C4.15919 11.5268 4.40605 11.2766 4.53488 10.962C4.6315 10.726 4.63156 10.4268 4.63156 9.82853V9.18649C4.63156 8.47731 5.19984 7.90241 5.90084 7.90241C6.60184 7.90241 7.17011 8.47731 7.17011 9.18649V9.82853C7.17011 10.4268 7.17011 10.726 7.26673 10.962C7.39556 11.2766 7.64249 11.5268 7.9535 11.6571C8.18675 11.7549 8.48246 11.7549 9.07387 11.7549C9.66527 11.7549 9.96131 11.7549 10.1946 11.6571C10.5056 11.5268 10.7524 11.2765 10.8813 10.9619C10.9779 10.7259 10.9779 10.4269 10.9779 9.82859Z" stroke="#1A72FF" stroke-linecap="round" stroke-linejoin="round"/>
</svg>
