<svg width="31" height="26" viewBox="0 0 31 26" fill="none" xmlns="http://www.w3.org/2000/svg">
<path d="M1.63623 24.1817H4.43623M4.43623 24.1817H12.8362M4.43623 24.1817V12.3893C4.43623 11.6521 4.43623 11.2834 4.52719 10.9404C4.6078 10.6364 4.74114 10.3487 4.92022 10.0888C5.12229 9.79543 5.40313 9.55218 5.96611 9.06676L12.6883 3.27064C13.732 2.37075 14.2539 1.92077 14.8416 1.7495C15.3599 1.59847 15.9123 1.59847 16.4306 1.7495C17.0187 1.9209 17.5414 2.3713 18.5866 3.27255L25.3066 9.06676C25.8696 9.55217 26.1506 9.79543 26.3526 10.0888C26.5317 10.3487 26.664 10.6364 26.7446 10.9404C26.8356 11.2834 26.8362 11.6522 26.8362 12.3893V24.1817M12.8362 24.1817H18.4362M12.8362 24.1817V18.6634C12.8362 17.1396 14.0898 15.9043 15.6362 15.9043C17.1826 15.9043 18.4362 17.1396 18.4362 18.6634V24.1817M18.4362 24.1817H26.8362M26.8362 24.1817H29.6362" stroke="#E8E8E8" stroke-width="2" stroke-linecap="round" stroke-linejoin="round"/>
</svg>
