<svg width="24" height="24" viewBox="0 0 24 24" fill="none" xmlns="http://www.w3.org/2000/svg">
<path d="M24 19.5939V11.4466C24 10.6619 23.9993 10.2693 23.9019 9.90416C23.8155 9.58057 23.6737 9.27436 23.4818 8.99764C23.2653 8.68539 22.9643 8.42645 22.3611 7.90973L15.1611 1.74185C14.0412 0.782477 13.4813 0.303032 12.8511 0.120577C12.2958 -0.0401923 11.7039 -0.0401923 11.1486 0.120577C10.5189 0.302894 9.95977 0.781885 8.84154 1.73981L1.63916 7.90973C1.03596 8.42646 0.735062 8.68539 0.518555 8.99765C0.326688 9.27436 0.183822 9.58057 0.097457 9.90416C0 10.2693 0 10.6619 0 11.4466V19.5939C0 20.9624 0 21.6464 0.228361 22.1862C0.532843 22.9059 1.11648 23.4783 1.85156 23.7764C2.40288 24 3.10179 24 4.49961 24C5.89744 24 6.59712 24 7.14844 23.7764C7.88352 23.4783 8.467 22.906 8.77148 22.1863C8.99985 21.6466 9 20.9623 9 19.5938V18.1253C9 16.5032 10.3431 15.1882 12 15.1882C13.6569 15.1882 15 16.5032 15 18.1253V19.5938C15 20.9623 15 21.6466 15.2284 22.1863C15.5328 22.906 16.1165 23.4783 16.8516 23.7764C17.4029 24 18.1018 24 19.4996 24C20.8974 24 21.5971 24 22.1484 23.7764C22.8835 23.4783 23.467 22.9059 23.7715 22.1862C23.9998 21.6464 24 20.9624 24 19.5939Z" fill="#E8E8E8"/>
</svg>
