<svg width="24" height="24" viewBox="0 0 24 24" fill="none" xmlns="http://www.w3.org/2000/svg">
<path d="M23 18.9611V11.4927C23 10.7734 22.9994 10.4135 22.91 10.0788C22.8309 9.78219 22.7009 9.5015 22.525 9.24784C22.3266 8.96161 22.0506 8.72425 21.4977 8.25058L14.8977 2.5967C13.8711 1.71727 13.3578 1.27778 12.7802 1.11053C12.2711 0.963157 11.7286 0.963157 11.2196 1.11053C10.6423 1.27765 10.1298 1.71673 9.10475 2.59483L2.50256 8.25058C1.94963 8.72425 1.67381 8.96161 1.47534 9.24784C1.29946 9.5015 1.1685 9.78219 1.08934 10.0788C1 10.4135 1 10.7734 1 11.4927V18.9611C1 20.2156 1 20.8426 1.20933 21.3373C1.48844 21.997 2.02344 22.5218 2.69727 22.7951C3.20264 23 3.84331 23 5.12465 23C6.40598 23 7.04736 23 7.55273 22.7951C8.22656 22.5218 8.76142 21.9972 9.04053 21.3375C9.24986 20.8427 9.25 20.2155 9.25 18.961V17.6148C9.25 16.1279 10.4812 14.9225 12 14.9225C13.5188 14.9225 14.75 16.1279 14.75 17.6148V18.961C14.75 20.2155 14.75 20.8427 14.9593 21.3375C15.2384 21.9972 15.7734 22.5218 16.4473 22.7951C16.9526 23 17.5933 23 18.8746 23C20.156 23 20.7974 23 21.3027 22.7951C21.9766 22.5218 22.5114 21.997 22.7905 21.3373C22.9999 20.8426 23 20.2156 23 18.9611Z" stroke="#E8E8E8" stroke-width="2" stroke-linecap="round" stroke-linejoin="round"/>
</svg>
