<svg width="21" height="20" viewBox="0 0 21 20" fill="none" xmlns="http://www.w3.org/2000/svg">
<path fill-rule="evenodd" clip-rule="evenodd" d="M0.762451 10C0.762451 4.481 5.24245 0 10.7625 0C16.2925 0 20.7625 4.481 20.7625 10C20.7625 15.521 16.2925 20 10.7625 20C5.24245 20 0.762451 15.521 0.762451 10ZM9.88245 6.21C9.88245 5.731 10.2825 5.33 10.7625 5.33C11.2425 5.33 11.6325 5.731 11.6325 6.21V10.63C11.6325 11.111 11.2425 11.5 10.7625 11.5C10.2825 11.5 9.88245 11.111 9.88245 10.63V6.21ZM10.7725 14.681C10.2825 14.681 9.89245 14.281 9.89245 13.801C9.89245 13.321 10.2825 12.931 10.7625 12.931C11.2525 12.931 11.6425 13.321 11.6425 13.801C11.6425 14.281 11.2525 14.681 10.7725 14.681Z" fill="#A3A3A3"/>
</svg>
