<svg width="20" height="20" viewBox="0 0 20 20" fill="none" xmlns="http://www.w3.org/2000/svg">
<path d="M0.189453 10.8154C0.268472 10.7654 0.367747 10.8237 0.379883 10.835C2.40068 12.1918 4.83183 13.094 7.38281 13.4688C7.74289 13.5194 8.10394 13.2863 8.2041 12.9219C8.42416 12.0917 9.13422 11.5442 9.98438 11.5439H10.0146C10.865 11.544 11.5757 12.0916 11.7959 12.9219C11.8961 13.286 12.2563 13.5191 12.6162 13.4688C15.1673 13.0941 17.5983 12.1918 19.6191 10.835C19.6191 10.835 19.6394 10.8254 19.6592 10.8154C19.6991 10.7952 19.7596 10.7853 19.8096 10.8154C19.8981 10.8654 19.8994 10.9837 19.8994 10.9873L19.8193 16.1514C19.8193 18.2779 18.1186 20 16.0176 20H3.97168C1.87083 19.9998 0.169922 18.2778 0.169922 16.1514L0.0996094 10.9873C0.0996297 10.9839 0.101286 10.8655 0.189453 10.8154ZM9.99414 12.9922C9.58434 12.9927 9.24418 13.3371 9.24414 13.752V15.0586C9.24436 15.4834 9.58445 15.8169 9.99414 15.8174C10.4142 15.8174 10.7449 15.4837 10.7451 15.0586V13.752C10.7451 13.3368 10.4143 12.9922 9.99414 12.9922ZM11.2852 0C12.7858 0 14.0168 1.14412 14.207 2.6123H16.1885C18.2893 2.61252 19.9999 4.34433 20 6.4707C20 6.4707 19.9399 7.37134 19.9199 8.625C19.9179 8.72411 19.8699 8.82119 19.791 8.87988C19.3098 9.23532 18.8691 9.52955 18.8291 9.5498C17.1684 10.6636 15.2385 11.4471 13.1826 11.8369C13.0486 11.8632 12.9167 11.7933 12.8486 11.6738C12.2724 10.6754 11.1957 10.0254 9.99512 10.0254C8.80255 10.0254 7.71635 10.6685 7.12305 11.668C7.05401 11.7854 6.92311 11.8534 6.79004 11.8281C4.75124 11.4372 2.82159 10.6541 1.1709 9.55957L0.209961 8.89062C0.130205 8.84002 0.0802028 8.74942 0.0800781 8.64844C0.0500631 8.13198 0 6.4707 0 6.4707C8.05537e-05 4.34433 1.7107 2.61251 3.81152 2.6123H5.7832C5.97345 1.14422 7.20359 0.000127476 8.7041 0H11.2852ZM8.7041 1.51855C8.03399 1.51867 7.46389 1.98471 7.30371 2.6123H12.6865C12.5263 1.9846 11.9554 1.51855 11.2852 1.51855H8.7041Z" fill="#707070"/>
</svg>
