<svg width="15" height="12" viewBox="0 0 15 12" fill="none" xmlns="http://www.w3.org/2000/svg">
<path d="M6.30752 8.5L3.80146 3L1.29541 8.5M6.30752 8.5C6.30752 9.163 6.04349 9.7989 5.57351 10.2678C5.10354 10.7366 4.46611 11 3.80146 11C3.13682 11 2.49939 10.7366 2.02941 10.2678C1.55944 9.7989 1.29541 9.163 1.29541 8.5M6.30752 8.5H1.29541" stroke="#1A72FF" stroke-linecap="round" stroke-linejoin="round"/>
<path d="M14.327 8.5L11.821 3L9.31494 8.5M14.327 8.5C14.327 9.163 14.063 9.7989 13.5931 10.2678C13.123 10.7366 12.4856 11 11.821 11C11.1564 11 10.5189 10.7366 10.0489 10.2678C9.57897 9.7989 9.31494 9.163 9.31494 8.5M14.327 8.5H9.31494" stroke="#1A72FF" stroke-linecap="round" stroke-linejoin="round"/>
<path d="M2.29785 3H13.3245" stroke="#1A72FF" stroke-linecap="round" stroke-linejoin="round"/>
<path d="M7.81104 3V1" stroke="#1A72FF" stroke-linecap="round" stroke-linejoin="round"/>
</svg>
