<svg width="20" height="20" viewBox="0 0 20 20" fill="none" xmlns="http://www.w3.org/2000/svg">
<path d="M14.335 0C17.723 0 20 2.378 20 5.91699V14.084C20 17.623 17.723 20 14.334 20H5.66602C2.27702 20 0 17.623 0 14.084V5.91699C3.27261e-06 2.378 2.27702 0 5.66602 0H14.335ZM6.84082 7.39941C5.4069 7.39951 4.24023 8.56606 4.24023 10C4.24023 11.4349 5.4069 12.6015 6.84082 12.6016C8.01282 12.6016 8.99534 11.818 9.31934 10.75H11.4307V11.8516C11.4307 12.2655 11.7668 12.6014 12.1807 12.6016C12.5947 12.6016 12.9307 12.2656 12.9307 11.8516V10.75H14.2607V11.8516C14.2607 12.2655 14.5969 12.6014 15.0107 12.6016C15.4247 12.6016 15.7607 12.2656 15.7607 11.8516V10C15.7607 9.586 15.4247 9.25 15.0107 9.25H9.31934C8.99534 8.183 8.01282 7.39941 6.84082 7.39941ZM6.84082 8.89844C7.44782 8.89844 7.94336 9.39298 7.94336 10.001C7.94332 10.6079 7.44779 11.1016 6.84082 11.1016C6.23397 11.1014 5.7393 10.6078 5.73926 10.001C5.73926 9.39307 6.23395 8.89859 6.84082 8.89844Z" fill="#E8E8E8"/>
</svg>
