<svg width="23" height="23" viewBox="0 0 23 23" fill="none" xmlns="http://www.w3.org/2000/svg">
<path d="M21.4645 5.94918C21.4351 5.78584 21.3724 5.63066 21.2805 5.49369C21.1885 5.35674 21.0694 5.24108 20.9308 5.15423L17.8811 8.27169C17.7388 8.42254 17.5684 8.54255 17.3797 8.62451C17.1911 8.70647 16.9882 8.74871 16.7832 8.74871C16.5783 8.74871 16.3755 8.70647 16.1868 8.62451C15.9982 8.54255 15.8276 8.42254 15.6854 8.27169L14.5265 7.21175C14.2471 6.92038 14.0906 6.52864 14.0906 6.12064C14.0906 5.71265 14.2471 5.32091 14.5265 5.02953L17.5761 1.91207C17.5097 1.75236 17.4096 1.60954 17.2832 1.49372C17.1567 1.3779 17.0069 1.2919 16.8442 1.24182C15.7802 1.02491 14.6779 1.11776 13.6629 1.5098C12.6479 1.90185 11.761 2.57732 11.1032 3.45935C10.4453 4.34137 10.0429 5.39449 9.94185 6.49881C9.84715 7.53327 10.0204 8.57373 10.4425 9.5162L2.25912 17.8814C1.65502 18.4989 1.66504 19.5032 2.28133 20.108L3.13643 20.9472C3.73286 21.5325 4.67697 21.5254 5.26478 20.9309L13.5421 12.5613C14.4374 12.9392 15.4126 13.083 16.379 12.9771C17.4474 12.86 18.4633 12.4422 19.3134 11.7702C20.1637 11.0983 20.8148 10.1984 21.1945 9.17075C21.5743 8.14309 21.6678 7.0279 21.4645 5.94918Z" stroke="#E8E8E8" stroke-width="2" stroke-linecap="round" stroke-linejoin="round"/>
</svg>
