<svg width="14" height="14" viewBox="0 0 14 14" fill="none" xmlns="http://www.w3.org/2000/svg">
<path d="M2.69941 0.0494385C2.1094 -0.0164795 1.49997 -0.0164795 0.909962 0.0494385C0.465637 0.0990801 0.105564 0.448673 0.0529525 0.898338C-0.0176508 1.50178 -0.0176508 2.11138 0.0529525 2.71482C0.105564 3.16449 0.465637 3.51408 0.909962 3.56372C1.49997 3.62964 2.1094 3.62964 2.69941 3.56372C3.14374 3.51408 3.50381 3.16449 3.55642 2.71482C3.62702 2.11138 3.62702 1.50178 3.55642 0.898337C3.50381 0.448673 3.14374 0.0990801 2.69941 0.0494385Z" fill="#E8E8E8"/>
<path d="M7.89472 0.0494385C7.30472 -0.0164795 6.69528 -0.0164795 6.10527 0.0494385C5.66095 0.0990801 5.30087 0.448673 5.24826 0.898338C5.17766 1.50178 5.17766 2.11138 5.24826 2.71482C5.30087 3.16449 5.66095 3.51408 6.10527 3.56372C6.69528 3.62964 7.30471 3.62964 7.89472 3.56372C8.33905 3.51408 8.69912 3.16449 8.75173 2.71482C8.82233 2.11138 8.82233 1.50178 8.75173 0.898337C8.69912 0.448673 8.33905 0.0990801 7.89472 0.0494385Z" fill="#E8E8E8"/>
<path d="M13.09 0.0494385C12.5 -0.0164795 11.8906 -0.0164795 11.3006 0.0494385C10.8563 0.0990801 10.4962 0.448673 10.4436 0.898338C10.373 1.50178 10.373 2.11138 10.4436 2.71482C10.4962 3.16449 10.8563 3.51408 11.3006 3.56372C11.8906 3.62964 12.5 3.62964 13.09 3.56372C13.5344 3.51408 13.8944 3.16449 13.947 2.71482C14.0177 2.11138 14.0177 1.50178 13.947 0.898337C13.8944 0.448673 13.5344 0.0990801 13.09 0.0494385Z" fill="#E8E8E8"/>
<path d="M2.69941 5.24286C2.1094 5.17694 1.49997 5.17694 0.909962 5.24286C0.465637 5.2925 0.105564 5.64209 0.0529525 6.09176C-0.0176508 6.6952 -0.0176508 7.3048 0.0529525 7.90824C0.105564 8.35791 0.465637 8.7075 0.909962 8.75714C1.49997 8.82306 2.1094 8.82306 2.69941 8.75714C3.14374 8.7075 3.50381 8.35791 3.55642 7.90824C3.62702 7.3048 3.62702 6.6952 3.55642 6.09176C3.50381 5.64209 3.14374 5.2925 2.69941 5.24286Z" fill="#E8E8E8"/>
<path d="M7.89472 5.24286C7.30472 5.17694 6.69528 5.17694 6.10527 5.24286C5.66095 5.2925 5.30087 5.64209 5.24826 6.09176C5.17766 6.6952 5.17766 7.3048 5.24826 7.90824C5.30087 8.35791 5.66095 8.7075 6.10527 8.75714C6.69528 8.82306 7.30471 8.82306 7.89472 8.75714C8.33905 8.7075 8.69912 8.35791 8.75173 7.90824C8.82233 7.3048 8.82233 6.6952 8.75173 6.09176C8.69912 5.64209 8.33905 5.2925 7.89472 5.24286Z" fill="#E8E8E8"/>
<path d="M13.09 5.24286C12.5 5.17694 11.8906 5.17694 11.3006 5.24286C10.8563 5.2925 10.4962 5.64209 10.4436 6.09176C10.373 6.6952 10.373 7.3048 10.4436 7.90824C10.4962 8.35791 10.8563 8.7075 11.3006 8.75714C11.8906 8.82306 12.5 8.82306 13.09 8.75714C13.5344 8.7075 13.8944 8.35791 13.947 7.90824C14.0177 7.3048 14.0177 6.6952 13.947 6.09176C13.8944 5.64209 13.5344 5.2925 13.09 5.24286Z" fill="#E8E8E8"/>
<path d="M2.69941 10.4363C2.1094 10.3704 1.49997 10.3704 0.909962 10.4363C0.465637 10.4859 0.105564 10.8355 0.0529525 11.2852C-0.0176508 11.8886 -0.0176508 12.4982 0.0529525 13.1017C0.105564 13.5513 0.465637 13.9009 0.909962 13.9506C1.49997 14.0165 2.1094 14.0165 2.69941 13.9506C3.14374 13.9009 3.50381 13.5513 3.55642 13.1017C3.62702 12.4982 3.62702 11.8886 3.55642 11.2852C3.50381 10.8355 3.14374 10.4859 2.69941 10.4363Z" fill="#E8E8E8"/>
<path d="M7.89472 10.4363C7.30472 10.3704 6.69528 10.3704 6.10527 10.4363C5.66095 10.4859 5.30087 10.8355 5.24826 11.2852C5.17766 11.8886 5.17766 12.4982 5.24826 13.1017C5.30087 13.5513 5.66095 13.9009 6.10527 13.9506C6.69528 14.0165 7.30471 14.0165 7.89472 13.9506C8.33905 13.9009 8.69912 13.5513 8.75173 13.1017C8.82233 12.4982 8.82233 11.8886 8.75173 11.2852C8.69912 10.8355 8.33905 10.4859 7.89472 10.4363Z" fill="#E8E8E8"/>
<path d="M13.09 10.4363C12.5 10.3704 11.8906 10.3704 11.3006 10.4363C10.8563 10.4859 10.4962 10.8355 10.4436 11.2852C10.373 11.8886 10.373 12.4982 10.4436 13.1017C10.4962 13.5513 10.8563 13.9009 11.3006 13.9506C11.8906 14.0165 12.5 14.0165 13.09 13.9506C13.5344 13.9009 13.8944 13.5513 13.947 13.1017C14.0177 12.4982 14.0177 11.8886 13.947 11.2852C13.8944 10.8355 13.5344 10.4859 13.09 10.4363Z" fill="#E8E8E8"/>
</svg>
