<svg width="11" height="13" viewBox="0 0 11 13" fill="none" xmlns="http://www.w3.org/2000/svg">
<path fill-rule="evenodd" clip-rule="evenodd" d="M0.5 5.49065C0.5 2.73073 2.76111 0.5 5.49614 0.5C8.23889 0.5 10.5 2.73073 10.5 5.49065C10.5 6.88141 10.0041 8.17258 9.18794 9.26695C8.28753 10.4741 7.17774 11.5259 5.92855 12.3515C5.64265 12.5423 5.38463 12.5567 5.07085 12.3515C3.81455 11.5259 2.70476 10.4741 1.81206 9.26695C0.995284 8.17258 0.5 6.88141 0.5 5.49065ZM3.84951 5.64602C3.84951 6.57059 4.58918 7.29777 5.49611 7.29777C6.40364 7.29777 7.15042 6.57059 7.15042 5.64602C7.15042 4.72864 6.40364 3.96606 5.49611 3.96606C4.58918 3.96606 3.84951 4.72864 3.84951 5.64602Z" fill="#A3A3A3"/>
</svg>
