<svg width="20" height="18" viewBox="0 0 20 18" fill="none" xmlns="http://www.w3.org/2000/svg">
<g clip-path="url(#clip0_894_11755)">
<path d="M12.881 0C13.7469 0 14.5066 0.552348 14.772 1.3741L19.9663 17.4785C20.0055 17.6013 19.9846 17.732 19.9079 17.8365C19.832 17.9401 19.7143 17.9999 19.5848 17.9999H16.2896C15.4228 17.9999 14.6632 17.4476 14.3985 16.6258L11.8519 8.72775C11.5864 7.90443 10.8251 7.35122 9.95754 7.35122H7.86745C6.63688 7.35122 5.55661 8.1363 5.18001 9.30399C4.90094 10.1696 5.04964 11.0878 5.58694 11.8227C6.12426 12.5568 6.95508 12.9784 7.86745 12.9784H8.80613C9.67213 12.9784 10.4318 13.5308 10.6972 14.3525L11.7055 17.4794C11.7447 17.6021 11.724 17.732 11.648 17.8363C11.5713 17.94 11.4537 17.9998 11.3241 17.9998H7.86745C5.32715 17.9998 3.01222 16.8266 1.51535 14.7797C0.0193443 12.7338 -0.392442 10.1776 0.384768 7.76647C1.43385 4.51453 4.44116 2.3298 7.86745 2.3298H9.78889L9.20523 0.521272C9.16601 0.398536 9.18679 0.267826 9.26348 0.164217C9.33952 0.05976 9.45706 7.65628e-06 9.58661 0H12.881Z" fill="#E8E8E8"/>
</g>
<defs>
<clipPath id="clip0_894_11755">
<rect width="20" height="18" fill="white"/>
</clipPath>
</defs>
</svg>
