<svg width="20" height="21" viewBox="0 0 20 21" fill="none" xmlns="http://www.w3.org/2000/svg">
<path d="M10.75 8C12.9591 8 14.75 6.20914 14.75 4C14.75 1.79086 12.9591 0 10.75 0C8.54086 0 6.75 1.79086 6.75 4C6.75 6.20914 8.54086 8 10.75 8Z" fill="#E8E8E8"/>
<path d="M1.47778 3.81803C1.37732 3.41619 0.970122 3.17186 0.568276 3.27233C0.16643 3.37279 -0.077891 3.77999 0.0225705 4.18184L0.404537 5.7097C1.1093 8.52874 3.24604 10.7495 6.00018 11.5787L6.00018 16.0519C6.00015 16.9504 6.00012 17.6996 6.08009 18.2944C6.16449 18.9222 6.35016 19.489 6.80563 19.9445C7.2611 20.3999 7.8279 20.5856 8.4557 20.67C9.05048 20.75 9.7997 20.75 10.6982 20.7499H10.8022C11.7007 20.75 12.4499 20.75 13.0447 20.67C13.6725 20.5856 14.2392 20.3999 14.6947 19.9445C15.1502 19.489 15.3359 18.9222 15.4203 18.2944C15.5002 17.6996 15.5002 16.9504 15.5002 16.052L15.5002 11.859C16.4813 12.1514 17.2308 13.0039 17.3558 14.067L18.0053 19.5876C18.0537 19.9989 18.4264 20.2932 18.8378 20.2448C19.2492 20.1964 19.5434 19.8237 19.495 19.4123L18.8456 13.8918C18.6012 11.815 16.8412 10.2499 14.7502 10.2499H6.8347C4.39125 9.67637 2.46957 7.78517 1.85975 5.3459L1.47778 3.81803Z" fill="#E8E8E8"/>
</svg>
