<svg width="20" height="22" viewBox="0 0 20 22" fill="none" xmlns="http://www.w3.org/2000/svg">
<path d="M10.75 8.62506C12.9591 8.62506 14.75 6.8342 14.75 4.62506C14.75 2.41592 12.9591 0.625061 10.75 0.625061C8.54086 0.625061 6.75 2.41592 6.75 4.62506C6.75 6.8342 8.54086 8.62506 10.75 8.62506Z" fill="#E8E8E8"/>
<path d="M1.47778 4.44309C1.37732 4.04125 0.970122 3.79693 0.568276 3.89739C0.16643 3.99785 -0.077891 4.40505 0.0225705 4.8069L0.404537 6.33476C1.1093 9.1538 3.24604 11.3746 6.00018 12.2037L6.00018 16.677C6.00015 17.5755 6.00012 18.3247 6.08009 18.9195C6.16449 19.5473 6.35016 20.1141 6.80563 20.5695C7.2611 21.025 7.8279 21.2107 8.4557 21.2951C9.05048 21.375 9.7997 21.375 10.6982 21.375H10.8022C11.7007 21.375 12.4499 21.375 13.0447 21.2951C13.6725 21.2107 14.2392 21.025 14.6947 20.5695C15.1502 20.1141 15.3359 19.5473 15.4203 18.9195C15.5002 18.3247 15.5002 17.5755 15.5002 16.677L15.5002 12.484C16.4813 12.7765 17.2308 13.6289 17.3558 14.6921L18.0053 20.2126C18.0537 20.624 18.4264 20.9183 18.8378 20.8699C19.2492 20.8215 19.5434 20.4487 19.495 20.0374L18.8456 14.5168C18.6012 12.4401 16.8412 10.875 14.7502 10.875H6.8347C4.39125 10.3014 2.46957 8.41023 1.85975 5.97096L1.47778 4.44309Z" fill="#E8E8E8"/>
</svg>
