<svg width="14" height="20" viewBox="0 0 14 20" fill="none" xmlns="http://www.w3.org/2000/svg">
<path fill-rule="evenodd" clip-rule="evenodd" d="M14 9.07773L13.9936 9.30881L14 9.55272L13.9939 9.78536L13.9999 10.0277L13.8043 17.8682C13.7799 18.844 12.9698 19.652 11.9107 19.7571C8.64642 20.081 5.35355 20.081 2.08932 19.7571C1.03013 19.652 0.22004 18.844 0.195691 17.8682L3.31475e-05 10.0277L0.00612094 9.78376L5.1961e-05 9.55272L0.00643389 9.30977L0 9.07773L0.174944 2.76839C0.1761 2.72669 0.178304 2.68522 0.181532 2.644L0.193066 2.20494C0.219435 1.20108 1.05637 0.37172 2.14674 0.268955C2.23748 0.260402 2.32824 0.25209 2.41903 0.244019C2.54215 0.217804 2.66841 0.198689 2.79727 0.187183C5.59247 -0.0623945 8.40753 -0.0623944 11.2027 0.187184C11.3316 0.198689 11.4578 0.217801 11.5809 0.244011C11.6717 0.252085 11.7625 0.2604 11.8533 0.268955C12.9437 0.371721 13.7806 1.20108 13.807 2.20494L13.8185 2.645C13.8217 2.68589 13.8239 2.72703 13.8251 2.76839L14 9.07773ZM11.148 15.4901C11.5775 15.4901 11.9258 15.1711 11.9258 14.7776C11.9258 14.3841 11.5775 14.0651 11.148 14.0651H2.852C2.42246 14.0651 2.07425 14.3841 2.07425 14.7776C2.07425 15.1711 2.42246 15.4901 2.852 15.4901H11.148ZM7 19.2427C7.85908 19.2427 8.5555 18.6047 8.5555 17.8177C8.5555 17.0307 7.85908 16.3927 7 16.3927C6.14092 16.3927 5.4445 17.0307 5.4445 17.8177C5.4445 18.6047 6.14092 19.2427 7 19.2427Z" fill="#707070"/>
</svg>
