<svg width="17" height="19" viewBox="0 0 17 19" fill="none" xmlns="http://www.w3.org/2000/svg">
<path d="M8.5 17.25C12.875 17.25 16 15.7024 16 12.2577C16 8.51344 14.125 6.01727 10.375 4.14516L11.85 2.24808C11.9249 2.12361 11.9656 1.98158 11.9678 1.83636C11.9701 1.69115 11.9338 1.54793 11.8627 1.42122C11.7917 1.29451 11.6883 1.18881 11.5631 1.11484C11.438 1.04087 11.2954 1.00125 11.15 1H5.85C5.70455 1.00125 5.56202 1.04087 5.43686 1.11484C5.31169 1.18881 5.20834 1.29451 5.13728 1.42122C5.0662 1.54793 5.02995 1.69115 5.03219 1.83636C5.03442 1.98158 5.07506 2.12361 5.15 2.24808L6.625 4.15764C2.875 6.04224 1 8.5384 1 12.2826C1 15.7024 4.125 17.25 8.5 17.25Z" stroke="#E8E8E8" stroke-width="2" stroke-linecap="round" stroke-linejoin="round"/>
<path d="M10.2284 8.88227C10.169 8.71407 10.0772 8.56113 9.96065 8.43088C9.7127 8.15384 9.35236 7.97949 8.9513 7.97949H7.90312C7.23552 7.97949 6.69434 8.52068 6.69434 9.18827C6.69434 9.75632 7.08987 10.2477 7.64481 10.3691L9.24067 10.7182C9.86236 10.8542 10.3055 11.4051 10.3055 12.0415C10.3055 12.7894 9.69919 13.3962 8.9513 13.3962H8.04851C7.4589 13.3962 6.9573 13.0194 6.7714 12.4934" stroke="#E8E8E8" stroke-width="2" stroke-linecap="round" stroke-linejoin="round"/>
<path d="M8.5 7.97918V6.625" stroke="#E8E8E8" stroke-width="2" stroke-linecap="round" stroke-linejoin="round"/>
<path d="M8.5 14.7498V13.3955" stroke="#E8E8E8" stroke-width="2" stroke-linecap="round" stroke-linejoin="round"/>
</svg>
