<svg width="15" height="15" viewBox="0 0 15 15" fill="none" xmlns="http://www.w3.org/2000/svg">
<path d="M12.5301 5.95618C12.5301 8.69339 10.3058 10.9124 7.56192 10.9124C4.81807 10.9124 2.59375 8.69339 2.59375 5.95618C2.59375 3.21896 4.81807 1 7.56192 1C10.3058 1 12.5301 3.21896 12.5301 5.95618Z" stroke="#1A72FF" stroke-linecap="round" stroke-linejoin="round"/>
<path d="M7.76532 3.26524L8.44967 4.63859C8.46498 4.67332 8.48925 4.70338 8.52 4.7257C8.55076 4.74801 8.58691 4.76178 8.62475 4.7656L10.1447 4.99582C10.1881 5.00146 10.2291 5.01933 10.2627 5.04733C10.2963 5.07533 10.3213 5.11231 10.3347 5.15394C10.348 5.19558 10.3492 5.24015 10.3381 5.28243C10.327 5.32472 10.3041 5.36298 10.272 5.39274L9.14995 6.45649C9.13322 6.48833 9.12447 6.52374 9.12447 6.55969C9.12447 6.59564 9.13322 6.63105 9.14995 6.66289L9.36481 8.17119C9.37398 8.21478 9.37027 8.2601 9.35413 8.30163C9.33799 8.34317 9.31012 8.37914 9.27391 8.40519C9.23768 8.43124 9.19466 8.44625 9.15006 8.4484C9.10546 8.45054 9.06119 8.43973 9.02263 8.41728L7.66983 7.70282C7.63482 7.68704 7.59683 7.67888 7.55842 7.67888C7.52 7.67888 7.48203 7.68704 7.44701 7.70282L6.09422 8.41728C6.05565 8.43973 6.01137 8.45054 5.96678 8.4484C5.92218 8.44625 5.87916 8.43124 5.84294 8.40519C5.80671 8.37914 5.77884 8.34317 5.76271 8.30163C5.74658 8.2601 5.74287 8.21478 5.75204 8.17119L6.00668 6.66289C6.01763 6.62788 6.01973 6.59071 6.01279 6.5547C6.00584 6.51869 5.99007 6.48495 5.96689 6.45649L4.84487 5.3848C4.81511 5.35473 4.79421 5.31706 4.78448 5.27593C4.77476 5.23479 4.77657 5.19178 4.78972 5.15161C4.80287 5.11144 4.82685 5.07565 4.85903 5.04817C4.89122 5.02069 4.93036 5.00258 4.97218 4.99582L6.4921 4.77354C6.52994 4.76972 6.56607 4.75595 6.59684 4.73364C6.62759 4.71132 6.65186 4.68126 6.66716 4.64653L7.35152 3.27318C7.36984 3.2343 7.39869 3.20131 7.43481 3.17794C7.47093 3.15457 7.51289 3.14174 7.55595 3.14091C7.599 3.14009 7.64142 3.15129 7.67842 3.17327C7.71542 3.19524 7.74552 3.2271 7.76532 3.26524Z" stroke="#1A72FF" stroke-linecap="round" stroke-linejoin="round"/>
<path d="M3.25819 8.38721L1.04883 12.2047L3.4361 11.5666L4.07576 13.9481L5.99271 10.6359" stroke="#1A72FF" stroke-linecap="round" stroke-linejoin="round"/>
<path d="M11.8708 8.38721L14.0801 12.2047L11.6928 11.5666L11.0532 13.9481L9.13623 10.6359" stroke="#1A72FF" stroke-linecap="round" stroke-linejoin="round"/>
</svg>
