<svg width="25" height="25" viewBox="0 0 25 25" fill="none" xmlns="http://www.w3.org/2000/svg">
<path d="M14.0501 20.6546C13.7901 20.7646 13.5101 20.8646 13.2101 20.9646L11.6301 21.4846C7.6601 22.7646 5.5701 21.6946 4.2801 17.7246L3.0001 13.7746C1.7201 9.80464 2.7801 7.70464 6.7501 6.42464L8.2901 5.91464C8.1001 6.39464 7.9401 6.94464 7.7901 7.56464L6.8101 11.7546C5.7101 16.4646 7.3201 19.0646 12.0301 20.1846L13.7101 20.5846C13.8201 20.6146 13.9401 20.6346 14.0501 20.6546Z" fill="#E8E8E8"/>
<path d="M17.6699 3.70464L15.9999 3.31464C12.6599 2.52464 10.6699 3.17464 9.49994 5.59464C9.19994 6.20464 8.95994 6.94464 8.75994 7.79464L7.77994 11.9846C6.79994 16.1646 8.08994 18.2246 12.2599 19.2146L13.9399 19.6146C14.5199 19.7546 15.0599 19.8446 15.5599 19.8846C18.6799 20.1846 20.3399 18.7246 21.1799 15.1146L22.1599 10.9346C23.1399 6.75464 21.8599 4.68464 17.6699 3.70464Z" fill="#E8E8E8"/>
</svg>
