<svg width="15" height="20" viewBox="0 0 15 20" fill="none" xmlns="http://www.w3.org/2000/svg">
<path fill-rule="evenodd" clip-rule="evenodd" d="M5.7645 1.53373C5.51702 1.56979 5.27461 1.63475 5.04226 1.72726C3.65904 2.27798 2.83843 3.70997 3.06259 5.18182L3.09363 5.38563C3.1321 5.63816 3.19841 5.88566 3.29137 6.12359L4.20626 8.46532C6.39545 8.31645 8.59287 8.32934 10.7806 8.504L12.2768 8.62344C13.2449 8.70072 14.0354 9.42845 14.1923 10.3869C14.554 12.5958 14.554 14.8488 14.1923 17.0577C14.0354 18.0161 13.2449 18.7438 12.2768 18.8211L10.7806 18.9406C8.41849 19.1291 6.04507 19.1291 3.68293 18.9406L2.1868 18.8211C1.2187 18.7438 0.428201 18.0161 0.271268 17.0577C-0.0904228 14.8488 -0.0904227 12.5958 0.271268 10.3869C0.428201 9.42845 1.2187 8.70072 2.1868 8.62344L2.64338 8.58699L1.89422 6.66945C1.76095 6.32834 1.66588 5.97352 1.61074 5.61148L1.57969 5.40767C1.25044 3.24583 2.45574 1.14255 4.4874 0.333655C4.82868 0.197773 5.18472 0.102373 5.54822 0.0494076C7.71214 -0.265894 9.8076 0.95295 10.6034 2.98978L10.6784 3.1818C10.8117 3.52291 10.9067 3.87773 10.9619 4.23978L11.1032 5.16779C11.1448 5.44078 10.9572 5.69579 10.6842 5.73737L10.1899 5.81266C9.91691 5.85423 9.66189 5.66663 9.62032 5.39364L9.47898 4.46563C9.44052 4.21309 9.3742 3.96559 9.28124 3.72766L9.20622 3.53564C8.66443 2.1489 7.23777 1.31907 5.7645 1.53373ZM7.23175 12.2223C6.40332 12.2223 5.73175 12.8939 5.73175 13.7223C5.73175 14.5507 6.40332 15.2223 7.23175 15.2223C8.06018 15.2223 8.73175 14.5507 8.73175 13.7223C8.73175 12.8939 8.06018 12.2223 7.23175 12.2223Z" fill="#468FF5"/>
</svg>
