<svg width="23" height="20" viewBox="0 0 23 20" fill="none" xmlns="http://www.w3.org/2000/svg">
<path fill-rule="evenodd" clip-rule="evenodd" d="M10.9413 1.56796C7.87382 -0.201118 4.12234 -0.490054 0.80098 0.786958C0.317216 0.972958 0 1.42332 0 1.92414V14.1981C0 15.0203 0.863881 15.5825 1.65805 15.2771C4.3779 14.2314 7.44997 14.468 9.96189 15.9167L11.2053 16.6338C11.3001 16.6884 11.4015 16.7124 11.5 16.7107C11.5985 16.7124 11.6999 16.6884 11.7947 16.6338L13.0381 15.9167C15.55 14.468 18.6221 14.2314 21.342 15.2771C22.1361 15.5825 23 15.0203 23 14.1981V1.92414C23 1.42332 22.6828 0.972958 22.199 0.786958C18.8777 -0.490054 15.1262 -0.201118 12.0587 1.56796L11.5 1.8902L10.9413 1.56796ZM12.3214 4.08319C12.3214 3.64712 11.9537 3.29362 11.5 3.29362C11.0463 3.29362 10.6786 3.64712 10.6786 4.08319V14.0844C10.6786 14.5204 11.0463 14.8739 11.5 14.8739C11.9537 14.8739 12.3214 14.5204 12.3214 14.0844V4.08319Z" fill="#52E063"/>
<path d="M1.34149 17.2871C3.55809 16.0442 6.29905 16.0442 8.51565 17.2871L9.70646 17.9548C10.8148 18.5762 12.1852 18.5762 13.2935 17.9548L14.4843 17.2871C16.701 16.0442 19.4419 16.0442 21.6585 17.2871L21.771 17.3502C22.1629 17.5699 22.2953 18.0534 22.0667 18.43C21.8381 18.8067 21.3351 18.9339 20.9432 18.7142L20.8307 18.6511C19.1256 17.6951 17.0172 17.6951 15.3121 18.6511L14.1213 19.3188C12.5015 20.2271 10.4985 20.2271 8.87867 19.3188L7.68786 18.6511C5.98278 17.6951 3.87436 17.6951 2.16928 18.6511L2.05675 18.7142C1.66489 18.9339 1.16191 18.8067 0.933324 18.43C0.704737 18.0534 0.837099 17.5699 1.22896 17.3502L1.34149 17.2871Z" fill="#52E063"/>
</svg>
