<svg width="23" height="23" viewBox="0 0 23 23" fill="none" xmlns="http://www.w3.org/2000/svg">
<path d="M5.03809 11.5006V7.25234C5.0507 6.41726 5.22797 5.59289 5.55974 4.82644C5.8915 4.06 6.37125 3.36655 6.97147 2.78583C7.57169 2.20512 8.28061 1.74854 9.0576 1.44226C9.83457 1.136 10.6644 0.986049 11.4994 1.00102C12.3344 0.986049 13.1642 1.136 13.9412 1.44226C14.7182 1.74854 15.4271 2.20512 16.0273 2.78583C16.6276 3.36655 17.1073 4.06 17.4391 4.82644C17.7707 5.59289 17.9481 6.41726 17.9607 7.25234V11.5006" stroke="#E8E8E8" stroke-width="2" stroke-linecap="round" stroke-linejoin="round"/>
<path d="M2.61533 9.07788H4.23066C4.44486 9.07788 4.6503 9.16298 4.80175 9.31445C4.95322 9.4659 5.03832 9.67134 5.03832 9.88554V14.7315C5.03832 14.9457 4.95322 15.1512 4.80175 15.3026C4.6503 15.4541 4.44486 15.5392 4.23066 15.5392H2.61533C2.18691 15.5392 1.77605 15.369 1.47312 15.0661C1.17019 14.7631 1 14.3523 1 13.9239V10.6932C1 10.2648 1.17019 9.85393 1.47312 9.55099C1.77605 9.24807 2.18691 9.07788 2.61533 9.07788Z" stroke="#E8E8E8" stroke-width="2" stroke-linecap="round" stroke-linejoin="round"/>
<path d="M20.3844 15.5392H18.7691C18.5549 15.5392 18.3494 15.4541 18.1979 15.3026C18.0466 15.1512 17.9614 14.9457 17.9614 14.7315V9.88554C17.9614 9.67134 18.0466 9.4659 18.1979 9.31445C18.3494 9.16298 18.5549 9.07788 18.7691 9.07788H20.3844C20.8128 9.07788 21.2237 9.24807 21.5266 9.55099C21.8295 9.85393 21.9997 10.2648 21.9997 10.6932V13.9239C21.9997 14.3523 21.8295 14.7631 21.5266 15.0661C21.2237 15.369 20.8128 15.5392 20.3844 15.5392Z" stroke="#E8E8E8" stroke-width="2" stroke-linecap="round" stroke-linejoin="round"/>
<path d="M14.7305 19.9815C15.5873 19.9815 16.409 19.6411 17.0149 19.0352C17.6208 18.4293 17.9611 17.6076 17.9611 16.7508V13.1163" stroke="#E8E8E8" stroke-width="2" stroke-linecap="round" stroke-linejoin="round"/>
<path d="M14.7308 19.9816C14.7308 20.517 14.5181 21.0307 14.1394 21.4093C13.7608 21.788 13.2472 22.0007 12.7117 22.0007H10.2887C9.75318 22.0007 9.2396 21.788 8.86093 21.4093C8.48227 21.0307 8.26953 20.517 8.26953 19.9816C8.26953 19.4461 8.48227 18.9324 8.86093 18.5538C9.2396 18.1751 9.75318 17.9624 10.2887 17.9624H12.7117C13.2472 17.9624 13.7608 18.1751 14.1394 18.5538C14.5181 18.9324 14.7308 19.4461 14.7308 19.9816Z" stroke="#E8E8E8" stroke-width="2" stroke-linecap="round" stroke-linejoin="round"/>
</svg>
