<svg width="33" height="24" viewBox="0 0 33 24" fill="none" xmlns="http://www.w3.org/2000/svg">
<path d="M19.9798 1.45459H6.24237C4.64215 1.45459 3.8416 1.45459 3.21047 1.71755C2.36895 2.06817 1.70081 2.74107 1.35225 3.58754C1.09082 4.22238 1.09082 5.02719 1.09082 6.63681C3.93594 6.63681 6.24237 8.95599 6.24237 11.8178C6.24237 14.6797 3.93594 17 1.09082 17C1.09082 18.6097 1.09082 19.4145 1.35225 20.0493C1.70081 20.8958 2.36895 21.5681 3.21047 21.9187C3.8416 22.1817 4.64216 22.1819 6.24237 22.1819H19.9798M19.9798 1.45459H26.8485C28.4488 1.45459 29.2489 1.45459 29.88 1.71755C30.7215 2.06817 31.3899 2.74107 31.7385 3.58754C31.9999 4.22238 31.9999 5.02719 31.9999 6.63681C29.1548 6.63681 26.8485 8.95639 26.8485 11.8182C26.8485 14.6801 29.1548 17 31.9999 17C31.9999 18.6097 31.9999 19.4145 31.7385 20.0493C31.3899 20.8958 30.7215 21.5681 29.88 21.9187C29.2489 22.1817 28.4488 22.1819 26.8485 22.1819H19.9798M19.9798 1.45459V22.1819" stroke="#E8E8E8" stroke-width="2" stroke-linecap="round" stroke-linejoin="round"/>
</svg>
