<svg width="18" height="18" viewBox="0 0 18 18" fill="none" xmlns="http://www.w3.org/2000/svg">
<path d="M9.31014 6.19679C9.23793 5.99297 9.1265 5.80762 8.98489 5.64979C8.68367 5.31406 8.24595 5.10278 7.75875 5.10278H6.48547C5.67451 5.10278 5.01709 5.75861 5.01709 6.56761C5.01709 7.25599 5.49757 7.8515 6.17168 7.99861L8.11028 8.42165C8.86547 8.58645 9.40375 9.25407 9.40375 10.0253C9.40375 10.9316 8.66726 11.6669 7.75875 11.6669H6.66208C5.94584 11.6669 5.33652 11.2102 5.11069 10.5729" stroke="white" stroke-linecap="round" stroke-linejoin="round"/>
<path d="M7.20996 5.10257V3.46155" stroke="white" stroke-linecap="round" stroke-linejoin="round"/>
<path d="M7.20996 13.3078V11.6667" stroke="white" stroke-linecap="round" stroke-linejoin="round"/>
<path d="M15.2291 1H3.50851C2.8541 1 2.22648 1.25934 1.76373 1.72097C1.30098 2.1826 1.04102 2.8087 1.04102 3.46154V17L4.12539 15.1538L7.20976 17L10.2941 15.1538L13.3785 17V2.84615C13.3785 2.35653 13.5734 1.88694 13.9205 1.54073C14.2675 1.1945 14.7383 1 15.2291 1ZM15.2291 1C15.7199 1 16.1907 1.1945 16.5378 1.54073C16.8848 1.88694 17.0798 2.35653 17.0798 2.84615V7.15385H13.3785" stroke="white" stroke-linecap="round" stroke-linejoin="round"/>
</svg>
