<svg width="17" height="20" viewBox="0 0 17 20" fill="none" xmlns="http://www.w3.org/2000/svg">
<path d="M9.75293 0C10.0101 0.000247213 10.208 0.210125 10.208 0.459961V3.67969C10.208 5.50962 11.7029 7.00942 13.5146 7.01953C14.2669 7.01953 14.861 7.03027 15.3164 7.03027C15.6233 7.03027 16.1289 7.01953 16.5547 7.01953C16.802 7.01966 16.9999 7.21993 17 7.46973V15.5098C17 17.9896 15.0101 19.9998 12.5449 20H4.67285C2.0988 19.9998 2.1043e-05 17.8899 0 15.29V4.50977C0.000126126 2.02987 2.00055 0 4.46582 0H9.75293ZM8.31641 7.76953C7.91073 7.76976 7.57435 8.10002 7.57422 8.50977V10.2402H5.87109C5.46524 10.2403 5.12891 10.5703 5.12891 10.9902C5.12903 11.4001 5.46532 11.7304 5.87109 11.7305H7.57422V13.46C7.57422 13.8698 7.91066 14.2 8.31641 14.2002C8.72235 14.2002 9.0498 13.87 9.0498 13.46V11.7305H10.7627C11.1684 11.7303 11.5048 11.4 11.5049 10.9902C11.5049 10.5703 11.1685 10.2404 10.7627 10.2402H9.0498V8.50977C9.04968 8.09987 8.72227 7.76953 8.31641 7.76953ZM11.6494 0.90625C11.6494 0.47525 12.1678 0.261266 12.4639 0.572266C13.5341 1.69617 15.4037 3.66079 16.4492 4.75879C16.7382 5.0617 16.527 5.56512 16.1104 5.56641C15.2965 5.56941 14.3366 5.56657 13.6465 5.55957C12.5515 5.55949 11.6494 4.64794 11.6494 3.54199V0.90625Z" fill="#E8E8E8"/>
</svg>
