<svg width="12" height="14" viewBox="0 0 12 14" fill="none" xmlns="http://www.w3.org/2000/svg">
<path d="M11.2757 0.235683C11.7109 0.401774 12 0.831282 12 1.31172L12 12.6883C12 13.1687 11.7109 13.5982 11.2757 13.7643C10.4523 14.0786 9.54772 14.0786 8.72432 13.7643C8.28912 13.5982 8 13.1687 8 12.6883L8 1.31172C8 0.831283 8.28912 0.401773 8.72432 0.235682C9.54772 -0.0785609 10.4523 -0.0785608 11.2757 0.235683Z" fill="#FF8077"/>
<path d="M3.27568 0.235683C3.71088 0.401774 4 0.831282 4 1.31172L4 12.6883C4 13.1687 3.71088 13.5982 3.27568 13.7643C2.45228 14.0786 1.54772 14.0786 0.724319 13.7643C0.289117 13.5982 -2.31695e-08 13.1687 0 12.6883L5.4864e-07 1.31172C5.71809e-07 0.831283 0.289117 0.401773 0.72432 0.235682C1.54772 -0.0785609 2.45228 -0.0785608 3.27568 0.235683Z" fill="#FF8077"/>
</svg>
