<svg width="12" height="14" viewBox="0 0 12 14" fill="none" xmlns="http://www.w3.org/2000/svg">
<path d="M11.2757 0.469951C11.7109 0.630288 12 1.04492 12 1.50872L12 12.4912C12 12.955 11.7109 13.3696 11.2757 13.53C10.4523 13.8333 9.54772 13.8333 8.72432 13.53C8.28912 13.3696 8 12.955 8 12.4912L8 1.50872C8 1.04492 8.28912 0.630288 8.72432 0.46995C9.54772 0.166592 10.4523 0.166592 11.2757 0.469951Z" fill="#FF8077"/>
<path d="M3.27568 0.469951C3.71088 0.630288 4 1.04492 4 1.50872L4 12.4912C4 12.955 3.71088 13.3696 3.27568 13.53C2.45228 13.8333 1.54772 13.8333 0.724319 13.53C0.289117 13.3696 -2.31695e-08 12.955 0 12.4912L5.4864e-07 1.50872C5.71809e-07 1.04492 0.289117 0.630288 0.72432 0.46995C1.54772 0.166592 2.45228 0.166592 3.27568 0.469951Z" fill="#FF8077"/>
</svg>
