<svg width="21" height="21" viewBox="0 0 21 21" fill="none" xmlns="http://www.w3.org/2000/svg">
<path d="M10.7524 5.37154L1 15.1238V20L5.87622 20L15.6286 10.2477M10.7524 5.37154L14.2495 1.87454L14.2516 1.87247C14.7329 1.39109 14.9741 1.14997 15.252 1.05966C15.4968 0.980112 15.7606 0.980112 16.0054 1.05966C16.2832 1.14991 16.524 1.39075 17.0047 1.87144L19.1257 3.99232C19.6084 4.47508 19.8499 4.71657 19.9403 4.99492C20.0199 5.23975 20.0199 5.50348 19.9403 5.74832C19.8499 6.02646 19.6088 6.26759 19.1267 6.74966L19.1257 6.75069L15.6286 10.2477M10.7524 5.37154L15.6286 10.2477" stroke="#E8E8E8" stroke-width="2" stroke-linecap="round" stroke-linejoin="round"/>
</svg>
