<svg width="18" height="17" viewBox="0 0 18 17" fill="none" xmlns="http://www.w3.org/2000/svg">
<path fill-rule="evenodd" clip-rule="evenodd" d="M1.8497 11.4349C-0.33118 6.08185 3.60696 0.225006 9.38723 0.225006H9.70865C14.0262 0.225006 17.5263 3.72509 17.5263 8.04265C17.5263 12.8654 13.6167 16.775 8.79394 16.775H0.973661C0.761489 16.775 0.572421 16.6411 0.502003 16.441C0.431584 16.2408 0.495151 16.018 0.66058 15.8852L2.63207 14.3019C2.80448 14.1634 2.86546 13.9282 2.78204 13.7234L1.8497 11.4349ZM10.1263 5.67502C10.1263 5.2608 9.79055 4.92502 9.37634 4.92502C8.96212 4.92502 8.62634 5.2608 8.62634 5.67502V7.67504H6.62631C6.2121 7.67504 5.87631 8.01083 5.87631 8.42504C5.87631 8.83925 6.2121 9.17504 6.62631 9.17504H8.62634V11.175C8.62634 11.5892 8.96212 11.925 9.37634 11.925C9.79055 11.925 10.1263 11.5892 10.1263 11.175V9.17504H12.1263C12.5405 9.17504 12.8763 8.83925 12.8763 8.42504C12.8763 8.01083 12.5405 7.67504 12.1263 7.67504H10.1263V5.67502Z" fill="#E8E8E8"/>
</svg>
