<svg width="10" height="10" viewBox="0 0 10 10" fill="none" xmlns="http://www.w3.org/2000/svg">
<path d="M5.45361 0C5.95482 2.19083e-08 6.37858 0.371358 6.44482 0.868164L6.65923 2.47657C6.71887 2.9239 7.07072 3.27586 7.51803 3.33562L9.12842 3.55078C9.62509 3.61707 9.99649 4.04092 9.99658 4.54199V5.45801C9.99649 5.95908 9.62509 6.38293 9.12842 6.44922L7.51844 6.66366C7.07093 6.72327 6.71886 7.07532 6.65923 7.52282L6.44482 9.13184C6.37858 9.62864 5.95482 10 5.45361 10H4.53857C4.03737 10 3.6136 9.62864 3.54736 9.13184L3.33224 7.52242C3.27245 7.07511 2.92048 6.72328 2.47314 6.66367L0.86377 6.44922C0.367094 6.38293 -0.00430039 5.95908 -0.00439453 5.45801V4.54199C-0.00430005 4.04092 0.367095 3.61707 0.86377 3.55078L2.47354 3.33561C2.92068 3.27585 3.27245 2.9241 3.33224 2.47697L3.54736 0.868164C3.6136 0.371358 4.03737 -2.19083e-08 4.53857 0H5.45361Z" fill="#00D79A"/>
</svg>
