<svg width="10" height="10" viewBox="0 0 10 10" fill="none" xmlns="http://www.w3.org/2000/svg">
<path d="M5.45801 0C5.95921 2.19083e-08 6.38298 0.371358 6.44922 0.868164L6.66363 2.47657C6.72326 2.9239 7.07512 3.27586 7.52243 3.33562L9.13281 3.55078C9.62949 3.61707 10.0009 4.04092 10.001 4.54199V5.45801C10.0009 5.95908 9.62949 6.38293 9.13281 6.44922L7.52283 6.66366C7.07532 6.72327 6.72325 7.07532 6.66362 7.52282L6.44922 9.13184C6.38298 9.62864 5.95921 10 5.45801 10H4.54297C4.04177 10 3.618 9.62864 3.55176 9.13184L3.33664 7.52242C3.27685 7.07511 2.92487 6.72328 2.47754 6.66367L0.868164 6.44922C0.371489 6.38293 9.41812e-05 5.95908 0 5.45801V4.54199C9.44752e-05 4.04092 0.371489 3.61707 0.868164 3.55078L2.47794 3.33561C2.92508 3.27585 3.27684 2.9241 3.33663 2.47697L3.55176 0.868164C3.618 0.371358 4.04177 -2.19083e-08 4.54297 0H5.45801Z" fill="#52E063"/>
</svg>
