<svg width="10" height="10" viewBox="0 0 10 10" fill="none" xmlns="http://www.w3.org/2000/svg">
<path d="M9.2236 5.8338L2.6501 5.8338L5.21739 8.56865C5.5176 8.90217 5.5176 9.42468 5.21739 9.7582C4.91718 10.0806 4.42029 10.0806 4.12008 9.7582L0.217392 5.58922C-0.0724634 5.27793 -0.0724635 4.72207 0.217391 4.41078L4.12008 0.241801C4.42029 -0.0806003 4.91718 -0.0806003 5.21739 0.241801C5.36232 0.40856 5.44513 0.6209 5.44513 0.831017C5.44513 1.04225 5.36232 1.26459 5.21739 1.42023L2.6501 4.1662L9.2236 4.1662C9.65838 4.1662 10 4.53307 10 5C10 5.45581 9.65838 5.8338 9.2236 5.8338Z" fill="#464646"/>
</svg>
