<svg width="23" height="18" viewBox="0 0 23 18" fill="none" xmlns="http://www.w3.org/2000/svg">
<path fill-rule="evenodd" clip-rule="evenodd" d="M9.19427 0H13.8057C18.1535 0 20.3273 0 21.678 1.31802C22.608 2.22551 22.8976 3.51382 22.9878 5.61315C23.0057 6.02948 23.0147 6.23765 22.9352 6.37653C22.8557 6.51541 22.5385 6.68873 21.904 7.03537C21.1993 7.42034 20.7229 8.15589 20.7229 9C20.7229 9.84411 21.1993 10.5797 21.904 10.9646C22.5385 11.3113 22.8557 11.4846 22.9352 11.6235C23.0147 11.7624 23.0057 11.9705 22.9878 12.3868C22.8976 14.4862 22.608 15.7745 21.678 16.682C20.3273 18 18.1535 18 13.8057 18H9.19427C4.84654 18 2.67268 18 1.32201 16.682C0.392047 15.7745 0.102386 14.4862 0.0121639 12.3868C-0.00572844 11.9705 -0.0146746 11.7624 0.0647957 11.6235C0.144265 11.4846 0.461533 11.3113 1.09604 10.9646C1.80073 10.5797 2.27708 9.84411 2.27708 9C2.27708 8.15589 1.80073 7.42034 1.09604 7.03537C0.461525 6.68873 0.144266 6.51541 0.0647957 6.37653C-0.0146746 6.23765 -0.00572843 6.02948 0.0121639 5.61315C0.102386 3.51382 0.392047 2.22551 1.32201 1.31802C2.67268 0 4.84654 0 9.19427 0ZM15.58 5.02838C15.9177 5.35788 15.9177 5.89212 15.58 6.22162L8.66282 12.9716C8.32516 13.3011 7.77769 13.3011 7.44002 12.9716C7.10236 12.6421 7.10236 12.1079 7.44002 11.7784L14.3572 5.02838C14.6949 4.69887 15.2423 4.69887 15.58 5.02838ZM14.3922 12.9375C15.0289 12.9375 15.545 12.4338 15.545 11.8125C15.545 11.1912 15.0289 10.6875 14.3922 10.6875C13.7555 10.6875 13.2393 11.1912 13.2393 11.8125C13.2393 12.4338 13.7555 12.9375 14.3922 12.9375ZM8.62786 7.3125C9.26456 7.3125 9.78072 6.80882 9.78072 6.1875C9.78072 5.56618 9.26456 5.0625 8.62786 5.0625C7.99115 5.0625 7.47499 5.56618 7.47499 6.1875C7.47499 6.80882 7.99115 7.3125 8.62786 7.3125Z" fill="#E8E8E8"/>
</svg>
