<svg width="22" height="22" viewBox="0 0 22 22" fill="none" xmlns="http://www.w3.org/2000/svg">
<path d="M5.2208 5.93213C2.66675 6.68703 1 7.92888 1 9.33293C1 11.6341 5.47715 13.4996 11 13.4996C16.5228 13.4996 21 11.6341 21 9.33293C21 7.92888 19.3333 6.68703 16.7792 5.93213" stroke="url(#paint0_linear_1147_3077)" stroke-width="2" stroke-linejoin="round"/>
<path d="M11.0003 1C7.77866 1 5.16699 3.55836 5.16699 6.71428V8.08333C5.16699 8.08333 7.66699 9.33333 11.0003 9.33333C14.3337 9.33333 16.8336 8.08333 16.8336 8.08333V6.71428C16.8336 3.55836 14.222 1 11.0003 1Z" stroke="url(#paint1_linear_1147_3077)" stroke-width="2" stroke-linejoin="round"/>
<path d="M5.16667 16L3.5 19.3333" stroke="url(#paint2_linear_1147_3077)" stroke-width="2" stroke-linecap="round" stroke-linejoin="round"/>
<path d="M16.8333 16L18.4999 19.3333" stroke="url(#paint3_linear_1147_3077)" stroke-width="2" stroke-linecap="round" stroke-linejoin="round"/>
<path d="M11 16.8335V21.0002" stroke="url(#paint4_linear_1147_3077)" stroke-width="2" stroke-linecap="round" stroke-linejoin="round"/>
<defs>
<linearGradient id="paint0_linear_1147_3077" x1="1" y1="9.71586" x2="21" y2="9.71586" gradientUnits="userSpaceOnUse">
<stop stop-color="#FF8400"/>
<stop offset="0.557692" stop-color="#F563FF"/>
<stop offset="1" stop-color="#00AAFF"/>
</linearGradient>
<linearGradient id="paint1_linear_1147_3077" x1="5.16699" y1="5.16666" x2="16.8336" y2="5.16666" gradientUnits="userSpaceOnUse">
<stop stop-color="#FF8400"/>
<stop offset="0.557692" stop-color="#F563FF"/>
<stop offset="1" stop-color="#00AAFF"/>
</linearGradient>
<linearGradient id="paint2_linear_1147_3077" x1="3.5" y1="17.6667" x2="5.16667" y2="17.6667" gradientUnits="userSpaceOnUse">
<stop stop-color="#FF8400"/>
<stop offset="0.557692" stop-color="#F563FF"/>
<stop offset="1" stop-color="#00AAFF"/>
</linearGradient>
<linearGradient id="paint3_linear_1147_3077" x1="16.8333" y1="17.6667" x2="18.4999" y2="17.6667" gradientUnits="userSpaceOnUse">
<stop stop-color="#FF8400"/>
<stop offset="0.557692" stop-color="#F563FF"/>
<stop offset="1" stop-color="#00AAFF"/>
</linearGradient>
<linearGradient id="paint4_linear_1147_3077" x1="11" y1="18.9168" x2="12" y2="18.9168" gradientUnits="userSpaceOnUse">
<stop stop-color="#FF8400"/>
<stop offset="0.557692" stop-color="#F563FF"/>
<stop offset="1" stop-color="#00AAFF"/>
</linearGradient>
</defs>
</svg>
