<svg width="16" height="16" viewBox="0 0 16 16" fill="none" xmlns="http://www.w3.org/2000/svg">
<path d="M13.5508 5.35742C13.7103 5.35742 13.8554 5.42732 13.9697 5.54492C14.0763 5.67048 14.1298 5.82647 14.1143 5.99121C14.1143 6.04561 13.6879 11.4373 13.4443 13.707C13.2918 15.0998 12.3937 15.9455 11.0469 15.9688C10.0115 15.9919 8.99943 16 8.00293 16C6.94479 16 5.90973 15.992 4.90527 15.9688C3.6037 15.9375 2.70526 15.0766 2.56055 13.707C2.31001 11.4293 1.89157 6.04561 1.88379 5.99121C1.87604 5.82646 1.92879 5.67049 2.03613 5.54492C2.14194 5.42737 2.29484 5.35742 2.45508 5.35742H13.5508ZM9.65137 0C10.3585 0 10.9909 0.493383 11.1738 1.19727L11.3037 1.78125C11.4095 2.25723 11.8223 2.5947 12.2969 2.59473H14.6299C14.9409 2.59494 15.2002 2.85298 15.2002 3.18164V3.48535C15.2002 3.80602 14.9409 4.07302 14.6299 4.07324H1.37109C1.0591 4.07324 0.799805 3.80615 0.799805 3.48535V3.18164C0.799805 2.85284 1.0591 2.59473 1.37109 2.59473H3.70312C4.17695 2.59473 4.5897 2.25742 4.69629 1.78223L4.81836 1.23633C5.0083 0.493498 5.63292 0.000168159 6.34766 0H9.65137Z" fill="#FF8077"/>
</svg>
