<svg width="20" height="24" viewBox="0 0 20 24" fill="none" xmlns="http://www.w3.org/2000/svg">
<path d="M7.56397 16.8385H1.50528V22.9302M12.4109 7.09171H18.4696V1M1 8.3142C1.6794 6.62346 2.81692 5.15825 4.28325 4.08512C5.74959 3.01199 7.48745 2.37371 9.29645 2.24333C11.1054 2.11295 12.9135 2.4954 14.517 3.34727C16.1206 4.19915 17.4532 5.48659 18.3655 7.06262M18.9756 15.6165C18.2961 17.3073 17.1586 18.7725 15.6923 19.8456C14.226 20.9188 12.4899 21.5562 10.6809 21.6866C8.87187 21.817 7.06238 21.4346 5.45881 20.5827C3.85524 19.7308 2.52172 18.4436 1.60942 16.8676" stroke="#E8E8E8" stroke-width="2" stroke-linecap="round" stroke-linejoin="round"/>
</svg>
