<svg width="20" height="24" viewBox="0 0 20 24" fill="none" xmlns="http://www.w3.org/2000/svg">
<path d="M7.84912 16.9984H1.79044V23.0901M12.6961 7.25163H18.7547V1.15991M1.28516 8.47412C1.96456 6.78337 3.10207 5.31816 4.56841 4.24503C6.03474 3.1719 7.77261 2.53362 9.58161 2.40324C11.3906 2.27286 13.1986 2.65531 14.8022 3.50719C16.4058 4.35906 17.7384 5.64651 18.6507 7.22254M19.2607 15.7765C18.5813 17.4672 17.4438 18.9324 15.9775 20.0055C14.5111 21.0787 12.775 21.7161 10.966 21.8465C9.15703 21.9769 7.34754 21.5945 5.74397 20.7426C4.14039 19.8908 2.80687 18.6035 1.89457 17.0275" stroke="#E8E8E8" stroke-linecap="round" stroke-linejoin="round"/>
</svg>
