<svg width="15" height="20" viewBox="0 0 15 20" fill="none" xmlns="http://www.w3.org/2000/svg">
<path fill-rule="evenodd" clip-rule="evenodd" d="M0.600578 15.4501C0.926007 15.256 1.34366 15.3685 1.53343 15.7014C2.28545 17.0204 3.43512 18.0179 4.85288 18.6651C5.1969 18.8221 5.3513 19.2346 5.19777 19.5865C5.04423 19.9384 4.64089 20.0963 4.29688 19.9393C2.64934 19.1872 1.26711 18.0042 0.354948 16.4043C0.165177 16.0714 0.275149 15.6442 0.600578 15.4501Z" fill="white"/>
<path fill-rule="evenodd" clip-rule="evenodd" d="M13.7808 2.48551C12.8586 1.52228 11.5436 1.16698 10.2561 1.54166C9.89381 1.64711 9.5165 1.43216 9.4134 1.06156C9.3103 0.690959 9.52045 0.305043 9.88279 0.199592C11.6455 -0.313419 13.4795 0.176366 14.7555 1.50929C15.0191 1.7846 15.0145 2.22632 14.7454 2.49589C14.4762 2.76546 14.0443 2.76082 13.7808 2.48551Z" fill="white"/>
<path fill-rule="evenodd" clip-rule="evenodd" d="M6.76354 1.91477C6.56886 1.5733 6.00151 1.36622 5.4252 1.7031C4.85099 2.03875 4.75 2.63041 4.94129 2.96593L7.23833 6.99485C7.4281 7.3277 7.31813 7.75488 6.9927 7.94898C6.66727 8.14308 6.24962 8.0306 6.05985 7.69775L2.99713 2.32586C2.80245 1.9844 2.23511 1.77731 1.65879 2.1142C1.08459 2.44985 0.983598 3.04151 1.17489 3.37703L4.62044 9.4204C4.81022 9.75326 4.70024 10.1804 4.37481 10.3745C4.04938 10.5686 3.63173 10.4562 3.44196 10.1233L1.9106 7.43736C1.71592 7.0959 1.14858 6.88881 0.572264 7.2257C-0.00194053 7.56135 -0.102931 8.15301 0.0883626 8.48853L3.53392 14.5319C4.99721 17.0985 8.60818 17.9314 11.6704 16.1414C14.7305 14.3526 15.8182 10.7792 14.3583 8.21853L12.0613 4.18962C11.8666 3.84815 11.2993 3.64107 10.723 3.97795C10.1488 4.3136 10.0478 4.90526 10.2391 5.24078L11.7704 7.92673C11.8621 8.08748 11.8871 8.27902 11.84 8.45877C11.7929 8.63851 11.6776 8.79157 11.5196 8.8839C10.1168 9.70392 9.68688 11.2895 10.301 12.3667C10.4908 12.6996 10.3808 13.1268 10.0554 13.3209C9.72998 13.515 9.31233 13.4025 9.12256 13.0696C8.29246 11.6137 8.62787 9.86052 9.70005 8.62138C9.99978 8.27497 10.1024 7.77107 9.8746 7.37146L6.76354 1.91477Z" fill="white"/>
</svg>
