<svg width="17" height="14" viewBox="0 0 17 14" fill="none" xmlns="http://www.w3.org/2000/svg">
<path d="M12.3721 0.758789C14.6879 0.75901 16.5662 2.63632 16.5664 4.95215V9.31445L16.5605 9.53027C16.4479 11.7457 14.6155 13.5076 12.3721 13.5078C10.639 13.5076 9.15155 12.4558 8.5127 10.9561C7.87356 12.4557 6.38745 13.5078 4.6543 13.5078C2.41089 13.5075 0.579321 11.7458 0.466797 9.53027L0.460938 9.31445V4.95215C0.46117 2.63635 2.33851 0.759073 4.6543 0.758789C6.38615 0.758789 7.87266 1.80872 8.5127 3.30664C9.15234 1.80843 10.6401 0.758965 12.3721 0.758789ZM4.6543 1.75879C2.8908 1.75907 1.46117 3.18864 1.46094 4.95215V9.31445C1.46115 11.078 2.89079 12.5075 4.6543 12.5078C6.41805 12.5078 7.84842 11.0782 7.84863 9.31445V7.82324C7.49946 8.04521 7.07096 8.17766 6.60645 8.17773C5.4363 8.17773 4.48742 7.34757 4.4873 6.32324C4.4873 5.29883 5.43623 4.46777 6.60645 4.46777C7.06921 4.46785 7.49626 4.59987 7.84473 4.82031C7.77535 3.11776 6.37388 1.75879 4.6543 1.75879ZM12.3721 1.75879C10.6085 1.75902 9.17894 3.18861 9.17871 4.95215V9.31445C9.17906 11.0779 10.6086 12.5076 12.3721 12.5078C14.1356 12.5076 15.5661 11.0779 15.5664 9.31445V7.82129C15.2168 8.04402 14.7877 8.17773 14.3223 8.17773C13.1522 8.17763 12.2042 7.3475 12.2041 6.32324C12.2041 5.2989 13.1522 4.46788 14.3223 4.46777C14.7858 4.46777 15.2137 4.60025 15.5625 4.82129C15.4938 3.11828 14.0919 1.759 12.3721 1.75879Z" fill="#1A72FF"/>
</svg>
