<svg width="19" height="19" viewBox="0 0 19 19" fill="none" xmlns="http://www.w3.org/2000/svg">
<path d="M11.6964 15.7047H18.5033M1 15.7047H2.94481M2.94481 15.7047C2.94481 17.0716 4.03321 18.1797 5.37582 18.1797C6.71843 18.1797 7.80683 17.0716 7.80683 15.7047C7.80683 14.3378 6.71843 13.2297 5.37582 13.2297C4.03321 13.2297 2.94481 14.3378 2.94481 15.7047ZM17.5309 9.76465H18.5033M1 9.76465H7.80683M10.724 3.82462H18.5033M10.724 3.82462C10.724 2.45771 9.63564 1.34961 8.29303 1.34961C6.95042 1.34961 5.86202 2.45771 5.86202 3.82462C5.86202 5.19153 6.95042 6.29963 8.29303 6.29963C9.63564 6.29963 10.724 5.19153 10.724 3.82462ZM1 3.82462H1.9724M14.1275 12.2397C12.7848 12.2397 11.6964 11.1316 11.6964 9.76465C11.6964 8.39773 12.7848 7.28963 14.1275 7.28963C15.4701 7.28963 16.5585 8.39773 16.5585 9.76465C16.5585 11.1316 15.4701 12.2397 14.1275 12.2397Z" stroke="#EAEAEA" stroke-linecap="round" stroke-linejoin="round"/>
</svg>
