<svg width="25" height="24" viewBox="0 0 25 24" fill="none" xmlns="http://www.w3.org/2000/svg">
<path d="M21.8094 8.43577L21.4031 8.21182C21.34 8.17704 21.309 8.15959 21.2785 8.1415C20.9755 7.96168 20.7201 7.71322 20.5338 7.41597C20.515 7.38606 20.4973 7.35469 20.4612 7.2927C20.4251 7.23079 20.4068 7.19941 20.39 7.16836C20.2229 6.8591 20.1324 6.51447 20.127 6.1637C20.1265 6.12843 20.1266 6.0924 20.1278 6.02077L20.1358 5.55329C20.1485 4.80519 20.1548 4.42999 20.0487 4.09326C19.9545 3.79416 19.7968 3.51867 19.5862 3.28488C19.3482 3.02061 19.0188 2.83208 18.3592 2.45549L17.8113 2.14267C17.1535 1.76713 16.8245 1.5793 16.4753 1.50769C16.1663 1.44434 15.8475 1.44727 15.5397 1.51574C15.1923 1.59301 14.8674 1.78574 14.218 2.17099L14.2143 2.17273L13.8217 2.40563C13.7597 2.44245 13.7282 2.46102 13.6971 2.47815C13.3884 2.64823 13.0437 2.74228 12.6906 2.75351C12.655 2.75464 12.6188 2.75464 12.5464 2.75464C12.4745 2.75464 12.4368 2.75464 12.4013 2.75351C12.0474 2.74223 11.702 2.64767 11.3928 2.47689C11.3616 2.45968 11.3308 2.44097 11.2686 2.40397L10.8735 2.16898C10.2197 1.78009 9.89229 1.58535 9.54293 1.50769C9.23385 1.43898 8.91394 1.43708 8.60386 1.50125C8.25376 1.5737 7.92468 1.76293 7.26653 2.14139L7.2636 2.14267L6.72253 2.45381L6.71654 2.45744C6.06432 2.83249 5.73742 3.02047 5.50141 3.28366C5.29197 3.51721 5.13543 3.79227 5.04173 4.09057C4.93582 4.42776 4.94147 4.80377 4.95423 5.55539L4.96216 6.02221C4.96336 6.09291 4.96544 6.12803 4.96492 6.1628C4.95967 6.51429 4.86805 6.85963 4.70038 7.16943C4.6838 7.20007 4.66594 7.23071 4.63026 7.29191C4.59455 7.35315 4.57726 7.3836 4.55875 7.41316C4.37154 7.712 4.11499 7.9619 3.81009 8.14204C3.77993 8.15985 3.74815 8.17699 3.68569 8.21128L3.28453 8.43154C2.61708 8.79801 2.28343 8.9814 2.04065 9.24239C1.82588 9.47327 1.66363 9.74713 1.56459 10.0454C1.45264 10.3825 1.45273 10.7606 1.45447 11.5166L1.45588 12.1346C1.45761 12.8856 1.45997 13.2608 1.57217 13.5957C1.67143 13.8919 1.8325 14.1642 2.04607 14.3937C2.28747 14.6531 2.6178 14.8353 3.2802 15.2004L3.67778 15.4196C3.74545 15.4569 3.7795 15.4753 3.81212 15.4947C4.11426 15.675 4.3688 15.9242 4.55441 16.2213C4.57446 16.2534 4.59371 16.2868 4.63221 16.3534C4.67022 16.4192 4.68967 16.4521 4.70726 16.4851C4.86999 16.7903 4.95712 17.1295 4.96306 17.4747C4.9637 17.512 4.96316 17.5497 4.96186 17.6255L4.95423 18.0735C4.94138 18.8277 4.93578 19.2052 5.04232 19.5433C5.13656 19.8425 5.29409 20.1179 5.50466 20.3517C5.74268 20.616 6.07265 20.8044 6.73228 21.181L7.28006 21.4937C7.93784 21.8693 8.26662 22.0569 8.61583 22.1285C8.92477 22.1919 9.24377 22.1894 9.5516 22.1209C9.89952 22.0436 10.2255 21.8502 10.8767 21.4638L11.2693 21.2309C11.3314 21.1941 11.3629 21.1756 11.394 21.1585C11.7027 20.9884 12.0471 20.8938 12.4002 20.8826C12.4358 20.8815 12.4719 20.8815 12.5443 20.8815C12.6169 20.8815 12.653 20.8815 12.6887 20.8826C13.0426 20.8939 13.389 20.9887 13.6982 21.1595C13.7254 21.1746 13.7527 21.1908 13.8006 21.2193L14.2179 21.4675C14.8718 21.8565 15.1985 22.0506 15.5479 22.1283C15.857 22.197 16.1771 22.1998 16.4872 22.1356C16.8372 22.0632 17.1669 21.8736 17.8247 21.4953L18.3739 21.1795C19.0266 20.8042 19.3538 20.6161 19.5899 20.3528C19.7994 20.1192 19.9561 19.8443 20.0498 19.546C20.1549 19.2112 20.1486 18.8381 20.136 18.0974L20.1278 17.6142C20.1266 17.5435 20.1265 17.5084 20.127 17.4736C20.1323 17.1221 20.2224 16.7765 20.39 16.4667C20.4066 16.4361 20.4246 16.4053 20.4602 16.3443C20.4959 16.283 20.5143 16.2525 20.5328 16.223C20.7201 15.9241 20.9769 15.674 21.2818 15.4939C21.3116 15.4763 21.3422 15.4594 21.4032 15.4259L21.4053 15.425L21.8064 15.2047C22.4739 14.8383 22.8082 14.6547 23.051 14.3937C23.2657 14.1628 23.4278 13.8893 23.5268 13.5911C23.6381 13.2559 23.6372 12.88 23.6355 12.1328L23.6341 11.5016C23.6324 10.7506 23.6314 10.3754 23.5192 10.0406C23.42 9.7443 23.258 9.47204 23.0444 9.24256C22.8033 8.98341 22.4725 8.80109 21.8114 8.43671L21.8094 8.43577Z" stroke="#E8E8E8" stroke-width="2" stroke-linecap="round" stroke-linejoin="round"/>
<path d="M8.10727 11.8183C8.10727 14.2468 10.0943 16.2154 12.5454 16.2154C14.9964 16.2154 16.9834 14.2468 16.9834 11.8183C16.9834 9.38983 14.9964 7.42117 12.5454 7.42117C10.0943 7.42117 8.10727 9.38983 8.10727 11.8183Z" stroke="#E8E8E8" stroke-width="2" stroke-linecap="round" stroke-linejoin="round"/>
</svg>
