<svg width="20" height="19" viewBox="0 0 20 19" fill="none" xmlns="http://www.w3.org/2000/svg">
<path d="M11.6964 15.5118H18.5033M1 15.5118H2.94481M2.94481 15.5118C2.94481 16.8787 4.03321 17.9868 5.37582 17.9868C6.71843 17.9868 7.80683 16.8787 7.80683 15.5118C7.80683 14.1449 6.71843 13.0368 5.37582 13.0368C4.03321 13.0368 2.94481 14.1449 2.94481 15.5118ZM17.5309 9.57177H18.5033M1 9.57177H7.80683M10.724 3.63175H18.5033M10.724 3.63175C10.724 2.26484 9.63564 1.15674 8.29303 1.15674C6.95042 1.15674 5.86202 2.26484 5.86202 3.63175C5.86202 4.99866 6.95042 6.10676 8.29303 6.10676C9.63564 6.10676 10.724 4.99866 10.724 3.63175ZM1 3.63175H1.9724M14.1275 12.0468C12.7848 12.0468 11.6964 10.9387 11.6964 9.57177C11.6964 8.20486 12.7848 7.09676 14.1275 7.09676C15.4701 7.09676 16.5585 8.20486 16.5585 9.57177C16.5585 10.9387 15.4701 12.0468 14.1275 12.0468Z" stroke="#EAEAEA" stroke-width="2" stroke-linecap="round" stroke-linejoin="round"/>
</svg>
