<svg width="20" height="16" viewBox="0 0 20 16" fill="none" xmlns="http://www.w3.org/2000/svg">
<path d="M9.9306 1.39011L14.7416 5.68076C15.641 6.48288 16.0907 6.88393 16.2565 7.35751C16.402 7.77339 16.402 8.2266 16.2565 8.64248C16.0907 9.11606 15.641 9.51711 14.7416 10.3192L9.9306 14.6099C9.52245 14.9739 9.31838 15.1559 9.14504 15.1624C8.99446 15.168 8.84986 15.1029 8.75403 14.9862C8.64372 14.8519 8.64372 14.578 8.64372 14.0301V11.3247C6.297 11.3247 3.81837 12.0809 2.0085 13.4233C1.06628 14.1221 0.595143 14.4716 0.415705 14.4578C0.240794 14.4444 0.12979 14.3758 0.039036 14.2252C-0.0540672 14.0707 0.0281662 13.5879 0.192633 12.6223C1.26058 6.35206 5.56144 4.67532 8.64372 4.67532V1.96992C8.64372 1.42202 8.64372 1.14808 8.75403 1.01377C8.84986 0.897093 8.99446 0.831945 9.14504 0.837599C9.31838 0.844108 9.52245 1.02611 9.9306 1.39011Z" fill="#52E063"/>
<path fill-rule="evenodd" clip-rule="evenodd" d="M12.4989 0.232402C12.7713 -0.0619327 13.23 -0.0789759 13.5233 0.194335L18.5648 4.89117C19.48 5.74383 20 6.94031 20 8.19338C20 9.51431 19.4223 10.7687 18.4198 11.6249L13.5 15.8265C13.1951 16.0869 12.7376 16.05 12.4781 15.7441C12.2186 15.4382 12.2554 14.9792 12.5603 14.7189L17.4801 10.5173C18.1591 9.93746 18.5503 9.08794 18.5503 8.19338C18.5503 7.34478 18.1981 6.53449 17.5783 5.95705L12.5369 1.26022C12.2435 0.986904 12.2265 0.526737 12.4989 0.232402Z" fill="#52E063"/>
</svg>
