<svg width="19" height="16" viewBox="0 0 19 16" fill="none" xmlns="http://www.w3.org/2000/svg">
<path d="M11.5291 0.617473L17.1146 5.40967C18.1588 6.30554 18.6809 6.75348 18.8733 7.28241C19.0422 7.74691 19.0422 8.25309 18.8733 8.71759C18.6809 9.24652 18.1588 9.69446 17.1146 10.5903L11.5291 15.3825C11.0553 15.7891 10.8184 15.9923 10.6171 15.9996C10.4423 16.0059 10.2744 15.9332 10.1632 15.8029C10.0351 15.6529 10.0351 15.3469 10.0351 14.7349V11.7133C7.31063 11.7133 4.43302 12.5579 2.33181 14.0572C1.23791 14.8378 0.690942 15.2281 0.482619 15.2127C0.279552 15.1977 0.15068 15.1211 0.0453176 14.9529C-0.0627726 14.7803 0.032698 14.2411 0.223639 13.1626C1.4635 6.15943 6.45667 4.2867 10.0351 4.2867V1.26506C10.0351 0.653119 10.0351 0.34715 10.1632 0.197145C10.2744 0.0668273 10.4423 -0.00593618 10.6171 0.000379709C10.8184 0.00764965 11.0553 0.210924 11.5291 0.617473Z" fill="#E8E8E8"/>
</svg>
