<svg width="17" height="20" viewBox="0 0 17 20" fill="none" xmlns="http://www.w3.org/2000/svg">
<path d="M7.84082 0.106445C8.23326 -0.0326658 8.67083 -0.0355516 9.07031 0.0996094L15.708 2.32617C16.451 2.57426 16.954 3.25759 16.958 4.02246L17 10.6631C17.013 12.6761 16.2785 14.6286 14.9346 16.1582C14.3165 16.8602 13.5243 17.4637 12.5127 18.0029L8.94531 19.9102C8.83368 19.9689 8.71061 19.999 8.58691 20C8.46326 20.001 8.33914 19.9718 8.22852 19.9141L4.62695 18.0508C3.60411 17.5203 2.80484 16.9257 2.18066 16.2334C0.814542 14.7194 0.0550911 12.7759 0.0419922 10.7598L0 4.12402C-0.00402695 3.35817 0.48957 2.67098 1.22852 2.41309L7.84082 0.106445ZM12.2451 7.21875C11.9481 6.9334 11.4697 6.93535 11.1768 7.22461L7.80859 10.5449L6.42871 9.21875C6.13171 8.93364 5.65423 8.93639 5.36035 9.22559C5.0674 9.51486 5.07118 9.98027 5.36816 10.2656L7.2832 12.1094C7.4322 12.2525 7.62605 12.3223 7.81934 12.3203C8.01243 12.3193 8.20466 12.2474 8.35156 12.1025L12.251 8.25781C12.5437 7.96859 12.5408 7.50406 12.2451 7.21875Z" fill="#E8E8E8"/>
</svg>
