<svg width="20" height="20" viewBox="0 0 20 20" fill="none" xmlns="http://www.w3.org/2000/svg">
<path d="M19.8534 6.65689L19.8241 6.53959C19.8241 6.53959 19.7947 6.51026 19.7947 6.48094L17.654 0.469208C17.566 0.175953 17.3021 0 16.9795 0H3.07918C2.78592 0 2.52199 0.175953 2.40469 0.469208L0.234604 6.45161C0.234604 6.48094 0.205279 6.51026 0.205279 6.56892L0.117303 6.77419C0.087977 6.83285 0.0879769 6.8915 0.0879769 6.95015C0.0293259 7.21408 0 7.44868 0 7.65396C0 8.94428 0.821115 10.0587 1.99414 10.4985V19.2962C1.99414 19.6774 2.31672 20 2.69795 20H17.5953C17.9765 20 18.2991 19.6774 18.2991 19.2962V10.3812C19.2962 9.8827 20 8.85631 20 7.65396C20 7.44868 19.9707 7.21408 19.912 6.97947C19.9413 6.86217 19.912 6.77419 19.8534 6.65689ZM16.9208 18.5924H3.43109V10.6745C3.46041 10.6745 3.51906 10.6452 3.54839 10.6452C4.28153 10.5279 4.92669 10.1466 5.3959 9.58944C5.95308 10.2639 6.77419 10.6745 7.71261 10.6745C8.65103 10.6745 9.47214 10.2639 10.0293 9.58944C10.5865 10.2639 11.4076 10.6745 12.346 10.6745C13.2845 10.6745 14.1056 10.2639 14.6628 9.58944C15.0733 10.0587 15.6012 10.4106 16.217 10.5865H16.2463C16.305 10.6158 16.393 10.6158 16.4516 10.6158C16.4809 10.6158 16.5396 10.6452 16.5689 10.6452C16.6276 10.6452 16.6862 10.6452 16.7449 10.6745H16.8622V18.5924H16.9208ZM17.4487 9.20821C17.3607 9.23754 17.3021 9.23754 17.2434 9.26686C17.1554 9.26686 17.0968 9.29619 17.0088 9.29619C16.8915 9.29619 16.8035 9.29619 16.6862 9.26686C16.5982 9.23754 16.5103 9.23754 16.4516 9.17889H16.4223C15.8651 8.94428 15.4545 8.41642 15.4252 7.80059V7.68328C15.4252 7.30205 15.1026 6.97947 14.7214 6.97947C14.3402 6.97947 13.9883 7.27273 13.9883 7.65396V7.80059C13.9296 8.41642 13.5191 8.94428 12.9912 9.17889H12.9619L12.6979 9.26686H12.346C12.2287 9.26686 12.1408 9.26686 12.0235 9.23754C11.9355 9.20821 11.8475 9.20821 11.7889 9.14956H11.7595C11.2023 8.91496 10.7918 8.3871 10.7625 7.77126V7.65396C10.7625 7.27273 10.4399 6.95015 10.0587 6.95015C9.67742 6.95015 9.35484 7.27273 9.35484 7.65396V7.80059C9.29619 8.41642 8.88563 8.94428 8.35777 9.17889H8.32845L8.06452 9.26686H7.71261C7.62463 9.26686 7.50733 9.26686 7.39003 9.23754C7.30205 9.20821 7.21408 9.20821 7.1261 9.14956H7.09678C6.53959 8.91496 6.12903 8.3871 6.09971 7.77126V7.65396C6.09971 7.27273 5.77713 6.95015 5.3959 6.95015C5.01466 6.95015 4.69208 7.27273 4.69208 7.65396V7.80059C4.63343 8.41642 4.22287 8.94428 3.69501 9.17889H3.66569C3.57771 9.20821 3.48974 9.23754 3.43109 9.26686H3.04985C2.9912 9.26686 2.93255 9.26686 2.8739 9.23754H2.78592C2.02346 9.09091 1.43695 8.44575 1.43695 7.65396C1.43695 7.53666 1.46628 7.39003 1.52493 7.21408C1.52493 7.18475 1.52493 7.15543 1.55425 7.15543L3.60704 1.43695H16.5103L18.5044 7.0088C18.5044 7.0088 18.5044 7.03812 18.5337 7.06745L18.5631 7.18475C18.5631 7.21408 18.5631 7.2434 18.5924 7.2434C18.651 7.41935 18.6804 7.56598 18.6804 7.68328C18.6217 8.3871 18.1232 9.00293 17.4487 9.20821Z" fill="#E8E8E8"/>
</svg>
