<svg width="22" height="17" viewBox="0 0 22 17" fill="none" xmlns="http://www.w3.org/2000/svg">
<path fill-rule="evenodd" clip-rule="evenodd" d="M6.29375 0.169576C9.5812 -0.0713383 12.8832 -0.0555312 16.1681 0.216845L18.1478 0.381001C19.6432 0.504999 20.8568 1.60846 21.0842 3.0509L21.2091 3.84319C21.633 6.53176 21.5934 9.27019 21.0919 11.9461C20.8445 13.2664 19.6616 14.226 18.2813 14.226H7.33695C7.08515 14.226 6.83728 14.2866 6.61549 14.4025L1.8473 16.8941C1.56391 17.0421 1.22134 17.0345 0.945203 16.874C0.669067 16.7135 0.5 16.4237 0.5 16.1109V6.01377C0.5 2.95688 2.92312 0.416586 6.05815 0.186842L6.29375 0.169576ZM6.29138 6.03427C5.44967 6.03427 4.76733 6.69772 4.76733 7.51613C4.76733 8.33454 5.44967 8.99798 6.29138 8.99798C7.13309 8.99798 7.81543 8.33454 7.81543 7.51613C7.81543 6.69772 7.13309 6.03427 6.29138 6.03427ZM11.1683 6.03427C10.3266 6.03427 9.64428 6.69772 9.64428 7.51613C9.64428 8.33454 10.3266 8.99798 11.1683 8.99798C12.01 8.99798 12.6924 8.33454 12.6924 7.51613C12.6924 6.69772 12.01 6.03427 11.1683 6.03427ZM14.5212 7.51613C14.5212 6.69772 15.2036 6.03427 16.0453 6.03427C16.887 6.03427 17.5693 6.69772 17.5693 7.51613C17.5693 8.33454 16.887 8.99798 16.0453 8.99798C15.2036 8.99798 14.5212 8.33454 14.5212 7.51613Z" fill="#E8E8E8"/>
</svg>
