<svg width="17" height="16" viewBox="0 0 17 16" fill="none" xmlns="http://www.w3.org/2000/svg">
<path d="M4.56414 8C4.56414 9.933 6.13494 11.5 8.07261 11.5C10.0103 11.5 11.5811 9.933 11.5811 8C11.5811 6.067 10.0103 4.5 8.07261 4.5C6.13494 4.5 4.56414 6.067 4.56414 8Z" fill="#E8E8E8"/>
<path d="M8.07261 2.4V1M8.07261 13.6V15M4.1531 4.08995L3.16075 3.1M12.0919 12.0096L13.0843 12.9996M2.45905 8H1.05566M13.6862 8H15.0896M12.0923 4.08995L13.0846 3.1M4.15344 12.0096L3.16109 12.9996M8.07261 11.5C6.13494 11.5 4.56414 9.933 4.56414 8C4.56414 6.067 6.13494 4.5 8.07261 4.5C10.0103 4.5 11.5811 6.067 11.5811 8C11.5811 9.933 10.0103 11.5 8.07261 11.5Z" stroke="#E8E8E8" stroke-width="2" stroke-linecap="round" stroke-linejoin="round"/>
</svg>
