<svg width="10" height="16" viewBox="0 0 10 16" fill="none" xmlns="http://www.w3.org/2000/svg">
<path d="M8.48431 10.2723C8.82771 9.91128 9.38425 9.91128 9.73949 10.2602C9.91711 10.4407 10 10.6694 10 10.91C10 11.1386 9.91711 11.3673 9.73949 11.5357L5.63055 15.7353C5.46477 15.9037 5.23979 16 5.00296 16C4.76613 16 4.54115 15.9037 4.37537 15.7353L0.26643 11.5357C-0.08881 11.1868 -0.08881 10.6212 0.26643 10.2602C0.609828 9.91128 1.17821 9.91128 1.52161 10.2723L5.00296 13.822L8.48431 10.2723Z" fill="#464646"/>
<path d="M1.51569 5.72773C1.17229 6.08872 0.615747 6.08872 0.260507 5.73977C0.0828875 5.55927 -1.01437e-06 5.33064 -9.93327e-07 5.08998C-9.7334e-07 4.86135 0.0828875 4.63272 0.260507 4.46426L4.36945 0.264727C4.53523 0.0962646 4.76021 4.95598e-07 4.99704 5.16302e-07C5.23387 5.37006e-07 5.45885 0.0962647 5.62463 0.264727L9.73357 4.46426C10.0888 4.81322 10.0888 5.37877 9.73357 5.73977C9.39017 6.08872 8.82179 6.08872 8.47839 5.72773L4.99704 2.17798L1.51569 5.72773Z" fill="#464646"/>
</svg>
