<svg width="23" height="20" viewBox="0 0 23 20" fill="none" xmlns="http://www.w3.org/2000/svg">
<path d="M1.36888 5.31283C0.877039 5.22725 0.877039 4.52119 1.36888 4.43563C3.15075 4.12562 4.56796 2.76843 4.95473 1.00164L4.98437 0.866212C5.09077 0.380111 5.78292 0.377085 5.89358 0.862237L5.92957 1.02006C6.33065 2.77852 7.74825 4.12425 9.52516 4.43339C10.0195 4.51939 10.0195 5.22906 9.52516 5.31505C7.74825 5.62419 6.33065 6.96992 5.92957 8.72838L5.89358 8.88621C5.78292 9.37137 5.09077 9.36834 4.98437 8.88223L4.95473 8.74681C4.56796 6.98002 3.15075 5.62282 1.36888 5.31283Z" fill="#464646" stroke="#464646" stroke-linecap="round" stroke-linejoin="round"/>
<path d="M3.18894 16.2534C2.90512 16.204 2.90512 15.7965 3.18894 15.7472C4.21718 15.5683 5.03499 14.7851 5.25818 13.7656L5.27529 13.6874C5.33669 13.4069 5.7361 13.4051 5.79995 13.6851L5.82072 13.7762C6.05217 14.7909 6.8702 15.5675 7.89559 15.7459C8.18086 15.7955 8.18086 16.205 7.89559 16.2546C6.8702 16.433 6.05217 17.2096 5.82072 18.2243L5.79995 18.3154C5.7361 18.5954 5.33669 18.5936 5.27529 18.3131L5.25818 18.235C5.03499 17.2154 4.21718 16.4322 3.18894 16.2534Z" fill="#464646" stroke="#464646" stroke-linecap="round" stroke-linejoin="round"/>
<path d="M10.0391 11.1518C9.32031 11.0246 9.32031 9.97541 10.0391 9.84826C12.643 9.3876 14.714 7.37083 15.2792 4.74543L15.3225 4.54418C15.478 3.82185 16.4895 3.81735 16.6512 4.53828L16.7038 4.7728C17.2899 7.38583 19.3615 9.38555 21.9582 9.84493C22.6806 9.97272 22.6806 11.0273 21.9582 11.1551C19.3615 11.6144 17.2899 13.6142 16.7038 16.2272L16.6512 16.4617C16.4895 17.1827 15.478 17.1782 15.3225 16.4558L15.2792 16.2546C14.714 13.6292 12.643 11.6124 10.0391 11.1518Z" fill="#464646" stroke="#464646" stroke-linecap="round" stroke-linejoin="round"/>
</svg>
