<svg width="21" height="20" viewBox="0 0 21 20" fill="none" xmlns="http://www.w3.org/2000/svg">
<path d="M9.11523 1.63184C9.62767 0.400041 11.3723 0.40004 11.8848 1.63184L13.1396 4.64941C13.4996 5.51487 14.3138 6.10657 15.248 6.18164L18.5059 6.44238C19.8358 6.54901 20.3756 8.20914 19.3623 9.07715L16.8799 11.2031C16.1681 11.813 15.8577 12.7699 16.0752 13.6816L16.833 16.8604C17.1426 18.1582 15.7304 19.1838 14.5918 18.4883L11.8027 16.7852C11.0028 16.2967 9.99718 16.2967 9.19727 16.7852L6.4082 18.4883C5.26956 19.1838 3.85741 18.1582 4.16699 16.8604L4.9248 13.6816C5.14229 12.7699 4.83188 11.813 4.12012 11.2031L1.6377 9.07715C0.62439 8.20914 1.16416 6.54901 2.49414 6.44238L5.75195 6.18164C6.68624 6.10657 7.50039 5.51487 7.86035 4.64941L9.11523 1.63184Z" stroke="#707070"/>
</svg>
