<svg width="21" height="20" viewBox="0 0 21 20" fill="none" xmlns="http://www.w3.org/2000/svg">
<path fill-rule="evenodd" clip-rule="evenodd" d="M9.93971 16.9406L5.21384 19.8233C4.72243 20.123 4.08003 19.9693 3.779 19.48C3.63197 19.241 3.58814 18.9531 3.65743 18.6815L4.389 15.8144C4.65308 14.7793 5.36437 13.9142 6.33117 13.452L11.4869 10.9873C11.7272 10.8724 11.8285 10.5852 11.7131 10.3459C11.6197 10.152 11.4083 10.0436 11.1956 10.0803L5.45661 11.0695C4.29002 11.2706 3.09369 10.9499 2.18624 10.1927L0.37326 8.67987C-0.0684293 8.3113 -0.126425 7.65599 0.243724 7.21621C0.42375 7.00229 0.682632 6.8695 0.962062 6.84773L6.50126 6.41608C6.89259 6.38559 7.23363 6.139 7.38386 5.77792L9.52079 0.641614C9.74134 0.111488 10.3517 -0.140234 10.8841 0.0793751C11.1398 0.184823 11.3429 0.387065 11.4488 0.641614L13.5857 5.77792C13.7359 6.139 14.077 6.38559 14.4683 6.41608L20.038 6.8501C20.6125 6.89487 21.0417 7.39491 20.9968 7.96698C20.9752 8.24217 20.8444 8.49748 20.6335 8.67656L16.3858 12.2823C16.0867 12.5362 15.9563 12.9358 16.0482 13.3162L17.3541 18.7178C17.489 19.2757 17.1441 19.8368 16.5839 19.9711C16.3146 20.0357 16.0307 19.9909 15.7946 19.8469L11.0299 16.9406C10.6954 16.7366 10.2742 16.7366 9.93971 16.9406Z" fill="#FFCB62"/>
</svg>
