<svg width="21" height="20" viewBox="0 0 21 20" fill="none" xmlns="http://www.w3.org/2000/svg">
<path d="M16.0595 12.4616C15.8005 12.7126 15.6815 13.0756 15.7405 13.4316L16.6295 18.3516C16.7045 18.7686 16.5285 19.1906 16.1795 19.4316C15.8375 19.6816 15.3825 19.7116 15.0095 19.5116L10.5805 17.2016C10.4265 17.1196 10.2555 17.0756 10.0805 17.0706C9.90008 17.0706 9.71271 17.0699 9.5528 17.1535C9.54835 17.1558 9.54391 17.1582 9.5395 17.1606L5.1095 19.4816C4.8905 19.5916 4.6425 19.6306 4.3995 19.5916C3.27661 19.3792 3.70236 17.7793 4.06202 16.6945C4.44454 15.5408 4.90187 14.0956 4.99976 13.5C5.09209 12.9382 7.86571 11.9905 10.3941 11.1488C13.2078 10.212 12.9947 9.71932 10.0901 10.3172C8.52547 10.6393 6.85852 10.9869 5.66466 11.2224C4.56 11.4402 3.54329 11.1666 2.63404 10.5025L0.469501 8.9216C0.167501 8.6286 0.0625008 8.1886 0.200501 7.7916C0.334501 7.3956 0.676501 7.1066 1.0895 7.0416L6.0595 6.3206C6.4375 6.2816 6.7695 6.0516 6.9395 5.7116L9.1295 1.2216C9.1815 1.1216 9.2485 1.0296 9.3295 0.951602L9.33787 0.945095C9.39219 0.902847 9.44118 0.853691 9.49477 0.810514C9.54883 0.766955 9.61328 0.739573 9.67845 0.715656L9.6895 0.711602C9.80175 0.665383 9.92196 0.641602 10.0433 0.641602H10.2805C10.6565 0.680602 10.9875 0.905602 11.1605 1.2416L13.3795 5.7116C13.5395 6.0386 13.8505 6.2656 14.2095 6.3206L19.1795 7.0416C19.5995 7.1016 19.9505 7.3916 20.0895 7.7916C20.2205 8.1926 20.1075 8.6326 19.7995 8.9216L16.0595 12.4616Z" fill="#E8E8E8"/>
</svg>
