<svg width="13" height="16" viewBox="0 0 13 16" fill="none" xmlns="http://www.w3.org/2000/svg">
<path d="M9.14191 7.31705C8.34028 6.32293 7.93946 5.82586 7.4787 5.90242C7.01794 5.97898 6.80238 6.57846 6.37127 7.77742L6.25974 8.08761C6.13723 8.42831 6.07598 8.59867 5.9568 8.72416C5.83762 8.84964 5.674 8.91606 5.34676 9.0489L5.04884 9.16983C3.8973 9.63728 3.32152 9.87101 3.25586 10.3487C3.19019 10.8265 3.67812 11.2318 4.65398 12.0425L4.90645 12.2522C5.18375 12.4826 5.32241 12.5978 5.40267 12.7554C5.48293 12.9131 5.49571 13.0954 5.52127 13.46L5.54454 13.7919C5.63448 15.075 5.67945 15.7165 6.09963 15.9352C6.5198 16.1538 7.03691 15.8049 8.07114 15.107L8.3387 14.9264C8.6326 14.7281 8.77954 14.6289 8.94833 14.6008C9.11711 14.5728 9.28863 14.6191 9.63166 14.7115L9.94396 14.7958C11.1511 15.1213 11.7547 15.284 12.08 14.9414C12.4054 14.5989 12.237 13.9779 11.9004 12.7358L11.8132 12.4145C11.7176 12.0616 11.6697 11.8851 11.6938 11.7101C11.7179 11.5351 11.8111 11.3814 11.9975 11.074L12.1673 10.7941C12.8234 9.71221 13.1514 9.17128 12.9323 8.74088C12.7132 8.31047 12.0921 8.27563 10.8498 8.20594L10.5284 8.18791C10.1754 8.16811 9.99885 8.15821 9.84493 8.0781C9.69101 7.99799 9.57711 7.85674 9.34931 7.57424L9.14191 7.31705Z" fill="#A3A3A3"/>
<path d="M8.8383 2.66714L8.98701 3.10657C9.15035 3.58923 9.23203 3.83057 9.39094 4.00834C9.54985 4.18612 9.768 4.28021 10.2043 4.46839L10.6015 4.63972C12.1369 5.30194 12.9046 5.63305 12.9922 6.30983C13.0286 6.59154 12.9372 6.85548 12.7242 7.15047C12.6522 7.13028 12.5829 7.11382 12.5177 7.10008C12.0902 7.00999 11.5464 6.97963 10.9923 6.94868L10.5943 6.92637C10.5178 6.92208 10.4583 6.91872 10.4074 6.9153C10.3736 6.87434 10.3347 6.82614 10.2846 6.76397L10.0281 6.44594C9.67032 6.00201 9.32024 5.56766 8.99467 5.26613C8.64748 4.94456 8.06712 4.52515 7.28587 4.65497C6.49632 4.78616 6.07516 5.38158 5.84794 5.80656C5.63743 6.2003 5.4481 6.72726 5.25641 7.26079L5.11782 7.64627C5.0944 7.7114 5.07562 7.76359 5.05908 7.80846C5.01576 7.82647 4.96536 7.84695 4.9024 7.87251L4.53233 8.02272C4.01974 8.23064 3.514 8.43578 3.13743 8.66035C2.7322 8.902 2.16238 9.34834 2.04939 10.1703C1.93748 10.9845 2.35585 11.5789 2.67255 11.9314C2.90858 12.1941 3.22571 12.4712 3.56431 12.7552C2.28984 13.1135 1.61193 13.2472 1.22665 12.8162C0.79285 12.3309 1.0173 11.4511 1.4662 9.69156L1.58233 9.23635C1.7099 8.73634 1.77368 8.48634 1.74161 8.23842C1.70953 7.99051 1.58524 7.77275 1.33664 7.33722L1.11032 6.94071C0.235507 5.40809 -0.201899 4.64177 0.0902327 4.03203C0.382364 3.42229 1.21056 3.37293 2.86696 3.27421L3.29549 3.24867C3.76619 3.22061 4.00154 3.20659 4.20676 3.0931C4.41199 2.97961 4.56386 2.7795 4.86759 2.3793L5.14411 2.01494C6.21297 0.6066 6.74739 -0.0975712 7.36174 0.0108895C7.97608 0.11935 8.26349 0.968612 8.8383 2.66714Z" fill="#A3A3A3"/>
</svg>
