<svg width="23" height="20" viewBox="0 0 23 20" fill="none" xmlns="http://www.w3.org/2000/svg">
<path d="M12.25 1.49997C12.25 1.08576 11.9142 0.749969 11.5 0.749969C11.0858 0.749969 10.75 1.08576 10.75 1.49997V3.49997C10.75 3.91418 11.0858 4.24997 11.5 4.24997C11.9142 4.24997 12.25 3.91418 12.25 3.49997V1.49997Z" fill="#A3A3A3"/>
<path fill-rule="evenodd" clip-rule="evenodd" d="M22.25 10.5565C22.25 12.3942 22.25 13.8499 22.0969 14.9891C21.9392 16.1615 21.6071 17.1105 20.8588 17.8588C20.1104 18.6072 19.1614 18.9393 17.989 19.0969C16.8498 19.2501 15.3942 19.2501 13.5565 19.2501H9.44348C7.60577 19.2501 6.15017 19.2501 5.01098 19.0969C3.83856 18.9393 2.88961 18.6072 2.14124 17.8588C1.39288 17.1105 1.06076 16.1615 0.903136 14.9891C0.749973 13.8499 0.749985 12.3942 0.75 10.5565L0.750004 10.2725C0.75002 10.0528 0.750106 9.83881 0.750535 9.63022C0.751323 9.24658 0.753268 8.88139 0.758062 8.53393C0.771516 7.5587 0.807409 6.72313 0.903136 6.01113C1.06076 4.8387 1.39288 3.88975 2.14124 3.14139C2.88961 2.39303 3.83856 2.06091 5.01098 1.90328C5.72742 1.80696 6.569 1.77122 7.55206 1.75796C7.7173 1.75573 7.97469 1.75409 8.24859 1.75289C8.8014 1.75047 9.25 2.1987 9.25 2.75152V3.50005C9.25 4.74269 10.2574 5.75005 11.5 5.75005C12.7426 5.75005 13.75 4.74269 13.75 3.50005V2.75025C13.75 2.19793 14.198 1.74932 14.7503 1.75193C16.0391 1.75803 17.1086 1.78491 17.989 1.90328C19.1614 2.06091 20.1104 2.39303 20.8588 3.14139C21.6071 3.88975 21.9392 4.8387 22.0969 6.01113C22.25 7.15033 22.25 8.6059 22.25 10.4436V10.5565ZM7.5 8.25005C7.08579 8.25005 6.75 8.58584 6.75 9.00005C6.75 9.41426 7.08579 9.75005 7.5 9.75005H15.5C15.9142 9.75005 16.25 9.41426 16.25 9.00005C16.25 8.58584 15.9142 8.25005 15.5 8.25005H7.5ZM7.5 11.7501C7.08579 11.7501 6.75 12.0858 6.75 12.5001C6.75 12.9143 7.08579 13.2501 7.5 13.2501H13C13.4142 13.2501 13.75 12.9143 13.75 12.5001C13.75 12.0858 13.4142 11.7501 13 11.7501H7.5Z" fill="#A3A3A3"/>
</svg>
