<svg width="20" height="14" viewBox="0 0 20 14" fill="none" xmlns="http://www.w3.org/2000/svg">
<rect width="20" height="14" rx="5" fill="#E679FF"/>
<path d="M14.2852 3C14.6757 3 15 3.41918 15 3.92383V6.38477C15 6.88941 14.6757 7.30859 14.2852 7.30859C13.8947 7.30835 13.5713 6.88926 13.5713 6.38477V6.13867L10.7803 9.74512C10.6279 9.94205 10.4271 10.0402 10.208 10.0156C9.99873 9.99088 9.80833 9.84381 9.68457 9.61035L8.64648 7.59082L6.2168 10.7295C6.07391 10.9141 5.89291 11.001 5.71191 11.001C5.53101 11.0009 5.34985 10.914 5.20703 10.7295C4.9311 10.3725 4.93089 9.78161 5.20703 9.4248L8.25586 5.48633C8.40825 5.28957 8.60815 5.19121 8.82715 5.21582C9.03668 5.24044 9.22675 5.38827 9.35059 5.62207L10.3896 7.64062L12.5518 4.84668H12.3799C11.9896 4.84636 11.6661 4.42815 11.666 3.92383C11.666 3.41937 11.9895 3.00032 12.3799 3H14.2852Z" fill="#E8E8E8"/>
</svg>
