<svg width="21" height="21" viewBox="0 0 21 21" fill="none" xmlns="http://www.w3.org/2000/svg">
<path d="M17.7578 11.2193C18.3099 11.2196 18.7578 11.6672 18.7578 12.2193V18.4507C18.7578 18.8994 18.5793 19.3299 18.2627 19.647L18.2617 19.648C17.9446 19.9646 17.5141 20.143 17.0654 20.1431H3.21777C2.7691 20.1431 2.33867 19.9647 2.02148 19.648L2.02051 19.647C1.70352 19.3297 1.52542 18.8993 1.52539 18.4507V12.2193C1.52543 11.667 1.97313 11.2193 2.52539 11.2193C3.07743 11.2196 3.52535 11.6672 3.52539 12.2193C3.52546 12.8141 4.00769 13.2964 4.60254 13.2964H9.44922C10.0441 13.2964 10.5263 12.8141 10.5264 12.2193C10.5264 11.667 10.9741 11.2193 11.5264 11.2193C12.0784 11.2196 12.5263 11.6672 12.5264 12.2193V16.1431C12.5264 17.2476 13.4218 18.1431 14.5264 18.1431H14.7578C15.8623 18.1431 16.7577 17.2476 16.7578 16.1431V12.2193C16.7578 11.6671 17.2056 11.2193 17.7578 11.2193ZM17.2139 0.151917C17.553 0.202699 17.8465 0.426071 17.9844 0.74762L20.0557 5.5816C20.1112 5.70588 20.1435 5.84299 20.1436 5.98785V7.37262C20.1435 8.37212 19.7458 9.33078 19.0391 10.0377C18.3322 10.7444 17.3735 11.142 16.374 11.1422H16.0273C15.0277 11.1421 14.0692 10.7445 13.3623 10.0377C13.3044 9.97976 13.2102 9.97976 13.1523 10.0377C12.4454 10.7446 11.487 11.1422 10.4873 11.1422H9.79492C8.79522 11.1421 7.8368 10.7446 7.12988 10.0377C7.08385 9.99162 7.00989 9.99162 6.96387 10.0377C6.25694 10.7446 5.29756 11.1422 4.29785 11.1422H3.91016C2.91046 11.1421 1.95204 10.7446 1.24512 10.0377C0.538287 9.33078 0.140657 8.37226 0.140625 7.37262V5.98785C0.140627 5.9794 0.141385 5.97087 0.141602 5.96246C0.141787 5.95534 0.142238 5.94811 0.142578 5.94098C0.144125 5.90765 0.14761 5.87475 0.152344 5.84235C0.153347 5.83555 0.154133 5.82862 0.155273 5.82184C0.169143 5.73902 0.191714 5.65912 0.224609 5.58453L2.29883 0.74762L2.36719 0.615784C2.54743 0.323867 2.86777 0.141178 3.21777 0.141174H17.0654L17.2139 0.151917ZM2.52539 6.98785C2.31289 6.98785 2.14062 7.16012 2.14062 7.37262C2.14066 7.84182 2.32743 8.29179 2.65918 8.6236C2.99101 8.9554 3.44088 9.14215 3.91016 9.14215H4.29785C4.76713 9.14215 5.21699 8.95539 5.54883 8.6236C5.74574 8.42665 5.89096 8.18778 5.97656 7.92828C6.02999 7.76618 6.02817 7.59309 6.02539 7.42242C6.02512 7.4059 6.02539 7.38916 6.02539 7.37262C6.02539 7.16012 5.85313 6.98785 5.64062 6.98785H2.52539ZM8.45215 6.98785C8.23965 6.98785 8.06738 7.16012 8.06738 7.37262C8.06738 7.38923 8.0677 7.40584 8.06738 7.42242C8.06414 7.59308 8.06165 7.76622 8.11523 7.92828C8.20109 8.18787 8.34694 8.42656 8.54395 8.6236C8.87578 8.9554 9.32564 9.14215 9.79492 9.14215H10.4873C10.9566 9.14215 11.4064 8.9554 11.7383 8.6236C12.07 8.2918 12.2568 7.84183 12.2568 7.37262C12.2568 7.16012 12.0846 6.98785 11.8721 6.98785H8.45215ZM14.6426 6.98785C14.4301 6.98785 14.2578 7.16012 14.2578 7.37262C14.2578 7.84183 14.4446 8.2918 14.7764 8.6236C15.1083 8.95544 15.5581 9.14215 16.0273 9.14215H16.374C16.8431 9.14203 17.2932 8.95534 17.625 8.6236C17.9566 8.29183 18.1435 7.84174 18.1436 7.37262C18.1436 7.16012 17.9713 6.98785 17.7588 6.98785H14.6426Z" fill="#E8E8E8"/>
</svg>
