<svg width="20" height="20" viewBox="0 0 20 20" fill="none" xmlns="http://www.w3.org/2000/svg">
<path d="M2.38477 12.0769V18.3077C2.38477 18.4913 2.45771 18.6674 2.58754 18.7973C2.71736 18.927 2.89346 19 3.07707 19H16.9232C17.1068 19 17.2829 18.927 17.4128 18.7973C17.5426 18.6674 17.6155 18.4913 17.6155 18.3077V12.0769" stroke="#1A72FF" stroke-width="2" stroke-linecap="round" stroke-linejoin="round"/>
<path d="M11.3848 12.0769V19" stroke="#1A72FF" stroke-width="2" stroke-linecap="round" stroke-linejoin="round"/>
<path d="M2.38477 14.1538H11.3848" stroke="#1A72FF" stroke-width="2" stroke-linecap="round" stroke-linejoin="round"/>
<path d="M1 5.84615L3.07692 1H16.9231L19 5.84615H1Z" stroke="#1A72FF" stroke-width="2" stroke-linecap="round" stroke-linejoin="round"/>
<path d="M6.92615 5.84619V7.23081C6.92615 7.96525 6.6344 8.66962 6.11506 9.18894C5.59573 9.70829 4.89136 10 4.15692 10H3.76923C3.03479 10 2.33042 9.70829 1.81109 9.18894C1.29176 8.66962 1 7.96525 1 7.23081V5.84619" stroke="#1A72FF" stroke-width="2" stroke-linecap="round" stroke-linejoin="round"/>
<path d="M13.1155 5.84619V7.23081C13.1155 7.96525 12.8238 8.66962 12.3044 9.18894C11.7851 9.70829 11.0807 10 10.3463 10H9.654C8.91955 10 8.21519 9.70829 7.69586 9.18894C7.17652 8.66962 6.88477 7.96525 6.88477 7.23081V5.84619" stroke="#1A72FF" stroke-width="2" stroke-linecap="round" stroke-linejoin="round"/>
<path d="M18.9998 5.84619V7.23081C18.9998 7.96525 18.7081 8.66962 18.1887 9.18894C17.6694 9.70829 16.965 10 16.2306 10H15.8845C15.1501 10 14.4457 9.70829 13.9263 9.18894C13.407 8.66962 13.1152 7.96525 13.1152 7.23081V5.84619" stroke="#1A72FF" stroke-width="2" stroke-linecap="round" stroke-linejoin="round"/>
</svg>
