<svg width="25" height="24" viewBox="0 0 25 24" fill="none" xmlns="http://www.w3.org/2000/svg">
<path d="M21.4463 13.4902C21.9984 13.4904 22.4463 13.9381 22.4463 14.4902V22.0781C22.4463 22.5702 22.249 23.0401 21.9014 23.3848L21.9004 23.3857C21.5526 23.7295 21.0824 23.9218 20.5947 23.9219H3.55566C3.06824 23.9217 2.59871 23.7294 2.25098 23.3857L2.25 23.3848L2.12695 23.249C1.85608 22.9214 1.70411 22.5085 1.7041 22.0781V14.4902C1.7041 13.938 2.15193 13.4904 2.7041 13.4902C3.25625 13.4904 3.7041 13.9381 3.7041 14.4902C3.7041 15.3348 4.3889 16.0194 5.2334 16.0195H11.25C12.0946 16.0195 12.7793 15.3348 12.7793 14.4902C12.7793 13.938 13.2271 13.4904 13.7793 13.4902C14.3314 13.4905 14.7793 13.9381 14.7793 14.4902V19.9219C14.7793 21.0264 15.6748 21.9217 16.7793 21.9219H18.4463C19.5509 21.9219 20.4463 21.0264 20.4463 19.9219V14.4902C20.4463 13.9381 20.8942 13.4905 21.4463 13.4902ZM20.7422 0.0107422C21.0801 0.0611372 21.373 0.282874 21.5117 0.602539L24.0654 6.50195C24.1129 6.61029 24.1413 6.72821 24.1475 6.85254C24.1479 6.86036 24.1482 6.86816 24.1484 6.87598C24.1487 6.88475 24.1504 6.89351 24.1504 6.90234V8.58887C24.1503 9.75171 23.6831 10.8645 22.8555 11.6836C22.0282 12.5022 20.9086 12.9608 19.7432 12.9609H19.3174C18.1519 12.9609 17.0315 12.5023 16.2041 11.6836C16.0426 11.5239 15.7756 11.5238 15.6143 11.6836C14.7869 12.5023 13.6665 12.9609 12.501 12.9609H11.6494C10.4839 12.9608 9.36344 12.5024 8.53613 11.6836C8.38851 11.5376 8.14561 11.5375 7.99805 11.6836C7.17067 12.5023 6.05033 12.9609 4.88477 12.9609H4.4082C3.2427 12.9608 2.12221 12.5023 1.29492 11.6836C0.467453 10.8645 7.67835e-05 9.75162 0 8.58887V6.90234C2.92083e-07 6.89353 0.000749094 6.88474 0.000976562 6.87598C0.00119347 6.86751 0.00152128 6.85905 0.00195312 6.85059C0.00350142 6.82025 0.00654946 6.7903 0.0107422 6.76074C0.012405 6.74905 0.0135462 6.73723 0.015625 6.72559C0.0289511 6.65087 0.0501683 6.57872 0.0791016 6.51074C0.0799404 6.50877 0.0811687 6.50685 0.0820312 6.50488L2.6377 0.602539L2.70703 0.47168C2.88756 0.181603 3.20717 0.000192526 3.55566 0H20.5947L20.7422 0.0107422ZM2.6875 7.90137C2.30792 7.9015 2 8.20925 2 8.58887C2.00008 9.21446 2.25103 9.81706 2.70117 10.2627C3.15182 10.7087 3.76645 10.9608 4.4082 10.9609H4.88477C5.52649 10.9609 6.14011 10.7086 6.59082 10.2627C6.88668 9.9699 7.09534 9.60912 7.2041 9.21875C7.24939 9.05616 7.24858 8.88549 7.24316 8.7168C7.2418 8.67423 7.24121 8.63158 7.24121 8.58887C7.24121 8.20917 6.93341 7.90137 6.55371 7.90137H2.6875ZM9.98047 7.90137C9.60089 7.9015 9.29297 8.20925 9.29297 8.58887C9.29297 8.63159 9.29239 8.67423 9.29102 8.7168C9.28557 8.88478 9.28524 9.05482 9.33008 9.2168C9.43833 9.60786 9.64616 9.96945 9.94238 10.2627C10.393 10.7087 11.0076 10.9608 11.6494 10.9609H12.501C13.1427 10.9609 13.7563 10.7086 14.207 10.2627C14.6574 9.81703 14.9081 9.21461 14.9082 8.58887C14.9082 8.20917 14.6004 7.90137 14.2207 7.90137H9.98047ZM17.5967 7.90137C17.2171 7.9015 16.9092 8.20925 16.9092 8.58887C16.9093 9.21452 17.1601 9.81705 17.6104 10.2627C18.0611 10.7088 18.6757 10.9609 19.3174 10.9609H19.7432C20.3848 10.9608 20.9985 10.7086 21.4492 10.2627C21.8995 9.81705 22.1503 9.21458 22.1504 8.58887C22.1504 8.20917 21.8426 7.90137 21.4629 7.90137H17.5967Z" fill="#707070"/>
</svg>
