<svg width="20" height="20" viewBox="0 0 20 20" fill="none" xmlns="http://www.w3.org/2000/svg">
<path d="M2.03547 6.09374C0.863114 6.40832 0 7.47836 0 8.75V11.75C0 13.2688 1.23122 14.5 2.75 14.5H5.25C5.66421 14.5 6 14.1642 6 13.75V6.75C6 6.33579 5.66421 6 5.25 6H3.56483C3.99399 3.53002 6.50862 1.5 9.75 1.5C12.9914 1.5 15.506 3.53002 15.9352 6H14.25C13.8358 6 13.5 6.33579 13.5 6.75V13.75C13.5 14.1642 13.8358 14.5 14.25 14.5H15.913C15.5744 15.9334 14.2868 17 12.75 17H11.6046C11.3079 16.267 10.5893 15.75 9.75 15.75C8.64543 15.75 7.75 16.6454 7.75 17.75C7.75 18.8546 8.64543 19.75 9.75 19.75C10.5893 19.75 11.3079 19.233 11.6046 18.5H12.75C15.1498 18.5 17.1339 16.7204 17.4547 14.4089C18.632 14.0977 19.5 13.0252 19.5 11.75V8.75C19.5 7.47836 18.6369 6.40832 17.4645 6.09375C17.0831 2.58959 13.6762 0 9.75 0C5.8238 0 2.41693 2.58959 2.03547 6.09374Z" fill="#E8E8E8"/>
</svg>
