<svg width="20" height="20" viewBox="0 0 20 20" fill="none" xmlns="http://www.w3.org/2000/svg">
<path d="M14.1971 0H5.8129C2.17108 0 0 2.17 0 5.81V14.18C0 17.83 2.17108 20 5.8129 20H14.1871C17.8289 20 20 17.83 20 14.19V5.81C20.01 2.17 17.8389 0 14.1971 0ZM15.0075 15.25H5.00249C4.59229 15.25 4.25212 14.91 4.25212 14.5C4.25212 14.09 4.59229 13.75 5.00249 13.75H15.0075C15.4177 13.75 15.7579 14.09 15.7579 14.5C15.7579 14.91 15.4177 15.25 15.0075 15.25ZM15.0075 10.75H5.00249C4.59229 10.75 4.25212 10.41 4.25212 10C4.25212 9.59 4.59229 9.25 5.00249 9.25H15.0075C15.4177 9.25 15.7579 9.59 15.7579 10C15.7579 10.41 15.4177 10.75 15.0075 10.75ZM15.0075 6.25H5.00249C4.59229 6.25 4.25212 5.91 4.25212 5.5C4.25212 5.09 4.59229 4.75 5.00249 4.75H15.0075C15.4177 4.75 15.7579 5.09 15.7579 5.5C15.7579 5.91 15.4177 6.25 15.0075 6.25Z" fill="#52E063"/>
</svg>
