<svg width="21" height="18" viewBox="0 0 21 18" fill="none" xmlns="http://www.w3.org/2000/svg">
<path d="M20.6958 6.80856L18.1758 1.79063C17.6823 0.801619 16.3698 0 15.2568 0H5.74366C4.63065 0 3.31814 0.801619 2.82463 1.79063L0.3046 6.80856C-0.304406 8.01619 0.0315995 9.73395 1.02911 10.6397L8.30569 17.188C9.5132 18.2707 11.4767 18.2707 12.6842 17.188L19.9608 10.6397C20.9688 9.73395 21.3048 8.00578 20.6958 6.80856ZM14.7002 6.13187H11.2877V11.5975C11.2877 12.0243 10.9307 12.3783 10.5002 12.3783C10.0697 12.3783 9.7127 12.0243 9.7127 11.5975V6.13187H6.30016C5.86966 6.13187 5.51266 5.77791 5.51266 5.35107C5.51266 4.92423 5.86966 4.57027 6.30016 4.57027H14.7002C15.1308 4.57027 15.4878 4.92423 15.4878 5.35107C15.4878 5.77791 15.1308 6.13187 14.7002 6.13187Z" fill="#59BFFF"/>
</svg>
