<svg width="20" height="19" viewBox="0 0 20 19" fill="none" xmlns="http://www.w3.org/2000/svg">
<path d="M19.7101 7.49508L17.3101 2.67508C16.8401 1.72508 15.5901 0.955078 14.5301 0.955078H5.4701C4.4101 0.955078 3.1601 1.72508 2.6901 2.67508L0.290092 7.49508C-0.289908 8.65508 0.0300944 10.3051 0.980094 11.1751L7.9101 17.4651C9.0601 18.5051 10.9301 18.5051 12.0801 17.4651L19.0101 11.1751C19.9701 10.3051 20.2901 8.64508 19.7101 7.49508ZM14.0001 6.84508H10.7501V12.0951C10.7501 12.5051 10.4101 12.8451 10.0001 12.8451C9.5901 12.8451 9.2501 12.5051 9.2501 12.0951V6.84508H6.0001C5.5901 6.84508 5.2501 6.50508 5.2501 6.09508C5.2501 5.68508 5.5901 5.34508 6.0001 5.34508H14.0001C14.4101 5.34508 14.7501 5.68508 14.7501 6.09508C14.7501 6.50508 14.4101 6.84508 14.0001 6.84508Z" fill="#E8E8E8"/>
</svg>
