<svg width="20" height="20" viewBox="0 0 20 20" fill="none" xmlns="http://www.w3.org/2000/svg">
<path d="M14.8799 12.9395C15.4999 11.6895 16.5001 11.6895 17.1201 12.9395L17.4395 13.5898C17.5995 13.9097 18.0097 14.2094 18.3496 14.2695L18.7803 14.3398C20.0898 14.56 20.3896 15.5192 19.46 16.459L19.0596 16.8594C18.7897 17.1294 18.6495 17.6494 18.7295 18.0293L18.7803 18.2695C19.1401 19.8492 18.2996 20.4588 16.9297 19.6289L16.6396 19.4492C16.2897 19.2394 15.7103 19.2394 15.3604 19.4492L15.0703 19.6289C13.6904 20.4588 12.8599 19.8492 13.2197 18.2695L13.2695 18.0293C13.3495 17.6593 13.2095 17.1294 12.9395 16.8594L12.54 16.459C11.6102 15.5091 11.91 14.5599 13.2197 14.3398L13.6504 14.2695C14.0001 14.2094 14.3995 13.9095 14.5596 13.5898L14.8799 12.9395ZM14.1904 0C17.8301 0.000170547 19.9999 2.16998 20 5.80957V12.3594C20 12.7293 19.6 13.0098 19.25 12.9199C19.1601 12.9 19.0703 12.8793 18.9805 12.8594C18.8205 12.8294 18.6804 12.7291 18.6104 12.5791L18.46 12.2695C17.91 11.1496 17.01 10.5 16 10.5C14.99 10.5 14.09 11.1496 13.54 12.2695L13.2695 12.8096L12.9697 12.8594C11.78 13.0594 10.9204 13.7195 10.6104 14.6592C10.3104 15.6091 10.6197 16.6498 11.4697 17.5098L11.6904 17.7295C11.7502 17.7895 11.77 17.8696 11.75 17.9395C11.63 18.4593 11.6104 18.9091 11.6504 19.2891C11.6904 19.639 11.4398 19.999 11.0898 19.999H5.80957C2.16983 19.9989 0 17.8292 0 14.1895V5.80957C8.5968e-05 2.16998 2.1699 0.000170736 5.80957 0H14.1904ZM14.1201 5.91992C13.7902 5.65997 13.3203 5.71993 13.0703 6.0498L10.7598 9.0293C10.6998 9.10929 10.6298 9.12988 10.5898 9.12988C10.54 9.1299 10.4702 9.13961 10.4004 9.08008L8.57031 7.63965C8.20031 7.34966 7.73953 7.2193 7.26953 7.2793C6.7997 7.33938 6.38953 7.58032 6.09961 7.9502L3.71973 11.04C3.47009 11.37 3.53049 11.84 3.86035 12.0898C4.00027 12.1996 4.16045 12.25 4.32031 12.25C4.55008 12.2499 4.76999 12.1497 4.91992 11.96L7.2998 8.87012C7.35967 8.7903 7.42968 8.76962 7.46973 8.76953C7.50971 8.75954 7.59017 8.75941 7.66016 8.81934L9.49023 10.2393C9.85023 10.5292 10.3203 10.6596 10.7803 10.5996C11.2502 10.5495 11.6603 10.3094 11.9502 9.93945L14.2598 6.95996C14.5097 6.64002 14.46 6.16994 14.1201 5.91992Z" fill="#E8E8E8"/>
</svg>
