<svg width="18" height="22" viewBox="0 0 18 22" fill="none" xmlns="http://www.w3.org/2000/svg">
<path fill-rule="evenodd" clip-rule="evenodd" d="M9 21.375C13.9706 21.375 18 17.3456 18 12.375C18 7.40444 13.9706 3.375 9 3.375C4.02944 3.375 0 7.40444 0 12.375C0 17.3456 4.02944 21.375 9 21.375ZM9 7.625C9.41421 7.625 9.75 7.96079 9.75 8.375V12.375C9.75 12.7892 9.41421 13.125 9 13.125C8.58579 13.125 8.25 12.7892 8.25 12.375V8.375C8.25 7.96079 8.58579 7.625 9 7.625Z" fill="#E8E8E8"/>
<path fill-rule="evenodd" clip-rule="evenodd" d="M6.25 1.375C6.25 0.960786 6.58579 0.625 7 0.625H11C11.4142 0.625 11.75 0.960786 11.75 1.375C11.75 1.78921 11.4142 2.125 11 2.125H7C6.58579 2.125 6.25 1.78921 6.25 1.375Z" fill="#E8E8E8"/>
</svg>
