<svg width="21" height="21" viewBox="0 0 21 21" fill="none" xmlns="http://www.w3.org/2000/svg">
<path d="M8.7535 15.5495L11.7713 18.5534C11.9565 18.7431 12.188 18.8813 12.4429 18.9541C12.6979 19.027 12.9674 19.032 13.2249 18.9687C13.4839 18.9084 13.7232 18.7826 13.9195 18.6032C14.1159 18.4237 14.2628 18.1969 14.3462 17.9443L19.302 3.09053C19.4055 2.81222 19.4268 2.51007 19.3635 2.21998C19.3002 1.92987 19.155 1.66406 18.9451 1.45411C18.7351 1.24416 18.4693 1.09891 18.1792 1.03563C17.8891 0.972343 17.5869 0.993683 17.3087 1.09711L2.45484 6.05298C2.19355 6.14223 1.96083 6.29964 1.78074 6.50894C1.60065 6.71823 1.47971 6.97183 1.43044 7.2435C1.37958 7.49059 1.3909 7.74644 1.46339 7.98808C1.53588 8.2297 1.66726 8.44954 1.84574 8.62782L5.63878 12.4209L5.51419 17.2245L8.7535 15.5495Z" stroke="#1A72FF" stroke-width="2" stroke-linecap="round" stroke-linejoin="round"/>
<path d="M18.8588 1.40198L5.63843 12.4212" stroke="#1A72FF" stroke-width="2" stroke-linecap="round" stroke-linejoin="round"/>
</svg>
