<svg width="20" height="20" viewBox="0 0 20 20" fill="none" xmlns="http://www.w3.org/2000/svg">
<path fill-rule="evenodd" clip-rule="evenodd" d="M1.46447 1.46447C0 2.92893 0 5.28595 0 10C0 14.714 0 17.0711 1.46447 18.5355C2.92893 20 5.28595 20 10 20C14.714 20 17.0711 20 18.5355 18.5355C20 17.0711 20 14.714 20 10C20 5.28595 20 2.92893 18.5355 1.46447C17.0711 0 14.714 0 10 0C5.28595 0 2.92893 0 1.46447 1.46447ZM11.75 8C11.75 8.41421 12.0858 8.75 12.5 8.75H13.1893L11.1768 10.7626C11.0791 10.8602 10.9209 10.8602 10.8232 10.7626L9.23744 9.17678C8.55402 8.49336 7.44598 8.49336 6.76256 9.17678L4.46967 11.4697C4.17678 11.7626 4.17678 12.2374 4.46967 12.5303C4.76256 12.8232 5.23744 12.8232 5.53033 12.5303L7.82322 10.2374C7.92085 10.1398 8.07915 10.1398 8.17678 10.2374L9.76256 11.8232C10.446 12.5066 11.554 12.5066 12.2374 11.8232L14.25 9.81066V10.5C14.25 10.9142 14.5858 11.25 15 11.25C15.4142 11.25 15.75 10.9142 15.75 10.5V8C15.75 7.58579 15.4142 7.25 15 7.25H12.5C12.0858 7.25 11.75 7.58579 11.75 8Z" fill="#1C1C1C"/>
</svg>
