<svg width="23" height="27" viewBox="0 0 23 27" fill="none" xmlns="http://www.w3.org/2000/svg">
<path d="M14.125 10.7222V20.4444M8.875 10.7222V20.4444M3.625 5.16667V21.5556C3.625 23.1113 3.625 23.8886 3.91111 24.4828C4.16278 25.0054 4.56406 25.4312 5.05798 25.6975C5.61895 26 6.35368 26 7.82094 26H15.1791C16.6463 26 17.38 26 17.941 25.6975C18.4349 25.4312 18.8375 25.0054 19.0892 24.4828C19.375 23.8891 19.375 23.1125 19.375 21.5598V5.16667M3.625 5.16667H6.25M3.625 5.16667H1M6.25 5.16667H16.75M6.25 5.16667C6.25 3.87238 6.25 3.22556 6.44982 2.71509C6.71624 2.03445 7.22692 1.49337 7.87012 1.21145C8.35252 1 8.9644 1 10.1875 1H12.8125C14.0356 1 14.6471 1 15.1295 1.21145C15.7727 1.49337 16.2836 2.03445 16.55 2.71509C16.7499 3.22556 16.75 3.87239 16.75 5.16667M16.75 5.16667H19.375M19.375 5.16667H22" stroke="#FF8077" stroke-width="2" stroke-linecap="round" stroke-linejoin="round"/>
</svg>
