<svg width="16" height="18" viewBox="0 0 16 18" fill="none" xmlns="http://www.w3.org/2000/svg">
<path d="M9.52708 7.47336V13.4775M6.17074 7.47336V13.4775M2.8144 4.04243V14.1637C2.8144 15.1244 2.8144 15.6044 2.99731 15.9714C3.1582 16.2942 3.41474 16.5571 3.73051 16.7216C4.08914 16.9084 4.55885 16.9084 5.49688 16.9084H10.2009C11.139 16.9084 11.608 16.9084 11.9666 16.7216C12.2824 16.5571 12.5398 16.2942 12.7007 15.9714C12.8834 15.6048 12.8834 15.1252 12.8834 14.1663V4.04243M2.8144 4.04243H4.49257M2.8144 4.04243H1.13623M4.49257 4.04243H11.2052M4.49257 4.04243C4.49257 3.24313 4.49257 2.84367 4.62031 2.52842C4.79064 2.10808 5.11712 1.77393 5.52831 1.59982C5.83671 1.46924 6.22789 1.46924 7.00982 1.46924H8.68799C9.46992 1.46924 9.86089 1.46924 10.1693 1.59982C10.5805 1.77393 10.9071 2.10808 11.0774 2.52842C11.2052 2.84367 11.2052 3.24313 11.2052 4.04243M11.2052 4.04243H12.8834M12.8834 4.04243H14.5616" stroke="#FF8077" stroke-linecap="round" stroke-linejoin="round"/>
</svg>
