<svg width="15" height="16" viewBox="0 0 15 16" fill="none" xmlns="http://www.w3.org/2000/svg">
<path d="M12.751 5.35742C12.9105 5.35742 13.0555 5.42732 13.1699 5.54492C13.2765 5.67048 13.33 5.82647 13.3145 5.99121C13.3145 6.04561 12.8881 11.4373 12.6445 13.707C12.492 15.0998 11.5939 15.9455 10.2471 15.9688C9.21168 15.9919 8.19963 16 7.20312 16C6.14499 16 5.10992 15.992 4.10547 15.9688C2.8039 15.9375 1.90545 15.0766 1.76074 13.707C1.51021 11.4293 1.09176 6.04561 1.08398 5.99121C1.07624 5.82646 1.12899 5.67049 1.23633 5.54492C1.34214 5.42737 1.49503 5.35742 1.65527 5.35742H12.751ZM8.85156 0C9.55873 0 10.1911 0.493383 10.374 1.19727L10.5039 1.78125C10.6097 2.25723 11.0225 2.5947 11.4971 2.59473H13.8301C14.1411 2.59494 14.4004 2.85298 14.4004 3.18164V3.48535C14.4004 3.80602 14.1411 4.07302 13.8301 4.07324H0.571289C0.259294 4.07324 0 3.80615 0 3.48535V3.18164C0 2.85284 0.259294 2.59473 0.571289 2.59473H2.90332C3.37715 2.59473 3.78989 2.25742 3.89648 1.78223L4.01855 1.23633C4.20849 0.493498 4.83312 0.000168159 5.54785 0H8.85156Z" fill="#FF8077"/>
</svg>
