<svg width="16" height="18" viewBox="0 0 16 18" fill="none" xmlns="http://www.w3.org/2000/svg">
<path d="M9.52659 7.47336V13.4775M6.17025 7.47336V13.4775M2.81391 4.04243V14.1637C2.81391 15.1244 2.81391 15.6044 2.99682 15.9714C3.15771 16.2942 3.41425 16.5571 3.73002 16.7216C4.08865 16.9084 4.55836 16.9084 5.49639 16.9084H10.2005C11.1385 16.9084 11.6075 16.9084 11.9661 16.7216C12.2819 16.5571 12.5393 16.2942 12.7002 15.9714C12.8829 15.6048 12.8829 15.1252 12.8829 14.1663V4.04243M2.81391 4.04243H4.49208M2.81391 4.04243H1.13574M4.49208 4.04243H11.2048M4.49208 4.04243C4.49208 3.24313 4.49208 2.84367 4.61982 2.52842C4.79015 2.10808 5.11663 1.77393 5.52783 1.59982C5.83623 1.46924 6.22741 1.46924 7.00934 1.46924H8.6875C9.46943 1.46924 9.8604 1.46924 10.1688 1.59982C10.58 1.77393 10.9066 2.10808 11.0769 2.52842C11.2047 2.84367 11.2048 3.24313 11.2048 4.04243M11.2048 4.04243H12.8829M12.8829 4.04243H14.5611" stroke="#FF8077" stroke-linecap="round" stroke-linejoin="round"/>
</svg>
