<svg width="14" height="16" viewBox="0 0 14 16" fill="none" xmlns="http://www.w3.org/2000/svg">
<path d="M12.3965 5.35742C12.5515 5.35742 12.6925 5.42733 12.8037 5.54492C12.9073 5.67048 12.9594 5.82647 12.9443 5.99121C12.9443 6.04561 12.5297 11.4373 12.293 13.707C12.1447 15.0997 11.2721 15.9454 9.96289 15.9688C8.95617 15.9919 7.97183 16 7.00293 16C5.97421 16 4.96774 15.992 3.99121 15.9688C2.72589 15.9374 1.8526 15.0765 1.71191 13.707C1.46835 11.4293 1.06127 6.04561 1.05371 5.99121C1.04619 5.82647 1.0978 5.67048 1.20215 5.54492C1.30493 5.42754 1.45281 5.35754 1.6084 5.35742H12.3965ZM8.60547 0C9.29293 0 9.90709 0.493465 10.085 1.19727L10.2119 1.78125C10.3148 2.25725 10.7163 2.59473 11.1777 2.59473H13.4453C13.7478 2.59481 14 2.85289 14 3.18164V3.48535C14 3.8061 13.7478 4.07316 13.4453 4.07324H0.555664C0.252344 4.07324 0 3.80615 0 3.48535V3.18164C0 2.85284 0.252344 2.59473 0.555664 2.59473H2.82324C3.28376 2.59457 3.68448 2.25731 3.78809 1.78223L3.90723 1.23633C4.09191 0.493568 4.69874 0.000188765 5.39355 0H8.60547Z" fill="#E8E8E8"/>
</svg>
