<svg width="15" height="12" viewBox="0 0 15 12" fill="none" xmlns="http://www.w3.org/2000/svg">
<path d="M8.60938 0.507812C9.20453 0.568113 9.69502 0.976818 9.87793 1.52637H11.3027C11.876 1.52637 12.3998 1.85311 12.6514 2.36816L14.0439 5.21875C14.0772 5.28702 14.0938 5.36251 14.0938 5.43848V5.71387C14.094 5.72004 14.0957 5.72619 14.0957 5.73242C14.0957 5.73832 14.094 5.74415 14.0938 5.75V8.43945C14.0935 9.26771 13.4221 9.93945 12.5938 9.93945H12.4053C12.2682 10.8517 11.4835 11.5515 10.5332 11.5518C9.64854 11.5518 8.90669 10.9454 8.69727 10.126H6.03027C5.82097 10.9451 5.08057 11.5514 4.19629 11.5518C3.31164 11.5518 2.56978 10.9454 2.36035 10.126H2C1.17169 10.126 0.500176 9.45427 0.5 8.62598V2C0.5 1.17157 1.17158 0.5 2 0.5H8.45605L8.60938 0.507812ZM4.19629 8.75977C3.70144 8.75977 3.2998 9.1614 3.2998 9.65625C3.30007 10.1509 3.7016 10.5518 4.19629 10.5518C4.69064 10.5514 5.09154 10.1506 5.0918 9.65625C5.0918 9.16165 4.6908 8.76016 4.19629 8.75977ZM10.5332 8.75977C10.2784 8.75977 10.048 8.8662 9.88477 9.03711C9.85905 9.08078 9.82734 9.11946 9.79004 9.15332C9.69278 9.29668 9.63672 9.47009 9.63672 9.65625C9.63698 10.1509 10.0385 10.5518 10.5332 10.5518C11.0276 10.5514 11.4284 10.1507 11.4287 9.65625C11.4287 9.1616 11.0278 8.76009 10.5332 8.75977ZM9.95605 5.23242H12.9365L11.7529 2.80664C11.6691 2.63502 11.4939 2.52637 11.3027 2.52637H9.95605V5.23242Z" fill="#A3A3A3"/>
</svg>
