<svg width="16" height="20" viewBox="0 0 16 20" fill="none" xmlns="http://www.w3.org/2000/svg">
<path fill-rule="evenodd" clip-rule="evenodd" d="M6.53257 1.81144C6.28508 1.8475 6.04268 1.91246 5.81032 2.00497C4.4271 2.55569 3.60649 3.98768 3.83066 5.45953L3.8617 5.66334C3.90016 5.91587 3.96648 6.16337 4.05944 6.4013L4.97433 8.74303C7.16351 8.59416 9.36094 8.60705 11.5487 8.78171L13.0448 8.90115C14.0129 8.97843 14.8034 9.70616 14.9604 10.6646C15.322 12.8735 15.322 15.1265 14.9604 17.3354C14.8034 18.2938 14.0129 19.0215 13.0448 19.0988L11.5487 19.2183C9.18655 19.4068 6.81313 19.4068 4.45099 19.2183L2.95486 19.0988C1.98677 19.0215 1.19627 18.2938 1.03933 17.3354C0.677644 15.1265 0.677644 12.8735 1.03933 10.6646C1.19627 9.70616 1.98677 8.97843 2.95486 8.90115L3.41145 8.8647L2.66228 6.94716C2.52902 6.60605 2.43394 6.25123 2.3788 5.88919L2.34776 5.68538C2.01851 3.52354 3.22381 1.42026 5.25546 0.611365C5.59675 0.475483 5.95279 0.380083 6.31629 0.327118C8.4802 0.0118163 10.5757 1.23066 11.3714 3.26749L11.4465 3.45951C11.5797 3.80062 11.6748 4.15544 11.7299 4.51749L11.8713 5.4455C11.9129 5.71849 11.7253 5.9735 11.4523 6.01508L10.958 6.09037C10.685 6.13194 10.43 5.94434 10.3884 5.67135L10.247 4.74334C10.2086 4.4908 10.1423 4.2433 10.0493 4.00537L9.97428 3.81335C9.4325 2.42661 8.00583 1.59678 6.53257 1.81144ZM7.99982 12.5C7.17139 12.5 6.49982 13.1716 6.49982 14C6.49982 14.8284 7.17139 15.5 7.99982 15.5C8.82824 15.5 9.49982 14.8284 9.49982 14C9.49982 13.1716 8.82824 12.5 7.99982 12.5Z" fill="#00D79A"/>
</svg>
