<svg width="21" height="20" viewBox="0 0 21 20" fill="none" xmlns="http://www.w3.org/2000/svg">
<path d="M14.8398 0C18.2288 0 20.5 2.37997 20.5 5.91992V14.0898C20.5 17.6198 18.2288 20 14.8398 20H6.16992C2.77996 20 0.5 17.6198 0.5 14.0898V5.91992C0.500034 2.37999 2.77999 3.66011e-05 6.16992 0H14.8398ZM11.0303 5.37988C10.7503 5.09988 10.2497 5.09988 9.96973 5.37988L6.21973 9.15039C5.93011 9.44037 5.92999 9.92006 6.21973 10.21C6.51973 10.5 6.99004 10.5 7.29004 10.21L9.75 7.73047V14.0801C9.75004 14.5 10.09 14.8301 10.5 14.8301C10.92 14.8301 11.25 14.5 11.25 14.0801V7.73047L13.7197 10.21C13.8597 10.35 14.06 10.4297 14.25 10.4297C14.439 10.4297 14.6303 10.35 14.7803 10.21C15.07 9.92006 15.0699 9.44037 14.7803 9.15039L11.0303 5.37988Z" fill="#E8E8E8"/>
</svg>
