<svg width="20" height="18" viewBox="0 0 20 18" fill="none" xmlns="http://www.w3.org/2000/svg">
<path d="M10.3584 12.7971V6.88388M10.3584 6.88388L7.39486 8.85494M10.3584 6.88388L13.3219 8.85494M1.46777 2.94176V13.5855C1.46777 14.6894 1.46777 15.241 1.68311 15.6626C1.87253 16.0335 2.17455 16.3356 2.5463 16.5246C2.96851 16.7392 3.5215 16.7392 4.62583 16.7392H16.091C17.1953 16.7392 17.7475 16.7392 18.1697 16.5246C18.5415 16.3356 18.8445 16.0337 19.0339 15.6628C19.2493 15.2411 19.2493 14.6892 19.2493 13.5853L19.2493 6.09524C19.2493 4.99134 19.2493 4.43939 19.0339 4.01776C18.8445 3.64688 18.5417 3.34557 18.1699 3.1566C17.7473 2.94176 17.1944 2.94176 16.0879 2.94176H10.3584M1.46777 2.94176H10.3584M1.46777 2.94176C1.46777 1.85318 2.35232 0.970703 3.44347 0.970703H7.07333C7.55657 0.970703 7.79876 0.970703 8.02614 1.02516C8.22773 1.07345 8.4201 1.15329 8.59687 1.26136C8.79619 1.38321 8.96733 1.55395 9.30882 1.89464L10.3584 2.94176" stroke="#E8E8E8" stroke-linecap="round" stroke-linejoin="round"/>
</svg>
