<svg width="20" height="24" viewBox="0 0 20 24" fill="none" xmlns="http://www.w3.org/2000/svg">
<path d="M6.35708 15.6667L8.78561 18.1111L13.6427 13.2222M11.2142 1.00106C11.0982 1 10.968 1 10.8192 1H5.3859C4.02579 1 3.34523 1 2.82573 1.26643C2.36878 1.50079 1.99753 1.87447 1.76469 2.33442C1.5 2.85731 1.5 3.54233 1.5 4.91135V19.0891C1.5 20.4581 1.5 21.1423 1.76469 21.6652C1.99753 22.1251 2.36878 22.4995 2.82573 22.7338C3.34472 23 4.02447 23 5.38195 23L14.6179 23C15.9753 23 16.6541 23 17.173 22.7338C17.63 22.4995 18.0025 22.1251 18.2353 21.6652C18.4998 21.1428 18.4998 20.4596 18.4998 19.0933V8.73139C18.4998 8.5814 18.4997 8.45019 18.4986 8.33333M11.2142 1.00106C11.561 1.00424 11.7804 1.01692 11.9899 1.06754C12.2377 1.12742 12.4744 1.22643 12.6917 1.36046C12.9367 1.51158 13.147 1.72333 13.5668 2.14583L17.362 5.96587C17.782 6.38864 17.9908 6.59944 18.141 6.84612C18.2742 7.06483 18.3727 7.30331 18.4322 7.55273C18.4824 7.76348 18.4953 7.9844 18.4986 8.33333M11.2142 1.00106V4.42222C11.2142 5.79124 11.2142 6.47527 11.4788 6.99817C11.7117 7.45812 12.0829 7.83281 12.5399 8.06717C13.0589 8.33333 13.7386 8.33333 15.0961 8.33333H18.4986M18.4986 8.33333H18.5" stroke="#E8E8E8" stroke-width="2" stroke-linecap="round" stroke-linejoin="round"/>
</svg>
