<svg width="19" height="24" viewBox="0 0 19 24" fill="none" xmlns="http://www.w3.org/2000/svg">
<path d="M9.49988 19.3333V15.6667M9.49988 15.6667V12M9.49988 15.6667H5.85708M9.49988 15.6667H13.1427M10.7142 1.00106C10.5982 1 10.468 1 10.3192 1H4.8859C3.52579 1 2.84523 1 2.32573 1.26643C1.86878 1.50079 1.49753 1.87447 1.26469 2.33442C1 2.85731 1 3.54233 1 4.91135V19.0891C1 20.4581 1 21.1423 1.26469 21.6652C1.49753 22.1251 1.86878 22.4995 2.32573 22.7338C2.84472 23 3.52447 23 4.88195 23L14.1179 23C15.4753 23 16.1541 23 16.673 22.7338C17.13 22.4995 17.5025 22.1251 17.7353 21.6652C17.9998 21.1428 17.9998 20.4596 17.9998 19.0933V8.73139C17.9998 8.5814 17.9997 8.45019 17.9986 8.33333M10.7142 1.00106C11.061 1.00424 11.2804 1.01692 11.4899 1.06754C11.7377 1.12742 11.9744 1.22643 12.1917 1.36046C12.4367 1.51158 12.647 1.72333 13.0668 2.14583L16.862 5.96587C17.282 6.38864 17.4908 6.59944 17.641 6.84612C17.7742 7.06483 17.8727 7.30331 17.9322 7.55273C17.9824 7.76348 17.9953 7.9844 17.9986 8.33333M10.7142 1.00106V4.42222C10.7142 5.79124 10.7142 6.47527 10.9788 6.99817C11.2117 7.45812 11.5829 7.83281 12.0399 8.06717C12.5589 8.33333 13.2386 8.33333 14.5961 8.33333H17.9986M17.9986 8.33333H18" stroke="white" stroke-width="2" stroke-linecap="round" stroke-linejoin="round"/>
</svg>
