<svg width="18" height="21" viewBox="0 0 18 21" fill="none" xmlns="http://www.w3.org/2000/svg">
<path d="M10.5029 0.75C10.7502 0.750257 10.958 0.960131 10.958 1.20996V4.42969C10.958 6.25962 12.443 7.75942 14.2646 7.76953C15.0071 7.76953 15.6012 7.78027 16.0566 7.78027C16.3636 7.78027 16.8692 7.76953 17.2949 7.76953C17.5422 7.76973 17.7498 7.96998 17.75 8.21973V16.2598C17.75 18.7396 15.7502 20.7498 13.2949 20.75H5.42285C2.8389 20.7498 0.750021 18.6399 0.75 16.04V5.25977C0.750126 2.77987 2.74065 0.75 5.21582 0.75H10.5029ZM8.88867 7.49023C8.78971 7.49023 8.69064 7.50985 8.60156 7.5498C8.51255 7.58976 8.43351 7.64008 8.36426 7.70996L5.53223 10.5898C5.24515 10.8798 5.24525 11.3496 5.53223 11.6396C5.81936 11.9296 6.28514 11.9296 6.57227 11.6396L8.14648 10.04V14.8701C8.14655 15.2801 8.47287 15.6104 8.88867 15.6104C9.29455 15.6103 9.62103 15.28 9.62109 14.8701V10.04L11.1953 11.6396C11.4824 11.9296 11.9482 11.9296 12.2354 11.6396C12.5321 11.3496 12.5322 10.8798 12.2451 10.5898L9.40332 7.70996C9.33405 7.64003 9.25506 7.58978 9.16602 7.5498C9.07692 7.50981 8.98766 7.49024 8.88867 7.49023ZM12.3955 1.65625C12.3955 1.22525 12.912 1.01127 13.208 1.32227C14.2793 2.44625 16.1498 4.4108 17.1953 5.50879C17.4834 5.81179 17.2713 6.31541 16.8545 6.31641C16.0408 6.3194 15.0826 6.31559 14.3926 6.30859C13.2975 6.30859 12.3955 5.39799 12.3955 4.29199V1.65625Z" fill="white"/>
</svg>
