<svg width="20" height="20" viewBox="0 0 20 20" fill="none" xmlns="http://www.w3.org/2000/svg">
<path d="M14.1971 0H5.8129C2.17108 0 0 2.17 0 5.81V14.18C0 17.83 2.17108 20 5.8129 20H14.1871C17.8289 20 20 17.83 20 14.19V5.81C20.01 2.17 17.8389 0 14.1971 0ZM6.47323 6.98L9.47472 3.98C9.54476 3.91 9.6248 3.86 9.71484 3.82C9.89493 3.74 10.105 3.74 10.2851 3.82C10.3752 3.86 10.4552 3.91 10.5252 3.98L13.5267 6.98C13.8169 7.27 13.8169 7.75 13.5267 8.04C13.3767 8.19 13.1866 8.26 12.9965 8.26C12.8064 8.26 12.6163 8.19 12.4662 8.04L10.7454 6.32V12.51C10.7454 12.92 10.4052 13.26 9.99498 13.26C9.58478 13.26 9.24461 12.92 9.24461 12.51V6.32L7.52375 8.04C7.2336 8.33 6.75337 8.33 6.46322 8.04C6.17308 7.75 6.18308 7.28 6.47323 6.98ZM16.2481 15.22C14.2371 15.89 12.126 16.23 10.005 16.23C7.88393 16.23 5.77288 15.89 3.76187 15.22C3.37168 15.09 3.16158 14.66 3.29164 14.27C3.42171 13.88 3.85192 13.66 4.24211 13.8C7.96397 15.04 12.056 15.04 15.7779 13.8C16.1681 13.67 16.5983 13.88 16.7283 14.27C16.8484 14.67 16.6383 15.09 16.2481 15.22Z" fill="#E8E8E8"/>
</svg>
