<svg width="18" height="14" viewBox="0 0 18 14" fill="none" xmlns="http://www.w3.org/2000/svg">
<path d="M13.1951 13.4262C13.1951 12.018 11.2711 10.8764 8.89777 10.8764C6.52443 10.8764 4.60045 12.018 4.60045 13.4262M16.6329 10.8768C16.6329 9.83117 15.5723 8.93258 14.0546 8.53912M1.1626 10.8768C1.1626 9.83117 2.22326 8.93258 3.74099 8.53912M14.0546 5.12758C14.5821 4.6607 14.914 3.98221 14.914 3.22704C14.914 1.81883 13.7596 0.677246 12.3356 0.677246C11.6753 0.677246 11.0729 0.922752 10.6167 1.3265M3.74099 5.12758C3.21349 4.6607 2.88153 3.98221 2.88153 3.22704C2.88153 1.81883 4.03591 0.677246 5.45992 0.677246C6.12029 0.677246 6.72268 0.922752 7.17884 1.3265M8.89777 8.32664C7.47377 8.32664 6.31938 7.18505 6.31938 5.77684C6.31938 4.36863 7.47377 3.22704 8.89777 3.22704C10.3218 3.22704 11.4762 4.36863 11.4762 5.77684C11.4762 7.18505 10.3218 8.32664 8.89777 8.32664Z" stroke="#1A72FF" stroke-linecap="round" stroke-linejoin="round"/>
</svg>
