<svg width="15" height="12" viewBox="0 0 15 12" fill="none" xmlns="http://www.w3.org/2000/svg">
<path d="M7.46533 7.90527C9.80465 7.90527 11.802 8.31297 11.8022 9.94531C11.8022 11.5772 9.8176 12 7.46533 12C5.12596 12 3.12842 11.5918 3.12842 9.95996C3.12881 8.32783 5.11337 7.90529 7.46533 7.90527ZM3.79541 6.92188C3.80864 6.92401 3.81568 6.93537 3.81689 6.94141C3.81858 6.95151 3.8142 6.96588 3.79736 6.97656C3.38344 7.20284 1.78596 8.18771 1.98682 10.2627C1.99514 10.353 1.9302 10.4298 1.84912 10.417C1.45578 10.3548 0.444102 10.1141 0.130371 9.36523C-0.0434659 8.96892 -0.0434249 8.50961 0.130371 8.11328C0.3355 7.63033 0.830746 7.29822 1.5835 7.13477C1.93955 7.03953 2.90055 6.90364 3.79541 6.92188ZM11.2056 6.92188C12.1 6.90364 13.0622 7.03885 13.4175 7.13477C14.1698 7.29754 14.6644 7.62965 14.8696 8.1123C15.043 8.50879 15.043 8.96942 14.8696 9.36523C14.5557 10.1136 13.5452 10.3538 13.1519 10.416C13.0707 10.4295 13.0048 10.3524 13.0132 10.2627C13.214 8.18742 11.6173 7.20308 11.2036 6.97656C11.1859 6.96645 11.1823 6.95087 11.1841 6.94141C11.1853 6.9347 11.1923 6.92401 11.2056 6.92188ZM7.46533 0C9.05813 0 10.3354 1.41188 10.3354 3.1748C10.3354 4.93697 9.05808 6.34961 7.46533 6.34961C5.87267 6.34951 4.5953 4.9369 4.59521 3.1748C4.59521 1.41194 5.87261 0.000103819 7.46533 0ZM3.63818 0.529297C3.80533 0.529297 3.96541 0.548913 4.12158 0.583984C4.14234 0.589388 4.16601 0.60083 4.17822 0.621094C4.19203 0.646677 4.18203 0.680905 4.16748 0.703125C3.70533 1.41978 3.43896 2.29392 3.43896 3.23145C3.43898 4.12971 3.68258 4.96644 4.10986 5.66211C4.15376 5.73361 4.11491 5.83063 4.0376 5.8457C3.93015 5.86664 3.81985 5.87748 3.70752 5.88086C2.58725 5.91328 1.58198 5.11501 1.3042 3.91406C0.892238 2.13039 2.09992 0.529539 3.63818 0.529297ZM11.3618 0.529297C12.9002 0.529348 14.1082 2.1312 13.6968 3.91504C13.4189 5.11579 12.4136 5.91323 11.2935 5.88086C11.1811 5.87748 11.0702 5.86597 10.9634 5.8457C10.8861 5.83064 10.8474 5.73456 10.8911 5.66309C11.3185 4.96737 11.562 4.1298 11.562 3.23145C11.5619 2.29419 11.2955 1.4206 10.8335 0.704102C10.8188 0.681812 10.8081 0.646761 10.8228 0.621094C10.8349 0.600377 10.8572 0.589404 10.8784 0.583984C11.0341 0.548861 11.1945 0.529297 11.3618 0.529297Z" fill="#E8E8E8"/>
</svg>
