<svg width="14" height="11" viewBox="0 0 14 11" fill="none" xmlns="http://www.w3.org/2000/svg">
<path d="M12.5355 10.3772C12.5355 9.28648 11.4775 8.35856 10.0006 8.01466M8.73316 10.3773C8.73316 8.99373 7.03078 7.87216 4.93079 7.87216C2.8308 7.87216 1.12842 8.99373 1.12842 10.3773M8.73316 5.99334C10.1332 5.99334 11.2681 4.87177 11.2681 3.48825C11.2681 2.10472 10.1332 0.983154 8.73316 0.983154M4.93079 5.99334C3.5308 5.99334 2.39588 4.87177 2.39588 3.48825C2.39588 2.10472 3.5308 0.983154 4.93079 0.983154C6.33079 0.983154 7.46571 2.10472 7.46571 3.48825C7.46571 4.87177 6.33079 5.99334 4.93079 5.99334Z" stroke="#1A72FF" stroke-linecap="round" stroke-linejoin="round"/>
</svg>
