<svg width="15" height="11" viewBox="0 0 15 11" fill="none" xmlns="http://www.w3.org/2000/svg">
<path d="M7.4635 7.2771C9.80257 7.27715 11.8001 7.6478 11.8004 9.13159C11.8004 10.615 9.81556 10.9997 7.4635 10.9998C5.12405 10.9998 3.12561 10.6288 3.12561 9.14526C3.12575 7.66124 5.11132 7.2771 7.4635 7.2771ZM3.7926 6.38354C3.80596 6.38542 3.81287 6.39561 3.81409 6.40112C3.81571 6.41032 3.81137 6.42369 3.79456 6.43335C3.3801 6.63938 1.78342 7.53407 1.98401 9.41968C1.99254 9.50182 1.92829 9.57167 1.84729 9.5603C1.45413 9.50381 0.442339 9.28523 0.12854 8.60425C-0.0453537 8.24392 -0.0452987 7.8269 0.12854 7.46655C0.333669 7.02751 0.827938 6.72453 1.58069 6.57593C1.93671 6.48935 2.89771 6.36697 3.7926 6.38354ZM11.2037 6.38257C12.098 6.36603 13.0594 6.48972 13.4147 6.5769C14.1673 6.7249 14.6627 7.02656 14.8678 7.46558C15.0411 7.82601 15.0412 8.24444 14.8678 8.60425C14.5539 9.28515 13.5422 9.50381 13.149 9.5603C13.0679 9.57257 13.0028 9.50134 13.0114 9.41968C13.2119 7.53301 11.6141 6.63806 11.2008 6.43237C11.1835 6.42327 11.1796 6.40971 11.1813 6.40112C11.1825 6.39498 11.1903 6.38441 11.2037 6.38257ZM7.46252 0.0905762C9.05521 0.0905762 10.3324 1.37382 10.3326 2.97632C10.3326 4.57838 9.05533 5.86304 7.46252 5.86304C5.86994 5.86278 4.59338 4.57822 4.59338 2.97632C4.59358 1.37398 5.87007 0.0908322 7.46252 0.0905762ZM11.359 0.572021C12.8974 0.572021 14.1052 2.02759 13.694 3.64917C13.4162 4.74095 12.4109 5.46673 11.2906 5.43726C11.1785 5.43418 11.0682 5.4234 10.9615 5.40503C10.8841 5.39154 10.8446 5.30408 10.8883 5.23901C11.3156 4.60661 11.5592 3.84565 11.5592 3.02905C11.5592 2.17675 11.2928 1.38173 10.8307 0.730225C10.8161 0.709953 10.8054 0.678244 10.8199 0.655029C10.8322 0.636165 10.8553 0.626716 10.8766 0.621826C11.0321 0.589943 11.1919 0.572033 11.359 0.572021ZM3.63635 0.571045C3.80352 0.571066 3.96356 0.588938 4.11975 0.62085C4.14044 0.625758 4.1632 0.636718 4.17542 0.655029C4.18946 0.678363 4.17933 0.709961 4.16467 0.730225C3.70267 1.38163 3.43621 2.17597 3.43616 3.02808C3.43616 3.84463 3.67984 4.60563 4.10706 5.23804C4.15101 5.30312 4.11231 5.39151 4.03479 5.40503C3.92734 5.42407 3.81704 5.43321 3.70471 5.43628C2.58457 5.46561 1.57915 4.74084 1.30139 3.64917C0.889302 2.02746 2.09789 0.571045 3.63635 0.571045Z" fill="#1A72FF"/>
</svg>
