<svg width="11" height="10" viewBox="0 0 11 10" fill="none" xmlns="http://www.w3.org/2000/svg">
<path d="M9.92276 4.37003L9.24276 3.58003C9.11276 3.43003 9.00776 3.15003 9.00776 2.95003V2.10003C9.00776 1.57003 8.57276 1.13503 8.04276 1.13503H7.19276C6.99776 1.13503 6.71276 1.03003 6.56276 0.900029L5.77276 0.220029C5.42776 -0.0749707 4.86276 -0.0749707 4.51276 0.220029L3.72776 0.905029C3.57776 1.03003 3.29276 1.13503 3.09776 1.13503H2.23276C1.70276 1.13503 1.26776 1.57003 1.26776 2.10003V2.95503C1.26776 3.15003 1.16276 3.43003 1.03776 3.58003L0.362764 4.37503C0.0727637 4.72003 0.0727637 5.28003 0.362764 5.62503L1.03776 6.42003C1.16276 6.57003 1.26776 6.85003 1.26776 7.04503V7.90003C1.26776 8.43003 1.70276 8.86503 2.23276 8.86503H3.09776C3.29276 8.86503 3.57776 8.97003 3.72776 9.10003L4.51776 9.78003C4.86276 10.075 5.42776 10.075 5.77776 9.78003L6.56776 9.10003C6.71776 8.97003 6.99776 8.86503 7.19776 8.86503H8.04776C8.57776 8.86503 9.01276 8.43003 9.01276 7.90003V7.05003C9.01276 6.85503 9.11776 6.57003 9.24776 6.42003L9.92776 5.63003C10.2178 5.28503 10.2178 4.71503 9.92276 4.37003ZM7.22276 4.05503L4.80776 6.47003C4.73776 6.54003 4.64276 6.58003 4.54276 6.58003C4.44276 6.58003 4.34776 6.54003 4.27776 6.47003L3.06776 5.26003C2.92276 5.11503 2.92276 4.87503 3.06776 4.73003C3.21276 4.58503 3.45276 4.58503 3.59776 4.73003L4.54276 5.67503L6.69276 3.52503C6.83776 3.38003 7.07776 3.38003 7.22276 3.52503C7.36776 3.67003 7.36776 3.91003 7.22276 4.05503Z" fill="#E8E8E8"/>
</svg>
