<svg width="24" height="22" viewBox="0 0 24 22" fill="none" xmlns="http://www.w3.org/2000/svg">
<path fill-rule="evenodd" clip-rule="evenodd" d="M18.9227 6.57776H24C24 2.42561 21.5573 0 17.4187 0H6.58133C2.44267 0 0 2.42561 0 6.5248V15.4752C0 19.5744 2.44267 22 6.58133 22H17.4187C21.5573 22 24 19.5744 24 15.4752V15.0939H18.9227C16.5663 15.0939 14.656 13.197 14.656 10.857C14.656 8.51704 16.5663 6.62013 18.9227 6.62013V6.57776ZM18.9227 8.3995H23.104C23.5988 8.3995 24 8.79785 24 9.28924V12.3822C23.9942 12.8712 23.5964 13.2662 23.104 13.2719H19.0187C17.8257 13.2878 16.7826 12.4768 16.512 11.3229C16.3765 10.6067 16.5667 9.86757 17.0317 9.3037C17.4966 8.73983 18.1888 8.40886 18.9227 8.3995ZM19.104 11.6514H19.4986C20.0053 11.6514 20.416 11.2436 20.416 10.7405C20.416 10.2374 20.0053 9.82954 19.4986 9.82954H19.104C18.8617 9.82671 18.6283 9.92032 18.456 10.0895C18.2836 10.2586 18.1866 10.4893 18.1866 10.7299C18.1866 11.2347 18.5956 11.6456 19.104 11.6514ZM5.6854 6.57766H12.4587C12.9654 6.57766 13.3761 6.16983 13.3761 5.66673C13.3761 5.16364 12.9654 4.75581 12.4587 4.75581H5.6854C5.18291 4.75577 4.77391 5.15719 4.76807 5.65614C4.76803 6.16098 5.17705 6.57186 5.6854 6.57766Z" fill="#E8E8E8"/>
</svg>
