<svg width="23" height="20" viewBox="0 0 23 20" fill="none" xmlns="http://www.w3.org/2000/svg">
<path d="M16.0996 0C16.3986 0 16.6869 0.0125134 16.9629 0.0595703C19.7112 0.38912 21.5624 2.34163 21.8154 5.2002C21.8499 5.54136 21.5737 5.82324 21.2402 5.82324H19.458C18.3541 5.82324 17.3307 6.25887 16.5947 7.03516C15.7208 7.90561 15.2833 9.12919 15.3867 10.3525C15.5707 12.4935 17.4108 14.1766 19.5957 14.1768H21.2402C21.5737 14.1768 21.8499 14.4586 21.8154 14.7998C21.5394 17.9408 19.3196 20 16.0996 20H5.75C2.576 20 0 17.3641 0 14.1172V5.88281C0 2.68301 1.88596 0.447812 4.81836 0.0712891C5.11736 0.0242321 5.428 0 5.75 0H16.0996ZM21.8496 7.58887C22.4935 7.61239 22.9999 8.14118 23 8.78809V11.2119C22.9999 11.8589 22.4936 12.3886 21.8496 12.4121H19.5957C18.3538 12.412 17.2159 11.4823 17.1123 10.2119C17.0433 9.47077 17.3188 8.77628 17.8018 8.29395C18.2273 7.84695 18.814 7.58887 19.458 7.58887H21.8496ZM5.75 5.58887C5.27851 5.58887 4.8877 5.98838 4.8877 6.4707C4.8877 6.95304 5.2785 7.35352 5.75 7.35352H12.6504C13.1217 7.35329 13.5127 6.9529 13.5127 6.4707C13.5127 5.98851 13.1217 5.58909 12.6504 5.58887H5.75Z" fill="#E8E8E8"/>
</svg>
