<svg width="15" height="13" viewBox="0 0 15 13" fill="none" xmlns="http://www.w3.org/2000/svg">
<path d="M12.5689 9.5V11.5C12.5689 11.7652 12.4632 12.0196 12.2753 12.2071C12.0873 12.3946 11.8323 12.5 11.5664 12.5H2.04344C1.77757 12.5 1.52261 12.3946 1.33462 12.2071C1.14663 12.0196 1.04102 11.7652 1.04102 11.5V4C1.04102 2.34315 2.38742 1 4.04828 1H10.564V3.5" stroke="#1A72FF" stroke-linecap="round" stroke-linejoin="round"/>
<path d="M13.5712 6.5H10.0627C9.78593 6.5 9.56152 6.72386 9.56152 7V9C9.56152 9.2761 9.78593 9.5 10.0627 9.5H13.5712C13.848 9.5 14.0724 9.2761 14.0724 9V7C14.0724 6.72386 13.848 6.5 13.5712 6.5Z" stroke="#1A72FF" stroke-linecap="round" stroke-linejoin="round"/>
<path d="M12.5689 6.5V4.5C12.5689 4.23478 12.4633 3.98043 12.2753 3.79289C12.0874 3.60536 11.8323 3.5 11.5665 3.5H10.5641H4.04834" stroke="#1A72FF" stroke-linecap="round" stroke-linejoin="round"/>
</svg>
