<svg width="20" height="20" viewBox="0 0 20 20" fill="none" xmlns="http://www.w3.org/2000/svg">
<path fill-rule="evenodd" clip-rule="evenodd" d="M0 10C0 5.28595 0 2.92893 1.46447 1.46447C2.92893 0 5.28595 0 10 0C14.714 0 17.0711 0 18.5355 1.46447C20 2.92893 20 5.28595 20 10C20 14.714 20 17.0711 18.5355 18.5355C17.0711 20 14.714 20 10 20C5.28595 20 2.92893 20 1.46447 18.5355C0 17.0711 0 14.714 0 10ZM3 6.49982V5.5C3 4.67157 3.67157 4 4.5 4H15.5C16.3284 4 17 4.67157 17 5.5V6.49982C16.5822 6.18597 16.0628 6 15.5 6H4.5C3.9372 6 3.41783 6.18597 3 6.49982ZM3 8.5V9.49982C3.41783 9.18597 3.9372 9 4.5 9H15.5C16.0628 9 16.5822 9.18597 17 9.49982V8.5C17 7.67157 16.3284 7 15.5 7H4.5C3.67157 7 3 7.67157 3 8.5ZM18 12.2502C18.4142 12.2502 18.75 12.5859 18.75 13.0002C18.75 13.4144 18.4142 13.7502 18 13.7502H15.6569C14.7782 13.7502 14.5477 13.7634 14.3501 13.8453C14.1524 13.9272 13.9801 14.0807 13.3588 14.7021L13.0543 15.0066C12.6223 15.4393 12.2811 15.7811 11.8467 15.9864C11.7658 16.0247 11.683 16.059 11.5987 16.0892C11.1464 16.2511 10.6634 16.2507 10.052 16.2502L9.94616 16.2502L9.83403 16.2502C9.18772 16.2508 8.67713 16.2512 8.20349 16.0718C8.11531 16.0384 8.02891 16.0005 7.94463 15.9582C7.49191 15.7311 7.14654 15.3551 6.70937 14.879L6.59805 14.7579C6.00971 14.1184 5.84554 13.9591 5.65508 13.8694C5.63492 13.8599 5.6145 13.8509 5.59386 13.8425C5.39887 13.7631 5.17044 13.7502 4.30147 13.7502H2C1.58579 13.7502 1.25 13.4144 1.25 13.0002C1.25 12.5859 1.58579 12.2502 2 12.2502L3.02051 12.2501V11.2503C3.13939 10.5407 3.75646 10 4.49983 10H15.4998C16.2432 10 16.8603 10.5407 16.9791 11.2503V12.2501L18 12.2502Z" fill="#E8E8E8"/>
</svg>
