<svg width="19" height="18" viewBox="0 0 19 18" fill="none" xmlns="http://www.w3.org/2000/svg">
<path d="M5.58044 4.94217H4.36546C3.07399 4.94217 2.4288 4.94217 1.96946 5.20347C1.56638 5.43278 1.25653 5.795 1.09473 6.22703C0.910466 6.71904 1.01653 7.35017 1.22858 8.612L1.22902 8.61437L2.1565 14.1334C2.31383 15.0696 2.39301 15.5379 2.62856 15.8892C2.83618 16.1989 3.12764 16.4437 3.46975 16.5959C3.85785 16.7686 4.33617 16.7687 5.29319 16.7687H13.8177C14.7747 16.7687 15.2527 16.7686 15.6408 16.5959C15.983 16.4437 16.2746 16.1989 16.4823 15.8892C16.7178 15.5379 16.7966 15.0696 16.9539 14.1334L17.8814 8.61437L17.8823 8.61052C18.0942 7.34968 18.2002 6.71884 18.016 6.22703C17.8542 5.795 17.5451 5.43278 17.142 5.20347C16.6827 4.94217 16.0364 4.94217 14.7449 4.94217H13.5302M5.58044 4.94217H13.5302M5.58044 4.94217C5.58044 2.76497 7.36006 1 9.55533 1C11.7506 1 13.5302 2.76497 13.5302 4.94217" stroke="#FDFEFF" stroke-linecap="round" stroke-linejoin="round"/>
</svg>
