<svg width="20" height="20" viewBox="0 0 20 20" fill="none" xmlns="http://www.w3.org/2000/svg">
<path d="M19.6592 10.8154C19.6992 10.7952 19.7596 10.7852 19.8096 10.8154C19.8964 10.8643 19.8993 10.9793 19.8994 10.9873L19.8193 16.1523C19.8191 18.2787 18.1185 20 16.0176 20H3.97168C1.87097 19.9998 0.17015 18.2786 0.169922 16.1523L0.0996094 10.9873C0.0997166 10.9793 0.103132 10.8645 0.189453 10.8154C0.26939 10.7649 0.369659 10.8257 0.379883 10.8359C2.40065 12.1927 4.83189 13.094 7.38281 13.4688C7.74284 13.5194 8.10388 13.2862 8.2041 12.9219C8.4242 12.0918 9.13427 11.5452 9.98438 11.5449H10.0146C10.865 11.545 11.5758 12.0915 11.7959 12.9219C11.896 13.2861 12.2563 13.5191 12.6162 13.4688C15.1671 13.0941 17.5984 12.1926 19.6191 10.8359C19.6191 10.8359 19.6394 10.8255 19.6592 10.8154ZM9.99414 12.9932C9.58443 12.9936 9.24432 13.3372 9.24414 13.752V15.0586C9.24433 15.4834 9.58443 15.8179 9.99414 15.8184C10.4142 15.8184 10.7449 15.4837 10.7451 15.0586V13.752C10.7449 13.3369 10.4142 12.9932 9.99414 12.9932ZM11.2852 0C12.7858 0 14.0168 1.14412 14.207 2.6123H16.1885C18.2893 2.61252 19.9999 4.34433 20 6.4707C20 6.4707 19.9399 7.37134 19.9199 8.625C19.9179 8.72411 19.8699 8.82119 19.791 8.87988C19.3098 9.23532 18.8691 9.52955 18.8291 9.5498C17.1684 10.6636 15.2385 11.4471 13.1826 11.8369C13.0486 11.8632 12.9167 11.7933 12.8486 11.6738C12.2724 10.6754 11.1957 10.0254 9.99512 10.0254C8.80255 10.0254 7.71635 10.6685 7.12305 11.668C7.05401 11.7854 6.92311 11.8534 6.79004 11.8281C4.75124 11.4372 2.82159 10.6541 1.1709 9.55957L0.209961 8.89062C0.130205 8.84002 0.0802028 8.74942 0.0800781 8.64844C0.0500631 8.13198 0 6.4707 0 6.4707C8.05538e-05 4.34433 1.7107 2.61251 3.81152 2.6123H5.7832C5.97345 1.14422 7.20359 0.000127476 8.7041 0H11.2852ZM8.7041 1.51855C8.03399 1.51867 7.46389 1.98471 7.30371 2.6123H12.6865C12.5263 1.9846 11.9554 1.51855 11.2852 1.51855H8.7041Z" fill="#707070"/>
</svg>
