<svg width="13" height="13" viewBox="0 0 13 13" fill="none" xmlns="http://www.w3.org/2000/svg">
<path d="M11.1871 3.42838H9.933C9.64299 3.42838 9.43831 3.13547 9.43831 2.84546C9.43831 1.87963 8.65536 1.09668 7.68953 1.09668C6.72371 1.09668 5.94075 1.87963 5.94075 2.84546C5.94075 3.13547 5.73605 3.42838 5.44604 3.42838H4.19197C3.87003 3.42838 3.60905 3.68937 3.60905 4.01131V5.26538C3.60905 5.55539 3.31613 5.76009 3.02612 5.76009C2.0603 5.76009 1.27734 6.54304 1.27734 7.50887C1.27734 8.47469 2.0603 9.25765 3.02612 9.25765C3.31613 9.25765 3.60905 9.46233 3.60905 9.75234V11.0064C3.60905 11.3284 3.87003 11.5894 4.19197 11.5894L11.1871 11.5894C11.509 11.5894 11.77 11.3283 11.77 11.0064V9.75234C11.77 9.46233 11.4771 9.25765 11.1871 9.25765C10.2213 9.25765 9.43831 8.47469 9.43831 7.50887C9.43831 6.54304 10.2213 5.76009 11.1871 5.76009C11.4771 5.76009 11.77 5.55539 11.77 5.26538L11.77 4.01131C11.77 3.68937 11.509 3.42838 11.1871 3.42838Z" stroke="#1A72FF" stroke-linecap="round" stroke-linejoin="round"/>
</svg>
