<svg width="20" height="20" viewBox="0 0 20 20" fill="none" xmlns="http://www.w3.org/2000/svg">
<path d="M9.99996 18.9999C14.9706 18.9999 18.9999 14.9706 18.9999 9.99996C18.9999 5.02942 14.9706 1 9.99996 1C5.02942 1 1 5.02942 1 9.99996C1 14.9706 5.02942 18.9999 9.99996 18.9999Z" stroke="#1A72FF" stroke-width="2" stroke-linecap="round" stroke-linejoin="round"/>
<path d="M1.69238 13.4614H4.11545C4.75809 13.4614 5.3744 13.2061 5.82882 12.7517C6.28323 12.2973 6.53851 11.6809 6.53851 11.0383V8.96138C6.53851 8.31875 6.79379 7.70243 7.24821 7.24801C7.70262 6.7936 8.31894 6.53832 8.96158 6.53832C9.60422 6.53832 10.2205 6.28302 10.6749 5.82861C11.1294 5.3742 11.3846 4.75789 11.3846 4.11525V1.0968" stroke="#1A72FF" stroke-width="2" stroke-linecap="round" stroke-linejoin="round"/>
<path d="M19.0001 9.86146C18.3068 9.50175 17.5381 9.31192 16.757 9.30762H13.8078C13.1652 9.30762 12.5489 9.5629 12.0945 10.0173C11.64 10.4717 11.3848 11.088 11.3848 11.7307C11.3848 12.3733 11.64 12.9896 12.0945 13.4441C12.5489 13.8985 13.1652 14.1537 13.8078 14.1537C14.2668 14.1537 14.7071 14.3361 15.0317 14.6607C15.3562 14.9852 15.5386 15.4255 15.5386 15.8845V17.0891" stroke="#1A72FF" stroke-width="2" stroke-linecap="round" stroke-linejoin="round"/>
</svg>
